%TF.GenerationSoftware,KiCad,Pcbnew,10.0.5*%
%TF.CreationDate,2026-10-08T12:02:18+05:30*%
%TF.ProjectId,RIS,5249532e-6b69-4636-9164-5f7063625858,rev?*%
%TF.SameCoordinates,Original*%
%TF.FileFunction,Copper,L1,Top*%
%TF.FilePolarity,Positive*%
%FSLAX46Y46*%
G04 Gerber Fmt 4.6, Leading zero omitted, Abs format (unit mm)*
G04 Created by KiCad (PCBNEW 10.0.5) date 2026-10-08 12:02:18*
%MOMM*%
%LPD*%
G01*
G04 APERTURE LIST*
G04 Aperture macros list*
%AMRoundRect*
0 Rectangle with rounded corners*
0 $1 Rounding radius*
0 $2 $3 $4 $5 $6 $7 $8 $9 X,Y pos of 4 corners*
0 Add a 4 corners polygon primitive as box body*
4,1,4,$2,$3,$4,$5,$6,$7,$8,$9,$2,$3,0*
0 Add four circle primitives for the rounded corners*
1,1,$1+$1,$2,$3*
1,1,$1+$1,$4,$5*
1,1,$1+$1,$6,$7*
1,1,$1+$1,$8,$9*
0 Add four rect primitives between the rounded corners*
20,1,$1+$1,$2,$3,$4,$5,0*
20,1,$1+$1,$4,$5,$6,$7,0*
20,1,$1+$1,$6,$7,$8,$9,0*
20,1,$1+$1,$8,$9,$2,$3,0*%
G04 Aperture macros list end*
%TA.AperFunction,Conductor*%
%ADD10C,0.000000*%
%TD*%
%TA.AperFunction,Conductor*%
%ADD11C,0.200000*%
%TD*%
%TA.AperFunction,SMDPad,CuDef*%
%ADD12RoundRect,0.150000X-0.587500X-0.150000X0.587500X-0.150000X0.587500X0.150000X-0.587500X0.150000X0*%
%TD*%
%TA.AperFunction,SMDPad,CuDef*%
%ADD13RoundRect,0.135000X0.135000X0.185000X-0.135000X0.185000X-0.135000X-0.185000X0.135000X-0.185000X0*%
%TD*%
%TA.AperFunction,SMDPad,CuDef*%
%ADD14RoundRect,0.218750X-0.218750X-0.256250X0.218750X-0.256250X0.218750X0.256250X-0.218750X0.256250X0*%
%TD*%
%TA.AperFunction,SMDPad,CuDef*%
%ADD15RoundRect,0.135000X-0.185000X0.135000X-0.185000X-0.135000X0.185000X-0.135000X0.185000X0.135000X0*%
%TD*%
%TA.AperFunction,SMDPad,CuDef*%
%ADD16RoundRect,0.225000X-0.250000X0.225000X-0.250000X-0.225000X0.250000X-0.225000X0.250000X0.225000X0*%
%TD*%
%TA.AperFunction,SMDPad,CuDef*%
%ADD17RoundRect,0.135000X-0.135000X-0.185000X0.135000X-0.185000X0.135000X0.185000X-0.135000X0.185000X0*%
%TD*%
%TA.AperFunction,ViaPad*%
%ADD18C,0.600000*%
%TD*%
%TA.AperFunction,Profile*%
%ADD19C,0.050000*%
%TD*%
G04 APERTURE END LIST*
D10*
%TA.AperFunction,Conductor*%
%TO.N,unconnected-(L1-Pad2)*%
G36*
X124190000Y-90396369D02*
G01*
X123040000Y-90396369D01*
X123040000Y-88630000D01*
X124190000Y-88630000D01*
X124190000Y-90396369D01*
G37*
%TD.AperFunction*%
%TA.AperFunction,Conductor*%
%TO.N,unconnected-(L2-Pad1)*%
G36*
X136940000Y-90450000D02*
G01*
X135790000Y-90450000D01*
X135790000Y-88830000D01*
X136940000Y-88830000D01*
X136940000Y-90450000D01*
G37*
%TD.AperFunction*%
%TA.AperFunction,Conductor*%
G36*
X135790801Y-90450000D02*
G01*
X130790801Y-90450000D01*
X130790801Y-90600000D01*
X143990801Y-90600000D01*
X143990801Y-100600000D01*
X115990801Y-100600000D01*
X115990801Y-90600000D01*
X130190801Y-90600000D01*
X130190801Y-90200000D01*
X130790801Y-90200000D01*
X135790801Y-90200000D01*
X135790801Y-90450000D01*
G37*
%TD.AperFunction*%
%TA.AperFunction,Conductor*%
%TO.N,unconnected-(L1-Pad2)*%
G36*
X149990801Y-90000000D02*
G01*
X145990801Y-90000000D01*
X145990301Y-89890407D01*
X145982295Y-89671366D01*
X145966296Y-89452764D01*
X145942323Y-89234891D01*
X145910409Y-89018040D01*
X145870597Y-88802499D01*
X145822939Y-88588556D01*
X145767499Y-88376496D01*
X145704352Y-88166603D01*
X145633580Y-87959156D01*
X145555280Y-87754431D01*
X145469555Y-87552703D01*
X145376520Y-87354241D01*
X145276298Y-87159309D01*
X145169024Y-86968167D01*
X145054841Y-86781070D01*
X144933900Y-86598269D01*
X144806365Y-86420006D01*
X144672403Y-86246521D01*
X144532195Y-86078043D01*
X144385928Y-85914799D01*
X144233796Y-85757005D01*
X144076002Y-85604873D01*
X143912758Y-85458606D01*
X143744280Y-85318398D01*
X143570795Y-85184436D01*
X143392532Y-85056901D01*
X143209731Y-84935960D01*
X143022634Y-84821777D01*
X142831492Y-84714503D01*
X142636560Y-84614281D01*
X142438098Y-84521246D01*
X142236370Y-84435521D01*
X142031645Y-84357221D01*
X141824198Y-84286449D01*
X141614305Y-84223302D01*
X141402245Y-84167862D01*
X141188302Y-84120204D01*
X140972761Y-84080392D01*
X140755910Y-84048478D01*
X140538037Y-84024505D01*
X140319435Y-84008506D01*
X140100394Y-84000500D01*
X139881208Y-84000500D01*
X139662167Y-84008506D01*
X139443565Y-84024505D01*
X139225692Y-84048478D01*
X139008841Y-84080392D01*
X138793300Y-84120204D01*
X138579357Y-84167862D01*
X138367297Y-84223302D01*
X138157404Y-84286449D01*
X137949957Y-84357221D01*
X137745232Y-84435521D01*
X137543504Y-84521246D01*
X137345042Y-84614281D01*
X137150110Y-84714503D01*
X136958968Y-84821777D01*
X136771871Y-84935960D01*
X136589070Y-85056901D01*
X136410807Y-85184436D01*
X136237322Y-85318398D01*
X136068844Y-85458606D01*
X135905600Y-85604873D01*
X135747806Y-85757005D01*
X135595674Y-85914799D01*
X135449407Y-86078043D01*
X135309199Y-86246521D01*
X135175237Y-86420006D01*
X135047702Y-86598269D01*
X134926761Y-86781070D01*
X134812578Y-86968167D01*
X134705304Y-87159309D01*
X134605082Y-87354241D01*
X134512047Y-87552703D01*
X134426322Y-87754431D01*
X134348022Y-87959156D01*
X134277250Y-88166603D01*
X134214103Y-88376496D01*
X134158663Y-88588556D01*
X134111005Y-88802499D01*
X134071193Y-89018040D01*
X134039279Y-89234891D01*
X134015306Y-89452764D01*
X133999307Y-89671366D01*
X133991301Y-89890407D01*
X133990801Y-90000000D01*
X129790801Y-90000000D01*
X129790801Y-90400000D01*
X129190801Y-90400000D01*
X124190801Y-90400000D01*
X124190801Y-90150000D01*
X129190801Y-90150000D01*
X129190801Y-90000000D01*
X125990801Y-90000000D01*
X125990301Y-89890407D01*
X125982295Y-89671366D01*
X125966296Y-89452764D01*
X125942323Y-89234891D01*
X125910409Y-89018040D01*
X125870597Y-88802499D01*
X125822939Y-88588556D01*
X125767499Y-88376496D01*
X125704352Y-88166603D01*
X125633580Y-87959156D01*
X125555280Y-87754431D01*
X125469555Y-87552703D01*
X125376520Y-87354241D01*
X125276298Y-87159309D01*
X125169024Y-86968167D01*
X125054841Y-86781070D01*
X124933900Y-86598269D01*
X124806365Y-86420006D01*
X124672403Y-86246521D01*
X124532195Y-86078043D01*
X124385928Y-85914799D01*
X124233796Y-85757005D01*
X124076002Y-85604873D01*
X123912758Y-85458606D01*
X123744280Y-85318398D01*
X123570795Y-85184436D01*
X123392532Y-85056901D01*
X123209731Y-84935960D01*
X123022634Y-84821777D01*
X122831492Y-84714503D01*
X122636560Y-84614281D01*
X122438098Y-84521246D01*
X122236370Y-84435521D01*
X122031645Y-84357221D01*
X121824198Y-84286449D01*
X121614305Y-84223302D01*
X121402245Y-84167862D01*
X121188302Y-84120204D01*
X120972761Y-84080392D01*
X120755910Y-84048478D01*
X120538037Y-84024505D01*
X120319435Y-84008506D01*
X120100394Y-84000500D01*
X119881208Y-84000500D01*
X119662167Y-84008506D01*
X119443565Y-84024505D01*
X119225692Y-84048478D01*
X119008841Y-84080392D01*
X118793300Y-84120204D01*
X118579357Y-84167862D01*
X118367297Y-84223302D01*
X118157404Y-84286449D01*
X117949957Y-84357221D01*
X117745232Y-84435521D01*
X117543504Y-84521246D01*
X117345042Y-84614281D01*
X117150110Y-84714503D01*
X116958968Y-84821777D01*
X116771871Y-84935960D01*
X116589070Y-85056901D01*
X116410807Y-85184436D01*
X116237322Y-85318398D01*
X116068844Y-85458606D01*
X115905600Y-85604873D01*
X115747806Y-85757005D01*
X115595674Y-85914799D01*
X115449407Y-86078043D01*
X115309199Y-86246521D01*
X115175237Y-86420006D01*
X115047702Y-86598269D01*
X114926761Y-86781070D01*
X114812578Y-86968167D01*
X114705304Y-87159309D01*
X114605082Y-87354241D01*
X114512047Y-87552703D01*
X114426322Y-87754431D01*
X114348022Y-87959156D01*
X114277250Y-88166603D01*
X114214103Y-88376496D01*
X114158663Y-88588556D01*
X114111005Y-88802499D01*
X114071193Y-89018040D01*
X114039279Y-89234891D01*
X114015306Y-89452764D01*
X113999307Y-89671366D01*
X113991301Y-89890407D01*
X113990801Y-90000000D01*
X109990801Y-90000000D01*
X109990801Y-60000000D01*
X149990801Y-60000000D01*
X149990801Y-90000000D01*
G37*
%TD.AperFunction*%
%TO.N,/GPIO*%
D11*
X101720000Y-91580000D02*
X103720000Y-91580000D01*
X103720000Y-93580000D01*
X101720000Y-93580000D01*
X101720000Y-91580000D01*
%TA.AperFunction,Conductor*%
G36*
X101720000Y-91580000D02*
G01*
X103720000Y-91580000D01*
X103720000Y-93580000D01*
X101720000Y-93580000D01*
X101720000Y-91580000D01*
G37*
%TD.AperFunction*%
%TO.N,+3.3V*%
X101780000Y-94180000D02*
X103780000Y-94180000D01*
X103780000Y-96180000D01*
X101780000Y-96180000D01*
X101780000Y-94180000D01*
%TA.AperFunction,Conductor*%
G36*
X101780000Y-94180000D02*
G01*
X103780000Y-94180000D01*
X103780000Y-96180000D01*
X101780000Y-96180000D01*
X101780000Y-94180000D01*
G37*
%TD.AperFunction*%
%TD*%
D12*
%TO.P,Q1,1,G_1*%
%TO.N,Net-(Q1-G)*%
X109322500Y-92880000D03*
%TO.P,Q1,2,S_2*%
%TO.N,+3.3V*%
X109322500Y-94780000D03*
%TO.P,Q1,3,D_3*%
%TO.N,Net-(Q1-D)*%
X111197500Y-93830000D03*
%TD*%
D13*
%TO.P,R2,1*%
%TO.N,Net-(Q1-G)*%
X104370000Y-89520000D03*
%TO.P,R2,2*%
%TO.N,/GPIO*%
X103350000Y-89520000D03*
%TD*%
D14*
%TO.P,L1,1,1_1*%
%TO.N,Net-(L1-Pad1)*%
X121472500Y-89420000D03*
%TO.P,L1,2,2_2*%
%TO.N,unconnected-(L1-Pad2)*%
X123047500Y-89420000D03*
%TD*%
D15*
%TO.P,R3,1*%
%TO.N,Net-(Q1-G)*%
X105450000Y-92740000D03*
%TO.P,R3,2*%
%TO.N,+3.3V*%
X105450000Y-93760000D03*
%TD*%
D14*
%TO.P,L2,1,1_1*%
%TO.N,unconnected-(L2-Pad1)*%
X137072500Y-89600000D03*
%TO.P,L2,2,2_2*%
%TO.N,GND*%
X138647500Y-89600000D03*
%TD*%
D16*
%TO.P,C2,1*%
%TO.N,+3.3V*%
X108080000Y-97125000D03*
%TO.P,C2,2*%
%TO.N,GND*%
X108080000Y-98675000D03*
%TD*%
D17*
%TO.P,R1,1*%
%TO.N,Net-(Q1-D)*%
X113260000Y-93780000D03*
%TO.P,R1,2*%
%TO.N,Net-(L1-Pad1)*%
X114280000Y-93780000D03*
%TD*%
D16*
%TO.P,C1,1*%
%TO.N,+3.3V*%
X104860000Y-97105000D03*
%TO.P,C1,2*%
%TO.N,GND*%
X104860000Y-98655000D03*
%TD*%
D18*
%TO.N,GND*%
X155180000Y-92360000D03*
X106440000Y-101090000D03*
%TD*%
%TO.N,Net-(Q1-G)*%
D11*
X104370000Y-89520000D02*
X107050000Y-89520000D01*
X107050000Y-89520000D02*
X107070000Y-89500000D01*
X107140000Y-92900000D02*
X107140000Y-92420000D01*
X106820000Y-92740000D02*
X107140000Y-92420000D01*
X107070000Y-89500000D02*
X107140000Y-89570000D01*
X107160000Y-92880000D02*
X107140000Y-92900000D01*
X107140000Y-89570000D02*
X107140000Y-92420000D01*
X109322500Y-92880000D02*
X107160000Y-92880000D01*
X105450000Y-92740000D02*
X106820000Y-92740000D01*
%TO.N,+3.3V*%
X105450000Y-93760000D02*
X105450000Y-94730000D01*
X104860000Y-94810000D02*
X104890000Y-94780000D01*
X108060000Y-97105000D02*
X108080000Y-97125000D01*
X106760000Y-94780000D02*
X105500000Y-94780000D01*
X104890000Y-94780000D02*
X103190000Y-94780000D01*
X105500000Y-94780000D02*
X104890000Y-94780000D01*
X105450000Y-94730000D02*
X105500000Y-94780000D01*
X104860000Y-97105000D02*
X104860000Y-94810000D01*
X103190000Y-94780000D02*
X102790000Y-95180000D01*
X108080000Y-97125000D02*
X108080000Y-96100000D01*
X109322500Y-94780000D02*
X106760000Y-94780000D01*
X108080000Y-96100000D02*
X106760000Y-94780000D01*
%TO.N,Net-(Q1-D)*%
X111247500Y-93780000D02*
X111197500Y-93830000D01*
X113260000Y-93780000D02*
X111247500Y-93780000D01*
%TO.N,/GPIO*%
X103350000Y-90680000D02*
X103350000Y-89520000D01*
X102720000Y-91310000D02*
X103350000Y-90680000D01*
X102720000Y-92580000D02*
X102720000Y-91310000D01*
%TO.N,Net-(L1-Pad1)*%
X114280000Y-91080000D02*
X116000000Y-89360000D01*
X116060000Y-89420000D02*
X121472500Y-89420000D01*
X114280000Y-93780000D02*
X114280000Y-91080000D01*
X116000000Y-89360000D02*
X116060000Y-89420000D01*
%TO.N,unconnected-(L1-Pad2)*%
X130220000Y-74980000D02*
X130220000Y-74690000D01*
X130000000Y-75200000D02*
X130220000Y-74980000D01*
%TO.N,GND*%
X104970000Y-101100000D02*
X104980000Y-101090000D01*
X104860000Y-98655000D02*
X104860000Y-100990000D01*
X144770000Y-89600000D02*
X145380000Y-90210000D01*
X104980000Y-101090000D02*
X106440000Y-101090000D01*
X104860000Y-100990000D02*
X104970000Y-101100000D01*
X138647500Y-89600000D02*
X144770000Y-89600000D01*
X155160000Y-92340000D02*
X155180000Y-92360000D01*
X108060000Y-98655000D02*
X108080000Y-98675000D01*
X108080000Y-98675000D02*
X108080000Y-101090000D01*
X108080000Y-101090000D02*
X106440000Y-101090000D01*
X145380000Y-92340000D02*
X155160000Y-92340000D01*
X145380000Y-90210000D02*
X145380000Y-92340000D01*
%TD*%
D19*
X100500000Y-50000000D02*
X160500000Y-50000000D01*
X160500000Y-110000000D01*
X100500000Y-110000000D01*
X100500000Y-50000000D01*
M02*
