%TF.GenerationSoftware,KiCad,Pcbnew,10.0.5*%
%TF.CreationDate,2026-09-07T23:02:31+05:30*%
%TF.ProjectId,RIS,5249532e-6b69-4636-9164-5f7063625858,rev?*%
%TF.SameCoordinates,Original*%
%TF.FileFunction,Copper,L1,Top*%
%TF.FilePolarity,Positive*%
%FSLAX46Y46*%
G04 Gerber Fmt 4.6, Leading zero omitted, Abs format (unit mm)*
G04 Created by KiCad (PCBNEW 10.0.5) date 2026-09-07 23:02:31*
%MOMM*%
%LPD*%
G01*
G04 APERTURE LIST*
G04 Aperture macros list*
%AMRoundRect*
0 Rectangle with rounded corners*
0 $1 Rounding radius*
0 $2 $3 $4 $5 $6 $7 $8 $9 X,Y pos of 4 corners*
0 Add a 4 corners polygon primitive as box body*
4,1,4,$2,$3,$4,$5,$6,$7,$8,$9,$2,$3,0*
0 Add four circle primitives for the rounded corners*
1,1,$1+$1,$2,$3*
1,1,$1+$1,$4,$5*
1,1,$1+$1,$6,$7*
1,1,$1+$1,$8,$9*
0 Add four rect primitives between the rounded corners*
20,1,$1+$1,$2,$3,$4,$5,0*
20,1,$1+$1,$4,$5,$6,$7,0*
20,1,$1+$1,$6,$7,$8,$9,0*
20,1,$1+$1,$8,$9,$2,$3,0*%
G04 Aperture macros list end*
%TA.AperFunction,Conductor*%
%ADD10C,0.000000*%
%TD*%
%TA.AperFunction,Conductor*%
%ADD11C,0.200000*%
%TD*%
%TA.AperFunction,SMDPad,CuDef*%
%ADD12RoundRect,0.218750X-0.218750X-0.256250X0.218750X-0.256250X0.218750X0.256250X-0.218750X0.256250X0*%
%TD*%
%TA.AperFunction,SMDPad,CuDef*%
%ADD13RoundRect,0.150000X-0.587500X-0.150000X0.587500X-0.150000X0.587500X0.150000X-0.587500X0.150000X0*%
%TD*%
%TA.AperFunction,SMDPad,CuDef*%
%ADD14RoundRect,0.135000X0.135000X0.185000X-0.135000X0.185000X-0.135000X-0.185000X0.135000X-0.185000X0*%
%TD*%
%TA.AperFunction,SMDPad,CuDef*%
%ADD15RoundRect,0.135000X-0.185000X0.135000X-0.185000X-0.135000X0.185000X-0.135000X0.185000X0.135000X0*%
%TD*%
%TA.AperFunction,SMDPad,CuDef*%
%ADD16RoundRect,0.225000X-0.250000X0.225000X-0.250000X-0.225000X0.250000X-0.225000X0.250000X0.225000X0*%
%TD*%
%TA.AperFunction,SMDPad,CuDef*%
%ADD17RoundRect,0.135000X-0.135000X-0.185000X0.135000X-0.185000X0.135000X0.185000X-0.135000X0.185000X0*%
%TD*%
%TA.AperFunction,ViaPad*%
%ADD18C,0.600000*%
%TD*%
G04 APERTURE END LIST*
D10*
%TA.AperFunction,Conductor*%
%TO.N,unconnected-(L2-Pad1)*%
G36*
X136940000Y-90450000D02*
G01*
X135790000Y-90450000D01*
X135790000Y-88830000D01*
X136940000Y-88830000D01*
X136940000Y-90450000D01*
G37*
%TD.AperFunction*%
%TA.AperFunction,Conductor*%
%TO.N,unconnected-(L1-Pad2)*%
G36*
X124190000Y-90396369D02*
G01*
X123040000Y-90396369D01*
X123040000Y-88630000D01*
X124190000Y-88630000D01*
X124190000Y-90396369D01*
G37*
%TD.AperFunction*%
%TA.AperFunction,Conductor*%
%TO.N,unconnected-(L2-Pad1)*%
G36*
X135790801Y-90450000D02*
G01*
X130790801Y-90450000D01*
X130790801Y-90600000D01*
X143990801Y-90600000D01*
X143990801Y-100600000D01*
X115990801Y-100600000D01*
X115990801Y-90600000D01*
X130190801Y-90600000D01*
X130190801Y-90200000D01*
X130790801Y-90200000D01*
X135790801Y-90200000D01*
X135790801Y-90450000D01*
G37*
%TD.AperFunction*%
%TA.AperFunction,Conductor*%
%TO.N,unconnected-(L1-Pad2)*%
G36*
X149990801Y-90000000D02*
G01*
X145990801Y-90000000D01*
X145990301Y-89890407D01*
X145982295Y-89671366D01*
X145966296Y-89452764D01*
X145942323Y-89234891D01*
X145910409Y-89018040D01*
X145870597Y-88802499D01*
X145822939Y-88588556D01*
X145767499Y-88376496D01*
X145704352Y-88166603D01*
X145633580Y-87959156D01*
X145555280Y-87754431D01*
X145469555Y-87552703D01*
X145376520Y-87354241D01*
X145276298Y-87159309D01*
X145169024Y-86968167D01*
X145054841Y-86781070D01*
X144933900Y-86598269D01*
X144806365Y-86420006D01*
X144672403Y-86246521D01*
X144532195Y-86078043D01*
X144385928Y-85914799D01*
X144233796Y-85757005D01*
X144076002Y-85604873D01*
X143912758Y-85458606D01*
X143744280Y-85318398D01*
X143570795Y-85184436D01*
X143392532Y-85056901D01*
X143209731Y-84935960D01*
X143022634Y-84821777D01*
X142831492Y-84714503D01*
X142636560Y-84614281D01*
X142438098Y-84521246D01*
X142236370Y-84435521D01*
X142031645Y-84357221D01*
X141824198Y-84286449D01*
X141614305Y-84223302D01*
X141402245Y-84167862D01*
X141188302Y-84120204D01*
X140972761Y-84080392D01*
X140755910Y-84048478D01*
X140538037Y-84024505D01*
X140319435Y-84008506D01*
X140100394Y-84000500D01*
X139881208Y-84000500D01*
X139662167Y-84008506D01*
X139443565Y-84024505D01*
X139225692Y-84048478D01*
X139008841Y-84080392D01*
X138793300Y-84120204D01*
X138579357Y-84167862D01*
X138367297Y-84223302D01*
X138157404Y-84286449D01*
X137949957Y-84357221D01*
X137745232Y-84435521D01*
X137543504Y-84521246D01*
X137345042Y-84614281D01*
X137150110Y-84714503D01*
X136958968Y-84821777D01*
X136771871Y-84935960D01*
X136589070Y-85056901D01*
X136410807Y-85184436D01*
X136237322Y-85318398D01*
X136068844Y-85458606D01*
X135905600Y-85604873D01*
X135747806Y-85757005D01*
X135595674Y-85914799D01*
X135449407Y-86078043D01*
X135309199Y-86246521D01*
X135175237Y-86420006D01*
X135047702Y-86598269D01*
X134926761Y-86781070D01*
X134812578Y-86968167D01*
X134705304Y-87159309D01*
X134605082Y-87354241D01*
X134512047Y-87552703D01*
X134426322Y-87754431D01*
X134348022Y-87959156D01*
X134277250Y-88166603D01*
X134214103Y-88376496D01*
X134158663Y-88588556D01*
X134111005Y-88802499D01*
X134071193Y-89018040D01*
X134039279Y-89234891D01*
X134015306Y-89452764D01*
X133999307Y-89671366D01*
X133991301Y-89890407D01*
X133990801Y-90000000D01*
X129790801Y-90000000D01*
X129790801Y-90400000D01*
X129190801Y-90400000D01*
X124190801Y-90400000D01*
X124190801Y-90150000D01*
X129190801Y-90150000D01*
X129190801Y-90000000D01*
X125990801Y-90000000D01*
X125990301Y-89890407D01*
X125982295Y-89671366D01*
X125966296Y-89452764D01*
X125942323Y-89234891D01*
X125910409Y-89018040D01*
X125870597Y-88802499D01*
X125822939Y-88588556D01*
X125767499Y-88376496D01*
X125704352Y-88166603D01*
X125633580Y-87959156D01*
X125555280Y-87754431D01*
X125469555Y-87552703D01*
X125376520Y-87354241D01*
X125276298Y-87159309D01*
X125169024Y-86968167D01*
X125054841Y-86781070D01*
X124933900Y-86598269D01*
X124806365Y-86420006D01*
X124672403Y-86246521D01*
X124532195Y-86078043D01*
X124385928Y-85914799D01*
X124233796Y-85757005D01*
X124076002Y-85604873D01*
X123912758Y-85458606D01*
X123744280Y-85318398D01*
X123570795Y-85184436D01*
X123392532Y-85056901D01*
X123209731Y-84935960D01*
X123022634Y-84821777D01*
X122831492Y-84714503D01*
X122636560Y-84614281D01*
X122438098Y-84521246D01*
X122236370Y-84435521D01*
X122031645Y-84357221D01*
X121824198Y-84286449D01*
X121614305Y-84223302D01*
X121402245Y-84167862D01*
X121188302Y-84120204D01*
X120972761Y-84080392D01*
X120755910Y-84048478D01*
X120538037Y-84024505D01*
X120319435Y-84008506D01*
X120100394Y-84000500D01*
X119881208Y-84000500D01*
X119662167Y-84008506D01*
X119443565Y-84024505D01*
X119225692Y-84048478D01*
X119008841Y-84080392D01*
X118793300Y-84120204D01*
X118579357Y-84167862D01*
X118367297Y-84223302D01*
X118157404Y-84286449D01*
X117949957Y-84357221D01*
X117745232Y-84435521D01*
X117543504Y-84521246D01*
X117345042Y-84614281D01*
X117150110Y-84714503D01*
X116958968Y-84821777D01*
X116771871Y-84935960D01*
X116589070Y-85056901D01*
X116410807Y-85184436D01*
X116237322Y-85318398D01*
X116068844Y-85458606D01*
X115905600Y-85604873D01*
X115747806Y-85757005D01*
X115595674Y-85914799D01*
X115449407Y-86078043D01*
X115309199Y-86246521D01*
X115175237Y-86420006D01*
X115047702Y-86598269D01*
X114926761Y-86781070D01*
X114812578Y-86968167D01*
X114705304Y-87159309D01*
X114605082Y-87354241D01*
X114512047Y-87552703D01*
X114426322Y-87754431D01*
X114348022Y-87959156D01*
X114277250Y-88166603D01*
X114214103Y-88376496D01*
X114158663Y-88588556D01*
X114111005Y-88802499D01*
X114071193Y-89018040D01*
X114039279Y-89234891D01*
X114015306Y-89452764D01*
X113999307Y-89671366D01*
X113991301Y-89890407D01*
X113990801Y-90000000D01*
X109990801Y-90000000D01*
X109990801Y-60000000D01*
X149990801Y-60000000D01*
X149990801Y-90000000D01*
G37*
%TD.AperFunction*%
%TO.N,/GPIO*%
D11*
X101720000Y-91580000D02*
X103720000Y-91580000D01*
X103720000Y-93580000D01*
X101720000Y-93580000D01*
X101720000Y-91580000D01*
%TA.AperFunction,Conductor*%
G36*
X101720000Y-91580000D02*
G01*
X103720000Y-91580000D01*
X103720000Y-93580000D01*
X101720000Y-93580000D01*
X101720000Y-91580000D01*
G37*
%TD.AperFunction*%
%TO.N,+3.3V*%
X101780000Y-94180000D02*
X103780000Y-94180000D01*
X103780000Y-96180000D01*
X101780000Y-96180000D01*
X101780000Y-94180000D01*
%TA.AperFunction,Conductor*%
G36*
X101780000Y-94180000D02*
G01*
X103780000Y-94180000D01*
X103780000Y-96180000D01*
X101780000Y-96180000D01*
X101780000Y-94180000D01*
G37*
%TD.AperFunction*%
%TD*%
D12*
%TO.P,L1,2,2_2*%
%TO.N,unconnected-(L1-Pad2)*%
X123047500Y-89420000D03*
%TO.P,L1,1,1_1*%
%TO.N,Net-(L1-Pad1)*%
X121472500Y-89420000D03*
%TD*%
D13*
%TO.P,Q1,1,G_1*%
%TO.N,Net-(Q1-G)*%
X109322500Y-92880000D03*
%TO.P,Q1,2,S_2*%
%TO.N,+3.3V*%
X109322500Y-94780000D03*
%TO.P,Q1,3,D_3*%
%TO.N,Net-(Q1-D)*%
X111197500Y-93830000D03*
%TD*%
D14*
%TO.P,R2,1*%
%TO.N,Net-(Q1-G)*%
X104370000Y-89520000D03*
%TO.P,R2,2*%
%TO.N,/GPIO*%
X103350000Y-89520000D03*
%TD*%
D15*
%TO.P,R3,1*%
%TO.N,Net-(Q1-G)*%
X105450000Y-92740000D03*
%TO.P,R3,2*%
%TO.N,+3.3V*%
X105450000Y-93760000D03*
%TD*%
D12*
%TO.P,L2,1,1_1*%
%TO.N,unconnected-(L2-Pad1)*%
X137072500Y-89600000D03*
%TO.P,L2,2,2_2*%
%TO.N,GND*%
X138647500Y-89600000D03*
%TD*%
D16*
%TO.P,C2,1*%
%TO.N,+3.3V*%
X108080000Y-97125000D03*
%TO.P,C2,2*%
%TO.N,GND*%
X108080000Y-98675000D03*
%TD*%
D17*
%TO.P,R1,1*%
%TO.N,Net-(Q1-D)*%
X113260000Y-93780000D03*
%TO.P,R1,2*%
%TO.N,Net-(L1-Pad1)*%
X114280000Y-93780000D03*
%TD*%
D16*
%TO.P,C1,1*%
%TO.N,+3.3V*%
X104860000Y-97105000D03*
%TO.P,C1,2*%
%TO.N,GND*%
X104860000Y-98655000D03*
%TD*%
D18*
%TO.N,GND*%
X155180000Y-92360000D03*
X106440000Y-101090000D03*
%TD*%
%TO.N,+3.3V*%
D11*
X105450000Y-93760000D02*
X105450000Y-94730000D01*
X104860000Y-94810000D02*
X104890000Y-94780000D01*
X108060000Y-97105000D02*
X108080000Y-97125000D01*
X106760000Y-94780000D02*
X105500000Y-94780000D01*
X104890000Y-94780000D02*
X103190000Y-94780000D01*
X105500000Y-94780000D02*
X104890000Y-94780000D01*
X105450000Y-94730000D02*
X105500000Y-94780000D01*
X104860000Y-97105000D02*
X104860000Y-94810000D01*
X103190000Y-94780000D02*
X102790000Y-95180000D01*
X108080000Y-97125000D02*
X108080000Y-96100000D01*
X109322500Y-94780000D02*
X106760000Y-94780000D01*
X108080000Y-96100000D02*
X106760000Y-94780000D01*
%TO.N,GND*%
X104970000Y-101100000D02*
X104980000Y-101090000D01*
X104860000Y-98655000D02*
X104860000Y-100990000D01*
X144770000Y-89600000D02*
X145380000Y-90210000D01*
X104980000Y-101090000D02*
X106440000Y-101090000D01*
X104860000Y-100990000D02*
X104970000Y-101100000D01*
X138647500Y-89600000D02*
X144770000Y-89600000D01*
X155160000Y-92340000D02*
X155180000Y-92360000D01*
X108060000Y-98655000D02*
X108080000Y-98675000D01*
X108080000Y-98675000D02*
X108080000Y-101090000D01*
X108080000Y-101090000D02*
X106440000Y-101090000D01*
X145380000Y-92340000D02*
X155160000Y-92340000D01*
X145380000Y-90210000D02*
X145380000Y-92340000D01*
%TO.N,unconnected-(L1-Pad2)*%
X130220000Y-74980000D02*
X130220000Y-74690000D01*
X130000000Y-75200000D02*
X130220000Y-74980000D01*
%TO.N,Net-(L1-Pad1)*%
X114280000Y-91080000D02*
X116000000Y-89360000D01*
X116060000Y-89420000D02*
X121472500Y-89420000D01*
X114280000Y-93780000D02*
X114280000Y-91080000D01*
X116000000Y-89360000D02*
X116060000Y-89420000D01*
%TO.N,Net-(Q1-D)*%
X111247500Y-93780000D02*
X111197500Y-93830000D01*
X113260000Y-93780000D02*
X111247500Y-93780000D01*
%TO.N,Net-(Q1-G)*%
X104370000Y-89520000D02*
X107050000Y-89520000D01*
X107050000Y-89520000D02*
X107070000Y-89500000D01*
X107140000Y-92900000D02*
X107140000Y-92420000D01*
X106820000Y-92740000D02*
X107140000Y-92420000D01*
X107070000Y-89500000D02*
X107140000Y-89570000D01*
X107160000Y-92880000D02*
X107140000Y-92900000D01*
X107140000Y-89570000D02*
X107140000Y-92420000D01*
X109322500Y-92880000D02*
X107160000Y-92880000D01*
X105450000Y-92740000D02*
X106820000Y-92740000D01*
%TO.N,/GPIO*%
X103350000Y-90680000D02*
X103350000Y-89520000D01*
X102720000Y-91310000D02*
X103350000Y-90680000D01*
X102720000Y-92580000D02*
X102720000Y-91310000D01*
%TD*%
X197940000Y-90450000D02*
G01*
X196790000Y-90450000D01*
X196790000Y-88830000D01*
X197940000Y-88830000D01*
X197940000Y-90450000D01*
G37*
%TD.AperFunction*%
%TA.AperFunction,Conductor*%
%TO.N,unconnected-(L1-Pad2)*%
G36*
X185190000Y-90396369D02*
G01*
X184040000Y-90396369D01*
X184040000Y-88630000D01*
X185190000Y-88630000D01*
X185190000Y-90396369D01*
G37*
%TD.AperFunction*%
%TA.AperFunction,Conductor*%
%TO.N,unconnected-(L2-Pad1)*%
G36*
X196790801Y-90450000D02*
G01*
X191790801Y-90450000D01*
X191790801Y-90600000D01*
X204990801Y-90600000D01*
X204990801Y-100600000D01*
X176990801Y-100600000D01*
X176990801Y-90600000D01*
X191190801Y-90600000D01*
X191190801Y-90200000D01*
X191790801Y-90200000D01*
X196790801Y-90200000D01*
X196790801Y-90450000D01*
G37*
%TD.AperFunction*%
%TA.AperFunction,Conductor*%
%TO.N,unconnected-(L1-Pad2)*%
G36*
X210990801Y-90000000D02*
G01*
X206990801Y-90000000D01*
X206990301Y-89890407D01*
X206982295Y-89671366D01*
X206966296Y-89452764D01*
X206942323Y-89234891D01*
X206910409Y-89018040D01*
X206870597Y-88802499D01*
X206822939Y-88588556D01*
X206767499Y-88376496D01*
X206704352Y-88166603D01*
X206633580Y-87959156D01*
X206555280Y-87754431D01*
X206469555Y-87552703D01*
X206376520Y-87354241D01*
X206276298Y-87159309D01*
X206169024Y-86968167D01*
X206054841Y-86781070D01*
X205933900Y-86598269D01*
X205806365Y-86420006D01*
X205672403Y-86246521D01*
X205532195Y-86078043D01*
X205385928Y-85914799D01*
X205233796Y-85757005D01*
X205076002Y-85604873D01*
X204912758Y-85458606D01*
X204744280Y-85318398D01*
X204570795Y-85184436D01*
X204392532Y-85056901D01*
X204209731Y-84935960D01*
X204022634Y-84821777D01*
X203831492Y-84714503D01*
X203636560Y-84614281D01*
X203438098Y-84521246D01*
X203236370Y-84435521D01*
X203031645Y-84357221D01*
X202824198Y-84286449D01*
X202614305Y-84223302D01*
X202402245Y-84167862D01*
X202188302Y-84120204D01*
X201972761Y-84080392D01*
X201755910Y-84048478D01*
X201538037Y-84024505D01*
X201319435Y-84008506D01*
X201100394Y-84000500D01*
X200881208Y-84000500D01*
X200662167Y-84008506D01*
X200443565Y-84024505D01*
X200225692Y-84048478D01*
X200008841Y-84080392D01*
X199793300Y-84120204D01*
X199579357Y-84167862D01*
X199367297Y-84223302D01*
X199157404Y-84286449D01*
X198949957Y-84357221D01*
X198745232Y-84435521D01*
X198543504Y-84521246D01*
X198345042Y-84614281D01*
X198150110Y-84714503D01*
X197958968Y-84821777D01*
X197771871Y-84935960D01*
X197589070Y-85056901D01*
X197410807Y-85184436D01*
X197237322Y-85318398D01*
X197068844Y-85458606D01*
X196905600Y-85604873D01*
X196747806Y-85757005D01*
X196595674Y-85914799D01*
X196449407Y-86078043D01*
X196309199Y-86246521D01*
X196175237Y-86420006D01*
X196047702Y-86598269D01*
X195926761Y-86781070D01*
X195812578Y-86968167D01*
X195705304Y-87159309D01*
X195605082Y-87354241D01*
X195512047Y-87552703D01*
X195426322Y-87754431D01*
X195348022Y-87959156D01*
X195277250Y-88166603D01*
X195214103Y-88376496D01*
X195158663Y-88588556D01*
X195111005Y-88802499D01*
X195071193Y-89018040D01*
X195039279Y-89234891D01*
X195015306Y-89452764D01*
X194999307Y-89671366D01*
X194991301Y-89890407D01*
X194990801Y-90000000D01*
X190790801Y-90000000D01*
X190790801Y-90400000D01*
X190190801Y-90400000D01*
X185190801Y-90400000D01*
X185190801Y-90150000D01*
X190190801Y-90150000D01*
X190190801Y-90000000D01*
X186990801Y-90000000D01*
X186990301Y-89890407D01*
X186982295Y-89671366D01*
X186966296Y-89452764D01*
X186942323Y-89234891D01*
X186910409Y-89018040D01*
X186870597Y-88802499D01*
X186822939Y-88588556D01*
X186767499Y-88376496D01*
X186704352Y-88166603D01*
X186633580Y-87959156D01*
X186555280Y-87754431D01*
X186469555Y-87552703D01*
X186376520Y-87354241D01*
X186276298Y-87159309D01*
X186169024Y-86968167D01*
X186054841Y-86781070D01*
X185933900Y-86598269D01*
X185806365Y-86420006D01*
X185672403Y-86246521D01*
X185532195Y-86078043D01*
X185385928Y-85914799D01*
X185233796Y-85757005D01*
X185076002Y-85604873D01*
X184912758Y-85458606D01*
X184744280Y-85318398D01*
X184570795Y-85184436D01*
X184392532Y-85056901D01*
X184209731Y-84935960D01*
X184022634Y-84821777D01*
X183831492Y-84714503D01*
X183636560Y-84614281D01*
X183438098Y-84521246D01*
X183236370Y-84435521D01*
X183031645Y-84357221D01*
X182824198Y-84286449D01*
X182614305Y-84223302D01*
X182402245Y-84167862D01*
X182188302Y-84120204D01*
X181972761Y-84080392D01*
X181755910Y-84048478D01*
X181538037Y-84024505D01*
X181319435Y-84008506D01*
X181100394Y-84000500D01*
X180881208Y-84000500D01*
X180662167Y-84008506D01*
X180443565Y-84024505D01*
X180225692Y-84048478D01*
X180008841Y-84080392D01*
X179793300Y-84120204D01*
X179579357Y-84167862D01*
X179367297Y-84223302D01*
X179157404Y-84286449D01*
X178949957Y-84357221D01*
X178745232Y-84435521D01*
X178543504Y-84521246D01*
X178345042Y-84614281D01*
X178150110Y-84714503D01*
X177958968Y-84821777D01*
X177771871Y-84935960D01*
X177589070Y-85056901D01*
X177410807Y-85184436D01*
X177237322Y-85318398D01*
X177068844Y-85458606D01*
X176905600Y-85604873D01*
X176747806Y-85757005D01*
X176595674Y-85914799D01*
X176449407Y-86078043D01*
X176309199Y-86246521D01*
X176175237Y-86420006D01*
X176047702Y-86598269D01*
X175926761Y-86781070D01*
X175812578Y-86968167D01*
X175705304Y-87159309D01*
X175605082Y-87354241D01*
X175512047Y-87552703D01*
X175426322Y-87754431D01*
X175348022Y-87959156D01*
X175277250Y-88166603D01*
X175214103Y-88376496D01*
X175158663Y-88588556D01*
X175111005Y-88802499D01*
X175071193Y-89018040D01*
X175039279Y-89234891D01*
X175015306Y-89452764D01*
X174999307Y-89671366D01*
X174991301Y-89890407D01*
X174990801Y-90000000D01*
X170990801Y-90000000D01*
X170990801Y-60000000D01*
X210990801Y-60000000D01*
X210990801Y-90000000D01*
G37*
%TD.AperFunction*%
%TO.N,/GPIO*%
D11*
X162720000Y-91580000D02*
X164720000Y-91580000D01*
X164720000Y-93580000D01*
X162720000Y-93580000D01*
X162720000Y-91580000D01*
%TA.AperFunction,Conductor*%
G36*
X162720000Y-91580000D02*
G01*
X164720000Y-91580000D01*
X164720000Y-93580000D01*
X162720000Y-93580000D01*
X162720000Y-91580000D01*
G37*
%TD.AperFunction*%
%TO.N,+3.3V*%
X162780000Y-94180000D02*
X164780000Y-94180000D01*
X164780000Y-96180000D01*
X162780000Y-96180000D01*
X162780000Y-94180000D01*
%TA.AperFunction,Conductor*%
G36*
X162780000Y-94180000D02*
G01*
X164780000Y-94180000D01*
X164780000Y-96180000D01*
X162780000Y-96180000D01*
X162780000Y-94180000D01*
G37*
%TD.AperFunction*%
%TD*%
D12*
%TO.P,L1,2,2_2*%
%TO.N,unconnected-(L1-Pad2)*%
X184047500Y-89420000D03*
%TO.P,L1,1,1_1*%
%TO.N,Net-(L1-Pad1)*%
X182472500Y-89420000D03*
%TD*%
D13*
%TO.P,Q1,1,G_1*%
%TO.N,Net-(Q1-G)*%
X170322500Y-92880000D03*
%TO.P,Q1,2,S_2*%
%TO.N,+3.3V*%
X170322500Y-94780000D03*
%TO.P,Q1,3,D_3*%
%TO.N,Net-(Q1-D)*%
X172197500Y-93830000D03*
%TD*%
D14*
%TO.P,R2,1*%
%TO.N,Net-(Q1-G)*%
X165370000Y-89520000D03*
%TO.P,R2,2*%
%TO.N,/GPIO*%
X164350000Y-89520000D03*
%TD*%
D15*
%TO.P,R3,1*%
%TO.N,Net-(Q1-G)*%
X166450000Y-92740000D03*
%TO.P,R3,2*%
%TO.N,+3.3V*%
X166450000Y-93760000D03*
%TD*%
D12*
%TO.P,L2,1,1_1*%
%TO.N,unconnected-(L2-Pad1)*%
X198072500Y-89600000D03*
%TO.P,L2,2,2_2*%
%TO.N,GND*%
X199647500Y-89600000D03*
%TD*%
D16*
%TO.P,C2,1*%
%TO.N,+3.3V*%
X169080000Y-97125000D03*
%TO.P,C2,2*%
%TO.N,GND*%
X169080000Y-98675000D03*
%TD*%
D17*
%TO.P,R1,1*%
%TO.N,Net-(Q1-D)*%
X174260000Y-93780000D03*
%TO.P,R1,2*%
%TO.N,Net-(L1-Pad1)*%
X175280000Y-93780000D03*
%TD*%
D16*
%TO.P,C1,1*%
%TO.N,+3.3V*%
X165860000Y-97105000D03*
%TO.P,C1,2*%
%TO.N,GND*%
X165860000Y-98655000D03*
%TD*%
D18*
%TO.N,GND*%
X216180000Y-92360000D03*
X167440000Y-101090000D03*
%TD*%
%TO.N,+3.3V*%
D11*
X166450000Y-93760000D02*
X166450000Y-94730000D01*
X165860000Y-94810000D02*
X165890000Y-94780000D01*
X169060000Y-97105000D02*
X169080000Y-97125000D01*
X167760000Y-94780000D02*
X166500000Y-94780000D01*
X165890000Y-94780000D02*
X164190000Y-94780000D01*
X166500000Y-94780000D02*
X165890000Y-94780000D01*
X166450000Y-94730000D02*
X166500000Y-94780000D01*
X165860000Y-97105000D02*
X165860000Y-94810000D01*
X164190000Y-94780000D02*
X163790000Y-95180000D01*
X169080000Y-97125000D02*
X169080000Y-96100000D01*
X170322500Y-94780000D02*
X167760000Y-94780000D01*
X169080000Y-96100000D02*
X167760000Y-94780000D01*
%TO.N,GND*%
X165970000Y-101100000D02*
X165980000Y-101090000D01*
X165860000Y-98655000D02*
X165860000Y-100990000D01*
X205770000Y-89600000D02*
X206380000Y-90210000D01*
X165980000Y-101090000D02*
X167440000Y-101090000D01*
X165860000Y-100990000D02*
X165970000Y-101100000D01*
X199647500Y-89600000D02*
X205770000Y-89600000D01*
X216160000Y-92340000D02*
X216180000Y-92360000D01*
X169060000Y-98655000D02*
X169080000Y-98675000D01*
X169080000Y-98675000D02*
X169080000Y-101090000D01*
X169080000Y-101090000D02*
X167440000Y-101090000D01*
X206380000Y-92340000D02*
X216160000Y-92340000D01*
X206380000Y-90210000D02*
X206380000Y-92340000D01*
%TO.N,unconnected-(L1-Pad2)*%
X191220000Y-74980000D02*
X191220000Y-74690000D01*
X191000000Y-75200000D02*
X191220000Y-74980000D01*
%TO.N,Net-(L1-Pad1)*%
X175280000Y-91080000D02*
X177000000Y-89360000D01*
X177060000Y-89420000D02*
X182472500Y-89420000D01*
X175280000Y-93780000D02*
X175280000Y-91080000D01*
X177000000Y-89360000D02*
X177060000Y-89420000D01*
%TO.N,Net-(Q1-D)*%
X172247500Y-93780000D02*
X172197500Y-93830000D01*
X174260000Y-93780000D02*
X172247500Y-93780000D01*
%TO.N,Net-(Q1-G)*%
X165370000Y-89520000D02*
X168050000Y-89520000D01*
X168050000Y-89520000D02*
X168070000Y-89500000D01*
X168140000Y-92900000D02*
X168140000Y-92420000D01*
X167820000Y-92740000D02*
X168140000Y-92420000D01*
X168070000Y-89500000D02*
X168140000Y-89570000D01*
X168160000Y-92880000D02*
X168140000Y-92900000D01*
X168140000Y-89570000D02*
X168140000Y-92420000D01*
X170322500Y-92880000D02*
X168160000Y-92880000D01*
X166450000Y-92740000D02*
X167820000Y-92740000D01*
%TO.N,/GPIO*%
X164350000Y-90680000D02*
X164350000Y-89520000D01*
X163720000Y-91310000D02*
X164350000Y-90680000D01*
X163720000Y-92580000D02*
X163720000Y-91310000D01*
%TD*%
X258940000Y-90450000D02*
G01*
X257790000Y-90450000D01*
X257790000Y-88830000D01*
X258940000Y-88830000D01*
X258940000Y-90450000D01*
G37*
%TD.AperFunction*%
%TA.AperFunction,Conductor*%
%TO.N,unconnected-(L1-Pad2)*%
G36*
X246190000Y-90396369D02*
G01*
X245040000Y-90396369D01*
X245040000Y-88630000D01*
X246190000Y-88630000D01*
X246190000Y-90396369D01*
G37*
%TD.AperFunction*%
%TA.AperFunction,Conductor*%
%TO.N,unconnected-(L2-Pad1)*%
G36*
X257790801Y-90450000D02*
G01*
X252790801Y-90450000D01*
X252790801Y-90600000D01*
X265990801Y-90600000D01*
X265990801Y-100600000D01*
X237990801Y-100600000D01*
X237990801Y-90600000D01*
X252190801Y-90600000D01*
X252190801Y-90200000D01*
X252790801Y-90200000D01*
X257790801Y-90200000D01*
X257790801Y-90450000D01*
G37*
%TD.AperFunction*%
%TA.AperFunction,Conductor*%
%TO.N,unconnected-(L1-Pad2)*%
G36*
X271990801Y-90000000D02*
G01*
X267990801Y-90000000D01*
X267990301Y-89890407D01*
X267982295Y-89671366D01*
X267966296Y-89452764D01*
X267942323Y-89234891D01*
X267910409Y-89018040D01*
X267870597Y-88802499D01*
X267822939Y-88588556D01*
X267767499Y-88376496D01*
X267704352Y-88166603D01*
X267633580Y-87959156D01*
X267555280Y-87754431D01*
X267469555Y-87552703D01*
X267376520Y-87354241D01*
X267276298Y-87159309D01*
X267169024Y-86968167D01*
X267054841Y-86781070D01*
X266933900Y-86598269D01*
X266806365Y-86420006D01*
X266672403Y-86246521D01*
X266532195Y-86078043D01*
X266385928Y-85914799D01*
X266233796Y-85757005D01*
X266076002Y-85604873D01*
X265912758Y-85458606D01*
X265744280Y-85318398D01*
X265570795Y-85184436D01*
X265392532Y-85056901D01*
X265209731Y-84935960D01*
X265022634Y-84821777D01*
X264831492Y-84714503D01*
X264636560Y-84614281D01*
X264438098Y-84521246D01*
X264236370Y-84435521D01*
X264031645Y-84357221D01*
X263824198Y-84286449D01*
X263614305Y-84223302D01*
X263402245Y-84167862D01*
X263188302Y-84120204D01*
X262972761Y-84080392D01*
X262755910Y-84048478D01*
X262538037Y-84024505D01*
X262319435Y-84008506D01*
X262100394Y-84000500D01*
X261881208Y-84000500D01*
X261662167Y-84008506D01*
X261443565Y-84024505D01*
X261225692Y-84048478D01*
X261008841Y-84080392D01*
X260793300Y-84120204D01*
X260579357Y-84167862D01*
X260367297Y-84223302D01*
X260157404Y-84286449D01*
X259949957Y-84357221D01*
X259745232Y-84435521D01*
X259543504Y-84521246D01*
X259345042Y-84614281D01*
X259150110Y-84714503D01*
X258958968Y-84821777D01*
X258771871Y-84935960D01*
X258589070Y-85056901D01*
X258410807Y-85184436D01*
X258237322Y-85318398D01*
X258068844Y-85458606D01*
X257905600Y-85604873D01*
X257747806Y-85757005D01*
X257595674Y-85914799D01*
X257449407Y-86078043D01*
X257309199Y-86246521D01*
X257175237Y-86420006D01*
X257047702Y-86598269D01*
X256926761Y-86781070D01*
X256812578Y-86968167D01*
X256705304Y-87159309D01*
X256605082Y-87354241D01*
X256512047Y-87552703D01*
X256426322Y-87754431D01*
X256348022Y-87959156D01*
X256277250Y-88166603D01*
X256214103Y-88376496D01*
X256158663Y-88588556D01*
X256111005Y-88802499D01*
X256071193Y-89018040D01*
X256039279Y-89234891D01*
X256015306Y-89452764D01*
X255999307Y-89671366D01*
X255991301Y-89890407D01*
X255990801Y-90000000D01*
X251790801Y-90000000D01*
X251790801Y-90400000D01*
X251190801Y-90400000D01*
X246190801Y-90400000D01*
X246190801Y-90150000D01*
X251190801Y-90150000D01*
X251190801Y-90000000D01*
X247990801Y-90000000D01*
X247990301Y-89890407D01*
X247982295Y-89671366D01*
X247966296Y-89452764D01*
X247942323Y-89234891D01*
X247910409Y-89018040D01*
X247870597Y-88802499D01*
X247822939Y-88588556D01*
X247767499Y-88376496D01*
X247704352Y-88166603D01*
X247633580Y-87959156D01*
X247555280Y-87754431D01*
X247469555Y-87552703D01*
X247376520Y-87354241D01*
X247276298Y-87159309D01*
X247169024Y-86968167D01*
X247054841Y-86781070D01*
X246933900Y-86598269D01*
X246806365Y-86420006D01*
X246672403Y-86246521D01*
X246532195Y-86078043D01*
X246385928Y-85914799D01*
X246233796Y-85757005D01*
X246076002Y-85604873D01*
X245912758Y-85458606D01*
X245744280Y-85318398D01*
X245570795Y-85184436D01*
X245392532Y-85056901D01*
X245209731Y-84935960D01*
X245022634Y-84821777D01*
X244831492Y-84714503D01*
X244636560Y-84614281D01*
X244438098Y-84521246D01*
X244236370Y-84435521D01*
X244031645Y-84357221D01*
X243824198Y-84286449D01*
X243614305Y-84223302D01*
X243402245Y-84167862D01*
X243188302Y-84120204D01*
X242972761Y-84080392D01*
X242755910Y-84048478D01*
X242538037Y-84024505D01*
X242319435Y-84008506D01*
X242100394Y-84000500D01*
X241881208Y-84000500D01*
X241662167Y-84008506D01*
X241443565Y-84024505D01*
X241225692Y-84048478D01*
X241008841Y-84080392D01*
X240793300Y-84120204D01*
X240579357Y-84167862D01*
X240367297Y-84223302D01*
X240157404Y-84286449D01*
X239949957Y-84357221D01*
X239745232Y-84435521D01*
X239543504Y-84521246D01*
X239345042Y-84614281D01*
X239150110Y-84714503D01*
X238958968Y-84821777D01*
X238771871Y-84935960D01*
X238589070Y-85056901D01*
X238410807Y-85184436D01*
X238237322Y-85318398D01*
X238068844Y-85458606D01*
X237905600Y-85604873D01*
X237747806Y-85757005D01*
X237595674Y-85914799D01*
X237449407Y-86078043D01*
X237309199Y-86246521D01*
X237175237Y-86420006D01*
X237047702Y-86598269D01*
X236926761Y-86781070D01*
X236812578Y-86968167D01*
X236705304Y-87159309D01*
X236605082Y-87354241D01*
X236512047Y-87552703D01*
X236426322Y-87754431D01*
X236348022Y-87959156D01*
X236277250Y-88166603D01*
X236214103Y-88376496D01*
X236158663Y-88588556D01*
X236111005Y-88802499D01*
X236071193Y-89018040D01*
X236039279Y-89234891D01*
X236015306Y-89452764D01*
X235999307Y-89671366D01*
X235991301Y-89890407D01*
X235990801Y-90000000D01*
X231990801Y-90000000D01*
X231990801Y-60000000D01*
X271990801Y-60000000D01*
X271990801Y-90000000D01*
G37*
%TD.AperFunction*%
%TO.N,/GPIO*%
D11*
X223720000Y-91580000D02*
X225720000Y-91580000D01*
X225720000Y-93580000D01*
X223720000Y-93580000D01*
X223720000Y-91580000D01*
%TA.AperFunction,Conductor*%
G36*
X223720000Y-91580000D02*
G01*
X225720000Y-91580000D01*
X225720000Y-93580000D01*
X223720000Y-93580000D01*
X223720000Y-91580000D01*
G37*
%TD.AperFunction*%
%TO.N,+3.3V*%
X223780000Y-94180000D02*
X225780000Y-94180000D01*
X225780000Y-96180000D01*
X223780000Y-96180000D01*
X223780000Y-94180000D01*
%TA.AperFunction,Conductor*%
G36*
X223780000Y-94180000D02*
G01*
X225780000Y-94180000D01*
X225780000Y-96180000D01*
X223780000Y-96180000D01*
X223780000Y-94180000D01*
G37*
%TD.AperFunction*%
%TD*%
D12*
%TO.P,L1,2,2_2*%
%TO.N,unconnected-(L1-Pad2)*%
X245047500Y-89420000D03*
%TO.P,L1,1,1_1*%
%TO.N,Net-(L1-Pad1)*%
X243472500Y-89420000D03*
%TD*%
D13*
%TO.P,Q1,1,G_1*%
%TO.N,Net-(Q1-G)*%
X231322500Y-92880000D03*
%TO.P,Q1,2,S_2*%
%TO.N,+3.3V*%
X231322500Y-94780000D03*
%TO.P,Q1,3,D_3*%
%TO.N,Net-(Q1-D)*%
X233197500Y-93830000D03*
%TD*%
D14*
%TO.P,R2,1*%
%TO.N,Net-(Q1-G)*%
X226370000Y-89520000D03*
%TO.P,R2,2*%
%TO.N,/GPIO*%
X225350000Y-89520000D03*
%TD*%
D15*
%TO.P,R3,1*%
%TO.N,Net-(Q1-G)*%
X227450000Y-92740000D03*
%TO.P,R3,2*%
%TO.N,+3.3V*%
X227450000Y-93760000D03*
%TD*%
D12*
%TO.P,L2,1,1_1*%
%TO.N,unconnected-(L2-Pad1)*%
X259072500Y-89600000D03*
%TO.P,L2,2,2_2*%
%TO.N,GND*%
X260647500Y-89600000D03*
%TD*%
D16*
%TO.P,C2,1*%
%TO.N,+3.3V*%
X230080000Y-97125000D03*
%TO.P,C2,2*%
%TO.N,GND*%
X230080000Y-98675000D03*
%TD*%
D17*
%TO.P,R1,1*%
%TO.N,Net-(Q1-D)*%
X235260000Y-93780000D03*
%TO.P,R1,2*%
%TO.N,Net-(L1-Pad1)*%
X236280000Y-93780000D03*
%TD*%
D16*
%TO.P,C1,1*%
%TO.N,+3.3V*%
X226860000Y-97105000D03*
%TO.P,C1,2*%
%TO.N,GND*%
X226860000Y-98655000D03*
%TD*%
D18*
%TO.N,GND*%
X277180000Y-92360000D03*
X228440000Y-101090000D03*
%TD*%
%TO.N,+3.3V*%
D11*
X227450000Y-93760000D02*
X227450000Y-94730000D01*
X226860000Y-94810000D02*
X226890000Y-94780000D01*
X230060000Y-97105000D02*
X230080000Y-97125000D01*
X228760000Y-94780000D02*
X227500000Y-94780000D01*
X226890000Y-94780000D02*
X225190000Y-94780000D01*
X227500000Y-94780000D02*
X226890000Y-94780000D01*
X227450000Y-94730000D02*
X227500000Y-94780000D01*
X226860000Y-97105000D02*
X226860000Y-94810000D01*
X225190000Y-94780000D02*
X224790000Y-95180000D01*
X230080000Y-97125000D02*
X230080000Y-96100000D01*
X231322500Y-94780000D02*
X228760000Y-94780000D01*
X230080000Y-96100000D02*
X228760000Y-94780000D01*
%TO.N,GND*%
X226970000Y-101100000D02*
X226980000Y-101090000D01*
X226860000Y-98655000D02*
X226860000Y-100990000D01*
X266770000Y-89600000D02*
X267380000Y-90210000D01*
X226980000Y-101090000D02*
X228440000Y-101090000D01*
X226860000Y-100990000D02*
X226970000Y-101100000D01*
X260647500Y-89600000D02*
X266770000Y-89600000D01*
X277160000Y-92340000D02*
X277180000Y-92360000D01*
X230060000Y-98655000D02*
X230080000Y-98675000D01*
X230080000Y-98675000D02*
X230080000Y-101090000D01*
X230080000Y-101090000D02*
X228440000Y-101090000D01*
X267380000Y-92340000D02*
X277160000Y-92340000D01*
X267380000Y-90210000D02*
X267380000Y-92340000D01*
%TO.N,unconnected-(L1-Pad2)*%
X252220000Y-74980000D02*
X252220000Y-74690000D01*
X252000000Y-75200000D02*
X252220000Y-74980000D01*
%TO.N,Net-(L1-Pad1)*%
X236280000Y-91080000D02*
X238000000Y-89360000D01*
X238060000Y-89420000D02*
X243472500Y-89420000D01*
X236280000Y-93780000D02*
X236280000Y-91080000D01*
X238000000Y-89360000D02*
X238060000Y-89420000D01*
%TO.N,Net-(Q1-D)*%
X233247500Y-93780000D02*
X233197500Y-93830000D01*
X235260000Y-93780000D02*
X233247500Y-93780000D01*
%TO.N,Net-(Q1-G)*%
X226370000Y-89520000D02*
X229050000Y-89520000D01*
X229050000Y-89520000D02*
X229070000Y-89500000D01*
X229140000Y-92900000D02*
X229140000Y-92420000D01*
X228820000Y-92740000D02*
X229140000Y-92420000D01*
X229070000Y-89500000D02*
X229140000Y-89570000D01*
X229160000Y-92880000D02*
X229140000Y-92900000D01*
X229140000Y-89570000D02*
X229140000Y-92420000D01*
X231322500Y-92880000D02*
X229160000Y-92880000D01*
X227450000Y-92740000D02*
X228820000Y-92740000D01*
%TO.N,/GPIO*%
X225350000Y-90680000D02*
X225350000Y-89520000D01*
X224720000Y-91310000D02*
X225350000Y-90680000D01*
X224720000Y-92580000D02*
X224720000Y-91310000D01*
%TD*%
X319940000Y-90450000D02*
G01*
X318790000Y-90450000D01*
X318790000Y-88830000D01*
X319940000Y-88830000D01*
X319940000Y-90450000D01*
G37*
%TD.AperFunction*%
%TA.AperFunction,Conductor*%
%TO.N,unconnected-(L1-Pad2)*%
G36*
X307190000Y-90396369D02*
G01*
X306040000Y-90396369D01*
X306040000Y-88630000D01*
X307190000Y-88630000D01*
X307190000Y-90396369D01*
G37*
%TD.AperFunction*%
%TA.AperFunction,Conductor*%
%TO.N,unconnected-(L2-Pad1)*%
G36*
X318790801Y-90450000D02*
G01*
X313790801Y-90450000D01*
X313790801Y-90600000D01*
X326990801Y-90600000D01*
X326990801Y-100600000D01*
X298990801Y-100600000D01*
X298990801Y-90600000D01*
X313190801Y-90600000D01*
X313190801Y-90200000D01*
X313790801Y-90200000D01*
X318790801Y-90200000D01*
X318790801Y-90450000D01*
G37*
%TD.AperFunction*%
%TA.AperFunction,Conductor*%
%TO.N,unconnected-(L1-Pad2)*%
G36*
X332990801Y-90000000D02*
G01*
X328990801Y-90000000D01*
X328990301Y-89890407D01*
X328982295Y-89671366D01*
X328966296Y-89452764D01*
X328942323Y-89234891D01*
X328910409Y-89018040D01*
X328870597Y-88802499D01*
X328822939Y-88588556D01*
X328767499Y-88376496D01*
X328704352Y-88166603D01*
X328633580Y-87959156D01*
X328555280Y-87754431D01*
X328469555Y-87552703D01*
X328376520Y-87354241D01*
X328276298Y-87159309D01*
X328169024Y-86968167D01*
X328054841Y-86781070D01*
X327933900Y-86598269D01*
X327806365Y-86420006D01*
X327672403Y-86246521D01*
X327532195Y-86078043D01*
X327385928Y-85914799D01*
X327233796Y-85757005D01*
X327076002Y-85604873D01*
X326912758Y-85458606D01*
X326744280Y-85318398D01*
X326570795Y-85184436D01*
X326392532Y-85056901D01*
X326209731Y-84935960D01*
X326022634Y-84821777D01*
X325831492Y-84714503D01*
X325636560Y-84614281D01*
X325438098Y-84521246D01*
X325236370Y-84435521D01*
X325031645Y-84357221D01*
X324824198Y-84286449D01*
X324614305Y-84223302D01*
X324402245Y-84167862D01*
X324188302Y-84120204D01*
X323972761Y-84080392D01*
X323755910Y-84048478D01*
X323538037Y-84024505D01*
X323319435Y-84008506D01*
X323100394Y-84000500D01*
X322881208Y-84000500D01*
X322662167Y-84008506D01*
X322443565Y-84024505D01*
X322225692Y-84048478D01*
X322008841Y-84080392D01*
X321793300Y-84120204D01*
X321579357Y-84167862D01*
X321367297Y-84223302D01*
X321157404Y-84286449D01*
X320949957Y-84357221D01*
X320745232Y-84435521D01*
X320543504Y-84521246D01*
X320345042Y-84614281D01*
X320150110Y-84714503D01*
X319958968Y-84821777D01*
X319771871Y-84935960D01*
X319589070Y-85056901D01*
X319410807Y-85184436D01*
X319237322Y-85318398D01*
X319068844Y-85458606D01*
X318905600Y-85604873D01*
X318747806Y-85757005D01*
X318595674Y-85914799D01*
X318449407Y-86078043D01*
X318309199Y-86246521D01*
X318175237Y-86420006D01*
X318047702Y-86598269D01*
X317926761Y-86781070D01*
X317812578Y-86968167D01*
X317705304Y-87159309D01*
X317605082Y-87354241D01*
X317512047Y-87552703D01*
X317426322Y-87754431D01*
X317348022Y-87959156D01*
X317277250Y-88166603D01*
X317214103Y-88376496D01*
X317158663Y-88588556D01*
X317111005Y-88802499D01*
X317071193Y-89018040D01*
X317039279Y-89234891D01*
X317015306Y-89452764D01*
X316999307Y-89671366D01*
X316991301Y-89890407D01*
X316990801Y-90000000D01*
X312790801Y-90000000D01*
X312790801Y-90400000D01*
X312190801Y-90400000D01*
X307190801Y-90400000D01*
X307190801Y-90150000D01*
X312190801Y-90150000D01*
X312190801Y-90000000D01*
X308990801Y-90000000D01*
X308990301Y-89890407D01*
X308982295Y-89671366D01*
X308966296Y-89452764D01*
X308942323Y-89234891D01*
X308910409Y-89018040D01*
X308870597Y-88802499D01*
X308822939Y-88588556D01*
X308767499Y-88376496D01*
X308704352Y-88166603D01*
X308633580Y-87959156D01*
X308555280Y-87754431D01*
X308469555Y-87552703D01*
X308376520Y-87354241D01*
X308276298Y-87159309D01*
X308169024Y-86968167D01*
X308054841Y-86781070D01*
X307933900Y-86598269D01*
X307806365Y-86420006D01*
X307672403Y-86246521D01*
X307532195Y-86078043D01*
X307385928Y-85914799D01*
X307233796Y-85757005D01*
X307076002Y-85604873D01*
X306912758Y-85458606D01*
X306744280Y-85318398D01*
X306570795Y-85184436D01*
X306392532Y-85056901D01*
X306209731Y-84935960D01*
X306022634Y-84821777D01*
X305831492Y-84714503D01*
X305636560Y-84614281D01*
X305438098Y-84521246D01*
X305236370Y-84435521D01*
X305031645Y-84357221D01*
X304824198Y-84286449D01*
X304614305Y-84223302D01*
X304402245Y-84167862D01*
X304188302Y-84120204D01*
X303972761Y-84080392D01*
X303755910Y-84048478D01*
X303538037Y-84024505D01*
X303319435Y-84008506D01*
X303100394Y-84000500D01*
X302881208Y-84000500D01*
X302662167Y-84008506D01*
X302443565Y-84024505D01*
X302225692Y-84048478D01*
X302008841Y-84080392D01*
X301793300Y-84120204D01*
X301579357Y-84167862D01*
X301367297Y-84223302D01*
X301157404Y-84286449D01*
X300949957Y-84357221D01*
X300745232Y-84435521D01*
X300543504Y-84521246D01*
X300345042Y-84614281D01*
X300150110Y-84714503D01*
X299958968Y-84821777D01*
X299771871Y-84935960D01*
X299589070Y-85056901D01*
X299410807Y-85184436D01*
X299237322Y-85318398D01*
X299068844Y-85458606D01*
X298905600Y-85604873D01*
X298747806Y-85757005D01*
X298595674Y-85914799D01*
X298449407Y-86078043D01*
X298309199Y-86246521D01*
X298175237Y-86420006D01*
X298047702Y-86598269D01*
X297926761Y-86781070D01*
X297812578Y-86968167D01*
X297705304Y-87159309D01*
X297605082Y-87354241D01*
X297512047Y-87552703D01*
X297426322Y-87754431D01*
X297348022Y-87959156D01*
X297277250Y-88166603D01*
X297214103Y-88376496D01*
X297158663Y-88588556D01*
X297111005Y-88802499D01*
X297071193Y-89018040D01*
X297039279Y-89234891D01*
X297015306Y-89452764D01*
X296999307Y-89671366D01*
X296991301Y-89890407D01*
X296990801Y-90000000D01*
X292990801Y-90000000D01*
X292990801Y-60000000D01*
X332990801Y-60000000D01*
X332990801Y-90000000D01*
G37*
%TD.AperFunction*%
%TO.N,/GPIO*%
D11*
X284720000Y-91580000D02*
X286720000Y-91580000D01*
X286720000Y-93580000D01*
X284720000Y-93580000D01*
X284720000Y-91580000D01*
%TA.AperFunction,Conductor*%
G36*
X284720000Y-91580000D02*
G01*
X286720000Y-91580000D01*
X286720000Y-93580000D01*
X284720000Y-93580000D01*
X284720000Y-91580000D01*
G37*
%TD.AperFunction*%
%TO.N,+3.3V*%
X284780000Y-94180000D02*
X286780000Y-94180000D01*
X286780000Y-96180000D01*
X284780000Y-96180000D01*
X284780000Y-94180000D01*
%TA.AperFunction,Conductor*%
G36*
X284780000Y-94180000D02*
G01*
X286780000Y-94180000D01*
X286780000Y-96180000D01*
X284780000Y-96180000D01*
X284780000Y-94180000D01*
G37*
%TD.AperFunction*%
%TD*%
D12*
%TO.P,L1,2,2_2*%
%TO.N,unconnected-(L1-Pad2)*%
X306047500Y-89420000D03*
%TO.P,L1,1,1_1*%
%TO.N,Net-(L1-Pad1)*%
X304472500Y-89420000D03*
%TD*%
D13*
%TO.P,Q1,1,G_1*%
%TO.N,Net-(Q1-G)*%
X292322500Y-92880000D03*
%TO.P,Q1,2,S_2*%
%TO.N,+3.3V*%
X292322500Y-94780000D03*
%TO.P,Q1,3,D_3*%
%TO.N,Net-(Q1-D)*%
X294197500Y-93830000D03*
%TD*%
D14*
%TO.P,R2,1*%
%TO.N,Net-(Q1-G)*%
X287370000Y-89520000D03*
%TO.P,R2,2*%
%TO.N,/GPIO*%
X286350000Y-89520000D03*
%TD*%
D15*
%TO.P,R3,1*%
%TO.N,Net-(Q1-G)*%
X288450000Y-92740000D03*
%TO.P,R3,2*%
%TO.N,+3.3V*%
X288450000Y-93760000D03*
%TD*%
D12*
%TO.P,L2,1,1_1*%
%TO.N,unconnected-(L2-Pad1)*%
X320072500Y-89600000D03*
%TO.P,L2,2,2_2*%
%TO.N,GND*%
X321647500Y-89600000D03*
%TD*%
D16*
%TO.P,C2,1*%
%TO.N,+3.3V*%
X291080000Y-97125000D03*
%TO.P,C2,2*%
%TO.N,GND*%
X291080000Y-98675000D03*
%TD*%
D17*
%TO.P,R1,1*%
%TO.N,Net-(Q1-D)*%
X296260000Y-93780000D03*
%TO.P,R1,2*%
%TO.N,Net-(L1-Pad1)*%
X297280000Y-93780000D03*
%TD*%
D16*
%TO.P,C1,1*%
%TO.N,+3.3V*%
X287860000Y-97105000D03*
%TO.P,C1,2*%
%TO.N,GND*%
X287860000Y-98655000D03*
%TD*%
D18*
%TO.N,GND*%
X338180000Y-92360000D03*
X289440000Y-101090000D03*
%TD*%
%TO.N,+3.3V*%
D11*
X288450000Y-93760000D02*
X288450000Y-94730000D01*
X287860000Y-94810000D02*
X287890000Y-94780000D01*
X291060000Y-97105000D02*
X291080000Y-97125000D01*
X289760000Y-94780000D02*
X288500000Y-94780000D01*
X287890000Y-94780000D02*
X286190000Y-94780000D01*
X288500000Y-94780000D02*
X287890000Y-94780000D01*
X288450000Y-94730000D02*
X288500000Y-94780000D01*
X287860000Y-97105000D02*
X287860000Y-94810000D01*
X286190000Y-94780000D02*
X285790000Y-95180000D01*
X291080000Y-97125000D02*
X291080000Y-96100000D01*
X292322500Y-94780000D02*
X289760000Y-94780000D01*
X291080000Y-96100000D02*
X289760000Y-94780000D01*
%TO.N,GND*%
X287970000Y-101100000D02*
X287980000Y-101090000D01*
X287860000Y-98655000D02*
X287860000Y-100990000D01*
X327770000Y-89600000D02*
X328380000Y-90210000D01*
X287980000Y-101090000D02*
X289440000Y-101090000D01*
X287860000Y-100990000D02*
X287970000Y-101100000D01*
X321647500Y-89600000D02*
X327770000Y-89600000D01*
X338160000Y-92340000D02*
X338180000Y-92360000D01*
X291060000Y-98655000D02*
X291080000Y-98675000D01*
X291080000Y-98675000D02*
X291080000Y-101090000D01*
X291080000Y-101090000D02*
X289440000Y-101090000D01*
X328380000Y-92340000D02*
X338160000Y-92340000D01*
X328380000Y-90210000D02*
X328380000Y-92340000D01*
%TO.N,unconnected-(L1-Pad2)*%
X313220000Y-74980000D02*
X313220000Y-74690000D01*
X313000000Y-75200000D02*
X313220000Y-74980000D01*
%TO.N,Net-(L1-Pad1)*%
X297280000Y-91080000D02*
X299000000Y-89360000D01*
X299060000Y-89420000D02*
X304472500Y-89420000D01*
X297280000Y-93780000D02*
X297280000Y-91080000D01*
X299000000Y-89360000D02*
X299060000Y-89420000D01*
%TO.N,Net-(Q1-D)*%
X294247500Y-93780000D02*
X294197500Y-93830000D01*
X296260000Y-93780000D02*
X294247500Y-93780000D01*
%TO.N,Net-(Q1-G)*%
X287370000Y-89520000D02*
X290050000Y-89520000D01*
X290050000Y-89520000D02*
X290070000Y-89500000D01*
X290140000Y-92900000D02*
X290140000Y-92420000D01*
X289820000Y-92740000D02*
X290140000Y-92420000D01*
X290070000Y-89500000D02*
X290140000Y-89570000D01*
X290160000Y-92880000D02*
X290140000Y-92900000D01*
X290140000Y-89570000D02*
X290140000Y-92420000D01*
X292322500Y-92880000D02*
X290160000Y-92880000D01*
X288450000Y-92740000D02*
X289820000Y-92740000D01*
%TO.N,/GPIO*%
X286350000Y-90680000D02*
X286350000Y-89520000D01*
X285720000Y-91310000D02*
X286350000Y-90680000D01*
X285720000Y-92580000D02*
X285720000Y-91310000D01*
%TD*%
X136940000Y-29450000D02*
G01*
X135790000Y-29450000D01*
X135790000Y-27830000D01*
X136940000Y-27830000D01*
X136940000Y-29450000D01*
G37*
%TD.AperFunction*%
%TA.AperFunction,Conductor*%
%TO.N,unconnected-(L1-Pad2)*%
G36*
X124190000Y-29396369D02*
G01*
X123040000Y-29396369D01*
X123040000Y-27630000D01*
X124190000Y-27630000D01*
X124190000Y-29396369D01*
G37*
%TD.AperFunction*%
%TA.AperFunction,Conductor*%
%TO.N,unconnected-(L2-Pad1)*%
G36*
X135790801Y-29450000D02*
G01*
X130790801Y-29450000D01*
X130790801Y-29600000D01*
X143990801Y-29600000D01*
X143990801Y-39600000D01*
X115990801Y-39600000D01*
X115990801Y-29600000D01*
X130190801Y-29600000D01*
X130190801Y-29200000D01*
X130790801Y-29200000D01*
X135790801Y-29200000D01*
X135790801Y-29450000D01*
G37*
%TD.AperFunction*%
%TA.AperFunction,Conductor*%
%TO.N,unconnected-(L1-Pad2)*%
G36*
X149990801Y-29000000D02*
G01*
X145990801Y-29000000D01*
X145990301Y-28890407D01*
X145982295Y-28671366D01*
X145966296Y-28452764D01*
X145942323Y-28234891D01*
X145910409Y-28018040D01*
X145870597Y-27802499D01*
X145822939Y-27588556D01*
X145767499Y-27376496D01*
X145704352Y-27166603D01*
X145633580Y-26959156D01*
X145555280Y-26754431D01*
X145469555Y-26552703D01*
X145376520Y-26354241D01*
X145276298Y-26159309D01*
X145169024Y-25968167D01*
X145054841Y-25781070D01*
X144933900Y-25598269D01*
X144806365Y-25420006D01*
X144672403Y-25246521D01*
X144532195Y-25078043D01*
X144385928Y-24914799D01*
X144233796Y-24757005D01*
X144076002Y-24604873D01*
X143912758Y-24458606D01*
X143744280Y-24318398D01*
X143570795Y-24184436D01*
X143392532Y-24056901D01*
X143209731Y-23935960D01*
X143022634Y-23821777D01*
X142831492Y-23714503D01*
X142636560Y-23614281D01*
X142438098Y-23521246D01*
X142236370Y-23435521D01*
X142031645Y-23357221D01*
X141824198Y-23286449D01*
X141614305Y-23223302D01*
X141402245Y-23167862D01*
X141188302Y-23120204D01*
X140972761Y-23080392D01*
X140755910Y-23048478D01*
X140538037Y-23024505D01*
X140319435Y-23008506D01*
X140100394Y-23000500D01*
X139881208Y-23000500D01*
X139662167Y-23008506D01*
X139443565Y-23024505D01*
X139225692Y-23048478D01*
X139008841Y-23080392D01*
X138793300Y-23120204D01*
X138579357Y-23167862D01*
X138367297Y-23223302D01*
X138157404Y-23286449D01*
X137949957Y-23357221D01*
X137745232Y-23435521D01*
X137543504Y-23521246D01*
X137345042Y-23614281D01*
X137150110Y-23714503D01*
X136958968Y-23821777D01*
X136771871Y-23935960D01*
X136589070Y-24056901D01*
X136410807Y-24184436D01*
X136237322Y-24318398D01*
X136068844Y-24458606D01*
X135905600Y-24604873D01*
X135747806Y-24757005D01*
X135595674Y-24914799D01*
X135449407Y-25078043D01*
X135309199Y-25246521D01*
X135175237Y-25420006D01*
X135047702Y-25598269D01*
X134926761Y-25781070D01*
X134812578Y-25968167D01*
X134705304Y-26159309D01*
X134605082Y-26354241D01*
X134512047Y-26552703D01*
X134426322Y-26754431D01*
X134348022Y-26959156D01*
X134277250Y-27166603D01*
X134214103Y-27376496D01*
X134158663Y-27588556D01*
X134111005Y-27802499D01*
X134071193Y-28018040D01*
X134039279Y-28234891D01*
X134015306Y-28452764D01*
X133999307Y-28671366D01*
X133991301Y-28890407D01*
X133990801Y-29000000D01*
X129790801Y-29000000D01*
X129790801Y-29400000D01*
X129190801Y-29400000D01*
X124190801Y-29400000D01*
X124190801Y-29150000D01*
X129190801Y-29150000D01*
X129190801Y-29000000D01*
X125990801Y-29000000D01*
X125990301Y-28890407D01*
X125982295Y-28671366D01*
X125966296Y-28452764D01*
X125942323Y-28234891D01*
X125910409Y-28018040D01*
X125870597Y-27802499D01*
X125822939Y-27588556D01*
X125767499Y-27376496D01*
X125704352Y-27166603D01*
X125633580Y-26959156D01*
X125555280Y-26754431D01*
X125469555Y-26552703D01*
X125376520Y-26354241D01*
X125276298Y-26159309D01*
X125169024Y-25968167D01*
X125054841Y-25781070D01*
X124933900Y-25598269D01*
X124806365Y-25420006D01*
X124672403Y-25246521D01*
X124532195Y-25078043D01*
X124385928Y-24914799D01*
X124233796Y-24757005D01*
X124076002Y-24604873D01*
X123912758Y-24458606D01*
X123744280Y-24318398D01*
X123570795Y-24184436D01*
X123392532Y-24056901D01*
X123209731Y-23935960D01*
X123022634Y-23821777D01*
X122831492Y-23714503D01*
X122636560Y-23614281D01*
X122438098Y-23521246D01*
X122236370Y-23435521D01*
X122031645Y-23357221D01*
X121824198Y-23286449D01*
X121614305Y-23223302D01*
X121402245Y-23167862D01*
X121188302Y-23120204D01*
X120972761Y-23080392D01*
X120755910Y-23048478D01*
X120538037Y-23024505D01*
X120319435Y-23008506D01*
X120100394Y-23000500D01*
X119881208Y-23000500D01*
X119662167Y-23008506D01*
X119443565Y-23024505D01*
X119225692Y-23048478D01*
X119008841Y-23080392D01*
X118793300Y-23120204D01*
X118579357Y-23167862D01*
X118367297Y-23223302D01*
X118157404Y-23286449D01*
X117949957Y-23357221D01*
X117745232Y-23435521D01*
X117543504Y-23521246D01*
X117345042Y-23614281D01*
X117150110Y-23714503D01*
X116958968Y-23821777D01*
X116771871Y-23935960D01*
X116589070Y-24056901D01*
X116410807Y-24184436D01*
X116237322Y-24318398D01*
X116068844Y-24458606D01*
X115905600Y-24604873D01*
X115747806Y-24757005D01*
X115595674Y-24914799D01*
X115449407Y-25078043D01*
X115309199Y-25246521D01*
X115175237Y-25420006D01*
X115047702Y-25598269D01*
X114926761Y-25781070D01*
X114812578Y-25968167D01*
X114705304Y-26159309D01*
X114605082Y-26354241D01*
X114512047Y-26552703D01*
X114426322Y-26754431D01*
X114348022Y-26959156D01*
X114277250Y-27166603D01*
X114214103Y-27376496D01*
X114158663Y-27588556D01*
X114111005Y-27802499D01*
X114071193Y-28018040D01*
X114039279Y-28234891D01*
X114015306Y-28452764D01*
X113999307Y-28671366D01*
X113991301Y-28890407D01*
X113990801Y-29000000D01*
X109990801Y-29000000D01*
X109990801Y1000000D01*
X149990801Y1000000D01*
X149990801Y-29000000D01*
G37*
%TD.AperFunction*%
%TO.N,/GPIO*%
D11*
X101720000Y-30580000D02*
X103720000Y-30580000D01*
X103720000Y-32580000D01*
X101720000Y-32580000D01*
X101720000Y-30580000D01*
%TA.AperFunction,Conductor*%
G36*
X101720000Y-30580000D02*
G01*
X103720000Y-30580000D01*
X103720000Y-32580000D01*
X101720000Y-32580000D01*
X101720000Y-30580000D01*
G37*
%TD.AperFunction*%
%TO.N,+3.3V*%
X101780000Y-33180000D02*
X103780000Y-33180000D01*
X103780000Y-35180000D01*
X101780000Y-35180000D01*
X101780000Y-33180000D01*
%TA.AperFunction,Conductor*%
G36*
X101780000Y-33180000D02*
G01*
X103780000Y-33180000D01*
X103780000Y-35180000D01*
X101780000Y-35180000D01*
X101780000Y-33180000D01*
G37*
%TD.AperFunction*%
%TD*%
D12*
%TO.P,L1,2,2_2*%
%TO.N,unconnected-(L1-Pad2)*%
X123047500Y-28420000D03*
%TO.P,L1,1,1_1*%
%TO.N,Net-(L1-Pad1)*%
X121472500Y-28420000D03*
%TD*%
D13*
%TO.P,Q1,1,G_1*%
%TO.N,Net-(Q1-G)*%
X109322500Y-31880000D03*
%TO.P,Q1,2,S_2*%
%TO.N,+3.3V*%
X109322500Y-33780000D03*
%TO.P,Q1,3,D_3*%
%TO.N,Net-(Q1-D)*%
X111197500Y-32830000D03*
%TD*%
D14*
%TO.P,R2,1*%
%TO.N,Net-(Q1-G)*%
X104370000Y-28520000D03*
%TO.P,R2,2*%
%TO.N,/GPIO*%
X103350000Y-28520000D03*
%TD*%
D15*
%TO.P,R3,1*%
%TO.N,Net-(Q1-G)*%
X105450000Y-31740000D03*
%TO.P,R3,2*%
%TO.N,+3.3V*%
X105450000Y-32760000D03*
%TD*%
D12*
%TO.P,L2,1,1_1*%
%TO.N,unconnected-(L2-Pad1)*%
X137072500Y-28600000D03*
%TO.P,L2,2,2_2*%
%TO.N,GND*%
X138647500Y-28600000D03*
%TD*%
D16*
%TO.P,C2,1*%
%TO.N,+3.3V*%
X108080000Y-36125000D03*
%TO.P,C2,2*%
%TO.N,GND*%
X108080000Y-37675000D03*
%TD*%
D17*
%TO.P,R1,1*%
%TO.N,Net-(Q1-D)*%
X113260000Y-32780000D03*
%TO.P,R1,2*%
%TO.N,Net-(L1-Pad1)*%
X114280000Y-32780000D03*
%TD*%
D16*
%TO.P,C1,1*%
%TO.N,+3.3V*%
X104860000Y-36105000D03*
%TO.P,C1,2*%
%TO.N,GND*%
X104860000Y-37655000D03*
%TD*%
D18*
%TO.N,GND*%
X155180000Y-31360000D03*
X106440000Y-40090000D03*
%TD*%
%TO.N,+3.3V*%
D11*
X105450000Y-32760000D02*
X105450000Y-33730000D01*
X104860000Y-33810000D02*
X104890000Y-33780000D01*
X108060000Y-36105000D02*
X108080000Y-36125000D01*
X106760000Y-33780000D02*
X105500000Y-33780000D01*
X104890000Y-33780000D02*
X103190000Y-33780000D01*
X105500000Y-33780000D02*
X104890000Y-33780000D01*
X105450000Y-33730000D02*
X105500000Y-33780000D01*
X104860000Y-36105000D02*
X104860000Y-33810000D01*
X103190000Y-33780000D02*
X102790000Y-34180000D01*
X108080000Y-36125000D02*
X108080000Y-35100000D01*
X109322500Y-33780000D02*
X106760000Y-33780000D01*
X108080000Y-35100000D02*
X106760000Y-33780000D01*
%TO.N,GND*%
X104970000Y-40100000D02*
X104980000Y-40090000D01*
X104860000Y-37655000D02*
X104860000Y-39990000D01*
X144770000Y-28600000D02*
X145380000Y-29210000D01*
X104980000Y-40090000D02*
X106440000Y-40090000D01*
X104860000Y-39990000D02*
X104970000Y-40100000D01*
X138647500Y-28600000D02*
X144770000Y-28600000D01*
X155160000Y-31340000D02*
X155180000Y-31360000D01*
X108060000Y-37655000D02*
X108080000Y-37675000D01*
X108080000Y-37675000D02*
X108080000Y-40090000D01*
X108080000Y-40090000D02*
X106440000Y-40090000D01*
X145380000Y-31340000D02*
X155160000Y-31340000D01*
X145380000Y-29210000D02*
X145380000Y-31340000D01*
%TO.N,unconnected-(L1-Pad2)*%
X130220000Y-13980000D02*
X130220000Y-13690000D01*
X130000000Y-14200000D02*
X130220000Y-13980000D01*
%TO.N,Net-(L1-Pad1)*%
X114280000Y-30080000D02*
X116000000Y-28360000D01*
X116060000Y-28420000D02*
X121472500Y-28420000D01*
X114280000Y-32780000D02*
X114280000Y-30080000D01*
X116000000Y-28360000D02*
X116060000Y-28420000D01*
%TO.N,Net-(Q1-D)*%
X111247500Y-32780000D02*
X111197500Y-32830000D01*
X113260000Y-32780000D02*
X111247500Y-32780000D01*
%TO.N,Net-(Q1-G)*%
X104370000Y-28520000D02*
X107050000Y-28520000D01*
X107050000Y-28520000D02*
X107070000Y-28500000D01*
X107140000Y-31900000D02*
X107140000Y-31420000D01*
X106820000Y-31740000D02*
X107140000Y-31420000D01*
X107070000Y-28500000D02*
X107140000Y-28570000D01*
X107160000Y-31880000D02*
X107140000Y-31900000D01*
X107140000Y-28570000D02*
X107140000Y-31420000D01*
X109322500Y-31880000D02*
X107160000Y-31880000D01*
X105450000Y-31740000D02*
X106820000Y-31740000D01*
%TO.N,/GPIO*%
X103350000Y-29680000D02*
X103350000Y-28520000D01*
X102720000Y-30310000D02*
X103350000Y-29680000D01*
X102720000Y-31580000D02*
X102720000Y-30310000D01*
%TD*%
X197940000Y-29450000D02*
G01*
X196790000Y-29450000D01*
X196790000Y-27830000D01*
X197940000Y-27830000D01*
X197940000Y-29450000D01*
G37*
%TD.AperFunction*%
%TA.AperFunction,Conductor*%
%TO.N,unconnected-(L1-Pad2)*%
G36*
X185190000Y-29396369D02*
G01*
X184040000Y-29396369D01*
X184040000Y-27630000D01*
X185190000Y-27630000D01*
X185190000Y-29396369D01*
G37*
%TD.AperFunction*%
%TA.AperFunction,Conductor*%
%TO.N,unconnected-(L2-Pad1)*%
G36*
X196790801Y-29450000D02*
G01*
X191790801Y-29450000D01*
X191790801Y-29600000D01*
X204990801Y-29600000D01*
X204990801Y-39600000D01*
X176990801Y-39600000D01*
X176990801Y-29600000D01*
X191190801Y-29600000D01*
X191190801Y-29200000D01*
X191790801Y-29200000D01*
X196790801Y-29200000D01*
X196790801Y-29450000D01*
G37*
%TD.AperFunction*%
%TA.AperFunction,Conductor*%
%TO.N,unconnected-(L1-Pad2)*%
G36*
X210990801Y-29000000D02*
G01*
X206990801Y-29000000D01*
X206990301Y-28890407D01*
X206982295Y-28671366D01*
X206966296Y-28452764D01*
X206942323Y-28234891D01*
X206910409Y-28018040D01*
X206870597Y-27802499D01*
X206822939Y-27588556D01*
X206767499Y-27376496D01*
X206704352Y-27166603D01*
X206633580Y-26959156D01*
X206555280Y-26754431D01*
X206469555Y-26552703D01*
X206376520Y-26354241D01*
X206276298Y-26159309D01*
X206169024Y-25968167D01*
X206054841Y-25781070D01*
X205933900Y-25598269D01*
X205806365Y-25420006D01*
X205672403Y-25246521D01*
X205532195Y-25078043D01*
X205385928Y-24914799D01*
X205233796Y-24757005D01*
X205076002Y-24604873D01*
X204912758Y-24458606D01*
X204744280Y-24318398D01*
X204570795Y-24184436D01*
X204392532Y-24056901D01*
X204209731Y-23935960D01*
X204022634Y-23821777D01*
X203831492Y-23714503D01*
X203636560Y-23614281D01*
X203438098Y-23521246D01*
X203236370Y-23435521D01*
X203031645Y-23357221D01*
X202824198Y-23286449D01*
X202614305Y-23223302D01*
X202402245Y-23167862D01*
X202188302Y-23120204D01*
X201972761Y-23080392D01*
X201755910Y-23048478D01*
X201538037Y-23024505D01*
X201319435Y-23008506D01*
X201100394Y-23000500D01*
X200881208Y-23000500D01*
X200662167Y-23008506D01*
X200443565Y-23024505D01*
X200225692Y-23048478D01*
X200008841Y-23080392D01*
X199793300Y-23120204D01*
X199579357Y-23167862D01*
X199367297Y-23223302D01*
X199157404Y-23286449D01*
X198949957Y-23357221D01*
X198745232Y-23435521D01*
X198543504Y-23521246D01*
X198345042Y-23614281D01*
X198150110Y-23714503D01*
X197958968Y-23821777D01*
X197771871Y-23935960D01*
X197589070Y-24056901D01*
X197410807Y-24184436D01*
X197237322Y-24318398D01*
X197068844Y-24458606D01*
X196905600Y-24604873D01*
X196747806Y-24757005D01*
X196595674Y-24914799D01*
X196449407Y-25078043D01*
X196309199Y-25246521D01*
X196175237Y-25420006D01*
X196047702Y-25598269D01*
X195926761Y-25781070D01*
X195812578Y-25968167D01*
X195705304Y-26159309D01*
X195605082Y-26354241D01*
X195512047Y-26552703D01*
X195426322Y-26754431D01*
X195348022Y-26959156D01*
X195277250Y-27166603D01*
X195214103Y-27376496D01*
X195158663Y-27588556D01*
X195111005Y-27802499D01*
X195071193Y-28018040D01*
X195039279Y-28234891D01*
X195015306Y-28452764D01*
X194999307Y-28671366D01*
X194991301Y-28890407D01*
X194990801Y-29000000D01*
X190790801Y-29000000D01*
X190790801Y-29400000D01*
X190190801Y-29400000D01*
X185190801Y-29400000D01*
X185190801Y-29150000D01*
X190190801Y-29150000D01*
X190190801Y-29000000D01*
X186990801Y-29000000D01*
X186990301Y-28890407D01*
X186982295Y-28671366D01*
X186966296Y-28452764D01*
X186942323Y-28234891D01*
X186910409Y-28018040D01*
X186870597Y-27802499D01*
X186822939Y-27588556D01*
X186767499Y-27376496D01*
X186704352Y-27166603D01*
X186633580Y-26959156D01*
X186555280Y-26754431D01*
X186469555Y-26552703D01*
X186376520Y-26354241D01*
X186276298Y-26159309D01*
X186169024Y-25968167D01*
X186054841Y-25781070D01*
X185933900Y-25598269D01*
X185806365Y-25420006D01*
X185672403Y-25246521D01*
X185532195Y-25078043D01*
X185385928Y-24914799D01*
X185233796Y-24757005D01*
X185076002Y-24604873D01*
X184912758Y-24458606D01*
X184744280Y-24318398D01*
X184570795Y-24184436D01*
X184392532Y-24056901D01*
X184209731Y-23935960D01*
X184022634Y-23821777D01*
X183831492Y-23714503D01*
X183636560Y-23614281D01*
X183438098Y-23521246D01*
X183236370Y-23435521D01*
X183031645Y-23357221D01*
X182824198Y-23286449D01*
X182614305Y-23223302D01*
X182402245Y-23167862D01*
X182188302Y-23120204D01*
X181972761Y-23080392D01*
X181755910Y-23048478D01*
X181538037Y-23024505D01*
X181319435Y-23008506D01*
X181100394Y-23000500D01*
X180881208Y-23000500D01*
X180662167Y-23008506D01*
X180443565Y-23024505D01*
X180225692Y-23048478D01*
X180008841Y-23080392D01*
X179793300Y-23120204D01*
X179579357Y-23167862D01*
X179367297Y-23223302D01*
X179157404Y-23286449D01*
X178949957Y-23357221D01*
X178745232Y-23435521D01*
X178543504Y-23521246D01*
X178345042Y-23614281D01*
X178150110Y-23714503D01*
X177958968Y-23821777D01*
X177771871Y-23935960D01*
X177589070Y-24056901D01*
X177410807Y-24184436D01*
X177237322Y-24318398D01*
X177068844Y-24458606D01*
X176905600Y-24604873D01*
X176747806Y-24757005D01*
X176595674Y-24914799D01*
X176449407Y-25078043D01*
X176309199Y-25246521D01*
X176175237Y-25420006D01*
X176047702Y-25598269D01*
X175926761Y-25781070D01*
X175812578Y-25968167D01*
X175705304Y-26159309D01*
X175605082Y-26354241D01*
X175512047Y-26552703D01*
X175426322Y-26754431D01*
X175348022Y-26959156D01*
X175277250Y-27166603D01*
X175214103Y-27376496D01*
X175158663Y-27588556D01*
X175111005Y-27802499D01*
X175071193Y-28018040D01*
X175039279Y-28234891D01*
X175015306Y-28452764D01*
X174999307Y-28671366D01*
X174991301Y-28890407D01*
X174990801Y-29000000D01*
X170990801Y-29000000D01*
X170990801Y1000000D01*
X210990801Y1000000D01*
X210990801Y-29000000D01*
G37*
%TD.AperFunction*%
%TO.N,/GPIO*%
D11*
X162720000Y-30580000D02*
X164720000Y-30580000D01*
X164720000Y-32580000D01*
X162720000Y-32580000D01*
X162720000Y-30580000D01*
%TA.AperFunction,Conductor*%
G36*
X162720000Y-30580000D02*
G01*
X164720000Y-30580000D01*
X164720000Y-32580000D01*
X162720000Y-32580000D01*
X162720000Y-30580000D01*
G37*
%TD.AperFunction*%
%TO.N,+3.3V*%
X162780000Y-33180000D02*
X164780000Y-33180000D01*
X164780000Y-35180000D01*
X162780000Y-35180000D01*
X162780000Y-33180000D01*
%TA.AperFunction,Conductor*%
G36*
X162780000Y-33180000D02*
G01*
X164780000Y-33180000D01*
X164780000Y-35180000D01*
X162780000Y-35180000D01*
X162780000Y-33180000D01*
G37*
%TD.AperFunction*%
%TD*%
D12*
%TO.P,L1,2,2_2*%
%TO.N,unconnected-(L1-Pad2)*%
X184047500Y-28420000D03*
%TO.P,L1,1,1_1*%
%TO.N,Net-(L1-Pad1)*%
X182472500Y-28420000D03*
%TD*%
D13*
%TO.P,Q1,1,G_1*%
%TO.N,Net-(Q1-G)*%
X170322500Y-31880000D03*
%TO.P,Q1,2,S_2*%
%TO.N,+3.3V*%
X170322500Y-33780000D03*
%TO.P,Q1,3,D_3*%
%TO.N,Net-(Q1-D)*%
X172197500Y-32830000D03*
%TD*%
D14*
%TO.P,R2,1*%
%TO.N,Net-(Q1-G)*%
X165370000Y-28520000D03*
%TO.P,R2,2*%
%TO.N,/GPIO*%
X164350000Y-28520000D03*
%TD*%
D15*
%TO.P,R3,1*%
%TO.N,Net-(Q1-G)*%
X166450000Y-31740000D03*
%TO.P,R3,2*%
%TO.N,+3.3V*%
X166450000Y-32760000D03*
%TD*%
D12*
%TO.P,L2,1,1_1*%
%TO.N,unconnected-(L2-Pad1)*%
X198072500Y-28600000D03*
%TO.P,L2,2,2_2*%
%TO.N,GND*%
X199647500Y-28600000D03*
%TD*%
D16*
%TO.P,C2,1*%
%TO.N,+3.3V*%
X169080000Y-36125000D03*
%TO.P,C2,2*%
%TO.N,GND*%
X169080000Y-37675000D03*
%TD*%
D17*
%TO.P,R1,1*%
%TO.N,Net-(Q1-D)*%
X174260000Y-32780000D03*
%TO.P,R1,2*%
%TO.N,Net-(L1-Pad1)*%
X175280000Y-32780000D03*
%TD*%
D16*
%TO.P,C1,1*%
%TO.N,+3.3V*%
X165860000Y-36105000D03*
%TO.P,C1,2*%
%TO.N,GND*%
X165860000Y-37655000D03*
%TD*%
D18*
%TO.N,GND*%
X216180000Y-31360000D03*
X167440000Y-40090000D03*
%TD*%
%TO.N,+3.3V*%
D11*
X166450000Y-32760000D02*
X166450000Y-33730000D01*
X165860000Y-33810000D02*
X165890000Y-33780000D01*
X169060000Y-36105000D02*
X169080000Y-36125000D01*
X167760000Y-33780000D02*
X166500000Y-33780000D01*
X165890000Y-33780000D02*
X164190000Y-33780000D01*
X166500000Y-33780000D02*
X165890000Y-33780000D01*
X166450000Y-33730000D02*
X166500000Y-33780000D01*
X165860000Y-36105000D02*
X165860000Y-33810000D01*
X164190000Y-33780000D02*
X163790000Y-34180000D01*
X169080000Y-36125000D02*
X169080000Y-35100000D01*
X170322500Y-33780000D02*
X167760000Y-33780000D01*
X169080000Y-35100000D02*
X167760000Y-33780000D01*
%TO.N,GND*%
X165970000Y-40100000D02*
X165980000Y-40090000D01*
X165860000Y-37655000D02*
X165860000Y-39990000D01*
X205770000Y-28600000D02*
X206380000Y-29210000D01*
X165980000Y-40090000D02*
X167440000Y-40090000D01*
X165860000Y-39990000D02*
X165970000Y-40100000D01*
X199647500Y-28600000D02*
X205770000Y-28600000D01*
X216160000Y-31340000D02*
X216180000Y-31360000D01*
X169060000Y-37655000D02*
X169080000Y-37675000D01*
X169080000Y-37675000D02*
X169080000Y-40090000D01*
X169080000Y-40090000D02*
X167440000Y-40090000D01*
X206380000Y-31340000D02*
X216160000Y-31340000D01*
X206380000Y-29210000D02*
X206380000Y-31340000D01*
%TO.N,unconnected-(L1-Pad2)*%
X191220000Y-13980000D02*
X191220000Y-13690000D01*
X191000000Y-14200000D02*
X191220000Y-13980000D01*
%TO.N,Net-(L1-Pad1)*%
X175280000Y-30080000D02*
X177000000Y-28360000D01*
X177060000Y-28420000D02*
X182472500Y-28420000D01*
X175280000Y-32780000D02*
X175280000Y-30080000D01*
X177000000Y-28360000D02*
X177060000Y-28420000D01*
%TO.N,Net-(Q1-D)*%
X172247500Y-32780000D02*
X172197500Y-32830000D01*
X174260000Y-32780000D02*
X172247500Y-32780000D01*
%TO.N,Net-(Q1-G)*%
X165370000Y-28520000D02*
X168050000Y-28520000D01*
X168050000Y-28520000D02*
X168070000Y-28500000D01*
X168140000Y-31900000D02*
X168140000Y-31420000D01*
X167820000Y-31740000D02*
X168140000Y-31420000D01*
X168070000Y-28500000D02*
X168140000Y-28570000D01*
X168160000Y-31880000D02*
X168140000Y-31900000D01*
X168140000Y-28570000D02*
X168140000Y-31420000D01*
X170322500Y-31880000D02*
X168160000Y-31880000D01*
X166450000Y-31740000D02*
X167820000Y-31740000D01*
%TO.N,/GPIO*%
X164350000Y-29680000D02*
X164350000Y-28520000D01*
X163720000Y-30310000D02*
X164350000Y-29680000D01*
X163720000Y-31580000D02*
X163720000Y-30310000D01*
%TD*%
X258940000Y-29450000D02*
G01*
X257790000Y-29450000D01*
X257790000Y-27830000D01*
X258940000Y-27830000D01*
X258940000Y-29450000D01*
G37*
%TD.AperFunction*%
%TA.AperFunction,Conductor*%
%TO.N,unconnected-(L1-Pad2)*%
G36*
X246190000Y-29396369D02*
G01*
X245040000Y-29396369D01*
X245040000Y-27630000D01*
X246190000Y-27630000D01*
X246190000Y-29396369D01*
G37*
%TD.AperFunction*%
%TA.AperFunction,Conductor*%
%TO.N,unconnected-(L2-Pad1)*%
G36*
X257790801Y-29450000D02*
G01*
X252790801Y-29450000D01*
X252790801Y-29600000D01*
X265990801Y-29600000D01*
X265990801Y-39600000D01*
X237990801Y-39600000D01*
X237990801Y-29600000D01*
X252190801Y-29600000D01*
X252190801Y-29200000D01*
X252790801Y-29200000D01*
X257790801Y-29200000D01*
X257790801Y-29450000D01*
G37*
%TD.AperFunction*%
%TA.AperFunction,Conductor*%
%TO.N,unconnected-(L1-Pad2)*%
G36*
X271990801Y-29000000D02*
G01*
X267990801Y-29000000D01*
X267990301Y-28890407D01*
X267982295Y-28671366D01*
X267966296Y-28452764D01*
X267942323Y-28234891D01*
X267910409Y-28018040D01*
X267870597Y-27802499D01*
X267822939Y-27588556D01*
X267767499Y-27376496D01*
X267704352Y-27166603D01*
X267633580Y-26959156D01*
X267555280Y-26754431D01*
X267469555Y-26552703D01*
X267376520Y-26354241D01*
X267276298Y-26159309D01*
X267169024Y-25968167D01*
X267054841Y-25781070D01*
X266933900Y-25598269D01*
X266806365Y-25420006D01*
X266672403Y-25246521D01*
X266532195Y-25078043D01*
X266385928Y-24914799D01*
X266233796Y-24757005D01*
X266076002Y-24604873D01*
X265912758Y-24458606D01*
X265744280Y-24318398D01*
X265570795Y-24184436D01*
X265392532Y-24056901D01*
X265209731Y-23935960D01*
X265022634Y-23821777D01*
X264831492Y-23714503D01*
X264636560Y-23614281D01*
X264438098Y-23521246D01*
X264236370Y-23435521D01*
X264031645Y-23357221D01*
X263824198Y-23286449D01*
X263614305Y-23223302D01*
X263402245Y-23167862D01*
X263188302Y-23120204D01*
X262972761Y-23080392D01*
X262755910Y-23048478D01*
X262538037Y-23024505D01*
X262319435Y-23008506D01*
X262100394Y-23000500D01*
X261881208Y-23000500D01*
X261662167Y-23008506D01*
X261443565Y-23024505D01*
X261225692Y-23048478D01*
X261008841Y-23080392D01*
X260793300Y-23120204D01*
X260579357Y-23167862D01*
X260367297Y-23223302D01*
X260157404Y-23286449D01*
X259949957Y-23357221D01*
X259745232Y-23435521D01*
X259543504Y-23521246D01*
X259345042Y-23614281D01*
X259150110Y-23714503D01*
X258958968Y-23821777D01*
X258771871Y-23935960D01*
X258589070Y-24056901D01*
X258410807Y-24184436D01*
X258237322Y-24318398D01*
X258068844Y-24458606D01*
X257905600Y-24604873D01*
X257747806Y-24757005D01*
X257595674Y-24914799D01*
X257449407Y-25078043D01*
X257309199Y-25246521D01*
X257175237Y-25420006D01*
X257047702Y-25598269D01*
X256926761Y-25781070D01*
X256812578Y-25968167D01*
X256705304Y-26159309D01*
X256605082Y-26354241D01*
X256512047Y-26552703D01*
X256426322Y-26754431D01*
X256348022Y-26959156D01*
X256277250Y-27166603D01*
X256214103Y-27376496D01*
X256158663Y-27588556D01*
X256111005Y-27802499D01*
X256071193Y-28018040D01*
X256039279Y-28234891D01*
X256015306Y-28452764D01*
X255999307Y-28671366D01*
X255991301Y-28890407D01*
X255990801Y-29000000D01*
X251790801Y-29000000D01*
X251790801Y-29400000D01*
X251190801Y-29400000D01*
X246190801Y-29400000D01*
X246190801Y-29150000D01*
X251190801Y-29150000D01*
X251190801Y-29000000D01*
X247990801Y-29000000D01*
X247990301Y-28890407D01*
X247982295Y-28671366D01*
X247966296Y-28452764D01*
X247942323Y-28234891D01*
X247910409Y-28018040D01*
X247870597Y-27802499D01*
X247822939Y-27588556D01*
X247767499Y-27376496D01*
X247704352Y-27166603D01*
X247633580Y-26959156D01*
X247555280Y-26754431D01*
X247469555Y-26552703D01*
X247376520Y-26354241D01*
X247276298Y-26159309D01*
X247169024Y-25968167D01*
X247054841Y-25781070D01*
X246933900Y-25598269D01*
X246806365Y-25420006D01*
X246672403Y-25246521D01*
X246532195Y-25078043D01*
X246385928Y-24914799D01*
X246233796Y-24757005D01*
X246076002Y-24604873D01*
X245912758Y-24458606D01*
X245744280Y-24318398D01*
X245570795Y-24184436D01*
X245392532Y-24056901D01*
X245209731Y-23935960D01*
X245022634Y-23821777D01*
X244831492Y-23714503D01*
X244636560Y-23614281D01*
X244438098Y-23521246D01*
X244236370Y-23435521D01*
X244031645Y-23357221D01*
X243824198Y-23286449D01*
X243614305Y-23223302D01*
X243402245Y-23167862D01*
X243188302Y-23120204D01*
X242972761Y-23080392D01*
X242755910Y-23048478D01*
X242538037Y-23024505D01*
X242319435Y-23008506D01*
X242100394Y-23000500D01*
X241881208Y-23000500D01*
X241662167Y-23008506D01*
X241443565Y-23024505D01*
X241225692Y-23048478D01*
X241008841Y-23080392D01*
X240793300Y-23120204D01*
X240579357Y-23167862D01*
X240367297Y-23223302D01*
X240157404Y-23286449D01*
X239949957Y-23357221D01*
X239745232Y-23435521D01*
X239543504Y-23521246D01*
X239345042Y-23614281D01*
X239150110Y-23714503D01*
X238958968Y-23821777D01*
X238771871Y-23935960D01*
X238589070Y-24056901D01*
X238410807Y-24184436D01*
X238237322Y-24318398D01*
X238068844Y-24458606D01*
X237905600Y-24604873D01*
X237747806Y-24757005D01*
X237595674Y-24914799D01*
X237449407Y-25078043D01*
X237309199Y-25246521D01*
X237175237Y-25420006D01*
X237047702Y-25598269D01*
X236926761Y-25781070D01*
X236812578Y-25968167D01*
X236705304Y-26159309D01*
X236605082Y-26354241D01*
X236512047Y-26552703D01*
X236426322Y-26754431D01*
X236348022Y-26959156D01*
X236277250Y-27166603D01*
X236214103Y-27376496D01*
X236158663Y-27588556D01*
X236111005Y-27802499D01*
X236071193Y-28018040D01*
X236039279Y-28234891D01*
X236015306Y-28452764D01*
X235999307Y-28671366D01*
X235991301Y-28890407D01*
X235990801Y-29000000D01*
X231990801Y-29000000D01*
X231990801Y1000000D01*
X271990801Y1000000D01*
X271990801Y-29000000D01*
G37*
%TD.AperFunction*%
%TO.N,/GPIO*%
D11*
X223720000Y-30580000D02*
X225720000Y-30580000D01*
X225720000Y-32580000D01*
X223720000Y-32580000D01*
X223720000Y-30580000D01*
%TA.AperFunction,Conductor*%
G36*
X223720000Y-30580000D02*
G01*
X225720000Y-30580000D01*
X225720000Y-32580000D01*
X223720000Y-32580000D01*
X223720000Y-30580000D01*
G37*
%TD.AperFunction*%
%TO.N,+3.3V*%
X223780000Y-33180000D02*
X225780000Y-33180000D01*
X225780000Y-35180000D01*
X223780000Y-35180000D01*
X223780000Y-33180000D01*
%TA.AperFunction,Conductor*%
G36*
X223780000Y-33180000D02*
G01*
X225780000Y-33180000D01*
X225780000Y-35180000D01*
X223780000Y-35180000D01*
X223780000Y-33180000D01*
G37*
%TD.AperFunction*%
%TD*%
D12*
%TO.P,L1,2,2_2*%
%TO.N,unconnected-(L1-Pad2)*%
X245047500Y-28420000D03*
%TO.P,L1,1,1_1*%
%TO.N,Net-(L1-Pad1)*%
X243472500Y-28420000D03*
%TD*%
D13*
%TO.P,Q1,1,G_1*%
%TO.N,Net-(Q1-G)*%
X231322500Y-31880000D03*
%TO.P,Q1,2,S_2*%
%TO.N,+3.3V*%
X231322500Y-33780000D03*
%TO.P,Q1,3,D_3*%
%TO.N,Net-(Q1-D)*%
X233197500Y-32830000D03*
%TD*%
D14*
%TO.P,R2,1*%
%TO.N,Net-(Q1-G)*%
X226370000Y-28520000D03*
%TO.P,R2,2*%
%TO.N,/GPIO*%
X225350000Y-28520000D03*
%TD*%
D15*
%TO.P,R3,1*%
%TO.N,Net-(Q1-G)*%
X227450000Y-31740000D03*
%TO.P,R3,2*%
%TO.N,+3.3V*%
X227450000Y-32760000D03*
%TD*%
D12*
%TO.P,L2,1,1_1*%
%TO.N,unconnected-(L2-Pad1)*%
X259072500Y-28600000D03*
%TO.P,L2,2,2_2*%
%TO.N,GND*%
X260647500Y-28600000D03*
%TD*%
D16*
%TO.P,C2,1*%
%TO.N,+3.3V*%
X230080000Y-36125000D03*
%TO.P,C2,2*%
%TO.N,GND*%
X230080000Y-37675000D03*
%TD*%
D17*
%TO.P,R1,1*%
%TO.N,Net-(Q1-D)*%
X235260000Y-32780000D03*
%TO.P,R1,2*%
%TO.N,Net-(L1-Pad1)*%
X236280000Y-32780000D03*
%TD*%
D16*
%TO.P,C1,1*%
%TO.N,+3.3V*%
X226860000Y-36105000D03*
%TO.P,C1,2*%
%TO.N,GND*%
X226860000Y-37655000D03*
%TD*%
D18*
%TO.N,GND*%
X277180000Y-31360000D03*
X228440000Y-40090000D03*
%TD*%
%TO.N,+3.3V*%
D11*
X227450000Y-32760000D02*
X227450000Y-33730000D01*
X226860000Y-33810000D02*
X226890000Y-33780000D01*
X230060000Y-36105000D02*
X230080000Y-36125000D01*
X228760000Y-33780000D02*
X227500000Y-33780000D01*
X226890000Y-33780000D02*
X225190000Y-33780000D01*
X227500000Y-33780000D02*
X226890000Y-33780000D01*
X227450000Y-33730000D02*
X227500000Y-33780000D01*
X226860000Y-36105000D02*
X226860000Y-33810000D01*
X225190000Y-33780000D02*
X224790000Y-34180000D01*
X230080000Y-36125000D02*
X230080000Y-35100000D01*
X231322500Y-33780000D02*
X228760000Y-33780000D01*
X230080000Y-35100000D02*
X228760000Y-33780000D01*
%TO.N,GND*%
X226970000Y-40100000D02*
X226980000Y-40090000D01*
X226860000Y-37655000D02*
X226860000Y-39990000D01*
X266770000Y-28600000D02*
X267380000Y-29210000D01*
X226980000Y-40090000D02*
X228440000Y-40090000D01*
X226860000Y-39990000D02*
X226970000Y-40100000D01*
X260647500Y-28600000D02*
X266770000Y-28600000D01*
X277160000Y-31340000D02*
X277180000Y-31360000D01*
X230060000Y-37655000D02*
X230080000Y-37675000D01*
X230080000Y-37675000D02*
X230080000Y-40090000D01*
X230080000Y-40090000D02*
X228440000Y-40090000D01*
X267380000Y-31340000D02*
X277160000Y-31340000D01*
X267380000Y-29210000D02*
X267380000Y-31340000D01*
%TO.N,unconnected-(L1-Pad2)*%
X252220000Y-13980000D02*
X252220000Y-13690000D01*
X252000000Y-14200000D02*
X252220000Y-13980000D01*
%TO.N,Net-(L1-Pad1)*%
X236280000Y-30080000D02*
X238000000Y-28360000D01*
X238060000Y-28420000D02*
X243472500Y-28420000D01*
X236280000Y-32780000D02*
X236280000Y-30080000D01*
X238000000Y-28360000D02*
X238060000Y-28420000D01*
%TO.N,Net-(Q1-D)*%
X233247500Y-32780000D02*
X233197500Y-32830000D01*
X235260000Y-32780000D02*
X233247500Y-32780000D01*
%TO.N,Net-(Q1-G)*%
X226370000Y-28520000D02*
X229050000Y-28520000D01*
X229050000Y-28520000D02*
X229070000Y-28500000D01*
X229140000Y-31900000D02*
X229140000Y-31420000D01*
X228820000Y-31740000D02*
X229140000Y-31420000D01*
X229070000Y-28500000D02*
X229140000Y-28570000D01*
X229160000Y-31880000D02*
X229140000Y-31900000D01*
X229140000Y-28570000D02*
X229140000Y-31420000D01*
X231322500Y-31880000D02*
X229160000Y-31880000D01*
X227450000Y-31740000D02*
X228820000Y-31740000D01*
%TO.N,/GPIO*%
X225350000Y-29680000D02*
X225350000Y-28520000D01*
X224720000Y-30310000D02*
X225350000Y-29680000D01*
X224720000Y-31580000D02*
X224720000Y-30310000D01*
%TD*%
X319940000Y-29450000D02*
G01*
X318790000Y-29450000D01*
X318790000Y-27830000D01*
X319940000Y-27830000D01*
X319940000Y-29450000D01*
G37*
%TD.AperFunction*%
%TA.AperFunction,Conductor*%
%TO.N,unconnected-(L1-Pad2)*%
G36*
X307190000Y-29396369D02*
G01*
X306040000Y-29396369D01*
X306040000Y-27630000D01*
X307190000Y-27630000D01*
X307190000Y-29396369D01*
G37*
%TD.AperFunction*%
%TA.AperFunction,Conductor*%
%TO.N,unconnected-(L2-Pad1)*%
G36*
X318790801Y-29450000D02*
G01*
X313790801Y-29450000D01*
X313790801Y-29600000D01*
X326990801Y-29600000D01*
X326990801Y-39600000D01*
X298990801Y-39600000D01*
X298990801Y-29600000D01*
X313190801Y-29600000D01*
X313190801Y-29200000D01*
X313790801Y-29200000D01*
X318790801Y-29200000D01*
X318790801Y-29450000D01*
G37*
%TD.AperFunction*%
%TA.AperFunction,Conductor*%
%TO.N,unconnected-(L1-Pad2)*%
G36*
X332990801Y-29000000D02*
G01*
X328990801Y-29000000D01*
X328990301Y-28890407D01*
X328982295Y-28671366D01*
X328966296Y-28452764D01*
X328942323Y-28234891D01*
X328910409Y-28018040D01*
X328870597Y-27802499D01*
X328822939Y-27588556D01*
X328767499Y-27376496D01*
X328704352Y-27166603D01*
X328633580Y-26959156D01*
X328555280Y-26754431D01*
X328469555Y-26552703D01*
X328376520Y-26354241D01*
X328276298Y-26159309D01*
X328169024Y-25968167D01*
X328054841Y-25781070D01*
X327933900Y-25598269D01*
X327806365Y-25420006D01*
X327672403Y-25246521D01*
X327532195Y-25078043D01*
X327385928Y-24914799D01*
X327233796Y-24757005D01*
X327076002Y-24604873D01*
X326912758Y-24458606D01*
X326744280Y-24318398D01*
X326570795Y-24184436D01*
X326392532Y-24056901D01*
X326209731Y-23935960D01*
X326022634Y-23821777D01*
X325831492Y-23714503D01*
X325636560Y-23614281D01*
X325438098Y-23521246D01*
X325236370Y-23435521D01*
X325031645Y-23357221D01*
X324824198Y-23286449D01*
X324614305Y-23223302D01*
X324402245Y-23167862D01*
X324188302Y-23120204D01*
X323972761Y-23080392D01*
X323755910Y-23048478D01*
X323538037Y-23024505D01*
X323319435Y-23008506D01*
X323100394Y-23000500D01*
X322881208Y-23000500D01*
X322662167Y-23008506D01*
X322443565Y-23024505D01*
X322225692Y-23048478D01*
X322008841Y-23080392D01*
X321793300Y-23120204D01*
X321579357Y-23167862D01*
X321367297Y-23223302D01*
X321157404Y-23286449D01*
X320949957Y-23357221D01*
X320745232Y-23435521D01*
X320543504Y-23521246D01*
X320345042Y-23614281D01*
X320150110Y-23714503D01*
X319958968Y-23821777D01*
X319771871Y-23935960D01*
X319589070Y-24056901D01*
X319410807Y-24184436D01*
X319237322Y-24318398D01*
X319068844Y-24458606D01*
X318905600Y-24604873D01*
X318747806Y-24757005D01*
X318595674Y-24914799D01*
X318449407Y-25078043D01*
X318309199Y-25246521D01*
X318175237Y-25420006D01*
X318047702Y-25598269D01*
X317926761Y-25781070D01*
X317812578Y-25968167D01*
X317705304Y-26159309D01*
X317605082Y-26354241D01*
X317512047Y-26552703D01*
X317426322Y-26754431D01*
X317348022Y-26959156D01*
X317277250Y-27166603D01*
X317214103Y-27376496D01*
X317158663Y-27588556D01*
X317111005Y-27802499D01*
X317071193Y-28018040D01*
X317039279Y-28234891D01*
X317015306Y-28452764D01*
X316999307Y-28671366D01*
X316991301Y-28890407D01*
X316990801Y-29000000D01*
X312790801Y-29000000D01*
X312790801Y-29400000D01*
X312190801Y-29400000D01*
X307190801Y-29400000D01*
X307190801Y-29150000D01*
X312190801Y-29150000D01*
X312190801Y-29000000D01*
X308990801Y-29000000D01*
X308990301Y-28890407D01*
X308982295Y-28671366D01*
X308966296Y-28452764D01*
X308942323Y-28234891D01*
X308910409Y-28018040D01*
X308870597Y-27802499D01*
X308822939Y-27588556D01*
X308767499Y-27376496D01*
X308704352Y-27166603D01*
X308633580Y-26959156D01*
X308555280Y-26754431D01*
X308469555Y-26552703D01*
X308376520Y-26354241D01*
X308276298Y-26159309D01*
X308169024Y-25968167D01*
X308054841Y-25781070D01*
X307933900Y-25598269D01*
X307806365Y-25420006D01*
X307672403Y-25246521D01*
X307532195Y-25078043D01*
X307385928Y-24914799D01*
X307233796Y-24757005D01*
X307076002Y-24604873D01*
X306912758Y-24458606D01*
X306744280Y-24318398D01*
X306570795Y-24184436D01*
X306392532Y-24056901D01*
X306209731Y-23935960D01*
X306022634Y-23821777D01*
X305831492Y-23714503D01*
X305636560Y-23614281D01*
X305438098Y-23521246D01*
X305236370Y-23435521D01*
X305031645Y-23357221D01*
X304824198Y-23286449D01*
X304614305Y-23223302D01*
X304402245Y-23167862D01*
X304188302Y-23120204D01*
X303972761Y-23080392D01*
X303755910Y-23048478D01*
X303538037Y-23024505D01*
X303319435Y-23008506D01*
X303100394Y-23000500D01*
X302881208Y-23000500D01*
X302662167Y-23008506D01*
X302443565Y-23024505D01*
X302225692Y-23048478D01*
X302008841Y-23080392D01*
X301793300Y-23120204D01*
X301579357Y-23167862D01*
X301367297Y-23223302D01*
X301157404Y-23286449D01*
X300949957Y-23357221D01*
X300745232Y-23435521D01*
X300543504Y-23521246D01*
X300345042Y-23614281D01*
X300150110Y-23714503D01*
X299958968Y-23821777D01*
X299771871Y-23935960D01*
X299589070Y-24056901D01*
X299410807Y-24184436D01*
X299237322Y-24318398D01*
X299068844Y-24458606D01*
X298905600Y-24604873D01*
X298747806Y-24757005D01*
X298595674Y-24914799D01*
X298449407Y-25078043D01*
X298309199Y-25246521D01*
X298175237Y-25420006D01*
X298047702Y-25598269D01*
X297926761Y-25781070D01*
X297812578Y-25968167D01*
X297705304Y-26159309D01*
X297605082Y-26354241D01*
X297512047Y-26552703D01*
X297426322Y-26754431D01*
X297348022Y-26959156D01*
X297277250Y-27166603D01*
X297214103Y-27376496D01*
X297158663Y-27588556D01*
X297111005Y-27802499D01*
X297071193Y-28018040D01*
X297039279Y-28234891D01*
X297015306Y-28452764D01*
X296999307Y-28671366D01*
X296991301Y-28890407D01*
X296990801Y-29000000D01*
X292990801Y-29000000D01*
X292990801Y1000000D01*
X332990801Y1000000D01*
X332990801Y-29000000D01*
G37*
%TD.AperFunction*%
%TO.N,/GPIO*%
D11*
X284720000Y-30580000D02*
X286720000Y-30580000D01*
X286720000Y-32580000D01*
X284720000Y-32580000D01*
X284720000Y-30580000D01*
%TA.AperFunction,Conductor*%
G36*
X284720000Y-30580000D02*
G01*
X286720000Y-30580000D01*
X286720000Y-32580000D01*
X284720000Y-32580000D01*
X284720000Y-30580000D01*
G37*
%TD.AperFunction*%
%TO.N,+3.3V*%
X284780000Y-33180000D02*
X286780000Y-33180000D01*
X286780000Y-35180000D01*
X284780000Y-35180000D01*
X284780000Y-33180000D01*
%TA.AperFunction,Conductor*%
G36*
X284780000Y-33180000D02*
G01*
X286780000Y-33180000D01*
X286780000Y-35180000D01*
X284780000Y-35180000D01*
X284780000Y-33180000D01*
G37*
%TD.AperFunction*%
%TD*%
D12*
%TO.P,L1,2,2_2*%
%TO.N,unconnected-(L1-Pad2)*%
X306047500Y-28420000D03*
%TO.P,L1,1,1_1*%
%TO.N,Net-(L1-Pad1)*%
X304472500Y-28420000D03*
%TD*%
D13*
%TO.P,Q1,1,G_1*%
%TO.N,Net-(Q1-G)*%
X292322500Y-31880000D03*
%TO.P,Q1,2,S_2*%
%TO.N,+3.3V*%
X292322500Y-33780000D03*
%TO.P,Q1,3,D_3*%
%TO.N,Net-(Q1-D)*%
X294197500Y-32830000D03*
%TD*%
D14*
%TO.P,R2,1*%
%TO.N,Net-(Q1-G)*%
X287370000Y-28520000D03*
%TO.P,R2,2*%
%TO.N,/GPIO*%
X286350000Y-28520000D03*
%TD*%
D15*
%TO.P,R3,1*%
%TO.N,Net-(Q1-G)*%
X288450000Y-31740000D03*
%TO.P,R3,2*%
%TO.N,+3.3V*%
X288450000Y-32760000D03*
%TD*%
D12*
%TO.P,L2,1,1_1*%
%TO.N,unconnected-(L2-Pad1)*%
X320072500Y-28600000D03*
%TO.P,L2,2,2_2*%
%TO.N,GND*%
X321647500Y-28600000D03*
%TD*%
D16*
%TO.P,C2,1*%
%TO.N,+3.3V*%
X291080000Y-36125000D03*
%TO.P,C2,2*%
%TO.N,GND*%
X291080000Y-37675000D03*
%TD*%
D17*
%TO.P,R1,1*%
%TO.N,Net-(Q1-D)*%
X296260000Y-32780000D03*
%TO.P,R1,2*%
%TO.N,Net-(L1-Pad1)*%
X297280000Y-32780000D03*
%TD*%
D16*
%TO.P,C1,1*%
%TO.N,+3.3V*%
X287860000Y-36105000D03*
%TO.P,C1,2*%
%TO.N,GND*%
X287860000Y-37655000D03*
%TD*%
D18*
%TO.N,GND*%
X338180000Y-31360000D03*
X289440000Y-40090000D03*
%TD*%
%TO.N,+3.3V*%
D11*
X288450000Y-32760000D02*
X288450000Y-33730000D01*
X287860000Y-33810000D02*
X287890000Y-33780000D01*
X291060000Y-36105000D02*
X291080000Y-36125000D01*
X289760000Y-33780000D02*
X288500000Y-33780000D01*
X287890000Y-33780000D02*
X286190000Y-33780000D01*
X288500000Y-33780000D02*
X287890000Y-33780000D01*
X288450000Y-33730000D02*
X288500000Y-33780000D01*
X287860000Y-36105000D02*
X287860000Y-33810000D01*
X286190000Y-33780000D02*
X285790000Y-34180000D01*
X291080000Y-36125000D02*
X291080000Y-35100000D01*
X292322500Y-33780000D02*
X289760000Y-33780000D01*
X291080000Y-35100000D02*
X289760000Y-33780000D01*
%TO.N,GND*%
X287970000Y-40100000D02*
X287980000Y-40090000D01*
X287860000Y-37655000D02*
X287860000Y-39990000D01*
X327770000Y-28600000D02*
X328380000Y-29210000D01*
X287980000Y-40090000D02*
X289440000Y-40090000D01*
X287860000Y-39990000D02*
X287970000Y-40100000D01*
X321647500Y-28600000D02*
X327770000Y-28600000D01*
X338160000Y-31340000D02*
X338180000Y-31360000D01*
X291060000Y-37655000D02*
X291080000Y-37675000D01*
X291080000Y-37675000D02*
X291080000Y-40090000D01*
X291080000Y-40090000D02*
X289440000Y-40090000D01*
X328380000Y-31340000D02*
X338160000Y-31340000D01*
X328380000Y-29210000D02*
X328380000Y-31340000D01*
%TO.N,unconnected-(L1-Pad2)*%
X313220000Y-13980000D02*
X313220000Y-13690000D01*
X313000000Y-14200000D02*
X313220000Y-13980000D01*
%TO.N,Net-(L1-Pad1)*%
X297280000Y-30080000D02*
X299000000Y-28360000D01*
X299060000Y-28420000D02*
X304472500Y-28420000D01*
X297280000Y-32780000D02*
X297280000Y-30080000D01*
X299000000Y-28360000D02*
X299060000Y-28420000D01*
%TO.N,Net-(Q1-D)*%
X294247500Y-32780000D02*
X294197500Y-32830000D01*
X296260000Y-32780000D02*
X294247500Y-32780000D01*
%TO.N,Net-(Q1-G)*%
X287370000Y-28520000D02*
X290050000Y-28520000D01*
X290050000Y-28520000D02*
X290070000Y-28500000D01*
X290140000Y-31900000D02*
X290140000Y-31420000D01*
X289820000Y-31740000D02*
X290140000Y-31420000D01*
X290070000Y-28500000D02*
X290140000Y-28570000D01*
X290160000Y-31880000D02*
X290140000Y-31900000D01*
X290140000Y-28570000D02*
X290140000Y-31420000D01*
X292322500Y-31880000D02*
X290160000Y-31880000D01*
X288450000Y-31740000D02*
X289820000Y-31740000D01*
%TO.N,/GPIO*%
X286350000Y-29680000D02*
X286350000Y-28520000D01*
X285720000Y-30310000D02*
X286350000Y-29680000D01*
X285720000Y-31580000D02*
X285720000Y-30310000D01*
%TD*%
X136940000Y31550000D02*
G01*
X135790000Y31550000D01*
X135790000Y33170000D01*
X136940000Y33170000D01*
X136940000Y31550000D01*
G37*
%TD.AperFunction*%
%TA.AperFunction,Conductor*%
%TO.N,unconnected-(L1-Pad2)*%
G36*
X124190000Y31603631D02*
G01*
X123040000Y31603631D01*
X123040000Y33370000D01*
X124190000Y33370000D01*
X124190000Y31603631D01*
G37*
%TD.AperFunction*%
%TA.AperFunction,Conductor*%
%TO.N,unconnected-(L2-Pad1)*%
G36*
X135790801Y31550000D02*
G01*
X130790801Y31550000D01*
X130790801Y31400000D01*
X143990801Y31400000D01*
X143990801Y21400000D01*
X115990801Y21400000D01*
X115990801Y31400000D01*
X130190801Y31400000D01*
X130190801Y31800000D01*
X130790801Y31800000D01*
X135790801Y31800000D01*
X135790801Y31550000D01*
G37*
%TD.AperFunction*%
%TA.AperFunction,Conductor*%
%TO.N,unconnected-(L1-Pad2)*%
G36*
X149990801Y32000000D02*
G01*
X145990801Y32000000D01*
X145990301Y32109593D01*
X145982295Y32328634D01*
X145966296Y32547236D01*
X145942323Y32765109D01*
X145910409Y32981960D01*
X145870597Y33197501D01*
X145822939Y33411444D01*
X145767499Y33623504D01*
X145704352Y33833397D01*
X145633580Y34040844D01*
X145555280Y34245569D01*
X145469555Y34447297D01*
X145376520Y34645759D01*
X145276298Y34840691D01*
X145169024Y35031833D01*
X145054841Y35218930D01*
X144933900Y35401731D01*
X144806365Y35579994D01*
X144672403Y35753479D01*
X144532195Y35921957D01*
X144385928Y36085201D01*
X144233796Y36242995D01*
X144076002Y36395127D01*
X143912758Y36541394D01*
X143744280Y36681602D01*
X143570795Y36815564D01*
X143392532Y36943099D01*
X143209731Y37064040D01*
X143022634Y37178223D01*
X142831492Y37285497D01*
X142636560Y37385719D01*
X142438098Y37478754D01*
X142236370Y37564479D01*
X142031645Y37642779D01*
X141824198Y37713551D01*
X141614305Y37776698D01*
X141402245Y37832138D01*
X141188302Y37879796D01*
X140972761Y37919608D01*
X140755910Y37951522D01*
X140538037Y37975495D01*
X140319435Y37991494D01*
X140100394Y37999500D01*
X139881208Y37999500D01*
X139662167Y37991494D01*
X139443565Y37975495D01*
X139225692Y37951522D01*
X139008841Y37919608D01*
X138793300Y37879796D01*
X138579357Y37832138D01*
X138367297Y37776698D01*
X138157404Y37713551D01*
X137949957Y37642779D01*
X137745232Y37564479D01*
X137543504Y37478754D01*
X137345042Y37385719D01*
X137150110Y37285497D01*
X136958968Y37178223D01*
X136771871Y37064040D01*
X136589070Y36943099D01*
X136410807Y36815564D01*
X136237322Y36681602D01*
X136068844Y36541394D01*
X135905600Y36395127D01*
X135747806Y36242995D01*
X135595674Y36085201D01*
X135449407Y35921957D01*
X135309199Y35753479D01*
X135175237Y35579994D01*
X135047702Y35401731D01*
X134926761Y35218930D01*
X134812578Y35031833D01*
X134705304Y34840691D01*
X134605082Y34645759D01*
X134512047Y34447297D01*
X134426322Y34245569D01*
X134348022Y34040844D01*
X134277250Y33833397D01*
X134214103Y33623504D01*
X134158663Y33411444D01*
X134111005Y33197501D01*
X134071193Y32981960D01*
X134039279Y32765109D01*
X134015306Y32547236D01*
X133999307Y32328634D01*
X133991301Y32109593D01*
X133990801Y32000000D01*
X129790801Y32000000D01*
X129790801Y31600000D01*
X129190801Y31600000D01*
X124190801Y31600000D01*
X124190801Y31850000D01*
X129190801Y31850000D01*
X129190801Y32000000D01*
X125990801Y32000000D01*
X125990301Y32109593D01*
X125982295Y32328634D01*
X125966296Y32547236D01*
X125942323Y32765109D01*
X125910409Y32981960D01*
X125870597Y33197501D01*
X125822939Y33411444D01*
X125767499Y33623504D01*
X125704352Y33833397D01*
X125633580Y34040844D01*
X125555280Y34245569D01*
X125469555Y34447297D01*
X125376520Y34645759D01*
X125276298Y34840691D01*
X125169024Y35031833D01*
X125054841Y35218930D01*
X124933900Y35401731D01*
X124806365Y35579994D01*
X124672403Y35753479D01*
X124532195Y35921957D01*
X124385928Y36085201D01*
X124233796Y36242995D01*
X124076002Y36395127D01*
X123912758Y36541394D01*
X123744280Y36681602D01*
X123570795Y36815564D01*
X123392532Y36943099D01*
X123209731Y37064040D01*
X123022634Y37178223D01*
X122831492Y37285497D01*
X122636560Y37385719D01*
X122438098Y37478754D01*
X122236370Y37564479D01*
X122031645Y37642779D01*
X121824198Y37713551D01*
X121614305Y37776698D01*
X121402245Y37832138D01*
X121188302Y37879796D01*
X120972761Y37919608D01*
X120755910Y37951522D01*
X120538037Y37975495D01*
X120319435Y37991494D01*
X120100394Y37999500D01*
X119881208Y37999500D01*
X119662167Y37991494D01*
X119443565Y37975495D01*
X119225692Y37951522D01*
X119008841Y37919608D01*
X118793300Y37879796D01*
X118579357Y37832138D01*
X118367297Y37776698D01*
X118157404Y37713551D01*
X117949957Y37642779D01*
X117745232Y37564479D01*
X117543504Y37478754D01*
X117345042Y37385719D01*
X117150110Y37285497D01*
X116958968Y37178223D01*
X116771871Y37064040D01*
X116589070Y36943099D01*
X116410807Y36815564D01*
X116237322Y36681602D01*
X116068844Y36541394D01*
X115905600Y36395127D01*
X115747806Y36242995D01*
X115595674Y36085201D01*
X115449407Y35921957D01*
X115309199Y35753479D01*
X115175237Y35579994D01*
X115047702Y35401731D01*
X114926761Y35218930D01*
X114812578Y35031833D01*
X114705304Y34840691D01*
X114605082Y34645759D01*
X114512047Y34447297D01*
X114426322Y34245569D01*
X114348022Y34040844D01*
X114277250Y33833397D01*
X114214103Y33623504D01*
X114158663Y33411444D01*
X114111005Y33197501D01*
X114071193Y32981960D01*
X114039279Y32765109D01*
X114015306Y32547236D01*
X113999307Y32328634D01*
X113991301Y32109593D01*
X113990801Y32000000D01*
X109990801Y32000000D01*
X109990801Y62000000D01*
X149990801Y62000000D01*
X149990801Y32000000D01*
G37*
%TD.AperFunction*%
%TO.N,/GPIO*%
D11*
X101720000Y30420000D02*
X103720000Y30420000D01*
X103720000Y28420000D01*
X101720000Y28420000D01*
X101720000Y30420000D01*
%TA.AperFunction,Conductor*%
G36*
X101720000Y30420000D02*
G01*
X103720000Y30420000D01*
X103720000Y28420000D01*
X101720000Y28420000D01*
X101720000Y30420000D01*
G37*
%TD.AperFunction*%
%TO.N,+3.3V*%
X101780000Y27820000D02*
X103780000Y27820000D01*
X103780000Y25820000D01*
X101780000Y25820000D01*
X101780000Y27820000D01*
%TA.AperFunction,Conductor*%
G36*
X101780000Y27820000D02*
G01*
X103780000Y27820000D01*
X103780000Y25820000D01*
X101780000Y25820000D01*
X101780000Y27820000D01*
G37*
%TD.AperFunction*%
%TD*%
D12*
%TO.P,L1,2,2_2*%
%TO.N,unconnected-(L1-Pad2)*%
X123047500Y32580000D03*
%TO.P,L1,1,1_1*%
%TO.N,Net-(L1-Pad1)*%
X121472500Y32580000D03*
%TD*%
D13*
%TO.P,Q1,1,G_1*%
%TO.N,Net-(Q1-G)*%
X109322500Y29120000D03*
%TO.P,Q1,2,S_2*%
%TO.N,+3.3V*%
X109322500Y27220000D03*
%TO.P,Q1,3,D_3*%
%TO.N,Net-(Q1-D)*%
X111197500Y28170000D03*
%TD*%
D14*
%TO.P,R2,1*%
%TO.N,Net-(Q1-G)*%
X104370000Y32480000D03*
%TO.P,R2,2*%
%TO.N,/GPIO*%
X103350000Y32480000D03*
%TD*%
D15*
%TO.P,R3,1*%
%TO.N,Net-(Q1-G)*%
X105450000Y29260000D03*
%TO.P,R3,2*%
%TO.N,+3.3V*%
X105450000Y28240000D03*
%TD*%
D12*
%TO.P,L2,1,1_1*%
%TO.N,unconnected-(L2-Pad1)*%
X137072500Y32400000D03*
%TO.P,L2,2,2_2*%
%TO.N,GND*%
X138647500Y32400000D03*
%TD*%
D16*
%TO.P,C2,1*%
%TO.N,+3.3V*%
X108080000Y24875000D03*
%TO.P,C2,2*%
%TO.N,GND*%
X108080000Y23325000D03*
%TD*%
D17*
%TO.P,R1,1*%
%TO.N,Net-(Q1-D)*%
X113260000Y28220000D03*
%TO.P,R1,2*%
%TO.N,Net-(L1-Pad1)*%
X114280000Y28220000D03*
%TD*%
D16*
%TO.P,C1,1*%
%TO.N,+3.3V*%
X104860000Y24895000D03*
%TO.P,C1,2*%
%TO.N,GND*%
X104860000Y23345000D03*
%TD*%
D18*
%TO.N,GND*%
X155180000Y29640000D03*
X106440000Y20910000D03*
%TD*%
%TO.N,+3.3V*%
D11*
X105450000Y28240000D02*
X105450000Y27270000D01*
X104860000Y27190000D02*
X104890000Y27220000D01*
X108060000Y24895000D02*
X108080000Y24875000D01*
X106760000Y27220000D02*
X105500000Y27220000D01*
X104890000Y27220000D02*
X103190000Y27220000D01*
X105500000Y27220000D02*
X104890000Y27220000D01*
X105450000Y27270000D02*
X105500000Y27220000D01*
X104860000Y24895000D02*
X104860000Y27190000D01*
X103190000Y27220000D02*
X102790000Y26820000D01*
X108080000Y24875000D02*
X108080000Y25900000D01*
X109322500Y27220000D02*
X106760000Y27220000D01*
X108080000Y25900000D02*
X106760000Y27220000D01*
%TO.N,GND*%
X104970000Y20900000D02*
X104980000Y20910000D01*
X104860000Y23345000D02*
X104860000Y21010000D01*
X144770000Y32400000D02*
X145380000Y31790000D01*
X104980000Y20910000D02*
X106440000Y20910000D01*
X104860000Y21010000D02*
X104970000Y20900000D01*
X138647500Y32400000D02*
X144770000Y32400000D01*
X155160000Y29660000D02*
X155180000Y29640000D01*
X108060000Y23345000D02*
X108080000Y23325000D01*
X108080000Y23325000D02*
X108080000Y20910000D01*
X108080000Y20910000D02*
X106440000Y20910000D01*
X145380000Y29660000D02*
X155160000Y29660000D01*
X145380000Y31790000D02*
X145380000Y29660000D01*
%TO.N,unconnected-(L1-Pad2)*%
X130220000Y47020000D02*
X130220000Y47310000D01*
X130000000Y46800000D02*
X130220000Y47020000D01*
%TO.N,Net-(L1-Pad1)*%
X114280000Y30920000D02*
X116000000Y32640000D01*
X116060000Y32580000D02*
X121472500Y32580000D01*
X114280000Y28220000D02*
X114280000Y30920000D01*
X116000000Y32640000D02*
X116060000Y32580000D01*
%TO.N,Net-(Q1-D)*%
X111247500Y28220000D02*
X111197500Y28170000D01*
X113260000Y28220000D02*
X111247500Y28220000D01*
%TO.N,Net-(Q1-G)*%
X104370000Y32480000D02*
X107050000Y32480000D01*
X107050000Y32480000D02*
X107070000Y32500000D01*
X107140000Y29100000D02*
X107140000Y29580000D01*
X106820000Y29260000D02*
X107140000Y29580000D01*
X107070000Y32500000D02*
X107140000Y32430000D01*
X107160000Y29120000D02*
X107140000Y29100000D01*
X107140000Y32430000D02*
X107140000Y29580000D01*
X109322500Y29120000D02*
X107160000Y29120000D01*
X105450000Y29260000D02*
X106820000Y29260000D01*
%TO.N,/GPIO*%
X103350000Y31320000D02*
X103350000Y32480000D01*
X102720000Y30690000D02*
X103350000Y31320000D01*
X102720000Y29420000D02*
X102720000Y30690000D01*
%TD*%
X197940000Y31550000D02*
G01*
X196790000Y31550000D01*
X196790000Y33170000D01*
X197940000Y33170000D01*
X197940000Y31550000D01*
G37*
%TD.AperFunction*%
%TA.AperFunction,Conductor*%
%TO.N,unconnected-(L1-Pad2)*%
G36*
X185190000Y31603631D02*
G01*
X184040000Y31603631D01*
X184040000Y33370000D01*
X185190000Y33370000D01*
X185190000Y31603631D01*
G37*
%TD.AperFunction*%
%TA.AperFunction,Conductor*%
%TO.N,unconnected-(L2-Pad1)*%
G36*
X196790801Y31550000D02*
G01*
X191790801Y31550000D01*
X191790801Y31400000D01*
X204990801Y31400000D01*
X204990801Y21400000D01*
X176990801Y21400000D01*
X176990801Y31400000D01*
X191190801Y31400000D01*
X191190801Y31800000D01*
X191790801Y31800000D01*
X196790801Y31800000D01*
X196790801Y31550000D01*
G37*
%TD.AperFunction*%
%TA.AperFunction,Conductor*%
%TO.N,unconnected-(L1-Pad2)*%
G36*
X210990801Y32000000D02*
G01*
X206990801Y32000000D01*
X206990301Y32109593D01*
X206982295Y32328634D01*
X206966296Y32547236D01*
X206942323Y32765109D01*
X206910409Y32981960D01*
X206870597Y33197501D01*
X206822939Y33411444D01*
X206767499Y33623504D01*
X206704352Y33833397D01*
X206633580Y34040844D01*
X206555280Y34245569D01*
X206469555Y34447297D01*
X206376520Y34645759D01*
X206276298Y34840691D01*
X206169024Y35031833D01*
X206054841Y35218930D01*
X205933900Y35401731D01*
X205806365Y35579994D01*
X205672403Y35753479D01*
X205532195Y35921957D01*
X205385928Y36085201D01*
X205233796Y36242995D01*
X205076002Y36395127D01*
X204912758Y36541394D01*
X204744280Y36681602D01*
X204570795Y36815564D01*
X204392532Y36943099D01*
X204209731Y37064040D01*
X204022634Y37178223D01*
X203831492Y37285497D01*
X203636560Y37385719D01*
X203438098Y37478754D01*
X203236370Y37564479D01*
X203031645Y37642779D01*
X202824198Y37713551D01*
X202614305Y37776698D01*
X202402245Y37832138D01*
X202188302Y37879796D01*
X201972761Y37919608D01*
X201755910Y37951522D01*
X201538037Y37975495D01*
X201319435Y37991494D01*
X201100394Y37999500D01*
X200881208Y37999500D01*
X200662167Y37991494D01*
X200443565Y37975495D01*
X200225692Y37951522D01*
X200008841Y37919608D01*
X199793300Y37879796D01*
X199579357Y37832138D01*
X199367297Y37776698D01*
X199157404Y37713551D01*
X198949957Y37642779D01*
X198745232Y37564479D01*
X198543504Y37478754D01*
X198345042Y37385719D01*
X198150110Y37285497D01*
X197958968Y37178223D01*
X197771871Y37064040D01*
X197589070Y36943099D01*
X197410807Y36815564D01*
X197237322Y36681602D01*
X197068844Y36541394D01*
X196905600Y36395127D01*
X196747806Y36242995D01*
X196595674Y36085201D01*
X196449407Y35921957D01*
X196309199Y35753479D01*
X196175237Y35579994D01*
X196047702Y35401731D01*
X195926761Y35218930D01*
X195812578Y35031833D01*
X195705304Y34840691D01*
X195605082Y34645759D01*
X195512047Y34447297D01*
X195426322Y34245569D01*
X195348022Y34040844D01*
X195277250Y33833397D01*
X195214103Y33623504D01*
X195158663Y33411444D01*
X195111005Y33197501D01*
X195071193Y32981960D01*
X195039279Y32765109D01*
X195015306Y32547236D01*
X194999307Y32328634D01*
X194991301Y32109593D01*
X194990801Y32000000D01*
X190790801Y32000000D01*
X190790801Y31600000D01*
X190190801Y31600000D01*
X185190801Y31600000D01*
X185190801Y31850000D01*
X190190801Y31850000D01*
X190190801Y32000000D01*
X186990801Y32000000D01*
X186990301Y32109593D01*
X186982295Y32328634D01*
X186966296Y32547236D01*
X186942323Y32765109D01*
X186910409Y32981960D01*
X186870597Y33197501D01*
X186822939Y33411444D01*
X186767499Y33623504D01*
X186704352Y33833397D01*
X186633580Y34040844D01*
X186555280Y34245569D01*
X186469555Y34447297D01*
X186376520Y34645759D01*
X186276298Y34840691D01*
X186169024Y35031833D01*
X186054841Y35218930D01*
X185933900Y35401731D01*
X185806365Y35579994D01*
X185672403Y35753479D01*
X185532195Y35921957D01*
X185385928Y36085201D01*
X185233796Y36242995D01*
X185076002Y36395127D01*
X184912758Y36541394D01*
X184744280Y36681602D01*
X184570795Y36815564D01*
X184392532Y36943099D01*
X184209731Y37064040D01*
X184022634Y37178223D01*
X183831492Y37285497D01*
X183636560Y37385719D01*
X183438098Y37478754D01*
X183236370Y37564479D01*
X183031645Y37642779D01*
X182824198Y37713551D01*
X182614305Y37776698D01*
X182402245Y37832138D01*
X182188302Y37879796D01*
X181972761Y37919608D01*
X181755910Y37951522D01*
X181538037Y37975495D01*
X181319435Y37991494D01*
X181100394Y37999500D01*
X180881208Y37999500D01*
X180662167Y37991494D01*
X180443565Y37975495D01*
X180225692Y37951522D01*
X180008841Y37919608D01*
X179793300Y37879796D01*
X179579357Y37832138D01*
X179367297Y37776698D01*
X179157404Y37713551D01*
X178949957Y37642779D01*
X178745232Y37564479D01*
X178543504Y37478754D01*
X178345042Y37385719D01*
X178150110Y37285497D01*
X177958968Y37178223D01*
X177771871Y37064040D01*
X177589070Y36943099D01*
X177410807Y36815564D01*
X177237322Y36681602D01*
X177068844Y36541394D01*
X176905600Y36395127D01*
X176747806Y36242995D01*
X176595674Y36085201D01*
X176449407Y35921957D01*
X176309199Y35753479D01*
X176175237Y35579994D01*
X176047702Y35401731D01*
X175926761Y35218930D01*
X175812578Y35031833D01*
X175705304Y34840691D01*
X175605082Y34645759D01*
X175512047Y34447297D01*
X175426322Y34245569D01*
X175348022Y34040844D01*
X175277250Y33833397D01*
X175214103Y33623504D01*
X175158663Y33411444D01*
X175111005Y33197501D01*
X175071193Y32981960D01*
X175039279Y32765109D01*
X175015306Y32547236D01*
X174999307Y32328634D01*
X174991301Y32109593D01*
X174990801Y32000000D01*
X170990801Y32000000D01*
X170990801Y62000000D01*
X210990801Y62000000D01*
X210990801Y32000000D01*
G37*
%TD.AperFunction*%
%TO.N,/GPIO*%
D11*
X162720000Y30420000D02*
X164720000Y30420000D01*
X164720000Y28420000D01*
X162720000Y28420000D01*
X162720000Y30420000D01*
%TA.AperFunction,Conductor*%
G36*
X162720000Y30420000D02*
G01*
X164720000Y30420000D01*
X164720000Y28420000D01*
X162720000Y28420000D01*
X162720000Y30420000D01*
G37*
%TD.AperFunction*%
%TO.N,+3.3V*%
X162780000Y27820000D02*
X164780000Y27820000D01*
X164780000Y25820000D01*
X162780000Y25820000D01*
X162780000Y27820000D01*
%TA.AperFunction,Conductor*%
G36*
X162780000Y27820000D02*
G01*
X164780000Y27820000D01*
X164780000Y25820000D01*
X162780000Y25820000D01*
X162780000Y27820000D01*
G37*
%TD.AperFunction*%
%TD*%
D12*
%TO.P,L1,2,2_2*%
%TO.N,unconnected-(L1-Pad2)*%
X184047500Y32580000D03*
%TO.P,L1,1,1_1*%
%TO.N,Net-(L1-Pad1)*%
X182472500Y32580000D03*
%TD*%
D13*
%TO.P,Q1,1,G_1*%
%TO.N,Net-(Q1-G)*%
X170322500Y29120000D03*
%TO.P,Q1,2,S_2*%
%TO.N,+3.3V*%
X170322500Y27220000D03*
%TO.P,Q1,3,D_3*%
%TO.N,Net-(Q1-D)*%
X172197500Y28170000D03*
%TD*%
D14*
%TO.P,R2,1*%
%TO.N,Net-(Q1-G)*%
X165370000Y32480000D03*
%TO.P,R2,2*%
%TO.N,/GPIO*%
X164350000Y32480000D03*
%TD*%
D15*
%TO.P,R3,1*%
%TO.N,Net-(Q1-G)*%
X166450000Y29260000D03*
%TO.P,R3,2*%
%TO.N,+3.3V*%
X166450000Y28240000D03*
%TD*%
D12*
%TO.P,L2,1,1_1*%
%TO.N,unconnected-(L2-Pad1)*%
X198072500Y32400000D03*
%TO.P,L2,2,2_2*%
%TO.N,GND*%
X199647500Y32400000D03*
%TD*%
D16*
%TO.P,C2,1*%
%TO.N,+3.3V*%
X169080000Y24875000D03*
%TO.P,C2,2*%
%TO.N,GND*%
X169080000Y23325000D03*
%TD*%
D17*
%TO.P,R1,1*%
%TO.N,Net-(Q1-D)*%
X174260000Y28220000D03*
%TO.P,R1,2*%
%TO.N,Net-(L1-Pad1)*%
X175280000Y28220000D03*
%TD*%
D16*
%TO.P,C1,1*%
%TO.N,+3.3V*%
X165860000Y24895000D03*
%TO.P,C1,2*%
%TO.N,GND*%
X165860000Y23345000D03*
%TD*%
D18*
%TO.N,GND*%
X216180000Y29640000D03*
X167440000Y20910000D03*
%TD*%
%TO.N,+3.3V*%
D11*
X166450000Y28240000D02*
X166450000Y27270000D01*
X165860000Y27190000D02*
X165890000Y27220000D01*
X169060000Y24895000D02*
X169080000Y24875000D01*
X167760000Y27220000D02*
X166500000Y27220000D01*
X165890000Y27220000D02*
X164190000Y27220000D01*
X166500000Y27220000D02*
X165890000Y27220000D01*
X166450000Y27270000D02*
X166500000Y27220000D01*
X165860000Y24895000D02*
X165860000Y27190000D01*
X164190000Y27220000D02*
X163790000Y26820000D01*
X169080000Y24875000D02*
X169080000Y25900000D01*
X170322500Y27220000D02*
X167760000Y27220000D01*
X169080000Y25900000D02*
X167760000Y27220000D01*
%TO.N,GND*%
X165970000Y20900000D02*
X165980000Y20910000D01*
X165860000Y23345000D02*
X165860000Y21010000D01*
X205770000Y32400000D02*
X206380000Y31790000D01*
X165980000Y20910000D02*
X167440000Y20910000D01*
X165860000Y21010000D02*
X165970000Y20900000D01*
X199647500Y32400000D02*
X205770000Y32400000D01*
X216160000Y29660000D02*
X216180000Y29640000D01*
X169060000Y23345000D02*
X169080000Y23325000D01*
X169080000Y23325000D02*
X169080000Y20910000D01*
X169080000Y20910000D02*
X167440000Y20910000D01*
X206380000Y29660000D02*
X216160000Y29660000D01*
X206380000Y31790000D02*
X206380000Y29660000D01*
%TO.N,unconnected-(L1-Pad2)*%
X191220000Y47020000D02*
X191220000Y47310000D01*
X191000000Y46800000D02*
X191220000Y47020000D01*
%TO.N,Net-(L1-Pad1)*%
X175280000Y30920000D02*
X177000000Y32640000D01*
X177060000Y32580000D02*
X182472500Y32580000D01*
X175280000Y28220000D02*
X175280000Y30920000D01*
X177000000Y32640000D02*
X177060000Y32580000D01*
%TO.N,Net-(Q1-D)*%
X172247500Y28220000D02*
X172197500Y28170000D01*
X174260000Y28220000D02*
X172247500Y28220000D01*
%TO.N,Net-(Q1-G)*%
X165370000Y32480000D02*
X168050000Y32480000D01*
X168050000Y32480000D02*
X168070000Y32500000D01*
X168140000Y29100000D02*
X168140000Y29580000D01*
X167820000Y29260000D02*
X168140000Y29580000D01*
X168070000Y32500000D02*
X168140000Y32430000D01*
X168160000Y29120000D02*
X168140000Y29100000D01*
X168140000Y32430000D02*
X168140000Y29580000D01*
X170322500Y29120000D02*
X168160000Y29120000D01*
X166450000Y29260000D02*
X167820000Y29260000D01*
%TO.N,/GPIO*%
X164350000Y31320000D02*
X164350000Y32480000D01*
X163720000Y30690000D02*
X164350000Y31320000D01*
X163720000Y29420000D02*
X163720000Y30690000D01*
%TD*%
X258940000Y31550000D02*
G01*
X257790000Y31550000D01*
X257790000Y33170000D01*
X258940000Y33170000D01*
X258940000Y31550000D01*
G37*
%TD.AperFunction*%
%TA.AperFunction,Conductor*%
%TO.N,unconnected-(L1-Pad2)*%
G36*
X246190000Y31603631D02*
G01*
X245040000Y31603631D01*
X245040000Y33370000D01*
X246190000Y33370000D01*
X246190000Y31603631D01*
G37*
%TD.AperFunction*%
%TA.AperFunction,Conductor*%
%TO.N,unconnected-(L2-Pad1)*%
G36*
X257790801Y31550000D02*
G01*
X252790801Y31550000D01*
X252790801Y31400000D01*
X265990801Y31400000D01*
X265990801Y21400000D01*
X237990801Y21400000D01*
X237990801Y31400000D01*
X252190801Y31400000D01*
X252190801Y31800000D01*
X252790801Y31800000D01*
X257790801Y31800000D01*
X257790801Y31550000D01*
G37*
%TD.AperFunction*%
%TA.AperFunction,Conductor*%
%TO.N,unconnected-(L1-Pad2)*%
G36*
X271990801Y32000000D02*
G01*
X267990801Y32000000D01*
X267990301Y32109593D01*
X267982295Y32328634D01*
X267966296Y32547236D01*
X267942323Y32765109D01*
X267910409Y32981960D01*
X267870597Y33197501D01*
X267822939Y33411444D01*
X267767499Y33623504D01*
X267704352Y33833397D01*
X267633580Y34040844D01*
X267555280Y34245569D01*
X267469555Y34447297D01*
X267376520Y34645759D01*
X267276298Y34840691D01*
X267169024Y35031833D01*
X267054841Y35218930D01*
X266933900Y35401731D01*
X266806365Y35579994D01*
X266672403Y35753479D01*
X266532195Y35921957D01*
X266385928Y36085201D01*
X266233796Y36242995D01*
X266076002Y36395127D01*
X265912758Y36541394D01*
X265744280Y36681602D01*
X265570795Y36815564D01*
X265392532Y36943099D01*
X265209731Y37064040D01*
X265022634Y37178223D01*
X264831492Y37285497D01*
X264636560Y37385719D01*
X264438098Y37478754D01*
X264236370Y37564479D01*
X264031645Y37642779D01*
X263824198Y37713551D01*
X263614305Y37776698D01*
X263402245Y37832138D01*
X263188302Y37879796D01*
X262972761Y37919608D01*
X262755910Y37951522D01*
X262538037Y37975495D01*
X262319435Y37991494D01*
X262100394Y37999500D01*
X261881208Y37999500D01*
X261662167Y37991494D01*
X261443565Y37975495D01*
X261225692Y37951522D01*
X261008841Y37919608D01*
X260793300Y37879796D01*
X260579357Y37832138D01*
X260367297Y37776698D01*
X260157404Y37713551D01*
X259949957Y37642779D01*
X259745232Y37564479D01*
X259543504Y37478754D01*
X259345042Y37385719D01*
X259150110Y37285497D01*
X258958968Y37178223D01*
X258771871Y37064040D01*
X258589070Y36943099D01*
X258410807Y36815564D01*
X258237322Y36681602D01*
X258068844Y36541394D01*
X257905600Y36395127D01*
X257747806Y36242995D01*
X257595674Y36085201D01*
X257449407Y35921957D01*
X257309199Y35753479D01*
X257175237Y35579994D01*
X257047702Y35401731D01*
X256926761Y35218930D01*
X256812578Y35031833D01*
X256705304Y34840691D01*
X256605082Y34645759D01*
X256512047Y34447297D01*
X256426322Y34245569D01*
X256348022Y34040844D01*
X256277250Y33833397D01*
X256214103Y33623504D01*
X256158663Y33411444D01*
X256111005Y33197501D01*
X256071193Y32981960D01*
X256039279Y32765109D01*
X256015306Y32547236D01*
X255999307Y32328634D01*
X255991301Y32109593D01*
X255990801Y32000000D01*
X251790801Y32000000D01*
X251790801Y31600000D01*
X251190801Y31600000D01*
X246190801Y31600000D01*
X246190801Y31850000D01*
X251190801Y31850000D01*
X251190801Y32000000D01*
X247990801Y32000000D01*
X247990301Y32109593D01*
X247982295Y32328634D01*
X247966296Y32547236D01*
X247942323Y32765109D01*
X247910409Y32981960D01*
X247870597Y33197501D01*
X247822939Y33411444D01*
X247767499Y33623504D01*
X247704352Y33833397D01*
X247633580Y34040844D01*
X247555280Y34245569D01*
X247469555Y34447297D01*
X247376520Y34645759D01*
X247276298Y34840691D01*
X247169024Y35031833D01*
X247054841Y35218930D01*
X246933900Y35401731D01*
X246806365Y35579994D01*
X246672403Y35753479D01*
X246532195Y35921957D01*
X246385928Y36085201D01*
X246233796Y36242995D01*
X246076002Y36395127D01*
X245912758Y36541394D01*
X245744280Y36681602D01*
X245570795Y36815564D01*
X245392532Y36943099D01*
X245209731Y37064040D01*
X245022634Y37178223D01*
X244831492Y37285497D01*
X244636560Y37385719D01*
X244438098Y37478754D01*
X244236370Y37564479D01*
X244031645Y37642779D01*
X243824198Y37713551D01*
X243614305Y37776698D01*
X243402245Y37832138D01*
X243188302Y37879796D01*
X242972761Y37919608D01*
X242755910Y37951522D01*
X242538037Y37975495D01*
X242319435Y37991494D01*
X242100394Y37999500D01*
X241881208Y37999500D01*
X241662167Y37991494D01*
X241443565Y37975495D01*
X241225692Y37951522D01*
X241008841Y37919608D01*
X240793300Y37879796D01*
X240579357Y37832138D01*
X240367297Y37776698D01*
X240157404Y37713551D01*
X239949957Y37642779D01*
X239745232Y37564479D01*
X239543504Y37478754D01*
X239345042Y37385719D01*
X239150110Y37285497D01*
X238958968Y37178223D01*
X238771871Y37064040D01*
X238589070Y36943099D01*
X238410807Y36815564D01*
X238237322Y36681602D01*
X238068844Y36541394D01*
X237905600Y36395127D01*
X237747806Y36242995D01*
X237595674Y36085201D01*
X237449407Y35921957D01*
X237309199Y35753479D01*
X237175237Y35579994D01*
X237047702Y35401731D01*
X236926761Y35218930D01*
X236812578Y35031833D01*
X236705304Y34840691D01*
X236605082Y34645759D01*
X236512047Y34447297D01*
X236426322Y34245569D01*
X236348022Y34040844D01*
X236277250Y33833397D01*
X236214103Y33623504D01*
X236158663Y33411444D01*
X236111005Y33197501D01*
X236071193Y32981960D01*
X236039279Y32765109D01*
X236015306Y32547236D01*
X235999307Y32328634D01*
X235991301Y32109593D01*
X235990801Y32000000D01*
X231990801Y32000000D01*
X231990801Y62000000D01*
X271990801Y62000000D01*
X271990801Y32000000D01*
G37*
%TD.AperFunction*%
%TO.N,/GPIO*%
D11*
X223720000Y30420000D02*
X225720000Y30420000D01*
X225720000Y28420000D01*
X223720000Y28420000D01*
X223720000Y30420000D01*
%TA.AperFunction,Conductor*%
G36*
X223720000Y30420000D02*
G01*
X225720000Y30420000D01*
X225720000Y28420000D01*
X223720000Y28420000D01*
X223720000Y30420000D01*
G37*
%TD.AperFunction*%
%TO.N,+3.3V*%
X223780000Y27820000D02*
X225780000Y27820000D01*
X225780000Y25820000D01*
X223780000Y25820000D01*
X223780000Y27820000D01*
%TA.AperFunction,Conductor*%
G36*
X223780000Y27820000D02*
G01*
X225780000Y27820000D01*
X225780000Y25820000D01*
X223780000Y25820000D01*
X223780000Y27820000D01*
G37*
%TD.AperFunction*%
%TD*%
D12*
%TO.P,L1,2,2_2*%
%TO.N,unconnected-(L1-Pad2)*%
X245047500Y32580000D03*
%TO.P,L1,1,1_1*%
%TO.N,Net-(L1-Pad1)*%
X243472500Y32580000D03*
%TD*%
D13*
%TO.P,Q1,1,G_1*%
%TO.N,Net-(Q1-G)*%
X231322500Y29120000D03*
%TO.P,Q1,2,S_2*%
%TO.N,+3.3V*%
X231322500Y27220000D03*
%TO.P,Q1,3,D_3*%
%TO.N,Net-(Q1-D)*%
X233197500Y28170000D03*
%TD*%
D14*
%TO.P,R2,1*%
%TO.N,Net-(Q1-G)*%
X226370000Y32480000D03*
%TO.P,R2,2*%
%TO.N,/GPIO*%
X225350000Y32480000D03*
%TD*%
D15*
%TO.P,R3,1*%
%TO.N,Net-(Q1-G)*%
X227450000Y29260000D03*
%TO.P,R3,2*%
%TO.N,+3.3V*%
X227450000Y28240000D03*
%TD*%
D12*
%TO.P,L2,1,1_1*%
%TO.N,unconnected-(L2-Pad1)*%
X259072500Y32400000D03*
%TO.P,L2,2,2_2*%
%TO.N,GND*%
X260647500Y32400000D03*
%TD*%
D16*
%TO.P,C2,1*%
%TO.N,+3.3V*%
X230080000Y24875000D03*
%TO.P,C2,2*%
%TO.N,GND*%
X230080000Y23325000D03*
%TD*%
D17*
%TO.P,R1,1*%
%TO.N,Net-(Q1-D)*%
X235260000Y28220000D03*
%TO.P,R1,2*%
%TO.N,Net-(L1-Pad1)*%
X236280000Y28220000D03*
%TD*%
D16*
%TO.P,C1,1*%
%TO.N,+3.3V*%
X226860000Y24895000D03*
%TO.P,C1,2*%
%TO.N,GND*%
X226860000Y23345000D03*
%TD*%
D18*
%TO.N,GND*%
X277180000Y29640000D03*
X228440000Y20910000D03*
%TD*%
%TO.N,+3.3V*%
D11*
X227450000Y28240000D02*
X227450000Y27270000D01*
X226860000Y27190000D02*
X226890000Y27220000D01*
X230060000Y24895000D02*
X230080000Y24875000D01*
X228760000Y27220000D02*
X227500000Y27220000D01*
X226890000Y27220000D02*
X225190000Y27220000D01*
X227500000Y27220000D02*
X226890000Y27220000D01*
X227450000Y27270000D02*
X227500000Y27220000D01*
X226860000Y24895000D02*
X226860000Y27190000D01*
X225190000Y27220000D02*
X224790000Y26820000D01*
X230080000Y24875000D02*
X230080000Y25900000D01*
X231322500Y27220000D02*
X228760000Y27220000D01*
X230080000Y25900000D02*
X228760000Y27220000D01*
%TO.N,GND*%
X226970000Y20900000D02*
X226980000Y20910000D01*
X226860000Y23345000D02*
X226860000Y21010000D01*
X266770000Y32400000D02*
X267380000Y31790000D01*
X226980000Y20910000D02*
X228440000Y20910000D01*
X226860000Y21010000D02*
X226970000Y20900000D01*
X260647500Y32400000D02*
X266770000Y32400000D01*
X277160000Y29660000D02*
X277180000Y29640000D01*
X230060000Y23345000D02*
X230080000Y23325000D01*
X230080000Y23325000D02*
X230080000Y20910000D01*
X230080000Y20910000D02*
X228440000Y20910000D01*
X267380000Y29660000D02*
X277160000Y29660000D01*
X267380000Y31790000D02*
X267380000Y29660000D01*
%TO.N,unconnected-(L1-Pad2)*%
X252220000Y47020000D02*
X252220000Y47310000D01*
X252000000Y46800000D02*
X252220000Y47020000D01*
%TO.N,Net-(L1-Pad1)*%
X236280000Y30920000D02*
X238000000Y32640000D01*
X238060000Y32580000D02*
X243472500Y32580000D01*
X236280000Y28220000D02*
X236280000Y30920000D01*
X238000000Y32640000D02*
X238060000Y32580000D01*
%TO.N,Net-(Q1-D)*%
X233247500Y28220000D02*
X233197500Y28170000D01*
X235260000Y28220000D02*
X233247500Y28220000D01*
%TO.N,Net-(Q1-G)*%
X226370000Y32480000D02*
X229050000Y32480000D01*
X229050000Y32480000D02*
X229070000Y32500000D01*
X229140000Y29100000D02*
X229140000Y29580000D01*
X228820000Y29260000D02*
X229140000Y29580000D01*
X229070000Y32500000D02*
X229140000Y32430000D01*
X229160000Y29120000D02*
X229140000Y29100000D01*
X229140000Y32430000D02*
X229140000Y29580000D01*
X231322500Y29120000D02*
X229160000Y29120000D01*
X227450000Y29260000D02*
X228820000Y29260000D01*
%TO.N,/GPIO*%
X225350000Y31320000D02*
X225350000Y32480000D01*
X224720000Y30690000D02*
X225350000Y31320000D01*
X224720000Y29420000D02*
X224720000Y30690000D01*
%TD*%
X319940000Y31550000D02*
G01*
X318790000Y31550000D01*
X318790000Y33170000D01*
X319940000Y33170000D01*
X319940000Y31550000D01*
G37*
%TD.AperFunction*%
%TA.AperFunction,Conductor*%
%TO.N,unconnected-(L1-Pad2)*%
G36*
X307190000Y31603631D02*
G01*
X306040000Y31603631D01*
X306040000Y33370000D01*
X307190000Y33370000D01*
X307190000Y31603631D01*
G37*
%TD.AperFunction*%
%TA.AperFunction,Conductor*%
%TO.N,unconnected-(L2-Pad1)*%
G36*
X318790801Y31550000D02*
G01*
X313790801Y31550000D01*
X313790801Y31400000D01*
X326990801Y31400000D01*
X326990801Y21400000D01*
X298990801Y21400000D01*
X298990801Y31400000D01*
X313190801Y31400000D01*
X313190801Y31800000D01*
X313790801Y31800000D01*
X318790801Y31800000D01*
X318790801Y31550000D01*
G37*
%TD.AperFunction*%
%TA.AperFunction,Conductor*%
%TO.N,unconnected-(L1-Pad2)*%
G36*
X332990801Y32000000D02*
G01*
X328990801Y32000000D01*
X328990301Y32109593D01*
X328982295Y32328634D01*
X328966296Y32547236D01*
X328942323Y32765109D01*
X328910409Y32981960D01*
X328870597Y33197501D01*
X328822939Y33411444D01*
X328767499Y33623504D01*
X328704352Y33833397D01*
X328633580Y34040844D01*
X328555280Y34245569D01*
X328469555Y34447297D01*
X328376520Y34645759D01*
X328276298Y34840691D01*
X328169024Y35031833D01*
X328054841Y35218930D01*
X327933900Y35401731D01*
X327806365Y35579994D01*
X327672403Y35753479D01*
X327532195Y35921957D01*
X327385928Y36085201D01*
X327233796Y36242995D01*
X327076002Y36395127D01*
X326912758Y36541394D01*
X326744280Y36681602D01*
X326570795Y36815564D01*
X326392532Y36943099D01*
X326209731Y37064040D01*
X326022634Y37178223D01*
X325831492Y37285497D01*
X325636560Y37385719D01*
X325438098Y37478754D01*
X325236370Y37564479D01*
X325031645Y37642779D01*
X324824198Y37713551D01*
X324614305Y37776698D01*
X324402245Y37832138D01*
X324188302Y37879796D01*
X323972761Y37919608D01*
X323755910Y37951522D01*
X323538037Y37975495D01*
X323319435Y37991494D01*
X323100394Y37999500D01*
X322881208Y37999500D01*
X322662167Y37991494D01*
X322443565Y37975495D01*
X322225692Y37951522D01*
X322008841Y37919608D01*
X321793300Y37879796D01*
X321579357Y37832138D01*
X321367297Y37776698D01*
X321157404Y37713551D01*
X320949957Y37642779D01*
X320745232Y37564479D01*
X320543504Y37478754D01*
X320345042Y37385719D01*
X320150110Y37285497D01*
X319958968Y37178223D01*
X319771871Y37064040D01*
X319589070Y36943099D01*
X319410807Y36815564D01*
X319237322Y36681602D01*
X319068844Y36541394D01*
X318905600Y36395127D01*
X318747806Y36242995D01*
X318595674Y36085201D01*
X318449407Y35921957D01*
X318309199Y35753479D01*
X318175237Y35579994D01*
X318047702Y35401731D01*
X317926761Y35218930D01*
X317812578Y35031833D01*
X317705304Y34840691D01*
X317605082Y34645759D01*
X317512047Y34447297D01*
X317426322Y34245569D01*
X317348022Y34040844D01*
X317277250Y33833397D01*
X317214103Y33623504D01*
X317158663Y33411444D01*
X317111005Y33197501D01*
X317071193Y32981960D01*
X317039279Y32765109D01*
X317015306Y32547236D01*
X316999307Y32328634D01*
X316991301Y32109593D01*
X316990801Y32000000D01*
X312790801Y32000000D01*
X312790801Y31600000D01*
X312190801Y31600000D01*
X307190801Y31600000D01*
X307190801Y31850000D01*
X312190801Y31850000D01*
X312190801Y32000000D01*
X308990801Y32000000D01*
X308990301Y32109593D01*
X308982295Y32328634D01*
X308966296Y32547236D01*
X308942323Y32765109D01*
X308910409Y32981960D01*
X308870597Y33197501D01*
X308822939Y33411444D01*
X308767499Y33623504D01*
X308704352Y33833397D01*
X308633580Y34040844D01*
X308555280Y34245569D01*
X308469555Y34447297D01*
X308376520Y34645759D01*
X308276298Y34840691D01*
X308169024Y35031833D01*
X308054841Y35218930D01*
X307933900Y35401731D01*
X307806365Y35579994D01*
X307672403Y35753479D01*
X307532195Y35921957D01*
X307385928Y36085201D01*
X307233796Y36242995D01*
X307076002Y36395127D01*
X306912758Y36541394D01*
X306744280Y36681602D01*
X306570795Y36815564D01*
X306392532Y36943099D01*
X306209731Y37064040D01*
X306022634Y37178223D01*
X305831492Y37285497D01*
X305636560Y37385719D01*
X305438098Y37478754D01*
X305236370Y37564479D01*
X305031645Y37642779D01*
X304824198Y37713551D01*
X304614305Y37776698D01*
X304402245Y37832138D01*
X304188302Y37879796D01*
X303972761Y37919608D01*
X303755910Y37951522D01*
X303538037Y37975495D01*
X303319435Y37991494D01*
X303100394Y37999500D01*
X302881208Y37999500D01*
X302662167Y37991494D01*
X302443565Y37975495D01*
X302225692Y37951522D01*
X302008841Y37919608D01*
X301793300Y37879796D01*
X301579357Y37832138D01*
X301367297Y37776698D01*
X301157404Y37713551D01*
X300949957Y37642779D01*
X300745232Y37564479D01*
X300543504Y37478754D01*
X300345042Y37385719D01*
X300150110Y37285497D01*
X299958968Y37178223D01*
X299771871Y37064040D01*
X299589070Y36943099D01*
X299410807Y36815564D01*
X299237322Y36681602D01*
X299068844Y36541394D01*
X298905600Y36395127D01*
X298747806Y36242995D01*
X298595674Y36085201D01*
X298449407Y35921957D01*
X298309199Y35753479D01*
X298175237Y35579994D01*
X298047702Y35401731D01*
X297926761Y35218930D01*
X297812578Y35031833D01*
X297705304Y34840691D01*
X297605082Y34645759D01*
X297512047Y34447297D01*
X297426322Y34245569D01*
X297348022Y34040844D01*
X297277250Y33833397D01*
X297214103Y33623504D01*
X297158663Y33411444D01*
X297111005Y33197501D01*
X297071193Y32981960D01*
X297039279Y32765109D01*
X297015306Y32547236D01*
X296999307Y32328634D01*
X296991301Y32109593D01*
X296990801Y32000000D01*
X292990801Y32000000D01*
X292990801Y62000000D01*
X332990801Y62000000D01*
X332990801Y32000000D01*
G37*
%TD.AperFunction*%
%TO.N,/GPIO*%
D11*
X284720000Y30420000D02*
X286720000Y30420000D01*
X286720000Y28420000D01*
X284720000Y28420000D01*
X284720000Y30420000D01*
%TA.AperFunction,Conductor*%
G36*
X284720000Y30420000D02*
G01*
X286720000Y30420000D01*
X286720000Y28420000D01*
X284720000Y28420000D01*
X284720000Y30420000D01*
G37*
%TD.AperFunction*%
%TO.N,+3.3V*%
X284780000Y27820000D02*
X286780000Y27820000D01*
X286780000Y25820000D01*
X284780000Y25820000D01*
X284780000Y27820000D01*
%TA.AperFunction,Conductor*%
G36*
X284780000Y27820000D02*
G01*
X286780000Y27820000D01*
X286780000Y25820000D01*
X284780000Y25820000D01*
X284780000Y27820000D01*
G37*
%TD.AperFunction*%
%TD*%
D12*
%TO.P,L1,2,2_2*%
%TO.N,unconnected-(L1-Pad2)*%
X306047500Y32580000D03*
%TO.P,L1,1,1_1*%
%TO.N,Net-(L1-Pad1)*%
X304472500Y32580000D03*
%TD*%
D13*
%TO.P,Q1,1,G_1*%
%TO.N,Net-(Q1-G)*%
X292322500Y29120000D03*
%TO.P,Q1,2,S_2*%
%TO.N,+3.3V*%
X292322500Y27220000D03*
%TO.P,Q1,3,D_3*%
%TO.N,Net-(Q1-D)*%
X294197500Y28170000D03*
%TD*%
D14*
%TO.P,R2,1*%
%TO.N,Net-(Q1-G)*%
X287370000Y32480000D03*
%TO.P,R2,2*%
%TO.N,/GPIO*%
X286350000Y32480000D03*
%TD*%
D15*
%TO.P,R3,1*%
%TO.N,Net-(Q1-G)*%
X288450000Y29260000D03*
%TO.P,R3,2*%
%TO.N,+3.3V*%
X288450000Y28240000D03*
%TD*%
D12*
%TO.P,L2,1,1_1*%
%TO.N,unconnected-(L2-Pad1)*%
X320072500Y32400000D03*
%TO.P,L2,2,2_2*%
%TO.N,GND*%
X321647500Y32400000D03*
%TD*%
D16*
%TO.P,C2,1*%
%TO.N,+3.3V*%
X291080000Y24875000D03*
%TO.P,C2,2*%
%TO.N,GND*%
X291080000Y23325000D03*
%TD*%
D17*
%TO.P,R1,1*%
%TO.N,Net-(Q1-D)*%
X296260000Y28220000D03*
%TO.P,R1,2*%
%TO.N,Net-(L1-Pad1)*%
X297280000Y28220000D03*
%TD*%
D16*
%TO.P,C1,1*%
%TO.N,+3.3V*%
X287860000Y24895000D03*
%TO.P,C1,2*%
%TO.N,GND*%
X287860000Y23345000D03*
%TD*%
D18*
%TO.N,GND*%
X338180000Y29640000D03*
X289440000Y20910000D03*
%TD*%
%TO.N,+3.3V*%
D11*
X288450000Y28240000D02*
X288450000Y27270000D01*
X287860000Y27190000D02*
X287890000Y27220000D01*
X291060000Y24895000D02*
X291080000Y24875000D01*
X289760000Y27220000D02*
X288500000Y27220000D01*
X287890000Y27220000D02*
X286190000Y27220000D01*
X288500000Y27220000D02*
X287890000Y27220000D01*
X288450000Y27270000D02*
X288500000Y27220000D01*
X287860000Y24895000D02*
X287860000Y27190000D01*
X286190000Y27220000D02*
X285790000Y26820000D01*
X291080000Y24875000D02*
X291080000Y25900000D01*
X292322500Y27220000D02*
X289760000Y27220000D01*
X291080000Y25900000D02*
X289760000Y27220000D01*
%TO.N,GND*%
X287970000Y20900000D02*
X287980000Y20910000D01*
X287860000Y23345000D02*
X287860000Y21010000D01*
X327770000Y32400000D02*
X328380000Y31790000D01*
X287980000Y20910000D02*
X289440000Y20910000D01*
X287860000Y21010000D02*
X287970000Y20900000D01*
X321647500Y32400000D02*
X327770000Y32400000D01*
X338160000Y29660000D02*
X338180000Y29640000D01*
X291060000Y23345000D02*
X291080000Y23325000D01*
X291080000Y23325000D02*
X291080000Y20910000D01*
X291080000Y20910000D02*
X289440000Y20910000D01*
X328380000Y29660000D02*
X338160000Y29660000D01*
X328380000Y31790000D02*
X328380000Y29660000D01*
%TO.N,unconnected-(L1-Pad2)*%
X313220000Y47020000D02*
X313220000Y47310000D01*
X313000000Y46800000D02*
X313220000Y47020000D01*
%TO.N,Net-(L1-Pad1)*%
X297280000Y30920000D02*
X299000000Y32640000D01*
X299060000Y32580000D02*
X304472500Y32580000D01*
X297280000Y28220000D02*
X297280000Y30920000D01*
X299000000Y32640000D02*
X299060000Y32580000D01*
%TO.N,Net-(Q1-D)*%
X294247500Y28220000D02*
X294197500Y28170000D01*
X296260000Y28220000D02*
X294247500Y28220000D01*
%TO.N,Net-(Q1-G)*%
X287370000Y32480000D02*
X290050000Y32480000D01*
X290050000Y32480000D02*
X290070000Y32500000D01*
X290140000Y29100000D02*
X290140000Y29580000D01*
X289820000Y29260000D02*
X290140000Y29580000D01*
X290070000Y32500000D02*
X290140000Y32430000D01*
X290160000Y29120000D02*
X290140000Y29100000D01*
X290140000Y32430000D02*
X290140000Y29580000D01*
X292322500Y29120000D02*
X290160000Y29120000D01*
X288450000Y29260000D02*
X289820000Y29260000D01*
%TO.N,/GPIO*%
X286350000Y31320000D02*
X286350000Y32480000D01*
X285720000Y30690000D02*
X286350000Y31320000D01*
X285720000Y29420000D02*
X285720000Y30690000D01*
%TD*%
X136940000Y92550000D02*
G01*
X135790000Y92550000D01*
X135790000Y94170000D01*
X136940000Y94170000D01*
X136940000Y92550000D01*
G37*
%TD.AperFunction*%
%TA.AperFunction,Conductor*%
%TO.N,unconnected-(L1-Pad2)*%
G36*
X124190000Y92603631D02*
G01*
X123040000Y92603631D01*
X123040000Y94370000D01*
X124190000Y94370000D01*
X124190000Y92603631D01*
G37*
%TD.AperFunction*%
%TA.AperFunction,Conductor*%
%TO.N,unconnected-(L2-Pad1)*%
G36*
X135790801Y92550000D02*
G01*
X130790801Y92550000D01*
X130790801Y92400000D01*
X143990801Y92400000D01*
X143990801Y82400000D01*
X115990801Y82400000D01*
X115990801Y92400000D01*
X130190801Y92400000D01*
X130190801Y92800000D01*
X130790801Y92800000D01*
X135790801Y92800000D01*
X135790801Y92550000D01*
G37*
%TD.AperFunction*%
%TA.AperFunction,Conductor*%
%TO.N,unconnected-(L1-Pad2)*%
G36*
X149990801Y93000000D02*
G01*
X145990801Y93000000D01*
X145990301Y93109593D01*
X145982295Y93328634D01*
X145966296Y93547236D01*
X145942323Y93765109D01*
X145910409Y93981960D01*
X145870597Y94197501D01*
X145822939Y94411444D01*
X145767499Y94623504D01*
X145704352Y94833397D01*
X145633580Y95040844D01*
X145555280Y95245569D01*
X145469555Y95447297D01*
X145376520Y95645759D01*
X145276298Y95840691D01*
X145169024Y96031833D01*
X145054841Y96218930D01*
X144933900Y96401731D01*
X144806365Y96579994D01*
X144672403Y96753479D01*
X144532195Y96921957D01*
X144385928Y97085201D01*
X144233796Y97242995D01*
X144076002Y97395127D01*
X143912758Y97541394D01*
X143744280Y97681602D01*
X143570795Y97815564D01*
X143392532Y97943099D01*
X143209731Y98064040D01*
X143022634Y98178223D01*
X142831492Y98285497D01*
X142636560Y98385719D01*
X142438098Y98478754D01*
X142236370Y98564479D01*
X142031645Y98642779D01*
X141824198Y98713551D01*
X141614305Y98776698D01*
X141402245Y98832138D01*
X141188302Y98879796D01*
X140972761Y98919608D01*
X140755910Y98951522D01*
X140538037Y98975495D01*
X140319435Y98991494D01*
X140100394Y98999500D01*
X139881208Y98999500D01*
X139662167Y98991494D01*
X139443565Y98975495D01*
X139225692Y98951522D01*
X139008841Y98919608D01*
X138793300Y98879796D01*
X138579357Y98832138D01*
X138367297Y98776698D01*
X138157404Y98713551D01*
X137949957Y98642779D01*
X137745232Y98564479D01*
X137543504Y98478754D01*
X137345042Y98385719D01*
X137150110Y98285497D01*
X136958968Y98178223D01*
X136771871Y98064040D01*
X136589070Y97943099D01*
X136410807Y97815564D01*
X136237322Y97681602D01*
X136068844Y97541394D01*
X135905600Y97395127D01*
X135747806Y97242995D01*
X135595674Y97085201D01*
X135449407Y96921957D01*
X135309199Y96753479D01*
X135175237Y96579994D01*
X135047702Y96401731D01*
X134926761Y96218930D01*
X134812578Y96031833D01*
X134705304Y95840691D01*
X134605082Y95645759D01*
X134512047Y95447297D01*
X134426322Y95245569D01*
X134348022Y95040844D01*
X134277250Y94833397D01*
X134214103Y94623504D01*
X134158663Y94411444D01*
X134111005Y94197501D01*
X134071193Y93981960D01*
X134039279Y93765109D01*
X134015306Y93547236D01*
X133999307Y93328634D01*
X133991301Y93109593D01*
X133990801Y93000000D01*
X129790801Y93000000D01*
X129790801Y92600000D01*
X129190801Y92600000D01*
X124190801Y92600000D01*
X124190801Y92850000D01*
X129190801Y92850000D01*
X129190801Y93000000D01*
X125990801Y93000000D01*
X125990301Y93109593D01*
X125982295Y93328634D01*
X125966296Y93547236D01*
X125942323Y93765109D01*
X125910409Y93981960D01*
X125870597Y94197501D01*
X125822939Y94411444D01*
X125767499Y94623504D01*
X125704352Y94833397D01*
X125633580Y95040844D01*
X125555280Y95245569D01*
X125469555Y95447297D01*
X125376520Y95645759D01*
X125276298Y95840691D01*
X125169024Y96031833D01*
X125054841Y96218930D01*
X124933900Y96401731D01*
X124806365Y96579994D01*
X124672403Y96753479D01*
X124532195Y96921957D01*
X124385928Y97085201D01*
X124233796Y97242995D01*
X124076002Y97395127D01*
X123912758Y97541394D01*
X123744280Y97681602D01*
X123570795Y97815564D01*
X123392532Y97943099D01*
X123209731Y98064040D01*
X123022634Y98178223D01*
X122831492Y98285497D01*
X122636560Y98385719D01*
X122438098Y98478754D01*
X122236370Y98564479D01*
X122031645Y98642779D01*
X121824198Y98713551D01*
X121614305Y98776698D01*
X121402245Y98832138D01*
X121188302Y98879796D01*
X120972761Y98919608D01*
X120755910Y98951522D01*
X120538037Y98975495D01*
X120319435Y98991494D01*
X120100394Y98999500D01*
X119881208Y98999500D01*
X119662167Y98991494D01*
X119443565Y98975495D01*
X119225692Y98951522D01*
X119008841Y98919608D01*
X118793300Y98879796D01*
X118579357Y98832138D01*
X118367297Y98776698D01*
X118157404Y98713551D01*
X117949957Y98642779D01*
X117745232Y98564479D01*
X117543504Y98478754D01*
X117345042Y98385719D01*
X117150110Y98285497D01*
X116958968Y98178223D01*
X116771871Y98064040D01*
X116589070Y97943099D01*
X116410807Y97815564D01*
X116237322Y97681602D01*
X116068844Y97541394D01*
X115905600Y97395127D01*
X115747806Y97242995D01*
X115595674Y97085201D01*
X115449407Y96921957D01*
X115309199Y96753479D01*
X115175237Y96579994D01*
X115047702Y96401731D01*
X114926761Y96218930D01*
X114812578Y96031833D01*
X114705304Y95840691D01*
X114605082Y95645759D01*
X114512047Y95447297D01*
X114426322Y95245569D01*
X114348022Y95040844D01*
X114277250Y94833397D01*
X114214103Y94623504D01*
X114158663Y94411444D01*
X114111005Y94197501D01*
X114071193Y93981960D01*
X114039279Y93765109D01*
X114015306Y93547236D01*
X113999307Y93328634D01*
X113991301Y93109593D01*
X113990801Y93000000D01*
X109990801Y93000000D01*
X109990801Y123000000D01*
X149990801Y123000000D01*
X149990801Y93000000D01*
G37*
%TD.AperFunction*%
%TO.N,/GPIO*%
D11*
X101720000Y91420000D02*
X103720000Y91420000D01*
X103720000Y89420000D01*
X101720000Y89420000D01*
X101720000Y91420000D01*
%TA.AperFunction,Conductor*%
G36*
X101720000Y91420000D02*
G01*
X103720000Y91420000D01*
X103720000Y89420000D01*
X101720000Y89420000D01*
X101720000Y91420000D01*
G37*
%TD.AperFunction*%
%TO.N,+3.3V*%
X101780000Y88820000D02*
X103780000Y88820000D01*
X103780000Y86820000D01*
X101780000Y86820000D01*
X101780000Y88820000D01*
%TA.AperFunction,Conductor*%
G36*
X101780000Y88820000D02*
G01*
X103780000Y88820000D01*
X103780000Y86820000D01*
X101780000Y86820000D01*
X101780000Y88820000D01*
G37*
%TD.AperFunction*%
%TD*%
D12*
%TO.P,L1,2,2_2*%
%TO.N,unconnected-(L1-Pad2)*%
X123047500Y93580000D03*
%TO.P,L1,1,1_1*%
%TO.N,Net-(L1-Pad1)*%
X121472500Y93580000D03*
%TD*%
D13*
%TO.P,Q1,1,G_1*%
%TO.N,Net-(Q1-G)*%
X109322500Y90120000D03*
%TO.P,Q1,2,S_2*%
%TO.N,+3.3V*%
X109322500Y88220000D03*
%TO.P,Q1,3,D_3*%
%TO.N,Net-(Q1-D)*%
X111197500Y89170000D03*
%TD*%
D14*
%TO.P,R2,1*%
%TO.N,Net-(Q1-G)*%
X104370000Y93480000D03*
%TO.P,R2,2*%
%TO.N,/GPIO*%
X103350000Y93480000D03*
%TD*%
D15*
%TO.P,R3,1*%
%TO.N,Net-(Q1-G)*%
X105450000Y90260000D03*
%TO.P,R3,2*%
%TO.N,+3.3V*%
X105450000Y89240000D03*
%TD*%
D12*
%TO.P,L2,1,1_1*%
%TO.N,unconnected-(L2-Pad1)*%
X137072500Y93400000D03*
%TO.P,L2,2,2_2*%
%TO.N,GND*%
X138647500Y93400000D03*
%TD*%
D16*
%TO.P,C2,1*%
%TO.N,+3.3V*%
X108080000Y85875000D03*
%TO.P,C2,2*%
%TO.N,GND*%
X108080000Y84325000D03*
%TD*%
D17*
%TO.P,R1,1*%
%TO.N,Net-(Q1-D)*%
X113260000Y89220000D03*
%TO.P,R1,2*%
%TO.N,Net-(L1-Pad1)*%
X114280000Y89220000D03*
%TD*%
D16*
%TO.P,C1,1*%
%TO.N,+3.3V*%
X104860000Y85895000D03*
%TO.P,C1,2*%
%TO.N,GND*%
X104860000Y84345000D03*
%TD*%
D18*
%TO.N,GND*%
X155180000Y90640000D03*
X106440000Y81910000D03*
%TD*%
%TO.N,+3.3V*%
D11*
X105450000Y89240000D02*
X105450000Y88270000D01*
X104860000Y88190000D02*
X104890000Y88220000D01*
X108060000Y85895000D02*
X108080000Y85875000D01*
X106760000Y88220000D02*
X105500000Y88220000D01*
X104890000Y88220000D02*
X103190000Y88220000D01*
X105500000Y88220000D02*
X104890000Y88220000D01*
X105450000Y88270000D02*
X105500000Y88220000D01*
X104860000Y85895000D02*
X104860000Y88190000D01*
X103190000Y88220000D02*
X102790000Y87820000D01*
X108080000Y85875000D02*
X108080000Y86900000D01*
X109322500Y88220000D02*
X106760000Y88220000D01*
X108080000Y86900000D02*
X106760000Y88220000D01*
%TO.N,GND*%
X104970000Y81900000D02*
X104980000Y81910000D01*
X104860000Y84345000D02*
X104860000Y82010000D01*
X144770000Y93400000D02*
X145380000Y92790000D01*
X104980000Y81910000D02*
X106440000Y81910000D01*
X104860000Y82010000D02*
X104970000Y81900000D01*
X138647500Y93400000D02*
X144770000Y93400000D01*
X155160000Y90660000D02*
X155180000Y90640000D01*
X108060000Y84345000D02*
X108080000Y84325000D01*
X108080000Y84325000D02*
X108080000Y81910000D01*
X108080000Y81910000D02*
X106440000Y81910000D01*
X145380000Y90660000D02*
X155160000Y90660000D01*
X145380000Y92790000D02*
X145380000Y90660000D01*
%TO.N,unconnected-(L1-Pad2)*%
X130220000Y108020000D02*
X130220000Y108310000D01*
X130000000Y107800000D02*
X130220000Y108020000D01*
%TO.N,Net-(L1-Pad1)*%
X114280000Y91920000D02*
X116000000Y93640000D01*
X116060000Y93580000D02*
X121472500Y93580000D01*
X114280000Y89220000D02*
X114280000Y91920000D01*
X116000000Y93640000D02*
X116060000Y93580000D01*
%TO.N,Net-(Q1-D)*%
X111247500Y89220000D02*
X111197500Y89170000D01*
X113260000Y89220000D02*
X111247500Y89220000D01*
%TO.N,Net-(Q1-G)*%
X104370000Y93480000D02*
X107050000Y93480000D01*
X107050000Y93480000D02*
X107070000Y93500000D01*
X107140000Y90100000D02*
X107140000Y90580000D01*
X106820000Y90260000D02*
X107140000Y90580000D01*
X107070000Y93500000D02*
X107140000Y93430000D01*
X107160000Y90120000D02*
X107140000Y90100000D01*
X107140000Y93430000D02*
X107140000Y90580000D01*
X109322500Y90120000D02*
X107160000Y90120000D01*
X105450000Y90260000D02*
X106820000Y90260000D01*
%TO.N,/GPIO*%
X103350000Y92320000D02*
X103350000Y93480000D01*
X102720000Y91690000D02*
X103350000Y92320000D01*
X102720000Y90420000D02*
X102720000Y91690000D01*
%TD*%
X197940000Y92550000D02*
G01*
X196790000Y92550000D01*
X196790000Y94170000D01*
X197940000Y94170000D01*
X197940000Y92550000D01*
G37*
%TD.AperFunction*%
%TA.AperFunction,Conductor*%
%TO.N,unconnected-(L1-Pad2)*%
G36*
X185190000Y92603631D02*
G01*
X184040000Y92603631D01*
X184040000Y94370000D01*
X185190000Y94370000D01*
X185190000Y92603631D01*
G37*
%TD.AperFunction*%
%TA.AperFunction,Conductor*%
%TO.N,unconnected-(L2-Pad1)*%
G36*
X196790801Y92550000D02*
G01*
X191790801Y92550000D01*
X191790801Y92400000D01*
X204990801Y92400000D01*
X204990801Y82400000D01*
X176990801Y82400000D01*
X176990801Y92400000D01*
X191190801Y92400000D01*
X191190801Y92800000D01*
X191790801Y92800000D01*
X196790801Y92800000D01*
X196790801Y92550000D01*
G37*
%TD.AperFunction*%
%TA.AperFunction,Conductor*%
%TO.N,unconnected-(L1-Pad2)*%
G36*
X210990801Y93000000D02*
G01*
X206990801Y93000000D01*
X206990301Y93109593D01*
X206982295Y93328634D01*
X206966296Y93547236D01*
X206942323Y93765109D01*
X206910409Y93981960D01*
X206870597Y94197501D01*
X206822939Y94411444D01*
X206767499Y94623504D01*
X206704352Y94833397D01*
X206633580Y95040844D01*
X206555280Y95245569D01*
X206469555Y95447297D01*
X206376520Y95645759D01*
X206276298Y95840691D01*
X206169024Y96031833D01*
X206054841Y96218930D01*
X205933900Y96401731D01*
X205806365Y96579994D01*
X205672403Y96753479D01*
X205532195Y96921957D01*
X205385928Y97085201D01*
X205233796Y97242995D01*
X205076002Y97395127D01*
X204912758Y97541394D01*
X204744280Y97681602D01*
X204570795Y97815564D01*
X204392532Y97943099D01*
X204209731Y98064040D01*
X204022634Y98178223D01*
X203831492Y98285497D01*
X203636560Y98385719D01*
X203438098Y98478754D01*
X203236370Y98564479D01*
X203031645Y98642779D01*
X202824198Y98713551D01*
X202614305Y98776698D01*
X202402245Y98832138D01*
X202188302Y98879796D01*
X201972761Y98919608D01*
X201755910Y98951522D01*
X201538037Y98975495D01*
X201319435Y98991494D01*
X201100394Y98999500D01*
X200881208Y98999500D01*
X200662167Y98991494D01*
X200443565Y98975495D01*
X200225692Y98951522D01*
X200008841Y98919608D01*
X199793300Y98879796D01*
X199579357Y98832138D01*
X199367297Y98776698D01*
X199157404Y98713551D01*
X198949957Y98642779D01*
X198745232Y98564479D01*
X198543504Y98478754D01*
X198345042Y98385719D01*
X198150110Y98285497D01*
X197958968Y98178223D01*
X197771871Y98064040D01*
X197589070Y97943099D01*
X197410807Y97815564D01*
X197237322Y97681602D01*
X197068844Y97541394D01*
X196905600Y97395127D01*
X196747806Y97242995D01*
X196595674Y97085201D01*
X196449407Y96921957D01*
X196309199Y96753479D01*
X196175237Y96579994D01*
X196047702Y96401731D01*
X195926761Y96218930D01*
X195812578Y96031833D01*
X195705304Y95840691D01*
X195605082Y95645759D01*
X195512047Y95447297D01*
X195426322Y95245569D01*
X195348022Y95040844D01*
X195277250Y94833397D01*
X195214103Y94623504D01*
X195158663Y94411444D01*
X195111005Y94197501D01*
X195071193Y93981960D01*
X195039279Y93765109D01*
X195015306Y93547236D01*
X194999307Y93328634D01*
X194991301Y93109593D01*
X194990801Y93000000D01*
X190790801Y93000000D01*
X190790801Y92600000D01*
X190190801Y92600000D01*
X185190801Y92600000D01*
X185190801Y92850000D01*
X190190801Y92850000D01*
X190190801Y93000000D01*
X186990801Y93000000D01*
X186990301Y93109593D01*
X186982295Y93328634D01*
X186966296Y93547236D01*
X186942323Y93765109D01*
X186910409Y93981960D01*
X186870597Y94197501D01*
X186822939Y94411444D01*
X186767499Y94623504D01*
X186704352Y94833397D01*
X186633580Y95040844D01*
X186555280Y95245569D01*
X186469555Y95447297D01*
X186376520Y95645759D01*
X186276298Y95840691D01*
X186169024Y96031833D01*
X186054841Y96218930D01*
X185933900Y96401731D01*
X185806365Y96579994D01*
X185672403Y96753479D01*
X185532195Y96921957D01*
X185385928Y97085201D01*
X185233796Y97242995D01*
X185076002Y97395127D01*
X184912758Y97541394D01*
X184744280Y97681602D01*
X184570795Y97815564D01*
X184392532Y97943099D01*
X184209731Y98064040D01*
X184022634Y98178223D01*
X183831492Y98285497D01*
X183636560Y98385719D01*
X183438098Y98478754D01*
X183236370Y98564479D01*
X183031645Y98642779D01*
X182824198Y98713551D01*
X182614305Y98776698D01*
X182402245Y98832138D01*
X182188302Y98879796D01*
X181972761Y98919608D01*
X181755910Y98951522D01*
X181538037Y98975495D01*
X181319435Y98991494D01*
X181100394Y98999500D01*
X180881208Y98999500D01*
X180662167Y98991494D01*
X180443565Y98975495D01*
X180225692Y98951522D01*
X180008841Y98919608D01*
X179793300Y98879796D01*
X179579357Y98832138D01*
X179367297Y98776698D01*
X179157404Y98713551D01*
X178949957Y98642779D01*
X178745232Y98564479D01*
X178543504Y98478754D01*
X178345042Y98385719D01*
X178150110Y98285497D01*
X177958968Y98178223D01*
X177771871Y98064040D01*
X177589070Y97943099D01*
X177410807Y97815564D01*
X177237322Y97681602D01*
X177068844Y97541394D01*
X176905600Y97395127D01*
X176747806Y97242995D01*
X176595674Y97085201D01*
X176449407Y96921957D01*
X176309199Y96753479D01*
X176175237Y96579994D01*
X176047702Y96401731D01*
X175926761Y96218930D01*
X175812578Y96031833D01*
X175705304Y95840691D01*
X175605082Y95645759D01*
X175512047Y95447297D01*
X175426322Y95245569D01*
X175348022Y95040844D01*
X175277250Y94833397D01*
X175214103Y94623504D01*
X175158663Y94411444D01*
X175111005Y94197501D01*
X175071193Y93981960D01*
X175039279Y93765109D01*
X175015306Y93547236D01*
X174999307Y93328634D01*
X174991301Y93109593D01*
X174990801Y93000000D01*
X170990801Y93000000D01*
X170990801Y123000000D01*
X210990801Y123000000D01*
X210990801Y93000000D01*
G37*
%TD.AperFunction*%
%TO.N,/GPIO*%
D11*
X162720000Y91420000D02*
X164720000Y91420000D01*
X164720000Y89420000D01*
X162720000Y89420000D01*
X162720000Y91420000D01*
%TA.AperFunction,Conductor*%
G36*
X162720000Y91420000D02*
G01*
X164720000Y91420000D01*
X164720000Y89420000D01*
X162720000Y89420000D01*
X162720000Y91420000D01*
G37*
%TD.AperFunction*%
%TO.N,+3.3V*%
X162780000Y88820000D02*
X164780000Y88820000D01*
X164780000Y86820000D01*
X162780000Y86820000D01*
X162780000Y88820000D01*
%TA.AperFunction,Conductor*%
G36*
X162780000Y88820000D02*
G01*
X164780000Y88820000D01*
X164780000Y86820000D01*
X162780000Y86820000D01*
X162780000Y88820000D01*
G37*
%TD.AperFunction*%
%TD*%
D12*
%TO.P,L1,2,2_2*%
%TO.N,unconnected-(L1-Pad2)*%
X184047500Y93580000D03*
%TO.P,L1,1,1_1*%
%TO.N,Net-(L1-Pad1)*%
X182472500Y93580000D03*
%TD*%
D13*
%TO.P,Q1,1,G_1*%
%TO.N,Net-(Q1-G)*%
X170322500Y90120000D03*
%TO.P,Q1,2,S_2*%
%TO.N,+3.3V*%
X170322500Y88220000D03*
%TO.P,Q1,3,D_3*%
%TO.N,Net-(Q1-D)*%
X172197500Y89170000D03*
%TD*%
D14*
%TO.P,R2,1*%
%TO.N,Net-(Q1-G)*%
X165370000Y93480000D03*
%TO.P,R2,2*%
%TO.N,/GPIO*%
X164350000Y93480000D03*
%TD*%
D15*
%TO.P,R3,1*%
%TO.N,Net-(Q1-G)*%
X166450000Y90260000D03*
%TO.P,R3,2*%
%TO.N,+3.3V*%
X166450000Y89240000D03*
%TD*%
D12*
%TO.P,L2,1,1_1*%
%TO.N,unconnected-(L2-Pad1)*%
X198072500Y93400000D03*
%TO.P,L2,2,2_2*%
%TO.N,GND*%
X199647500Y93400000D03*
%TD*%
D16*
%TO.P,C2,1*%
%TO.N,+3.3V*%
X169080000Y85875000D03*
%TO.P,C2,2*%
%TO.N,GND*%
X169080000Y84325000D03*
%TD*%
D17*
%TO.P,R1,1*%
%TO.N,Net-(Q1-D)*%
X174260000Y89220000D03*
%TO.P,R1,2*%
%TO.N,Net-(L1-Pad1)*%
X175280000Y89220000D03*
%TD*%
D16*
%TO.P,C1,1*%
%TO.N,+3.3V*%
X165860000Y85895000D03*
%TO.P,C1,2*%
%TO.N,GND*%
X165860000Y84345000D03*
%TD*%
D18*
%TO.N,GND*%
X216180000Y90640000D03*
X167440000Y81910000D03*
%TD*%
%TO.N,+3.3V*%
D11*
X166450000Y89240000D02*
X166450000Y88270000D01*
X165860000Y88190000D02*
X165890000Y88220000D01*
X169060000Y85895000D02*
X169080000Y85875000D01*
X167760000Y88220000D02*
X166500000Y88220000D01*
X165890000Y88220000D02*
X164190000Y88220000D01*
X166500000Y88220000D02*
X165890000Y88220000D01*
X166450000Y88270000D02*
X166500000Y88220000D01*
X165860000Y85895000D02*
X165860000Y88190000D01*
X164190000Y88220000D02*
X163790000Y87820000D01*
X169080000Y85875000D02*
X169080000Y86900000D01*
X170322500Y88220000D02*
X167760000Y88220000D01*
X169080000Y86900000D02*
X167760000Y88220000D01*
%TO.N,GND*%
X165970000Y81900000D02*
X165980000Y81910000D01*
X165860000Y84345000D02*
X165860000Y82010000D01*
X205770000Y93400000D02*
X206380000Y92790000D01*
X165980000Y81910000D02*
X167440000Y81910000D01*
X165860000Y82010000D02*
X165970000Y81900000D01*
X199647500Y93400000D02*
X205770000Y93400000D01*
X216160000Y90660000D02*
X216180000Y90640000D01*
X169060000Y84345000D02*
X169080000Y84325000D01*
X169080000Y84325000D02*
X169080000Y81910000D01*
X169080000Y81910000D02*
X167440000Y81910000D01*
X206380000Y90660000D02*
X216160000Y90660000D01*
X206380000Y92790000D02*
X206380000Y90660000D01*
%TO.N,unconnected-(L1-Pad2)*%
X191220000Y108020000D02*
X191220000Y108310000D01*
X191000000Y107800000D02*
X191220000Y108020000D01*
%TO.N,Net-(L1-Pad1)*%
X175280000Y91920000D02*
X177000000Y93640000D01*
X177060000Y93580000D02*
X182472500Y93580000D01*
X175280000Y89220000D02*
X175280000Y91920000D01*
X177000000Y93640000D02*
X177060000Y93580000D01*
%TO.N,Net-(Q1-D)*%
X172247500Y89220000D02*
X172197500Y89170000D01*
X174260000Y89220000D02*
X172247500Y89220000D01*
%TO.N,Net-(Q1-G)*%
X165370000Y93480000D02*
X168050000Y93480000D01*
X168050000Y93480000D02*
X168070000Y93500000D01*
X168140000Y90100000D02*
X168140000Y90580000D01*
X167820000Y90260000D02*
X168140000Y90580000D01*
X168070000Y93500000D02*
X168140000Y93430000D01*
X168160000Y90120000D02*
X168140000Y90100000D01*
X168140000Y93430000D02*
X168140000Y90580000D01*
X170322500Y90120000D02*
X168160000Y90120000D01*
X166450000Y90260000D02*
X167820000Y90260000D01*
%TO.N,/GPIO*%
X164350000Y92320000D02*
X164350000Y93480000D01*
X163720000Y91690000D02*
X164350000Y92320000D01*
X163720000Y90420000D02*
X163720000Y91690000D01*
%TD*%
X258940000Y92550000D02*
G01*
X257790000Y92550000D01*
X257790000Y94170000D01*
X258940000Y94170000D01*
X258940000Y92550000D01*
G37*
%TD.AperFunction*%
%TA.AperFunction,Conductor*%
%TO.N,unconnected-(L1-Pad2)*%
G36*
X246190000Y92603631D02*
G01*
X245040000Y92603631D01*
X245040000Y94370000D01*
X246190000Y94370000D01*
X246190000Y92603631D01*
G37*
%TD.AperFunction*%
%TA.AperFunction,Conductor*%
%TO.N,unconnected-(L2-Pad1)*%
G36*
X257790801Y92550000D02*
G01*
X252790801Y92550000D01*
X252790801Y92400000D01*
X265990801Y92400000D01*
X265990801Y82400000D01*
X237990801Y82400000D01*
X237990801Y92400000D01*
X252190801Y92400000D01*
X252190801Y92800000D01*
X252790801Y92800000D01*
X257790801Y92800000D01*
X257790801Y92550000D01*
G37*
%TD.AperFunction*%
%TA.AperFunction,Conductor*%
%TO.N,unconnected-(L1-Pad2)*%
G36*
X271990801Y93000000D02*
G01*
X267990801Y93000000D01*
X267990301Y93109593D01*
X267982295Y93328634D01*
X267966296Y93547236D01*
X267942323Y93765109D01*
X267910409Y93981960D01*
X267870597Y94197501D01*
X267822939Y94411444D01*
X267767499Y94623504D01*
X267704352Y94833397D01*
X267633580Y95040844D01*
X267555280Y95245569D01*
X267469555Y95447297D01*
X267376520Y95645759D01*
X267276298Y95840691D01*
X267169024Y96031833D01*
X267054841Y96218930D01*
X266933900Y96401731D01*
X266806365Y96579994D01*
X266672403Y96753479D01*
X266532195Y96921957D01*
X266385928Y97085201D01*
X266233796Y97242995D01*
X266076002Y97395127D01*
X265912758Y97541394D01*
X265744280Y97681602D01*
X265570795Y97815564D01*
X265392532Y97943099D01*
X265209731Y98064040D01*
X265022634Y98178223D01*
X264831492Y98285497D01*
X264636560Y98385719D01*
X264438098Y98478754D01*
X264236370Y98564479D01*
X264031645Y98642779D01*
X263824198Y98713551D01*
X263614305Y98776698D01*
X263402245Y98832138D01*
X263188302Y98879796D01*
X262972761Y98919608D01*
X262755910Y98951522D01*
X262538037Y98975495D01*
X262319435Y98991494D01*
X262100394Y98999500D01*
X261881208Y98999500D01*
X261662167Y98991494D01*
X261443565Y98975495D01*
X261225692Y98951522D01*
X261008841Y98919608D01*
X260793300Y98879796D01*
X260579357Y98832138D01*
X260367297Y98776698D01*
X260157404Y98713551D01*
X259949957Y98642779D01*
X259745232Y98564479D01*
X259543504Y98478754D01*
X259345042Y98385719D01*
X259150110Y98285497D01*
X258958968Y98178223D01*
X258771871Y98064040D01*
X258589070Y97943099D01*
X258410807Y97815564D01*
X258237322Y97681602D01*
X258068844Y97541394D01*
X257905600Y97395127D01*
X257747806Y97242995D01*
X257595674Y97085201D01*
X257449407Y96921957D01*
X257309199Y96753479D01*
X257175237Y96579994D01*
X257047702Y96401731D01*
X256926761Y96218930D01*
X256812578Y96031833D01*
X256705304Y95840691D01*
X256605082Y95645759D01*
X256512047Y95447297D01*
X256426322Y95245569D01*
X256348022Y95040844D01*
X256277250Y94833397D01*
X256214103Y94623504D01*
X256158663Y94411444D01*
X256111005Y94197501D01*
X256071193Y93981960D01*
X256039279Y93765109D01*
X256015306Y93547236D01*
X255999307Y93328634D01*
X255991301Y93109593D01*
X255990801Y93000000D01*
X251790801Y93000000D01*
X251790801Y92600000D01*
X251190801Y92600000D01*
X246190801Y92600000D01*
X246190801Y92850000D01*
X251190801Y92850000D01*
X251190801Y93000000D01*
X247990801Y93000000D01*
X247990301Y93109593D01*
X247982295Y93328634D01*
X247966296Y93547236D01*
X247942323Y93765109D01*
X247910409Y93981960D01*
X247870597Y94197501D01*
X247822939Y94411444D01*
X247767499Y94623504D01*
X247704352Y94833397D01*
X247633580Y95040844D01*
X247555280Y95245569D01*
X247469555Y95447297D01*
X247376520Y95645759D01*
X247276298Y95840691D01*
X247169024Y96031833D01*
X247054841Y96218930D01*
X246933900Y96401731D01*
X246806365Y96579994D01*
X246672403Y96753479D01*
X246532195Y96921957D01*
X246385928Y97085201D01*
X246233796Y97242995D01*
X246076002Y97395127D01*
X245912758Y97541394D01*
X245744280Y97681602D01*
X245570795Y97815564D01*
X245392532Y97943099D01*
X245209731Y98064040D01*
X245022634Y98178223D01*
X244831492Y98285497D01*
X244636560Y98385719D01*
X244438098Y98478754D01*
X244236370Y98564479D01*
X244031645Y98642779D01*
X243824198Y98713551D01*
X243614305Y98776698D01*
X243402245Y98832138D01*
X243188302Y98879796D01*
X242972761Y98919608D01*
X242755910Y98951522D01*
X242538037Y98975495D01*
X242319435Y98991494D01*
X242100394Y98999500D01*
X241881208Y98999500D01*
X241662167Y98991494D01*
X241443565Y98975495D01*
X241225692Y98951522D01*
X241008841Y98919608D01*
X240793300Y98879796D01*
X240579357Y98832138D01*
X240367297Y98776698D01*
X240157404Y98713551D01*
X239949957Y98642779D01*
X239745232Y98564479D01*
X239543504Y98478754D01*
X239345042Y98385719D01*
X239150110Y98285497D01*
X238958968Y98178223D01*
X238771871Y98064040D01*
X238589070Y97943099D01*
X238410807Y97815564D01*
X238237322Y97681602D01*
X238068844Y97541394D01*
X237905600Y97395127D01*
X237747806Y97242995D01*
X237595674Y97085201D01*
X237449407Y96921957D01*
X237309199Y96753479D01*
X237175237Y96579994D01*
X237047702Y96401731D01*
X236926761Y96218930D01*
X236812578Y96031833D01*
X236705304Y95840691D01*
X236605082Y95645759D01*
X236512047Y95447297D01*
X236426322Y95245569D01*
X236348022Y95040844D01*
X236277250Y94833397D01*
X236214103Y94623504D01*
X236158663Y94411444D01*
X236111005Y94197501D01*
X236071193Y93981960D01*
X236039279Y93765109D01*
X236015306Y93547236D01*
X235999307Y93328634D01*
X235991301Y93109593D01*
X235990801Y93000000D01*
X231990801Y93000000D01*
X231990801Y123000000D01*
X271990801Y123000000D01*
X271990801Y93000000D01*
G37*
%TD.AperFunction*%
%TO.N,/GPIO*%
D11*
X223720000Y91420000D02*
X225720000Y91420000D01*
X225720000Y89420000D01*
X223720000Y89420000D01*
X223720000Y91420000D01*
%TA.AperFunction,Conductor*%
G36*
X223720000Y91420000D02*
G01*
X225720000Y91420000D01*
X225720000Y89420000D01*
X223720000Y89420000D01*
X223720000Y91420000D01*
G37*
%TD.AperFunction*%
%TO.N,+3.3V*%
X223780000Y88820000D02*
X225780000Y88820000D01*
X225780000Y86820000D01*
X223780000Y86820000D01*
X223780000Y88820000D01*
%TA.AperFunction,Conductor*%
G36*
X223780000Y88820000D02*
G01*
X225780000Y88820000D01*
X225780000Y86820000D01*
X223780000Y86820000D01*
X223780000Y88820000D01*
G37*
%TD.AperFunction*%
%TD*%
D12*
%TO.P,L1,2,2_2*%
%TO.N,unconnected-(L1-Pad2)*%
X245047500Y93580000D03*
%TO.P,L1,1,1_1*%
%TO.N,Net-(L1-Pad1)*%
X243472500Y93580000D03*
%TD*%
D13*
%TO.P,Q1,1,G_1*%
%TO.N,Net-(Q1-G)*%
X231322500Y90120000D03*
%TO.P,Q1,2,S_2*%
%TO.N,+3.3V*%
X231322500Y88220000D03*
%TO.P,Q1,3,D_3*%
%TO.N,Net-(Q1-D)*%
X233197500Y89170000D03*
%TD*%
D14*
%TO.P,R2,1*%
%TO.N,Net-(Q1-G)*%
X226370000Y93480000D03*
%TO.P,R2,2*%
%TO.N,/GPIO*%
X225350000Y93480000D03*
%TD*%
D15*
%TO.P,R3,1*%
%TO.N,Net-(Q1-G)*%
X227450000Y90260000D03*
%TO.P,R3,2*%
%TO.N,+3.3V*%
X227450000Y89240000D03*
%TD*%
D12*
%TO.P,L2,1,1_1*%
%TO.N,unconnected-(L2-Pad1)*%
X259072500Y93400000D03*
%TO.P,L2,2,2_2*%
%TO.N,GND*%
X260647500Y93400000D03*
%TD*%
D16*
%TO.P,C2,1*%
%TO.N,+3.3V*%
X230080000Y85875000D03*
%TO.P,C2,2*%
%TO.N,GND*%
X230080000Y84325000D03*
%TD*%
D17*
%TO.P,R1,1*%
%TO.N,Net-(Q1-D)*%
X235260000Y89220000D03*
%TO.P,R1,2*%
%TO.N,Net-(L1-Pad1)*%
X236280000Y89220000D03*
%TD*%
D16*
%TO.P,C1,1*%
%TO.N,+3.3V*%
X226860000Y85895000D03*
%TO.P,C1,2*%
%TO.N,GND*%
X226860000Y84345000D03*
%TD*%
D18*
%TO.N,GND*%
X277180000Y90640000D03*
X228440000Y81910000D03*
%TD*%
%TO.N,+3.3V*%
D11*
X227450000Y89240000D02*
X227450000Y88270000D01*
X226860000Y88190000D02*
X226890000Y88220000D01*
X230060000Y85895000D02*
X230080000Y85875000D01*
X228760000Y88220000D02*
X227500000Y88220000D01*
X226890000Y88220000D02*
X225190000Y88220000D01*
X227500000Y88220000D02*
X226890000Y88220000D01*
X227450000Y88270000D02*
X227500000Y88220000D01*
X226860000Y85895000D02*
X226860000Y88190000D01*
X225190000Y88220000D02*
X224790000Y87820000D01*
X230080000Y85875000D02*
X230080000Y86900000D01*
X231322500Y88220000D02*
X228760000Y88220000D01*
X230080000Y86900000D02*
X228760000Y88220000D01*
%TO.N,GND*%
X226970000Y81900000D02*
X226980000Y81910000D01*
X226860000Y84345000D02*
X226860000Y82010000D01*
X266770000Y93400000D02*
X267380000Y92790000D01*
X226980000Y81910000D02*
X228440000Y81910000D01*
X226860000Y82010000D02*
X226970000Y81900000D01*
X260647500Y93400000D02*
X266770000Y93400000D01*
X277160000Y90660000D02*
X277180000Y90640000D01*
X230060000Y84345000D02*
X230080000Y84325000D01*
X230080000Y84325000D02*
X230080000Y81910000D01*
X230080000Y81910000D02*
X228440000Y81910000D01*
X267380000Y90660000D02*
X277160000Y90660000D01*
X267380000Y92790000D02*
X267380000Y90660000D01*
%TO.N,unconnected-(L1-Pad2)*%
X252220000Y108020000D02*
X252220000Y108310000D01*
X252000000Y107800000D02*
X252220000Y108020000D01*
%TO.N,Net-(L1-Pad1)*%
X236280000Y91920000D02*
X238000000Y93640000D01*
X238060000Y93580000D02*
X243472500Y93580000D01*
X236280000Y89220000D02*
X236280000Y91920000D01*
X238000000Y93640000D02*
X238060000Y93580000D01*
%TO.N,Net-(Q1-D)*%
X233247500Y89220000D02*
X233197500Y89170000D01*
X235260000Y89220000D02*
X233247500Y89220000D01*
%TO.N,Net-(Q1-G)*%
X226370000Y93480000D02*
X229050000Y93480000D01*
X229050000Y93480000D02*
X229070000Y93500000D01*
X229140000Y90100000D02*
X229140000Y90580000D01*
X228820000Y90260000D02*
X229140000Y90580000D01*
X229070000Y93500000D02*
X229140000Y93430000D01*
X229160000Y90120000D02*
X229140000Y90100000D01*
X229140000Y93430000D02*
X229140000Y90580000D01*
X231322500Y90120000D02*
X229160000Y90120000D01*
X227450000Y90260000D02*
X228820000Y90260000D01*
%TO.N,/GPIO*%
X225350000Y92320000D02*
X225350000Y93480000D01*
X224720000Y91690000D02*
X225350000Y92320000D01*
X224720000Y90420000D02*
X224720000Y91690000D01*
%TD*%
X319940000Y92550000D02*
G01*
X318790000Y92550000D01*
X318790000Y94170000D01*
X319940000Y94170000D01*
X319940000Y92550000D01*
G37*
%TD.AperFunction*%
%TA.AperFunction,Conductor*%
%TO.N,unconnected-(L1-Pad2)*%
G36*
X307190000Y92603631D02*
G01*
X306040000Y92603631D01*
X306040000Y94370000D01*
X307190000Y94370000D01*
X307190000Y92603631D01*
G37*
%TD.AperFunction*%
%TA.AperFunction,Conductor*%
%TO.N,unconnected-(L2-Pad1)*%
G36*
X318790801Y92550000D02*
G01*
X313790801Y92550000D01*
X313790801Y92400000D01*
X326990801Y92400000D01*
X326990801Y82400000D01*
X298990801Y82400000D01*
X298990801Y92400000D01*
X313190801Y92400000D01*
X313190801Y92800000D01*
X313790801Y92800000D01*
X318790801Y92800000D01*
X318790801Y92550000D01*
G37*
%TD.AperFunction*%
%TA.AperFunction,Conductor*%
%TO.N,unconnected-(L1-Pad2)*%
G36*
X332990801Y93000000D02*
G01*
X328990801Y93000000D01*
X328990301Y93109593D01*
X328982295Y93328634D01*
X328966296Y93547236D01*
X328942323Y93765109D01*
X328910409Y93981960D01*
X328870597Y94197501D01*
X328822939Y94411444D01*
X328767499Y94623504D01*
X328704352Y94833397D01*
X328633580Y95040844D01*
X328555280Y95245569D01*
X328469555Y95447297D01*
X328376520Y95645759D01*
X328276298Y95840691D01*
X328169024Y96031833D01*
X328054841Y96218930D01*
X327933900Y96401731D01*
X327806365Y96579994D01*
X327672403Y96753479D01*
X327532195Y96921957D01*
X327385928Y97085201D01*
X327233796Y97242995D01*
X327076002Y97395127D01*
X326912758Y97541394D01*
X326744280Y97681602D01*
X326570795Y97815564D01*
X326392532Y97943099D01*
X326209731Y98064040D01*
X326022634Y98178223D01*
X325831492Y98285497D01*
X325636560Y98385719D01*
X325438098Y98478754D01*
X325236370Y98564479D01*
X325031645Y98642779D01*
X324824198Y98713551D01*
X324614305Y98776698D01*
X324402245Y98832138D01*
X324188302Y98879796D01*
X323972761Y98919608D01*
X323755910Y98951522D01*
X323538037Y98975495D01*
X323319435Y98991494D01*
X323100394Y98999500D01*
X322881208Y98999500D01*
X322662167Y98991494D01*
X322443565Y98975495D01*
X322225692Y98951522D01*
X322008841Y98919608D01*
X321793300Y98879796D01*
X321579357Y98832138D01*
X321367297Y98776698D01*
X321157404Y98713551D01*
X320949957Y98642779D01*
X320745232Y98564479D01*
X320543504Y98478754D01*
X320345042Y98385719D01*
X320150110Y98285497D01*
X319958968Y98178223D01*
X319771871Y98064040D01*
X319589070Y97943099D01*
X319410807Y97815564D01*
X319237322Y97681602D01*
X319068844Y97541394D01*
X318905600Y97395127D01*
X318747806Y97242995D01*
X318595674Y97085201D01*
X318449407Y96921957D01*
X318309199Y96753479D01*
X318175237Y96579994D01*
X318047702Y96401731D01*
X317926761Y96218930D01*
X317812578Y96031833D01*
X317705304Y95840691D01*
X317605082Y95645759D01*
X317512047Y95447297D01*
X317426322Y95245569D01*
X317348022Y95040844D01*
X317277250Y94833397D01*
X317214103Y94623504D01*
X317158663Y94411444D01*
X317111005Y94197501D01*
X317071193Y93981960D01*
X317039279Y93765109D01*
X317015306Y93547236D01*
X316999307Y93328634D01*
X316991301Y93109593D01*
X316990801Y93000000D01*
X312790801Y93000000D01*
X312790801Y92600000D01*
X312190801Y92600000D01*
X307190801Y92600000D01*
X307190801Y92850000D01*
X312190801Y92850000D01*
X312190801Y93000000D01*
X308990801Y93000000D01*
X308990301Y93109593D01*
X308982295Y93328634D01*
X308966296Y93547236D01*
X308942323Y93765109D01*
X308910409Y93981960D01*
X308870597Y94197501D01*
X308822939Y94411444D01*
X308767499Y94623504D01*
X308704352Y94833397D01*
X308633580Y95040844D01*
X308555280Y95245569D01*
X308469555Y95447297D01*
X308376520Y95645759D01*
X308276298Y95840691D01*
X308169024Y96031833D01*
X308054841Y96218930D01*
X307933900Y96401731D01*
X307806365Y96579994D01*
X307672403Y96753479D01*
X307532195Y96921957D01*
X307385928Y97085201D01*
X307233796Y97242995D01*
X307076002Y97395127D01*
X306912758Y97541394D01*
X306744280Y97681602D01*
X306570795Y97815564D01*
X306392532Y97943099D01*
X306209731Y98064040D01*
X306022634Y98178223D01*
X305831492Y98285497D01*
X305636560Y98385719D01*
X305438098Y98478754D01*
X305236370Y98564479D01*
X305031645Y98642779D01*
X304824198Y98713551D01*
X304614305Y98776698D01*
X304402245Y98832138D01*
X304188302Y98879796D01*
X303972761Y98919608D01*
X303755910Y98951522D01*
X303538037Y98975495D01*
X303319435Y98991494D01*
X303100394Y98999500D01*
X302881208Y98999500D01*
X302662167Y98991494D01*
X302443565Y98975495D01*
X302225692Y98951522D01*
X302008841Y98919608D01*
X301793300Y98879796D01*
X301579357Y98832138D01*
X301367297Y98776698D01*
X301157404Y98713551D01*
X300949957Y98642779D01*
X300745232Y98564479D01*
X300543504Y98478754D01*
X300345042Y98385719D01*
X300150110Y98285497D01*
X299958968Y98178223D01*
X299771871Y98064040D01*
X299589070Y97943099D01*
X299410807Y97815564D01*
X299237322Y97681602D01*
X299068844Y97541394D01*
X298905600Y97395127D01*
X298747806Y97242995D01*
X298595674Y97085201D01*
X298449407Y96921957D01*
X298309199Y96753479D01*
X298175237Y96579994D01*
X298047702Y96401731D01*
X297926761Y96218930D01*
X297812578Y96031833D01*
X297705304Y95840691D01*
X297605082Y95645759D01*
X297512047Y95447297D01*
X297426322Y95245569D01*
X297348022Y95040844D01*
X297277250Y94833397D01*
X297214103Y94623504D01*
X297158663Y94411444D01*
X297111005Y94197501D01*
X297071193Y93981960D01*
X297039279Y93765109D01*
X297015306Y93547236D01*
X296999307Y93328634D01*
X296991301Y93109593D01*
X296990801Y93000000D01*
X292990801Y93000000D01*
X292990801Y123000000D01*
X332990801Y123000000D01*
X332990801Y93000000D01*
G37*
%TD.AperFunction*%
%TO.N,/GPIO*%
D11*
X284720000Y91420000D02*
X286720000Y91420000D01*
X286720000Y89420000D01*
X284720000Y89420000D01*
X284720000Y91420000D01*
%TA.AperFunction,Conductor*%
G36*
X284720000Y91420000D02*
G01*
X286720000Y91420000D01*
X286720000Y89420000D01*
X284720000Y89420000D01*
X284720000Y91420000D01*
G37*
%TD.AperFunction*%
%TO.N,+3.3V*%
X284780000Y88820000D02*
X286780000Y88820000D01*
X286780000Y86820000D01*
X284780000Y86820000D01*
X284780000Y88820000D01*
%TA.AperFunction,Conductor*%
G36*
X284780000Y88820000D02*
G01*
X286780000Y88820000D01*
X286780000Y86820000D01*
X284780000Y86820000D01*
X284780000Y88820000D01*
G37*
%TD.AperFunction*%
%TD*%
D12*
%TO.P,L1,2,2_2*%
%TO.N,unconnected-(L1-Pad2)*%
X306047500Y93580000D03*
%TO.P,L1,1,1_1*%
%TO.N,Net-(L1-Pad1)*%
X304472500Y93580000D03*
%TD*%
D13*
%TO.P,Q1,1,G_1*%
%TO.N,Net-(Q1-G)*%
X292322500Y90120000D03*
%TO.P,Q1,2,S_2*%
%TO.N,+3.3V*%
X292322500Y88220000D03*
%TO.P,Q1,3,D_3*%
%TO.N,Net-(Q1-D)*%
X294197500Y89170000D03*
%TD*%
D14*
%TO.P,R2,1*%
%TO.N,Net-(Q1-G)*%
X287370000Y93480000D03*
%TO.P,R2,2*%
%TO.N,/GPIO*%
X286350000Y93480000D03*
%TD*%
D15*
%TO.P,R3,1*%
%TO.N,Net-(Q1-G)*%
X288450000Y90260000D03*
%TO.P,R3,2*%
%TO.N,+3.3V*%
X288450000Y89240000D03*
%TD*%
D12*
%TO.P,L2,1,1_1*%
%TO.N,unconnected-(L2-Pad1)*%
X320072500Y93400000D03*
%TO.P,L2,2,2_2*%
%TO.N,GND*%
X321647500Y93400000D03*
%TD*%
D16*
%TO.P,C2,1*%
%TO.N,+3.3V*%
X291080000Y85875000D03*
%TO.P,C2,2*%
%TO.N,GND*%
X291080000Y84325000D03*
%TD*%
D17*
%TO.P,R1,1*%
%TO.N,Net-(Q1-D)*%
X296260000Y89220000D03*
%TO.P,R1,2*%
%TO.N,Net-(L1-Pad1)*%
X297280000Y89220000D03*
%TD*%
D16*
%TO.P,C1,1*%
%TO.N,+3.3V*%
X287860000Y85895000D03*
%TO.P,C1,2*%
%TO.N,GND*%
X287860000Y84345000D03*
%TD*%
D18*
%TO.N,GND*%
X338180000Y90640000D03*
X289440000Y81910000D03*
%TD*%
%TO.N,+3.3V*%
D11*
X288450000Y89240000D02*
X288450000Y88270000D01*
X287860000Y88190000D02*
X287890000Y88220000D01*
X291060000Y85895000D02*
X291080000Y85875000D01*
X289760000Y88220000D02*
X288500000Y88220000D01*
X287890000Y88220000D02*
X286190000Y88220000D01*
X288500000Y88220000D02*
X287890000Y88220000D01*
X288450000Y88270000D02*
X288500000Y88220000D01*
X287860000Y85895000D02*
X287860000Y88190000D01*
X286190000Y88220000D02*
X285790000Y87820000D01*
X291080000Y85875000D02*
X291080000Y86900000D01*
X292322500Y88220000D02*
X289760000Y88220000D01*
X291080000Y86900000D02*
X289760000Y88220000D01*
%TO.N,GND*%
X287970000Y81900000D02*
X287980000Y81910000D01*
X287860000Y84345000D02*
X287860000Y82010000D01*
X327770000Y93400000D02*
X328380000Y92790000D01*
X287980000Y81910000D02*
X289440000Y81910000D01*
X287860000Y82010000D02*
X287970000Y81900000D01*
X321647500Y93400000D02*
X327770000Y93400000D01*
X338160000Y90660000D02*
X338180000Y90640000D01*
X291060000Y84345000D02*
X291080000Y84325000D01*
X291080000Y84325000D02*
X291080000Y81910000D01*
X291080000Y81910000D02*
X289440000Y81910000D01*
X328380000Y90660000D02*
X338160000Y90660000D01*
X328380000Y92790000D02*
X328380000Y90660000D01*
%TO.N,unconnected-(L1-Pad2)*%
X313220000Y108020000D02*
X313220000Y108310000D01*
X313000000Y107800000D02*
X313220000Y108020000D01*
%TO.N,Net-(L1-Pad1)*%
X297280000Y91920000D02*
X299000000Y93640000D01*
X299060000Y93580000D02*
X304472500Y93580000D01*
X297280000Y89220000D02*
X297280000Y91920000D01*
X299000000Y93640000D02*
X299060000Y93580000D01*
%TO.N,Net-(Q1-D)*%
X294247500Y89220000D02*
X294197500Y89170000D01*
X296260000Y89220000D02*
X294247500Y89220000D01*
%TO.N,Net-(Q1-G)*%
X287370000Y93480000D02*
X290050000Y93480000D01*
X290050000Y93480000D02*
X290070000Y93500000D01*
X290140000Y90100000D02*
X290140000Y90580000D01*
X289820000Y90260000D02*
X290140000Y90580000D01*
X290070000Y93500000D02*
X290140000Y93430000D01*
X290160000Y90120000D02*
X290140000Y90100000D01*
X290140000Y93430000D02*
X290140000Y90580000D01*
X292322500Y90120000D02*
X290160000Y90120000D01*
X288450000Y90260000D02*
X289820000Y90260000D01*
%TO.N,/GPIO*%
X286350000Y92320000D02*
X286350000Y93480000D01*
X285720000Y91690000D02*
X286350000Y92320000D01*
X285720000Y90420000D02*
X285720000Y91690000D01*
%TD*%
M02*
