%TF.GenerationSoftware,KiCad,Pcbnew,10.0.5*%
%TF.CreationDate,2026-09-07T23:02:26+05:30*%
%TF.ProjectId,RIS,5249532e-6b69-4636-9164-5f7063625858,rev?*%
%TF.SameCoordinates,Original*%
%TF.FileFunction,Copper,L2,Bot*%
%TF.FilePolarity,Positive*%
%FSLAX46Y46*%
G04 Gerber Fmt 4.6, Leading zero omitted, Abs format (unit mm)*
G04 Created by KiCad (PCBNEW 10.0.5) date 2026-09-07 23:02:26*
%MOMM*%
%LPD*%
G01*
G04 APERTURE LIST*
%TA.AperFunction,ViaPad*%
%ADD10C,0.600000*%
%TD*%
G04 APERTURE END LIST*
D10*
%TO.N,GND*%
X155180000Y-92360000D03*
X106440000Y-101090000D03*
%TD*%
%TA.AperFunction,Conductor*%
%TO.N,GND*%
G36*
X159942539Y-50520185D02*
G01*
X159988294Y-50572989D01*
X159999500Y-50624500D01*
X159999500Y-109375500D01*
X159979815Y-109442539D01*
X159927011Y-109488294D01*
X159875500Y-109499500D01*
X101124500Y-109499500D01*
X101057461Y-109479815D01*
X101011706Y-109427011D01*
X101000500Y-109375500D01*
X101000500Y-50624500D01*
X101020185Y-50557461D01*
X101072989Y-50511706D01*
X101124500Y-50500500D01*
X159875500Y-50500500D01*
X159942539Y-50520185D01*
G37*
%TD.AperFunction*%
%TD*%
X216180000Y-92360000D03*
X167440000Y-101090000D03*
%TD*%
%TA.AperFunction,Conductor*%
%TO.N,GND*%
G36*
X220942539Y-50520185D02*
G01*
X220988294Y-50572989D01*
X220999500Y-50624500D01*
X220999500Y-109375500D01*
X220979815Y-109442539D01*
X220927011Y-109488294D01*
X220875500Y-109499500D01*
X162124500Y-109499500D01*
X162057461Y-109479815D01*
X162011706Y-109427011D01*
X162000500Y-109375500D01*
X162000500Y-50624500D01*
X162020185Y-50557461D01*
X162072989Y-50511706D01*
X162124500Y-50500500D01*
X220875500Y-50500500D01*
X220942539Y-50520185D01*
G37*
%TD.AperFunction*%
%TD*%
X277180000Y-92360000D03*
X228440000Y-101090000D03*
%TD*%
%TA.AperFunction,Conductor*%
%TO.N,GND*%
G36*
X281942539Y-50520185D02*
G01*
X281988294Y-50572989D01*
X281999500Y-50624500D01*
X281999500Y-109375500D01*
X281979815Y-109442539D01*
X281927011Y-109488294D01*
X281875500Y-109499500D01*
X223124500Y-109499500D01*
X223057461Y-109479815D01*
X223011706Y-109427011D01*
X223000500Y-109375500D01*
X223000500Y-50624500D01*
X223020185Y-50557461D01*
X223072989Y-50511706D01*
X223124500Y-50500500D01*
X281875500Y-50500500D01*
X281942539Y-50520185D01*
G37*
%TD.AperFunction*%
%TD*%
X338180000Y-92360000D03*
X289440000Y-101090000D03*
%TD*%
%TA.AperFunction,Conductor*%
%TO.N,GND*%
G36*
X342942539Y-50520185D02*
G01*
X342988294Y-50572989D01*
X342999500Y-50624500D01*
X342999500Y-109375500D01*
X342979815Y-109442539D01*
X342927011Y-109488294D01*
X342875500Y-109499500D01*
X284124500Y-109499500D01*
X284057461Y-109479815D01*
X284011706Y-109427011D01*
X284000500Y-109375500D01*
X284000500Y-50624500D01*
X284020185Y-50557461D01*
X284072989Y-50511706D01*
X284124500Y-50500500D01*
X342875500Y-50500500D01*
X342942539Y-50520185D01*
G37*
%TD.AperFunction*%
%TD*%
X155180000Y-31360000D03*
X106440000Y-40090000D03*
%TD*%
%TA.AperFunction,Conductor*%
%TO.N,GND*%
G36*
X159942539Y10479815D02*
G01*
X159988294Y10427011D01*
X159999500Y10375500D01*
X159999500Y-48375500D01*
X159979815Y-48442539D01*
X159927011Y-48488294D01*
X159875500Y-48499500D01*
X101124500Y-48499500D01*
X101057461Y-48479815D01*
X101011706Y-48427011D01*
X101000500Y-48375500D01*
X101000500Y10375500D01*
X101020185Y10442539D01*
X101072989Y10488294D01*
X101124500Y10499500D01*
X159875500Y10499500D01*
X159942539Y10479815D01*
G37*
%TD.AperFunction*%
%TD*%
X216180000Y-31360000D03*
X167440000Y-40090000D03*
%TD*%
%TA.AperFunction,Conductor*%
%TO.N,GND*%
G36*
X220942539Y10479815D02*
G01*
X220988294Y10427011D01*
X220999500Y10375500D01*
X220999500Y-48375500D01*
X220979815Y-48442539D01*
X220927011Y-48488294D01*
X220875500Y-48499500D01*
X162124500Y-48499500D01*
X162057461Y-48479815D01*
X162011706Y-48427011D01*
X162000500Y-48375500D01*
X162000500Y10375500D01*
X162020185Y10442539D01*
X162072989Y10488294D01*
X162124500Y10499500D01*
X220875500Y10499500D01*
X220942539Y10479815D01*
G37*
%TD.AperFunction*%
%TD*%
X277180000Y-31360000D03*
X228440000Y-40090000D03*
%TD*%
%TA.AperFunction,Conductor*%
%TO.N,GND*%
G36*
X281942539Y10479815D02*
G01*
X281988294Y10427011D01*
X281999500Y10375500D01*
X281999500Y-48375500D01*
X281979815Y-48442539D01*
X281927011Y-48488294D01*
X281875500Y-48499500D01*
X223124500Y-48499500D01*
X223057461Y-48479815D01*
X223011706Y-48427011D01*
X223000500Y-48375500D01*
X223000500Y10375500D01*
X223020185Y10442539D01*
X223072989Y10488294D01*
X223124500Y10499500D01*
X281875500Y10499500D01*
X281942539Y10479815D01*
G37*
%TD.AperFunction*%
%TD*%
X338180000Y-31360000D03*
X289440000Y-40090000D03*
%TD*%
%TA.AperFunction,Conductor*%
%TO.N,GND*%
G36*
X342942539Y10479815D02*
G01*
X342988294Y10427011D01*
X342999500Y10375500D01*
X342999500Y-48375500D01*
X342979815Y-48442539D01*
X342927011Y-48488294D01*
X342875500Y-48499500D01*
X284124500Y-48499500D01*
X284057461Y-48479815D01*
X284011706Y-48427011D01*
X284000500Y-48375500D01*
X284000500Y10375500D01*
X284020185Y10442539D01*
X284072989Y10488294D01*
X284124500Y10499500D01*
X342875500Y10499500D01*
X342942539Y10479815D01*
G37*
%TD.AperFunction*%
%TD*%
X155180000Y29640000D03*
X106440000Y20910000D03*
%TD*%
%TA.AperFunction,Conductor*%
%TO.N,GND*%
G36*
X159942539Y71479815D02*
G01*
X159988294Y71427011D01*
X159999500Y71375500D01*
X159999500Y12624500D01*
X159979815Y12557461D01*
X159927011Y12511706D01*
X159875500Y12500500D01*
X101124500Y12500500D01*
X101057461Y12520185D01*
X101011706Y12572989D01*
X101000500Y12624500D01*
X101000500Y71375500D01*
X101020185Y71442539D01*
X101072989Y71488294D01*
X101124500Y71499500D01*
X159875500Y71499500D01*
X159942539Y71479815D01*
G37*
%TD.AperFunction*%
%TD*%
X216180000Y29640000D03*
X167440000Y20910000D03*
%TD*%
%TA.AperFunction,Conductor*%
%TO.N,GND*%
G36*
X220942539Y71479815D02*
G01*
X220988294Y71427011D01*
X220999500Y71375500D01*
X220999500Y12624500D01*
X220979815Y12557461D01*
X220927011Y12511706D01*
X220875500Y12500500D01*
X162124500Y12500500D01*
X162057461Y12520185D01*
X162011706Y12572989D01*
X162000500Y12624500D01*
X162000500Y71375500D01*
X162020185Y71442539D01*
X162072989Y71488294D01*
X162124500Y71499500D01*
X220875500Y71499500D01*
X220942539Y71479815D01*
G37*
%TD.AperFunction*%
%TD*%
X277180000Y29640000D03*
X228440000Y20910000D03*
%TD*%
%TA.AperFunction,Conductor*%
%TO.N,GND*%
G36*
X281942539Y71479815D02*
G01*
X281988294Y71427011D01*
X281999500Y71375500D01*
X281999500Y12624500D01*
X281979815Y12557461D01*
X281927011Y12511706D01*
X281875500Y12500500D01*
X223124500Y12500500D01*
X223057461Y12520185D01*
X223011706Y12572989D01*
X223000500Y12624500D01*
X223000500Y71375500D01*
X223020185Y71442539D01*
X223072989Y71488294D01*
X223124500Y71499500D01*
X281875500Y71499500D01*
X281942539Y71479815D01*
G37*
%TD.AperFunction*%
%TD*%
X338180000Y29640000D03*
X289440000Y20910000D03*
%TD*%
%TA.AperFunction,Conductor*%
%TO.N,GND*%
G36*
X342942539Y71479815D02*
G01*
X342988294Y71427011D01*
X342999500Y71375500D01*
X342999500Y12624500D01*
X342979815Y12557461D01*
X342927011Y12511706D01*
X342875500Y12500500D01*
X284124500Y12500500D01*
X284057461Y12520185D01*
X284011706Y12572989D01*
X284000500Y12624500D01*
X284000500Y71375500D01*
X284020185Y71442539D01*
X284072989Y71488294D01*
X284124500Y71499500D01*
X342875500Y71499500D01*
X342942539Y71479815D01*
G37*
%TD.AperFunction*%
%TD*%
X155180000Y90640000D03*
X106440000Y81910000D03*
%TD*%
%TA.AperFunction,Conductor*%
%TO.N,GND*%
G36*
X159942539Y132479815D02*
G01*
X159988294Y132427011D01*
X159999500Y132375500D01*
X159999500Y73624500D01*
X159979815Y73557461D01*
X159927011Y73511706D01*
X159875500Y73500500D01*
X101124500Y73500500D01*
X101057461Y73520185D01*
X101011706Y73572989D01*
X101000500Y73624500D01*
X101000500Y132375500D01*
X101020185Y132442539D01*
X101072989Y132488294D01*
X101124500Y132499500D01*
X159875500Y132499500D01*
X159942539Y132479815D01*
G37*
%TD.AperFunction*%
%TD*%
X216180000Y90640000D03*
X167440000Y81910000D03*
%TD*%
%TA.AperFunction,Conductor*%
%TO.N,GND*%
G36*
X220942539Y132479815D02*
G01*
X220988294Y132427011D01*
X220999500Y132375500D01*
X220999500Y73624500D01*
X220979815Y73557461D01*
X220927011Y73511706D01*
X220875500Y73500500D01*
X162124500Y73500500D01*
X162057461Y73520185D01*
X162011706Y73572989D01*
X162000500Y73624500D01*
X162000500Y132375500D01*
X162020185Y132442539D01*
X162072989Y132488294D01*
X162124500Y132499500D01*
X220875500Y132499500D01*
X220942539Y132479815D01*
G37*
%TD.AperFunction*%
%TD*%
X277180000Y90640000D03*
X228440000Y81910000D03*
%TD*%
%TA.AperFunction,Conductor*%
%TO.N,GND*%
G36*
X281942539Y132479815D02*
G01*
X281988294Y132427011D01*
X281999500Y132375500D01*
X281999500Y73624500D01*
X281979815Y73557461D01*
X281927011Y73511706D01*
X281875500Y73500500D01*
X223124500Y73500500D01*
X223057461Y73520185D01*
X223011706Y73572989D01*
X223000500Y73624500D01*
X223000500Y132375500D01*
X223020185Y132442539D01*
X223072989Y132488294D01*
X223124500Y132499500D01*
X281875500Y132499500D01*
X281942539Y132479815D01*
G37*
%TD.AperFunction*%
%TD*%
X338180000Y90640000D03*
X289440000Y81910000D03*
%TD*%
%TA.AperFunction,Conductor*%
%TO.N,GND*%
G36*
X342942539Y132479815D02*
G01*
X342988294Y132427011D01*
X342999500Y132375500D01*
X342999500Y73624500D01*
X342979815Y73557461D01*
X342927011Y73511706D01*
X342875500Y73500500D01*
X284124500Y73500500D01*
X284057461Y73520185D01*
X284011706Y73572989D01*
X284000500Y73624500D01*
X284000500Y132375500D01*
X284020185Y132442539D01*
X284072989Y132488294D01*
X284124500Y132499500D01*
X342875500Y132499500D01*
X342942539Y132479815D01*
G37*
%TD.AperFunction*%
%TD*%
M02*
