%TF.GenerationSoftware,KiCad,Pcbnew,10.0.5*%
%TF.CreationDate,2026-10-08T11:56:11+05:30*%
%TF.ProjectId,RIS,5249532e-6b69-4636-9164-5f7063625858,rev?*%
%TF.SameCoordinates,Original*%
%TF.FileFunction,Copper,L1,Top*%
%TF.FilePolarity,Positive*%
%FSLAX46Y46*%
G04 Gerber Fmt 4.6, Leading zero omitted, Abs format (unit mm)*
G04 Created by KiCad (PCBNEW 10.0.5) date 2026-10-08 11:56:11*
%MOMM*%
%LPD*%
G01*
G04 APERTURE LIST*
G04 Aperture macros list*
%AMRoundRect*
0 Rectangle with rounded corners*
0 $1 Rounding radius*
0 $2 $3 $4 $5 $6 $7 $8 $9 X,Y pos of 4 corners*
0 Add a 4 corners polygon primitive as box body*
4,1,4,$2,$3,$4,$5,$6,$7,$8,$9,$2,$3,0*
0 Add four circle primitives for the rounded corners*
1,1,$1+$1,$2,$3*
1,1,$1+$1,$4,$5*
1,1,$1+$1,$6,$7*
1,1,$1+$1,$8,$9*
0 Add four rect primitives between the rounded corners*
20,1,$1+$1,$2,$3,$4,$5,0*
20,1,$1+$1,$4,$5,$6,$7,0*
20,1,$1+$1,$6,$7,$8,$9,0*
20,1,$1+$1,$8,$9,$2,$3,0*%
G04 Aperture macros list end*
%TA.AperFunction,Conductor*%
%ADD10C,0.000000*%
%TD*%
%TA.AperFunction,SMDPad,CuDef*%
%ADD11RoundRect,0.225000X-0.250000X0.225000X-0.250000X-0.225000X0.250000X-0.225000X0.250000X0.225000X0*%
%TD*%
%TA.AperFunction,SMDPad,CuDef*%
%ADD12RoundRect,0.135000X-0.185000X0.135000X-0.185000X-0.135000X0.185000X-0.135000X0.185000X0.135000X0*%
%TD*%
%TA.AperFunction,SMDPad,CuDef*%
%ADD13RoundRect,0.135000X0.185000X-0.135000X0.185000X0.135000X-0.185000X0.135000X-0.185000X-0.135000X0*%
%TD*%
%TA.AperFunction,SMDPad,CuDef*%
%ADD14RoundRect,0.150000X-0.587500X-0.150000X0.587500X-0.150000X0.587500X0.150000X-0.587500X0.150000X0*%
%TD*%
%TA.AperFunction,SMDPad,CuDef*%
%ADD15RoundRect,0.218750X-0.218750X-0.256250X0.218750X-0.256250X0.218750X0.256250X-0.218750X0.256250X0*%
%TD*%
%TA.AperFunction,ViaPad*%
%ADD16C,0.600000*%
%TD*%
%TA.AperFunction,Conductor*%
%ADD17C,0.200000*%
%TD*%
%TA.AperFunction,Profile*%
%ADD18C,0.050000*%
%TD*%
G04 APERTURE END LIST*
D10*
%TA.AperFunction,Conductor*%
%TO.N,unconnected-(L1-Pad2)*%
G36*
X50690000Y-67396369D02*
G01*
X49540000Y-67396369D01*
X49540000Y-65630000D01*
X50690000Y-65630000D01*
X50690000Y-67396369D01*
G37*
%TD.AperFunction*%
%TA.AperFunction,Conductor*%
G36*
X50690000Y-129396369D02*
G01*
X49540000Y-129396369D01*
X49540000Y-127630000D01*
X50690000Y-127630000D01*
X50690000Y-129396369D01*
G37*
%TD.AperFunction*%
%TA.AperFunction,Conductor*%
G36*
X50690000Y-191396369D02*
G01*
X49540000Y-191396369D01*
X49540000Y-189630000D01*
X50690000Y-189630000D01*
X50690000Y-191396369D01*
G37*
%TD.AperFunction*%
%TA.AperFunction,Conductor*%
G36*
X50690000Y-253396369D02*
G01*
X49540000Y-253396369D01*
X49540000Y-251630000D01*
X50690000Y-251630000D01*
X50690000Y-253396369D01*
G37*
%TD.AperFunction*%
%TA.AperFunction,Conductor*%
%TO.N,unconnected-(L2-Pad1)*%
G36*
X63440000Y-67450000D02*
G01*
X62290000Y-67450000D01*
X62290000Y-65830000D01*
X63440000Y-65830000D01*
X63440000Y-67450000D01*
G37*
%TD.AperFunction*%
%TA.AperFunction,Conductor*%
G36*
X63440000Y-129450000D02*
G01*
X62290000Y-129450000D01*
X62290000Y-127830000D01*
X63440000Y-127830000D01*
X63440000Y-129450000D01*
G37*
%TD.AperFunction*%
%TA.AperFunction,Conductor*%
G36*
X63440000Y-191450000D02*
G01*
X62290000Y-191450000D01*
X62290000Y-189830000D01*
X63440000Y-189830000D01*
X63440000Y-191450000D01*
G37*
%TD.AperFunction*%
%TA.AperFunction,Conductor*%
G36*
X63440000Y-253450000D02*
G01*
X62290000Y-253450000D01*
X62290000Y-251830000D01*
X63440000Y-251830000D01*
X63440000Y-253450000D01*
G37*
%TD.AperFunction*%
%TA.AperFunction,Conductor*%
%TO.N,unconnected-(L1-Pad2)*%
G36*
X112690000Y-67396369D02*
G01*
X111540000Y-67396369D01*
X111540000Y-65630000D01*
X112690000Y-65630000D01*
X112690000Y-67396369D01*
G37*
%TD.AperFunction*%
%TA.AperFunction,Conductor*%
G36*
X112690000Y-129396369D02*
G01*
X111540000Y-129396369D01*
X111540000Y-127630000D01*
X112690000Y-127630000D01*
X112690000Y-129396369D01*
G37*
%TD.AperFunction*%
%TA.AperFunction,Conductor*%
G36*
X112690000Y-191396369D02*
G01*
X111540000Y-191396369D01*
X111540000Y-189630000D01*
X112690000Y-189630000D01*
X112690000Y-191396369D01*
G37*
%TD.AperFunction*%
%TA.AperFunction,Conductor*%
G36*
X112690000Y-253396369D02*
G01*
X111540000Y-253396369D01*
X111540000Y-251630000D01*
X112690000Y-251630000D01*
X112690000Y-253396369D01*
G37*
%TD.AperFunction*%
%TA.AperFunction,Conductor*%
%TO.N,unconnected-(L2-Pad1)*%
G36*
X125440000Y-67450000D02*
G01*
X124290000Y-67450000D01*
X124290000Y-65830000D01*
X125440000Y-65830000D01*
X125440000Y-67450000D01*
G37*
%TD.AperFunction*%
%TA.AperFunction,Conductor*%
G36*
X125440000Y-129450000D02*
G01*
X124290000Y-129450000D01*
X124290000Y-127830000D01*
X125440000Y-127830000D01*
X125440000Y-129450000D01*
G37*
%TD.AperFunction*%
%TA.AperFunction,Conductor*%
G36*
X125440000Y-191450000D02*
G01*
X124290000Y-191450000D01*
X124290000Y-189830000D01*
X125440000Y-189830000D01*
X125440000Y-191450000D01*
G37*
%TD.AperFunction*%
%TA.AperFunction,Conductor*%
G36*
X125440000Y-253450000D02*
G01*
X124290000Y-253450000D01*
X124290000Y-251830000D01*
X125440000Y-251830000D01*
X125440000Y-253450000D01*
G37*
%TD.AperFunction*%
%TA.AperFunction,Conductor*%
%TO.N,unconnected-(L1-Pad2)*%
G36*
X174690000Y-67396369D02*
G01*
X173540000Y-67396369D01*
X173540000Y-65630000D01*
X174690000Y-65630000D01*
X174690000Y-67396369D01*
G37*
%TD.AperFunction*%
%TA.AperFunction,Conductor*%
G36*
X174690000Y-129396369D02*
G01*
X173540000Y-129396369D01*
X173540000Y-127630000D01*
X174690000Y-127630000D01*
X174690000Y-129396369D01*
G37*
%TD.AperFunction*%
%TA.AperFunction,Conductor*%
G36*
X174690000Y-191396369D02*
G01*
X173540000Y-191396369D01*
X173540000Y-189630000D01*
X174690000Y-189630000D01*
X174690000Y-191396369D01*
G37*
%TD.AperFunction*%
%TA.AperFunction,Conductor*%
G36*
X174690000Y-253396369D02*
G01*
X173540000Y-253396369D01*
X173540000Y-251630000D01*
X174690000Y-251630000D01*
X174690000Y-253396369D01*
G37*
%TD.AperFunction*%
%TA.AperFunction,Conductor*%
%TO.N,unconnected-(L2-Pad1)*%
G36*
X187440000Y-67450000D02*
G01*
X186290000Y-67450000D01*
X186290000Y-65830000D01*
X187440000Y-65830000D01*
X187440000Y-67450000D01*
G37*
%TD.AperFunction*%
%TA.AperFunction,Conductor*%
G36*
X187440000Y-129450000D02*
G01*
X186290000Y-129450000D01*
X186290000Y-127830000D01*
X187440000Y-127830000D01*
X187440000Y-129450000D01*
G37*
%TD.AperFunction*%
%TA.AperFunction,Conductor*%
G36*
X187440000Y-191450000D02*
G01*
X186290000Y-191450000D01*
X186290000Y-189830000D01*
X187440000Y-189830000D01*
X187440000Y-191450000D01*
G37*
%TD.AperFunction*%
%TA.AperFunction,Conductor*%
G36*
X187440000Y-253450000D02*
G01*
X186290000Y-253450000D01*
X186290000Y-251830000D01*
X187440000Y-251830000D01*
X187440000Y-253450000D01*
G37*
%TD.AperFunction*%
%TA.AperFunction,Conductor*%
%TO.N,unconnected-(L1-Pad2)*%
G36*
X236690000Y-67396369D02*
G01*
X235540000Y-67396369D01*
X235540000Y-65630000D01*
X236690000Y-65630000D01*
X236690000Y-67396369D01*
G37*
%TD.AperFunction*%
%TA.AperFunction,Conductor*%
G36*
X236690000Y-129396369D02*
G01*
X235540000Y-129396369D01*
X235540000Y-127630000D01*
X236690000Y-127630000D01*
X236690000Y-129396369D01*
G37*
%TD.AperFunction*%
%TA.AperFunction,Conductor*%
G36*
X236690000Y-191396369D02*
G01*
X235540000Y-191396369D01*
X235540000Y-189630000D01*
X236690000Y-189630000D01*
X236690000Y-191396369D01*
G37*
%TD.AperFunction*%
%TA.AperFunction,Conductor*%
G36*
X236690000Y-253396369D02*
G01*
X235540000Y-253396369D01*
X235540000Y-251630000D01*
X236690000Y-251630000D01*
X236690000Y-253396369D01*
G37*
%TD.AperFunction*%
%TA.AperFunction,Conductor*%
%TO.N,unconnected-(L2-Pad1)*%
G36*
X249440000Y-67450000D02*
G01*
X248290000Y-67450000D01*
X248290000Y-65830000D01*
X249440000Y-65830000D01*
X249440000Y-67450000D01*
G37*
%TD.AperFunction*%
%TA.AperFunction,Conductor*%
G36*
X249440000Y-129450000D02*
G01*
X248290000Y-129450000D01*
X248290000Y-127830000D01*
X249440000Y-127830000D01*
X249440000Y-129450000D01*
G37*
%TD.AperFunction*%
%TA.AperFunction,Conductor*%
G36*
X249440000Y-191450000D02*
G01*
X248290000Y-191450000D01*
X248290000Y-189830000D01*
X249440000Y-189830000D01*
X249440000Y-191450000D01*
G37*
%TD.AperFunction*%
%TA.AperFunction,Conductor*%
G36*
X249440000Y-253450000D02*
G01*
X248290000Y-253450000D01*
X248290000Y-251830000D01*
X249440000Y-251830000D01*
X249440000Y-253450000D01*
G37*
%TD.AperFunction*%
%TA.AperFunction,Conductor*%
G36*
X62290801Y-67450000D02*
G01*
X57290801Y-67450000D01*
X57290801Y-67600000D01*
X70490801Y-67600000D01*
X70490801Y-77600000D01*
X42490801Y-77600000D01*
X42490801Y-67600000D01*
X56690801Y-67600000D01*
X56690801Y-67200000D01*
X57290801Y-67200000D01*
X62290801Y-67200000D01*
X62290801Y-67450000D01*
G37*
%TD.AperFunction*%
%TA.AperFunction,Conductor*%
G36*
X62290801Y-129450000D02*
G01*
X57290801Y-129450000D01*
X57290801Y-129600000D01*
X70490801Y-129600000D01*
X70490801Y-139600000D01*
X42490801Y-139600000D01*
X42490801Y-129600000D01*
X56690801Y-129600000D01*
X56690801Y-129200000D01*
X57290801Y-129200000D01*
X62290801Y-129200000D01*
X62290801Y-129450000D01*
G37*
%TD.AperFunction*%
%TA.AperFunction,Conductor*%
G36*
X62290801Y-191450000D02*
G01*
X57290801Y-191450000D01*
X57290801Y-191600000D01*
X70490801Y-191600000D01*
X70490801Y-201600000D01*
X42490801Y-201600000D01*
X42490801Y-191600000D01*
X56690801Y-191600000D01*
X56690801Y-191200000D01*
X57290801Y-191200000D01*
X62290801Y-191200000D01*
X62290801Y-191450000D01*
G37*
%TD.AperFunction*%
%TA.AperFunction,Conductor*%
G36*
X62290801Y-253450000D02*
G01*
X57290801Y-253450000D01*
X57290801Y-253600000D01*
X70490801Y-253600000D01*
X70490801Y-263600000D01*
X42490801Y-263600000D01*
X42490801Y-253600000D01*
X56690801Y-253600000D01*
X56690801Y-253200000D01*
X57290801Y-253200000D01*
X62290801Y-253200000D01*
X62290801Y-253450000D01*
G37*
%TD.AperFunction*%
%TA.AperFunction,Conductor*%
G36*
X124290801Y-67450000D02*
G01*
X119290801Y-67450000D01*
X119290801Y-67600000D01*
X132490801Y-67600000D01*
X132490801Y-77600000D01*
X104490801Y-77600000D01*
X104490801Y-67600000D01*
X118690801Y-67600000D01*
X118690801Y-67200000D01*
X119290801Y-67200000D01*
X124290801Y-67200000D01*
X124290801Y-67450000D01*
G37*
%TD.AperFunction*%
%TA.AperFunction,Conductor*%
G36*
X124290801Y-129450000D02*
G01*
X119290801Y-129450000D01*
X119290801Y-129600000D01*
X132490801Y-129600000D01*
X132490801Y-139600000D01*
X104490801Y-139600000D01*
X104490801Y-129600000D01*
X118690801Y-129600000D01*
X118690801Y-129200000D01*
X119290801Y-129200000D01*
X124290801Y-129200000D01*
X124290801Y-129450000D01*
G37*
%TD.AperFunction*%
%TA.AperFunction,Conductor*%
G36*
X124290801Y-191450000D02*
G01*
X119290801Y-191450000D01*
X119290801Y-191600000D01*
X132490801Y-191600000D01*
X132490801Y-201600000D01*
X104490801Y-201600000D01*
X104490801Y-191600000D01*
X118690801Y-191600000D01*
X118690801Y-191200000D01*
X119290801Y-191200000D01*
X124290801Y-191200000D01*
X124290801Y-191450000D01*
G37*
%TD.AperFunction*%
%TA.AperFunction,Conductor*%
G36*
X124290801Y-253450000D02*
G01*
X119290801Y-253450000D01*
X119290801Y-253600000D01*
X132490801Y-253600000D01*
X132490801Y-263600000D01*
X104490801Y-263600000D01*
X104490801Y-253600000D01*
X118690801Y-253600000D01*
X118690801Y-253200000D01*
X119290801Y-253200000D01*
X124290801Y-253200000D01*
X124290801Y-253450000D01*
G37*
%TD.AperFunction*%
%TA.AperFunction,Conductor*%
G36*
X186290801Y-67450000D02*
G01*
X181290801Y-67450000D01*
X181290801Y-67600000D01*
X194490801Y-67600000D01*
X194490801Y-77600000D01*
X166490801Y-77600000D01*
X166490801Y-67600000D01*
X180690801Y-67600000D01*
X180690801Y-67200000D01*
X181290801Y-67200000D01*
X186290801Y-67200000D01*
X186290801Y-67450000D01*
G37*
%TD.AperFunction*%
%TA.AperFunction,Conductor*%
G36*
X186290801Y-129450000D02*
G01*
X181290801Y-129450000D01*
X181290801Y-129600000D01*
X194490801Y-129600000D01*
X194490801Y-139600000D01*
X166490801Y-139600000D01*
X166490801Y-129600000D01*
X180690801Y-129600000D01*
X180690801Y-129200000D01*
X181290801Y-129200000D01*
X186290801Y-129200000D01*
X186290801Y-129450000D01*
G37*
%TD.AperFunction*%
%TA.AperFunction,Conductor*%
G36*
X186290801Y-191450000D02*
G01*
X181290801Y-191450000D01*
X181290801Y-191600000D01*
X194490801Y-191600000D01*
X194490801Y-201600000D01*
X166490801Y-201600000D01*
X166490801Y-191600000D01*
X180690801Y-191600000D01*
X180690801Y-191200000D01*
X181290801Y-191200000D01*
X186290801Y-191200000D01*
X186290801Y-191450000D01*
G37*
%TD.AperFunction*%
%TA.AperFunction,Conductor*%
G36*
X186290801Y-253450000D02*
G01*
X181290801Y-253450000D01*
X181290801Y-253600000D01*
X194490801Y-253600000D01*
X194490801Y-263600000D01*
X166490801Y-263600000D01*
X166490801Y-253600000D01*
X180690801Y-253600000D01*
X180690801Y-253200000D01*
X181290801Y-253200000D01*
X186290801Y-253200000D01*
X186290801Y-253450000D01*
G37*
%TD.AperFunction*%
%TA.AperFunction,Conductor*%
G36*
X248290801Y-67450000D02*
G01*
X243290801Y-67450000D01*
X243290801Y-67600000D01*
X256490801Y-67600000D01*
X256490801Y-77600000D01*
X228490801Y-77600000D01*
X228490801Y-67600000D01*
X242690801Y-67600000D01*
X242690801Y-67200000D01*
X243290801Y-67200000D01*
X248290801Y-67200000D01*
X248290801Y-67450000D01*
G37*
%TD.AperFunction*%
%TA.AperFunction,Conductor*%
G36*
X248290801Y-129450000D02*
G01*
X243290801Y-129450000D01*
X243290801Y-129600000D01*
X256490801Y-129600000D01*
X256490801Y-139600000D01*
X228490801Y-139600000D01*
X228490801Y-129600000D01*
X242690801Y-129600000D01*
X242690801Y-129200000D01*
X243290801Y-129200000D01*
X248290801Y-129200000D01*
X248290801Y-129450000D01*
G37*
%TD.AperFunction*%
%TA.AperFunction,Conductor*%
G36*
X248290801Y-191450000D02*
G01*
X243290801Y-191450000D01*
X243290801Y-191600000D01*
X256490801Y-191600000D01*
X256490801Y-201600000D01*
X228490801Y-201600000D01*
X228490801Y-191600000D01*
X242690801Y-191600000D01*
X242690801Y-191200000D01*
X243290801Y-191200000D01*
X248290801Y-191200000D01*
X248290801Y-191450000D01*
G37*
%TD.AperFunction*%
%TA.AperFunction,Conductor*%
G36*
X248290801Y-253450000D02*
G01*
X243290801Y-253450000D01*
X243290801Y-253600000D01*
X256490801Y-253600000D01*
X256490801Y-263600000D01*
X228490801Y-263600000D01*
X228490801Y-253600000D01*
X242690801Y-253600000D01*
X242690801Y-253200000D01*
X243290801Y-253200000D01*
X248290801Y-253200000D01*
X248290801Y-253450000D01*
G37*
%TD.AperFunction*%
%TA.AperFunction,Conductor*%
%TO.N,unconnected-(L1-Pad2)*%
G36*
X76490801Y-67000000D02*
G01*
X72490801Y-67000000D01*
X72490301Y-66890407D01*
X72482295Y-66671366D01*
X72466296Y-66452764D01*
X72442323Y-66234891D01*
X72410409Y-66018040D01*
X72370597Y-65802499D01*
X72322939Y-65588556D01*
X72267499Y-65376496D01*
X72204352Y-65166603D01*
X72133580Y-64959156D01*
X72055280Y-64754431D01*
X71969555Y-64552703D01*
X71876520Y-64354241D01*
X71776298Y-64159309D01*
X71669024Y-63968167D01*
X71554841Y-63781070D01*
X71433900Y-63598269D01*
X71306365Y-63420006D01*
X71172403Y-63246521D01*
X71032195Y-63078043D01*
X70885928Y-62914799D01*
X70733796Y-62757005D01*
X70576002Y-62604873D01*
X70412758Y-62458606D01*
X70244280Y-62318398D01*
X70070795Y-62184436D01*
X69892532Y-62056901D01*
X69709731Y-61935960D01*
X69522634Y-61821777D01*
X69331492Y-61714503D01*
X69136560Y-61614281D01*
X68938098Y-61521246D01*
X68736370Y-61435521D01*
X68531645Y-61357221D01*
X68324198Y-61286449D01*
X68114305Y-61223302D01*
X67902245Y-61167862D01*
X67688302Y-61120204D01*
X67472761Y-61080392D01*
X67255910Y-61048478D01*
X67038037Y-61024505D01*
X66819435Y-61008506D01*
X66600394Y-61000500D01*
X66381208Y-61000500D01*
X66162167Y-61008506D01*
X65943565Y-61024505D01*
X65725692Y-61048478D01*
X65508841Y-61080392D01*
X65293300Y-61120204D01*
X65079357Y-61167862D01*
X64867297Y-61223302D01*
X64657404Y-61286449D01*
X64449957Y-61357221D01*
X64245232Y-61435521D01*
X64043504Y-61521246D01*
X63845042Y-61614281D01*
X63650110Y-61714503D01*
X63458968Y-61821777D01*
X63271871Y-61935960D01*
X63089070Y-62056901D01*
X62910807Y-62184436D01*
X62737322Y-62318398D01*
X62568844Y-62458606D01*
X62405600Y-62604873D01*
X62247806Y-62757005D01*
X62095674Y-62914799D01*
X61949407Y-63078043D01*
X61809199Y-63246521D01*
X61675237Y-63420006D01*
X61547702Y-63598269D01*
X61426761Y-63781070D01*
X61312578Y-63968167D01*
X61205304Y-64159309D01*
X61105082Y-64354241D01*
X61012047Y-64552703D01*
X60926322Y-64754431D01*
X60848022Y-64959156D01*
X60777250Y-65166603D01*
X60714103Y-65376496D01*
X60658663Y-65588556D01*
X60611005Y-65802499D01*
X60571193Y-66018040D01*
X60539279Y-66234891D01*
X60515306Y-66452764D01*
X60499307Y-66671366D01*
X60491301Y-66890407D01*
X60490801Y-67000000D01*
X56290801Y-67000000D01*
X56290801Y-67400000D01*
X55690801Y-67400000D01*
X50690801Y-67400000D01*
X50690801Y-67150000D01*
X55690801Y-67150000D01*
X55690801Y-67000000D01*
X52490801Y-67000000D01*
X52490301Y-66890407D01*
X52482295Y-66671366D01*
X52466296Y-66452764D01*
X52442323Y-66234891D01*
X52410409Y-66018040D01*
X52370597Y-65802499D01*
X52322939Y-65588556D01*
X52267499Y-65376496D01*
X52204352Y-65166603D01*
X52133580Y-64959156D01*
X52055280Y-64754431D01*
X51969555Y-64552703D01*
X51876520Y-64354241D01*
X51776298Y-64159309D01*
X51669024Y-63968167D01*
X51554841Y-63781070D01*
X51433900Y-63598269D01*
X51306365Y-63420006D01*
X51172403Y-63246521D01*
X51032195Y-63078043D01*
X50885928Y-62914799D01*
X50733796Y-62757005D01*
X50576002Y-62604873D01*
X50412758Y-62458606D01*
X50244280Y-62318398D01*
X50070795Y-62184436D01*
X49892532Y-62056901D01*
X49709731Y-61935960D01*
X49522634Y-61821777D01*
X49331492Y-61714503D01*
X49136560Y-61614281D01*
X48938098Y-61521246D01*
X48736370Y-61435521D01*
X48531645Y-61357221D01*
X48324198Y-61286449D01*
X48114305Y-61223302D01*
X47902245Y-61167862D01*
X47688302Y-61120204D01*
X47472761Y-61080392D01*
X47255910Y-61048478D01*
X47038037Y-61024505D01*
X46819435Y-61008506D01*
X46600394Y-61000500D01*
X46381208Y-61000500D01*
X46162167Y-61008506D01*
X45943565Y-61024505D01*
X45725692Y-61048478D01*
X45508841Y-61080392D01*
X45293300Y-61120204D01*
X45079357Y-61167862D01*
X44867297Y-61223302D01*
X44657404Y-61286449D01*
X44449957Y-61357221D01*
X44245232Y-61435521D01*
X44043504Y-61521246D01*
X43845042Y-61614281D01*
X43650110Y-61714503D01*
X43458968Y-61821777D01*
X43271871Y-61935960D01*
X43089070Y-62056901D01*
X42910807Y-62184436D01*
X42737322Y-62318398D01*
X42568844Y-62458606D01*
X42405600Y-62604873D01*
X42247806Y-62757005D01*
X42095674Y-62914799D01*
X41949407Y-63078043D01*
X41809199Y-63246521D01*
X41675237Y-63420006D01*
X41547702Y-63598269D01*
X41426761Y-63781070D01*
X41312578Y-63968167D01*
X41205304Y-64159309D01*
X41105082Y-64354241D01*
X41012047Y-64552703D01*
X40926322Y-64754431D01*
X40848022Y-64959156D01*
X40777250Y-65166603D01*
X40714103Y-65376496D01*
X40658663Y-65588556D01*
X40611005Y-65802499D01*
X40571193Y-66018040D01*
X40539279Y-66234891D01*
X40515306Y-66452764D01*
X40499307Y-66671366D01*
X40491301Y-66890407D01*
X40490801Y-67000000D01*
X36490801Y-67000000D01*
X36490801Y-37000000D01*
X76490801Y-37000000D01*
X76490801Y-67000000D01*
G37*
%TD.AperFunction*%
%TA.AperFunction,Conductor*%
G36*
X76490801Y-129000000D02*
G01*
X72490801Y-129000000D01*
X72490301Y-128890407D01*
X72482295Y-128671366D01*
X72466296Y-128452764D01*
X72442323Y-128234891D01*
X72410409Y-128018040D01*
X72370597Y-127802499D01*
X72322939Y-127588556D01*
X72267499Y-127376496D01*
X72204352Y-127166603D01*
X72133580Y-126959156D01*
X72055280Y-126754431D01*
X71969555Y-126552703D01*
X71876520Y-126354241D01*
X71776298Y-126159309D01*
X71669024Y-125968167D01*
X71554841Y-125781070D01*
X71433900Y-125598269D01*
X71306365Y-125420006D01*
X71172403Y-125246521D01*
X71032195Y-125078043D01*
X70885928Y-124914799D01*
X70733796Y-124757005D01*
X70576002Y-124604873D01*
X70412758Y-124458606D01*
X70244280Y-124318398D01*
X70070795Y-124184436D01*
X69892532Y-124056901D01*
X69709731Y-123935960D01*
X69522634Y-123821777D01*
X69331492Y-123714503D01*
X69136560Y-123614281D01*
X68938098Y-123521246D01*
X68736370Y-123435521D01*
X68531645Y-123357221D01*
X68324198Y-123286449D01*
X68114305Y-123223302D01*
X67902245Y-123167862D01*
X67688302Y-123120204D01*
X67472761Y-123080392D01*
X67255910Y-123048478D01*
X67038037Y-123024505D01*
X66819435Y-123008506D01*
X66600394Y-123000500D01*
X66381208Y-123000500D01*
X66162167Y-123008506D01*
X65943565Y-123024505D01*
X65725692Y-123048478D01*
X65508841Y-123080392D01*
X65293300Y-123120204D01*
X65079357Y-123167862D01*
X64867297Y-123223302D01*
X64657404Y-123286449D01*
X64449957Y-123357221D01*
X64245232Y-123435521D01*
X64043504Y-123521246D01*
X63845042Y-123614281D01*
X63650110Y-123714503D01*
X63458968Y-123821777D01*
X63271871Y-123935960D01*
X63089070Y-124056901D01*
X62910807Y-124184436D01*
X62737322Y-124318398D01*
X62568844Y-124458606D01*
X62405600Y-124604873D01*
X62247806Y-124757005D01*
X62095674Y-124914799D01*
X61949407Y-125078043D01*
X61809199Y-125246521D01*
X61675237Y-125420006D01*
X61547702Y-125598269D01*
X61426761Y-125781070D01*
X61312578Y-125968167D01*
X61205304Y-126159309D01*
X61105082Y-126354241D01*
X61012047Y-126552703D01*
X60926322Y-126754431D01*
X60848022Y-126959156D01*
X60777250Y-127166603D01*
X60714103Y-127376496D01*
X60658663Y-127588556D01*
X60611005Y-127802499D01*
X60571193Y-128018040D01*
X60539279Y-128234891D01*
X60515306Y-128452764D01*
X60499307Y-128671366D01*
X60491301Y-128890407D01*
X60490801Y-129000000D01*
X56290801Y-129000000D01*
X56290801Y-129400000D01*
X55690801Y-129400000D01*
X50690801Y-129400000D01*
X50690801Y-129150000D01*
X55690801Y-129150000D01*
X55690801Y-129000000D01*
X52490801Y-129000000D01*
X52490301Y-128890407D01*
X52482295Y-128671366D01*
X52466296Y-128452764D01*
X52442323Y-128234891D01*
X52410409Y-128018040D01*
X52370597Y-127802499D01*
X52322939Y-127588556D01*
X52267499Y-127376496D01*
X52204352Y-127166603D01*
X52133580Y-126959156D01*
X52055280Y-126754431D01*
X51969555Y-126552703D01*
X51876520Y-126354241D01*
X51776298Y-126159309D01*
X51669024Y-125968167D01*
X51554841Y-125781070D01*
X51433900Y-125598269D01*
X51306365Y-125420006D01*
X51172403Y-125246521D01*
X51032195Y-125078043D01*
X50885928Y-124914799D01*
X50733796Y-124757005D01*
X50576002Y-124604873D01*
X50412758Y-124458606D01*
X50244280Y-124318398D01*
X50070795Y-124184436D01*
X49892532Y-124056901D01*
X49709731Y-123935960D01*
X49522634Y-123821777D01*
X49331492Y-123714503D01*
X49136560Y-123614281D01*
X48938098Y-123521246D01*
X48736370Y-123435521D01*
X48531645Y-123357221D01*
X48324198Y-123286449D01*
X48114305Y-123223302D01*
X47902245Y-123167862D01*
X47688302Y-123120204D01*
X47472761Y-123080392D01*
X47255910Y-123048478D01*
X47038037Y-123024505D01*
X46819435Y-123008506D01*
X46600394Y-123000500D01*
X46381208Y-123000500D01*
X46162167Y-123008506D01*
X45943565Y-123024505D01*
X45725692Y-123048478D01*
X45508841Y-123080392D01*
X45293300Y-123120204D01*
X45079357Y-123167862D01*
X44867297Y-123223302D01*
X44657404Y-123286449D01*
X44449957Y-123357221D01*
X44245232Y-123435521D01*
X44043504Y-123521246D01*
X43845042Y-123614281D01*
X43650110Y-123714503D01*
X43458968Y-123821777D01*
X43271871Y-123935960D01*
X43089070Y-124056901D01*
X42910807Y-124184436D01*
X42737322Y-124318398D01*
X42568844Y-124458606D01*
X42405600Y-124604873D01*
X42247806Y-124757005D01*
X42095674Y-124914799D01*
X41949407Y-125078043D01*
X41809199Y-125246521D01*
X41675237Y-125420006D01*
X41547702Y-125598269D01*
X41426761Y-125781070D01*
X41312578Y-125968167D01*
X41205304Y-126159309D01*
X41105082Y-126354241D01*
X41012047Y-126552703D01*
X40926322Y-126754431D01*
X40848022Y-126959156D01*
X40777250Y-127166603D01*
X40714103Y-127376496D01*
X40658663Y-127588556D01*
X40611005Y-127802499D01*
X40571193Y-128018040D01*
X40539279Y-128234891D01*
X40515306Y-128452764D01*
X40499307Y-128671366D01*
X40491301Y-128890407D01*
X40490801Y-129000000D01*
X36490801Y-129000000D01*
X36490801Y-99000000D01*
X76490801Y-99000000D01*
X76490801Y-129000000D01*
G37*
%TD.AperFunction*%
%TA.AperFunction,Conductor*%
G36*
X76490801Y-191000000D02*
G01*
X72490801Y-191000000D01*
X72490301Y-190890407D01*
X72482295Y-190671366D01*
X72466296Y-190452764D01*
X72442323Y-190234891D01*
X72410409Y-190018040D01*
X72370597Y-189802499D01*
X72322939Y-189588556D01*
X72267499Y-189376496D01*
X72204352Y-189166603D01*
X72133580Y-188959156D01*
X72055280Y-188754431D01*
X71969555Y-188552703D01*
X71876520Y-188354241D01*
X71776298Y-188159309D01*
X71669024Y-187968167D01*
X71554841Y-187781070D01*
X71433900Y-187598269D01*
X71306365Y-187420006D01*
X71172403Y-187246521D01*
X71032195Y-187078043D01*
X70885928Y-186914799D01*
X70733796Y-186757005D01*
X70576002Y-186604873D01*
X70412758Y-186458606D01*
X70244280Y-186318398D01*
X70070795Y-186184436D01*
X69892532Y-186056901D01*
X69709731Y-185935960D01*
X69522634Y-185821777D01*
X69331492Y-185714503D01*
X69136560Y-185614281D01*
X68938098Y-185521246D01*
X68736370Y-185435521D01*
X68531645Y-185357221D01*
X68324198Y-185286449D01*
X68114305Y-185223302D01*
X67902245Y-185167862D01*
X67688302Y-185120204D01*
X67472761Y-185080392D01*
X67255910Y-185048478D01*
X67038037Y-185024505D01*
X66819435Y-185008506D01*
X66600394Y-185000500D01*
X66381208Y-185000500D01*
X66162167Y-185008506D01*
X65943565Y-185024505D01*
X65725692Y-185048478D01*
X65508841Y-185080392D01*
X65293300Y-185120204D01*
X65079357Y-185167862D01*
X64867297Y-185223302D01*
X64657404Y-185286449D01*
X64449957Y-185357221D01*
X64245232Y-185435521D01*
X64043504Y-185521246D01*
X63845042Y-185614281D01*
X63650110Y-185714503D01*
X63458968Y-185821777D01*
X63271871Y-185935960D01*
X63089070Y-186056901D01*
X62910807Y-186184436D01*
X62737322Y-186318398D01*
X62568844Y-186458606D01*
X62405600Y-186604873D01*
X62247806Y-186757005D01*
X62095674Y-186914799D01*
X61949407Y-187078043D01*
X61809199Y-187246521D01*
X61675237Y-187420006D01*
X61547702Y-187598269D01*
X61426761Y-187781070D01*
X61312578Y-187968167D01*
X61205304Y-188159309D01*
X61105082Y-188354241D01*
X61012047Y-188552703D01*
X60926322Y-188754431D01*
X60848022Y-188959156D01*
X60777250Y-189166603D01*
X60714103Y-189376496D01*
X60658663Y-189588556D01*
X60611005Y-189802499D01*
X60571193Y-190018040D01*
X60539279Y-190234891D01*
X60515306Y-190452764D01*
X60499307Y-190671366D01*
X60491301Y-190890407D01*
X60490801Y-191000000D01*
X56290801Y-191000000D01*
X56290801Y-191400000D01*
X55690801Y-191400000D01*
X50690801Y-191400000D01*
X50690801Y-191150000D01*
X55690801Y-191150000D01*
X55690801Y-191000000D01*
X52490801Y-191000000D01*
X52490301Y-190890407D01*
X52482295Y-190671366D01*
X52466296Y-190452764D01*
X52442323Y-190234891D01*
X52410409Y-190018040D01*
X52370597Y-189802499D01*
X52322939Y-189588556D01*
X52267499Y-189376496D01*
X52204352Y-189166603D01*
X52133580Y-188959156D01*
X52055280Y-188754431D01*
X51969555Y-188552703D01*
X51876520Y-188354241D01*
X51776298Y-188159309D01*
X51669024Y-187968167D01*
X51554841Y-187781070D01*
X51433900Y-187598269D01*
X51306365Y-187420006D01*
X51172403Y-187246521D01*
X51032195Y-187078043D01*
X50885928Y-186914799D01*
X50733796Y-186757005D01*
X50576002Y-186604873D01*
X50412758Y-186458606D01*
X50244280Y-186318398D01*
X50070795Y-186184436D01*
X49892532Y-186056901D01*
X49709731Y-185935960D01*
X49522634Y-185821777D01*
X49331492Y-185714503D01*
X49136560Y-185614281D01*
X48938098Y-185521246D01*
X48736370Y-185435521D01*
X48531645Y-185357221D01*
X48324198Y-185286449D01*
X48114305Y-185223302D01*
X47902245Y-185167862D01*
X47688302Y-185120204D01*
X47472761Y-185080392D01*
X47255910Y-185048478D01*
X47038037Y-185024505D01*
X46819435Y-185008506D01*
X46600394Y-185000500D01*
X46381208Y-185000500D01*
X46162167Y-185008506D01*
X45943565Y-185024505D01*
X45725692Y-185048478D01*
X45508841Y-185080392D01*
X45293300Y-185120204D01*
X45079357Y-185167862D01*
X44867297Y-185223302D01*
X44657404Y-185286449D01*
X44449957Y-185357221D01*
X44245232Y-185435521D01*
X44043504Y-185521246D01*
X43845042Y-185614281D01*
X43650110Y-185714503D01*
X43458968Y-185821777D01*
X43271871Y-185935960D01*
X43089070Y-186056901D01*
X42910807Y-186184436D01*
X42737322Y-186318398D01*
X42568844Y-186458606D01*
X42405600Y-186604873D01*
X42247806Y-186757005D01*
X42095674Y-186914799D01*
X41949407Y-187078043D01*
X41809199Y-187246521D01*
X41675237Y-187420006D01*
X41547702Y-187598269D01*
X41426761Y-187781070D01*
X41312578Y-187968167D01*
X41205304Y-188159309D01*
X41105082Y-188354241D01*
X41012047Y-188552703D01*
X40926322Y-188754431D01*
X40848022Y-188959156D01*
X40777250Y-189166603D01*
X40714103Y-189376496D01*
X40658663Y-189588556D01*
X40611005Y-189802499D01*
X40571193Y-190018040D01*
X40539279Y-190234891D01*
X40515306Y-190452764D01*
X40499307Y-190671366D01*
X40491301Y-190890407D01*
X40490801Y-191000000D01*
X36490801Y-191000000D01*
X36490801Y-161000000D01*
X76490801Y-161000000D01*
X76490801Y-191000000D01*
G37*
%TD.AperFunction*%
%TA.AperFunction,Conductor*%
G36*
X76490801Y-253000000D02*
G01*
X72490801Y-253000000D01*
X72490301Y-252890407D01*
X72482295Y-252671366D01*
X72466296Y-252452764D01*
X72442323Y-252234891D01*
X72410409Y-252018040D01*
X72370597Y-251802499D01*
X72322939Y-251588556D01*
X72267499Y-251376496D01*
X72204352Y-251166603D01*
X72133580Y-250959156D01*
X72055280Y-250754431D01*
X71969555Y-250552703D01*
X71876520Y-250354241D01*
X71776298Y-250159309D01*
X71669024Y-249968167D01*
X71554841Y-249781070D01*
X71433900Y-249598269D01*
X71306365Y-249420006D01*
X71172403Y-249246521D01*
X71032195Y-249078043D01*
X70885928Y-248914799D01*
X70733796Y-248757005D01*
X70576002Y-248604873D01*
X70412758Y-248458606D01*
X70244280Y-248318398D01*
X70070795Y-248184436D01*
X69892532Y-248056901D01*
X69709731Y-247935960D01*
X69522634Y-247821777D01*
X69331492Y-247714503D01*
X69136560Y-247614281D01*
X68938098Y-247521246D01*
X68736370Y-247435521D01*
X68531645Y-247357221D01*
X68324198Y-247286449D01*
X68114305Y-247223302D01*
X67902245Y-247167862D01*
X67688302Y-247120204D01*
X67472761Y-247080392D01*
X67255910Y-247048478D01*
X67038037Y-247024505D01*
X66819435Y-247008506D01*
X66600394Y-247000500D01*
X66381208Y-247000500D01*
X66162167Y-247008506D01*
X65943565Y-247024505D01*
X65725692Y-247048478D01*
X65508841Y-247080392D01*
X65293300Y-247120204D01*
X65079357Y-247167862D01*
X64867297Y-247223302D01*
X64657404Y-247286449D01*
X64449957Y-247357221D01*
X64245232Y-247435521D01*
X64043504Y-247521246D01*
X63845042Y-247614281D01*
X63650110Y-247714503D01*
X63458968Y-247821777D01*
X63271871Y-247935960D01*
X63089070Y-248056901D01*
X62910807Y-248184436D01*
X62737322Y-248318398D01*
X62568844Y-248458606D01*
X62405600Y-248604873D01*
X62247806Y-248757005D01*
X62095674Y-248914799D01*
X61949407Y-249078043D01*
X61809199Y-249246521D01*
X61675237Y-249420006D01*
X61547702Y-249598269D01*
X61426761Y-249781070D01*
X61312578Y-249968167D01*
X61205304Y-250159309D01*
X61105082Y-250354241D01*
X61012047Y-250552703D01*
X60926322Y-250754431D01*
X60848022Y-250959156D01*
X60777250Y-251166603D01*
X60714103Y-251376496D01*
X60658663Y-251588556D01*
X60611005Y-251802499D01*
X60571193Y-252018040D01*
X60539279Y-252234891D01*
X60515306Y-252452764D01*
X60499307Y-252671366D01*
X60491301Y-252890407D01*
X60490801Y-253000000D01*
X56290801Y-253000000D01*
X56290801Y-253400000D01*
X55690801Y-253400000D01*
X50690801Y-253400000D01*
X50690801Y-253150000D01*
X55690801Y-253150000D01*
X55690801Y-253000000D01*
X52490801Y-253000000D01*
X52490301Y-252890407D01*
X52482295Y-252671366D01*
X52466296Y-252452764D01*
X52442323Y-252234891D01*
X52410409Y-252018040D01*
X52370597Y-251802499D01*
X52322939Y-251588556D01*
X52267499Y-251376496D01*
X52204352Y-251166603D01*
X52133580Y-250959156D01*
X52055280Y-250754431D01*
X51969555Y-250552703D01*
X51876520Y-250354241D01*
X51776298Y-250159309D01*
X51669024Y-249968167D01*
X51554841Y-249781070D01*
X51433900Y-249598269D01*
X51306365Y-249420006D01*
X51172403Y-249246521D01*
X51032195Y-249078043D01*
X50885928Y-248914799D01*
X50733796Y-248757005D01*
X50576002Y-248604873D01*
X50412758Y-248458606D01*
X50244280Y-248318398D01*
X50070795Y-248184436D01*
X49892532Y-248056901D01*
X49709731Y-247935960D01*
X49522634Y-247821777D01*
X49331492Y-247714503D01*
X49136560Y-247614281D01*
X48938098Y-247521246D01*
X48736370Y-247435521D01*
X48531645Y-247357221D01*
X48324198Y-247286449D01*
X48114305Y-247223302D01*
X47902245Y-247167862D01*
X47688302Y-247120204D01*
X47472761Y-247080392D01*
X47255910Y-247048478D01*
X47038037Y-247024505D01*
X46819435Y-247008506D01*
X46600394Y-247000500D01*
X46381208Y-247000500D01*
X46162167Y-247008506D01*
X45943565Y-247024505D01*
X45725692Y-247048478D01*
X45508841Y-247080392D01*
X45293300Y-247120204D01*
X45079357Y-247167862D01*
X44867297Y-247223302D01*
X44657404Y-247286449D01*
X44449957Y-247357221D01*
X44245232Y-247435521D01*
X44043504Y-247521246D01*
X43845042Y-247614281D01*
X43650110Y-247714503D01*
X43458968Y-247821777D01*
X43271871Y-247935960D01*
X43089070Y-248056901D01*
X42910807Y-248184436D01*
X42737322Y-248318398D01*
X42568844Y-248458606D01*
X42405600Y-248604873D01*
X42247806Y-248757005D01*
X42095674Y-248914799D01*
X41949407Y-249078043D01*
X41809199Y-249246521D01*
X41675237Y-249420006D01*
X41547702Y-249598269D01*
X41426761Y-249781070D01*
X41312578Y-249968167D01*
X41205304Y-250159309D01*
X41105082Y-250354241D01*
X41012047Y-250552703D01*
X40926322Y-250754431D01*
X40848022Y-250959156D01*
X40777250Y-251166603D01*
X40714103Y-251376496D01*
X40658663Y-251588556D01*
X40611005Y-251802499D01*
X40571193Y-252018040D01*
X40539279Y-252234891D01*
X40515306Y-252452764D01*
X40499307Y-252671366D01*
X40491301Y-252890407D01*
X40490801Y-253000000D01*
X36490801Y-253000000D01*
X36490801Y-223000000D01*
X76490801Y-223000000D01*
X76490801Y-253000000D01*
G37*
%TD.AperFunction*%
%TA.AperFunction,Conductor*%
G36*
X138490801Y-67000000D02*
G01*
X134490801Y-67000000D01*
X134490301Y-66890407D01*
X134482295Y-66671366D01*
X134466296Y-66452764D01*
X134442323Y-66234891D01*
X134410409Y-66018040D01*
X134370597Y-65802499D01*
X134322939Y-65588556D01*
X134267499Y-65376496D01*
X134204352Y-65166603D01*
X134133580Y-64959156D01*
X134055280Y-64754431D01*
X133969555Y-64552703D01*
X133876520Y-64354241D01*
X133776298Y-64159309D01*
X133669024Y-63968167D01*
X133554841Y-63781070D01*
X133433900Y-63598269D01*
X133306365Y-63420006D01*
X133172403Y-63246521D01*
X133032195Y-63078043D01*
X132885928Y-62914799D01*
X132733796Y-62757005D01*
X132576002Y-62604873D01*
X132412758Y-62458606D01*
X132244280Y-62318398D01*
X132070795Y-62184436D01*
X131892532Y-62056901D01*
X131709731Y-61935960D01*
X131522634Y-61821777D01*
X131331492Y-61714503D01*
X131136560Y-61614281D01*
X130938098Y-61521246D01*
X130736370Y-61435521D01*
X130531645Y-61357221D01*
X130324198Y-61286449D01*
X130114305Y-61223302D01*
X129902245Y-61167862D01*
X129688302Y-61120204D01*
X129472761Y-61080392D01*
X129255910Y-61048478D01*
X129038037Y-61024505D01*
X128819435Y-61008506D01*
X128600394Y-61000500D01*
X128381208Y-61000500D01*
X128162167Y-61008506D01*
X127943565Y-61024505D01*
X127725692Y-61048478D01*
X127508841Y-61080392D01*
X127293300Y-61120204D01*
X127079357Y-61167862D01*
X126867297Y-61223302D01*
X126657404Y-61286449D01*
X126449957Y-61357221D01*
X126245232Y-61435521D01*
X126043504Y-61521246D01*
X125845042Y-61614281D01*
X125650110Y-61714503D01*
X125458968Y-61821777D01*
X125271871Y-61935960D01*
X125089070Y-62056901D01*
X124910807Y-62184436D01*
X124737322Y-62318398D01*
X124568844Y-62458606D01*
X124405600Y-62604873D01*
X124247806Y-62757005D01*
X124095674Y-62914799D01*
X123949407Y-63078043D01*
X123809199Y-63246521D01*
X123675237Y-63420006D01*
X123547702Y-63598269D01*
X123426761Y-63781070D01*
X123312578Y-63968167D01*
X123205304Y-64159309D01*
X123105082Y-64354241D01*
X123012047Y-64552703D01*
X122926322Y-64754431D01*
X122848022Y-64959156D01*
X122777250Y-65166603D01*
X122714103Y-65376496D01*
X122658663Y-65588556D01*
X122611005Y-65802499D01*
X122571193Y-66018040D01*
X122539279Y-66234891D01*
X122515306Y-66452764D01*
X122499307Y-66671366D01*
X122491301Y-66890407D01*
X122490801Y-67000000D01*
X118290801Y-67000000D01*
X118290801Y-67400000D01*
X117690801Y-67400000D01*
X112690801Y-67400000D01*
X112690801Y-67150000D01*
X117690801Y-67150000D01*
X117690801Y-67000000D01*
X114490801Y-67000000D01*
X114490301Y-66890407D01*
X114482295Y-66671366D01*
X114466296Y-66452764D01*
X114442323Y-66234891D01*
X114410409Y-66018040D01*
X114370597Y-65802499D01*
X114322939Y-65588556D01*
X114267499Y-65376496D01*
X114204352Y-65166603D01*
X114133580Y-64959156D01*
X114055280Y-64754431D01*
X113969555Y-64552703D01*
X113876520Y-64354241D01*
X113776298Y-64159309D01*
X113669024Y-63968167D01*
X113554841Y-63781070D01*
X113433900Y-63598269D01*
X113306365Y-63420006D01*
X113172403Y-63246521D01*
X113032195Y-63078043D01*
X112885928Y-62914799D01*
X112733796Y-62757005D01*
X112576002Y-62604873D01*
X112412758Y-62458606D01*
X112244280Y-62318398D01*
X112070795Y-62184436D01*
X111892532Y-62056901D01*
X111709731Y-61935960D01*
X111522634Y-61821777D01*
X111331492Y-61714503D01*
X111136560Y-61614281D01*
X110938098Y-61521246D01*
X110736370Y-61435521D01*
X110531645Y-61357221D01*
X110324198Y-61286449D01*
X110114305Y-61223302D01*
X109902245Y-61167862D01*
X109688302Y-61120204D01*
X109472761Y-61080392D01*
X109255910Y-61048478D01*
X109038037Y-61024505D01*
X108819435Y-61008506D01*
X108600394Y-61000500D01*
X108381208Y-61000500D01*
X108162167Y-61008506D01*
X107943565Y-61024505D01*
X107725692Y-61048478D01*
X107508841Y-61080392D01*
X107293300Y-61120204D01*
X107079357Y-61167862D01*
X106867297Y-61223302D01*
X106657404Y-61286449D01*
X106449957Y-61357221D01*
X106245232Y-61435521D01*
X106043504Y-61521246D01*
X105845042Y-61614281D01*
X105650110Y-61714503D01*
X105458968Y-61821777D01*
X105271871Y-61935960D01*
X105089070Y-62056901D01*
X104910807Y-62184436D01*
X104737322Y-62318398D01*
X104568844Y-62458606D01*
X104405600Y-62604873D01*
X104247806Y-62757005D01*
X104095674Y-62914799D01*
X103949407Y-63078043D01*
X103809199Y-63246521D01*
X103675237Y-63420006D01*
X103547702Y-63598269D01*
X103426761Y-63781070D01*
X103312578Y-63968167D01*
X103205304Y-64159309D01*
X103105082Y-64354241D01*
X103012047Y-64552703D01*
X102926322Y-64754431D01*
X102848022Y-64959156D01*
X102777250Y-65166603D01*
X102714103Y-65376496D01*
X102658663Y-65588556D01*
X102611005Y-65802499D01*
X102571193Y-66018040D01*
X102539279Y-66234891D01*
X102515306Y-66452764D01*
X102499307Y-66671366D01*
X102491301Y-66890407D01*
X102490801Y-67000000D01*
X98490801Y-67000000D01*
X98490801Y-37000000D01*
X138490801Y-37000000D01*
X138490801Y-67000000D01*
G37*
%TD.AperFunction*%
%TA.AperFunction,Conductor*%
G36*
X138490801Y-129000000D02*
G01*
X134490801Y-129000000D01*
X134490301Y-128890407D01*
X134482295Y-128671366D01*
X134466296Y-128452764D01*
X134442323Y-128234891D01*
X134410409Y-128018040D01*
X134370597Y-127802499D01*
X134322939Y-127588556D01*
X134267499Y-127376496D01*
X134204352Y-127166603D01*
X134133580Y-126959156D01*
X134055280Y-126754431D01*
X133969555Y-126552703D01*
X133876520Y-126354241D01*
X133776298Y-126159309D01*
X133669024Y-125968167D01*
X133554841Y-125781070D01*
X133433900Y-125598269D01*
X133306365Y-125420006D01*
X133172403Y-125246521D01*
X133032195Y-125078043D01*
X132885928Y-124914799D01*
X132733796Y-124757005D01*
X132576002Y-124604873D01*
X132412758Y-124458606D01*
X132244280Y-124318398D01*
X132070795Y-124184436D01*
X131892532Y-124056901D01*
X131709731Y-123935960D01*
X131522634Y-123821777D01*
X131331492Y-123714503D01*
X131136560Y-123614281D01*
X130938098Y-123521246D01*
X130736370Y-123435521D01*
X130531645Y-123357221D01*
X130324198Y-123286449D01*
X130114305Y-123223302D01*
X129902245Y-123167862D01*
X129688302Y-123120204D01*
X129472761Y-123080392D01*
X129255910Y-123048478D01*
X129038037Y-123024505D01*
X128819435Y-123008506D01*
X128600394Y-123000500D01*
X128381208Y-123000500D01*
X128162167Y-123008506D01*
X127943565Y-123024505D01*
X127725692Y-123048478D01*
X127508841Y-123080392D01*
X127293300Y-123120204D01*
X127079357Y-123167862D01*
X126867297Y-123223302D01*
X126657404Y-123286449D01*
X126449957Y-123357221D01*
X126245232Y-123435521D01*
X126043504Y-123521246D01*
X125845042Y-123614281D01*
X125650110Y-123714503D01*
X125458968Y-123821777D01*
X125271871Y-123935960D01*
X125089070Y-124056901D01*
X124910807Y-124184436D01*
X124737322Y-124318398D01*
X124568844Y-124458606D01*
X124405600Y-124604873D01*
X124247806Y-124757005D01*
X124095674Y-124914799D01*
X123949407Y-125078043D01*
X123809199Y-125246521D01*
X123675237Y-125420006D01*
X123547702Y-125598269D01*
X123426761Y-125781070D01*
X123312578Y-125968167D01*
X123205304Y-126159309D01*
X123105082Y-126354241D01*
X123012047Y-126552703D01*
X122926322Y-126754431D01*
X122848022Y-126959156D01*
X122777250Y-127166603D01*
X122714103Y-127376496D01*
X122658663Y-127588556D01*
X122611005Y-127802499D01*
X122571193Y-128018040D01*
X122539279Y-128234891D01*
X122515306Y-128452764D01*
X122499307Y-128671366D01*
X122491301Y-128890407D01*
X122490801Y-129000000D01*
X118290801Y-129000000D01*
X118290801Y-129400000D01*
X117690801Y-129400000D01*
X112690801Y-129400000D01*
X112690801Y-129150000D01*
X117690801Y-129150000D01*
X117690801Y-129000000D01*
X114490801Y-129000000D01*
X114490301Y-128890407D01*
X114482295Y-128671366D01*
X114466296Y-128452764D01*
X114442323Y-128234891D01*
X114410409Y-128018040D01*
X114370597Y-127802499D01*
X114322939Y-127588556D01*
X114267499Y-127376496D01*
X114204352Y-127166603D01*
X114133580Y-126959156D01*
X114055280Y-126754431D01*
X113969555Y-126552703D01*
X113876520Y-126354241D01*
X113776298Y-126159309D01*
X113669024Y-125968167D01*
X113554841Y-125781070D01*
X113433900Y-125598269D01*
X113306365Y-125420006D01*
X113172403Y-125246521D01*
X113032195Y-125078043D01*
X112885928Y-124914799D01*
X112733796Y-124757005D01*
X112576002Y-124604873D01*
X112412758Y-124458606D01*
X112244280Y-124318398D01*
X112070795Y-124184436D01*
X111892532Y-124056901D01*
X111709731Y-123935960D01*
X111522634Y-123821777D01*
X111331492Y-123714503D01*
X111136560Y-123614281D01*
X110938098Y-123521246D01*
X110736370Y-123435521D01*
X110531645Y-123357221D01*
X110324198Y-123286449D01*
X110114305Y-123223302D01*
X109902245Y-123167862D01*
X109688302Y-123120204D01*
X109472761Y-123080392D01*
X109255910Y-123048478D01*
X109038037Y-123024505D01*
X108819435Y-123008506D01*
X108600394Y-123000500D01*
X108381208Y-123000500D01*
X108162167Y-123008506D01*
X107943565Y-123024505D01*
X107725692Y-123048478D01*
X107508841Y-123080392D01*
X107293300Y-123120204D01*
X107079357Y-123167862D01*
X106867297Y-123223302D01*
X106657404Y-123286449D01*
X106449957Y-123357221D01*
X106245232Y-123435521D01*
X106043504Y-123521246D01*
X105845042Y-123614281D01*
X105650110Y-123714503D01*
X105458968Y-123821777D01*
X105271871Y-123935960D01*
X105089070Y-124056901D01*
X104910807Y-124184436D01*
X104737322Y-124318398D01*
X104568844Y-124458606D01*
X104405600Y-124604873D01*
X104247806Y-124757005D01*
X104095674Y-124914799D01*
X103949407Y-125078043D01*
X103809199Y-125246521D01*
X103675237Y-125420006D01*
X103547702Y-125598269D01*
X103426761Y-125781070D01*
X103312578Y-125968167D01*
X103205304Y-126159309D01*
X103105082Y-126354241D01*
X103012047Y-126552703D01*
X102926322Y-126754431D01*
X102848022Y-126959156D01*
X102777250Y-127166603D01*
X102714103Y-127376496D01*
X102658663Y-127588556D01*
X102611005Y-127802499D01*
X102571193Y-128018040D01*
X102539279Y-128234891D01*
X102515306Y-128452764D01*
X102499307Y-128671366D01*
X102491301Y-128890407D01*
X102490801Y-129000000D01*
X98490801Y-129000000D01*
X98490801Y-99000000D01*
X138490801Y-99000000D01*
X138490801Y-129000000D01*
G37*
%TD.AperFunction*%
%TA.AperFunction,Conductor*%
G36*
X138490801Y-191000000D02*
G01*
X134490801Y-191000000D01*
X134490301Y-190890407D01*
X134482295Y-190671366D01*
X134466296Y-190452764D01*
X134442323Y-190234891D01*
X134410409Y-190018040D01*
X134370597Y-189802499D01*
X134322939Y-189588556D01*
X134267499Y-189376496D01*
X134204352Y-189166603D01*
X134133580Y-188959156D01*
X134055280Y-188754431D01*
X133969555Y-188552703D01*
X133876520Y-188354241D01*
X133776298Y-188159309D01*
X133669024Y-187968167D01*
X133554841Y-187781070D01*
X133433900Y-187598269D01*
X133306365Y-187420006D01*
X133172403Y-187246521D01*
X133032195Y-187078043D01*
X132885928Y-186914799D01*
X132733796Y-186757005D01*
X132576002Y-186604873D01*
X132412758Y-186458606D01*
X132244280Y-186318398D01*
X132070795Y-186184436D01*
X131892532Y-186056901D01*
X131709731Y-185935960D01*
X131522634Y-185821777D01*
X131331492Y-185714503D01*
X131136560Y-185614281D01*
X130938098Y-185521246D01*
X130736370Y-185435521D01*
X130531645Y-185357221D01*
X130324198Y-185286449D01*
X130114305Y-185223302D01*
X129902245Y-185167862D01*
X129688302Y-185120204D01*
X129472761Y-185080392D01*
X129255910Y-185048478D01*
X129038037Y-185024505D01*
X128819435Y-185008506D01*
X128600394Y-185000500D01*
X128381208Y-185000500D01*
X128162167Y-185008506D01*
X127943565Y-185024505D01*
X127725692Y-185048478D01*
X127508841Y-185080392D01*
X127293300Y-185120204D01*
X127079357Y-185167862D01*
X126867297Y-185223302D01*
X126657404Y-185286449D01*
X126449957Y-185357221D01*
X126245232Y-185435521D01*
X126043504Y-185521246D01*
X125845042Y-185614281D01*
X125650110Y-185714503D01*
X125458968Y-185821777D01*
X125271871Y-185935960D01*
X125089070Y-186056901D01*
X124910807Y-186184436D01*
X124737322Y-186318398D01*
X124568844Y-186458606D01*
X124405600Y-186604873D01*
X124247806Y-186757005D01*
X124095674Y-186914799D01*
X123949407Y-187078043D01*
X123809199Y-187246521D01*
X123675237Y-187420006D01*
X123547702Y-187598269D01*
X123426761Y-187781070D01*
X123312578Y-187968167D01*
X123205304Y-188159309D01*
X123105082Y-188354241D01*
X123012047Y-188552703D01*
X122926322Y-188754431D01*
X122848022Y-188959156D01*
X122777250Y-189166603D01*
X122714103Y-189376496D01*
X122658663Y-189588556D01*
X122611005Y-189802499D01*
X122571193Y-190018040D01*
X122539279Y-190234891D01*
X122515306Y-190452764D01*
X122499307Y-190671366D01*
X122491301Y-190890407D01*
X122490801Y-191000000D01*
X118290801Y-191000000D01*
X118290801Y-191400000D01*
X117690801Y-191400000D01*
X112690801Y-191400000D01*
X112690801Y-191150000D01*
X117690801Y-191150000D01*
X117690801Y-191000000D01*
X114490801Y-191000000D01*
X114490301Y-190890407D01*
X114482295Y-190671366D01*
X114466296Y-190452764D01*
X114442323Y-190234891D01*
X114410409Y-190018040D01*
X114370597Y-189802499D01*
X114322939Y-189588556D01*
X114267499Y-189376496D01*
X114204352Y-189166603D01*
X114133580Y-188959156D01*
X114055280Y-188754431D01*
X113969555Y-188552703D01*
X113876520Y-188354241D01*
X113776298Y-188159309D01*
X113669024Y-187968167D01*
X113554841Y-187781070D01*
X113433900Y-187598269D01*
X113306365Y-187420006D01*
X113172403Y-187246521D01*
X113032195Y-187078043D01*
X112885928Y-186914799D01*
X112733796Y-186757005D01*
X112576002Y-186604873D01*
X112412758Y-186458606D01*
X112244280Y-186318398D01*
X112070795Y-186184436D01*
X111892532Y-186056901D01*
X111709731Y-185935960D01*
X111522634Y-185821777D01*
X111331492Y-185714503D01*
X111136560Y-185614281D01*
X110938098Y-185521246D01*
X110736370Y-185435521D01*
X110531645Y-185357221D01*
X110324198Y-185286449D01*
X110114305Y-185223302D01*
X109902245Y-185167862D01*
X109688302Y-185120204D01*
X109472761Y-185080392D01*
X109255910Y-185048478D01*
X109038037Y-185024505D01*
X108819435Y-185008506D01*
X108600394Y-185000500D01*
X108381208Y-185000500D01*
X108162167Y-185008506D01*
X107943565Y-185024505D01*
X107725692Y-185048478D01*
X107508841Y-185080392D01*
X107293300Y-185120204D01*
X107079357Y-185167862D01*
X106867297Y-185223302D01*
X106657404Y-185286449D01*
X106449957Y-185357221D01*
X106245232Y-185435521D01*
X106043504Y-185521246D01*
X105845042Y-185614281D01*
X105650110Y-185714503D01*
X105458968Y-185821777D01*
X105271871Y-185935960D01*
X105089070Y-186056901D01*
X104910807Y-186184436D01*
X104737322Y-186318398D01*
X104568844Y-186458606D01*
X104405600Y-186604873D01*
X104247806Y-186757005D01*
X104095674Y-186914799D01*
X103949407Y-187078043D01*
X103809199Y-187246521D01*
X103675237Y-187420006D01*
X103547702Y-187598269D01*
X103426761Y-187781070D01*
X103312578Y-187968167D01*
X103205304Y-188159309D01*
X103105082Y-188354241D01*
X103012047Y-188552703D01*
X102926322Y-188754431D01*
X102848022Y-188959156D01*
X102777250Y-189166603D01*
X102714103Y-189376496D01*
X102658663Y-189588556D01*
X102611005Y-189802499D01*
X102571193Y-190018040D01*
X102539279Y-190234891D01*
X102515306Y-190452764D01*
X102499307Y-190671366D01*
X102491301Y-190890407D01*
X102490801Y-191000000D01*
X98490801Y-191000000D01*
X98490801Y-161000000D01*
X138490801Y-161000000D01*
X138490801Y-191000000D01*
G37*
%TD.AperFunction*%
%TA.AperFunction,Conductor*%
G36*
X138490801Y-253000000D02*
G01*
X134490801Y-253000000D01*
X134490301Y-252890407D01*
X134482295Y-252671366D01*
X134466296Y-252452764D01*
X134442323Y-252234891D01*
X134410409Y-252018040D01*
X134370597Y-251802499D01*
X134322939Y-251588556D01*
X134267499Y-251376496D01*
X134204352Y-251166603D01*
X134133580Y-250959156D01*
X134055280Y-250754431D01*
X133969555Y-250552703D01*
X133876520Y-250354241D01*
X133776298Y-250159309D01*
X133669024Y-249968167D01*
X133554841Y-249781070D01*
X133433900Y-249598269D01*
X133306365Y-249420006D01*
X133172403Y-249246521D01*
X133032195Y-249078043D01*
X132885928Y-248914799D01*
X132733796Y-248757005D01*
X132576002Y-248604873D01*
X132412758Y-248458606D01*
X132244280Y-248318398D01*
X132070795Y-248184436D01*
X131892532Y-248056901D01*
X131709731Y-247935960D01*
X131522634Y-247821777D01*
X131331492Y-247714503D01*
X131136560Y-247614281D01*
X130938098Y-247521246D01*
X130736370Y-247435521D01*
X130531645Y-247357221D01*
X130324198Y-247286449D01*
X130114305Y-247223302D01*
X129902245Y-247167862D01*
X129688302Y-247120204D01*
X129472761Y-247080392D01*
X129255910Y-247048478D01*
X129038037Y-247024505D01*
X128819435Y-247008506D01*
X128600394Y-247000500D01*
X128381208Y-247000500D01*
X128162167Y-247008506D01*
X127943565Y-247024505D01*
X127725692Y-247048478D01*
X127508841Y-247080392D01*
X127293300Y-247120204D01*
X127079357Y-247167862D01*
X126867297Y-247223302D01*
X126657404Y-247286449D01*
X126449957Y-247357221D01*
X126245232Y-247435521D01*
X126043504Y-247521246D01*
X125845042Y-247614281D01*
X125650110Y-247714503D01*
X125458968Y-247821777D01*
X125271871Y-247935960D01*
X125089070Y-248056901D01*
X124910807Y-248184436D01*
X124737322Y-248318398D01*
X124568844Y-248458606D01*
X124405600Y-248604873D01*
X124247806Y-248757005D01*
X124095674Y-248914799D01*
X123949407Y-249078043D01*
X123809199Y-249246521D01*
X123675237Y-249420006D01*
X123547702Y-249598269D01*
X123426761Y-249781070D01*
X123312578Y-249968167D01*
X123205304Y-250159309D01*
X123105082Y-250354241D01*
X123012047Y-250552703D01*
X122926322Y-250754431D01*
X122848022Y-250959156D01*
X122777250Y-251166603D01*
X122714103Y-251376496D01*
X122658663Y-251588556D01*
X122611005Y-251802499D01*
X122571193Y-252018040D01*
X122539279Y-252234891D01*
X122515306Y-252452764D01*
X122499307Y-252671366D01*
X122491301Y-252890407D01*
X122490801Y-253000000D01*
X118290801Y-253000000D01*
X118290801Y-253400000D01*
X117690801Y-253400000D01*
X112690801Y-253400000D01*
X112690801Y-253150000D01*
X117690801Y-253150000D01*
X117690801Y-253000000D01*
X114490801Y-253000000D01*
X114490301Y-252890407D01*
X114482295Y-252671366D01*
X114466296Y-252452764D01*
X114442323Y-252234891D01*
X114410409Y-252018040D01*
X114370597Y-251802499D01*
X114322939Y-251588556D01*
X114267499Y-251376496D01*
X114204352Y-251166603D01*
X114133580Y-250959156D01*
X114055280Y-250754431D01*
X113969555Y-250552703D01*
X113876520Y-250354241D01*
X113776298Y-250159309D01*
X113669024Y-249968167D01*
X113554841Y-249781070D01*
X113433900Y-249598269D01*
X113306365Y-249420006D01*
X113172403Y-249246521D01*
X113032195Y-249078043D01*
X112885928Y-248914799D01*
X112733796Y-248757005D01*
X112576002Y-248604873D01*
X112412758Y-248458606D01*
X112244280Y-248318398D01*
X112070795Y-248184436D01*
X111892532Y-248056901D01*
X111709731Y-247935960D01*
X111522634Y-247821777D01*
X111331492Y-247714503D01*
X111136560Y-247614281D01*
X110938098Y-247521246D01*
X110736370Y-247435521D01*
X110531645Y-247357221D01*
X110324198Y-247286449D01*
X110114305Y-247223302D01*
X109902245Y-247167862D01*
X109688302Y-247120204D01*
X109472761Y-247080392D01*
X109255910Y-247048478D01*
X109038037Y-247024505D01*
X108819435Y-247008506D01*
X108600394Y-247000500D01*
X108381208Y-247000500D01*
X108162167Y-247008506D01*
X107943565Y-247024505D01*
X107725692Y-247048478D01*
X107508841Y-247080392D01*
X107293300Y-247120204D01*
X107079357Y-247167862D01*
X106867297Y-247223302D01*
X106657404Y-247286449D01*
X106449957Y-247357221D01*
X106245232Y-247435521D01*
X106043504Y-247521246D01*
X105845042Y-247614281D01*
X105650110Y-247714503D01*
X105458968Y-247821777D01*
X105271871Y-247935960D01*
X105089070Y-248056901D01*
X104910807Y-248184436D01*
X104737322Y-248318398D01*
X104568844Y-248458606D01*
X104405600Y-248604873D01*
X104247806Y-248757005D01*
X104095674Y-248914799D01*
X103949407Y-249078043D01*
X103809199Y-249246521D01*
X103675237Y-249420006D01*
X103547702Y-249598269D01*
X103426761Y-249781070D01*
X103312578Y-249968167D01*
X103205304Y-250159309D01*
X103105082Y-250354241D01*
X103012047Y-250552703D01*
X102926322Y-250754431D01*
X102848022Y-250959156D01*
X102777250Y-251166603D01*
X102714103Y-251376496D01*
X102658663Y-251588556D01*
X102611005Y-251802499D01*
X102571193Y-252018040D01*
X102539279Y-252234891D01*
X102515306Y-252452764D01*
X102499307Y-252671366D01*
X102491301Y-252890407D01*
X102490801Y-253000000D01*
X98490801Y-253000000D01*
X98490801Y-223000000D01*
X138490801Y-223000000D01*
X138490801Y-253000000D01*
G37*
%TD.AperFunction*%
%TA.AperFunction,Conductor*%
G36*
X200490801Y-67000000D02*
G01*
X196490801Y-67000000D01*
X196490301Y-66890407D01*
X196482295Y-66671366D01*
X196466296Y-66452764D01*
X196442323Y-66234891D01*
X196410409Y-66018040D01*
X196370597Y-65802499D01*
X196322939Y-65588556D01*
X196267499Y-65376496D01*
X196204352Y-65166603D01*
X196133580Y-64959156D01*
X196055280Y-64754431D01*
X195969555Y-64552703D01*
X195876520Y-64354241D01*
X195776298Y-64159309D01*
X195669024Y-63968167D01*
X195554841Y-63781070D01*
X195433900Y-63598269D01*
X195306365Y-63420006D01*
X195172403Y-63246521D01*
X195032195Y-63078043D01*
X194885928Y-62914799D01*
X194733796Y-62757005D01*
X194576002Y-62604873D01*
X194412758Y-62458606D01*
X194244280Y-62318398D01*
X194070795Y-62184436D01*
X193892532Y-62056901D01*
X193709731Y-61935960D01*
X193522634Y-61821777D01*
X193331492Y-61714503D01*
X193136560Y-61614281D01*
X192938098Y-61521246D01*
X192736370Y-61435521D01*
X192531645Y-61357221D01*
X192324198Y-61286449D01*
X192114305Y-61223302D01*
X191902245Y-61167862D01*
X191688302Y-61120204D01*
X191472761Y-61080392D01*
X191255910Y-61048478D01*
X191038037Y-61024505D01*
X190819435Y-61008506D01*
X190600394Y-61000500D01*
X190381208Y-61000500D01*
X190162167Y-61008506D01*
X189943565Y-61024505D01*
X189725692Y-61048478D01*
X189508841Y-61080392D01*
X189293300Y-61120204D01*
X189079357Y-61167862D01*
X188867297Y-61223302D01*
X188657404Y-61286449D01*
X188449957Y-61357221D01*
X188245232Y-61435521D01*
X188043504Y-61521246D01*
X187845042Y-61614281D01*
X187650110Y-61714503D01*
X187458968Y-61821777D01*
X187271871Y-61935960D01*
X187089070Y-62056901D01*
X186910807Y-62184436D01*
X186737322Y-62318398D01*
X186568844Y-62458606D01*
X186405600Y-62604873D01*
X186247806Y-62757005D01*
X186095674Y-62914799D01*
X185949407Y-63078043D01*
X185809199Y-63246521D01*
X185675237Y-63420006D01*
X185547702Y-63598269D01*
X185426761Y-63781070D01*
X185312578Y-63968167D01*
X185205304Y-64159309D01*
X185105082Y-64354241D01*
X185012047Y-64552703D01*
X184926322Y-64754431D01*
X184848022Y-64959156D01*
X184777250Y-65166603D01*
X184714103Y-65376496D01*
X184658663Y-65588556D01*
X184611005Y-65802499D01*
X184571193Y-66018040D01*
X184539279Y-66234891D01*
X184515306Y-66452764D01*
X184499307Y-66671366D01*
X184491301Y-66890407D01*
X184490801Y-67000000D01*
X180290801Y-67000000D01*
X180290801Y-67400000D01*
X179690801Y-67400000D01*
X174690801Y-67400000D01*
X174690801Y-67150000D01*
X179690801Y-67150000D01*
X179690801Y-67000000D01*
X176490801Y-67000000D01*
X176490301Y-66890407D01*
X176482295Y-66671366D01*
X176466296Y-66452764D01*
X176442323Y-66234891D01*
X176410409Y-66018040D01*
X176370597Y-65802499D01*
X176322939Y-65588556D01*
X176267499Y-65376496D01*
X176204352Y-65166603D01*
X176133580Y-64959156D01*
X176055280Y-64754431D01*
X175969555Y-64552703D01*
X175876520Y-64354241D01*
X175776298Y-64159309D01*
X175669024Y-63968167D01*
X175554841Y-63781070D01*
X175433900Y-63598269D01*
X175306365Y-63420006D01*
X175172403Y-63246521D01*
X175032195Y-63078043D01*
X174885928Y-62914799D01*
X174733796Y-62757005D01*
X174576002Y-62604873D01*
X174412758Y-62458606D01*
X174244280Y-62318398D01*
X174070795Y-62184436D01*
X173892532Y-62056901D01*
X173709731Y-61935960D01*
X173522634Y-61821777D01*
X173331492Y-61714503D01*
X173136560Y-61614281D01*
X172938098Y-61521246D01*
X172736370Y-61435521D01*
X172531645Y-61357221D01*
X172324198Y-61286449D01*
X172114305Y-61223302D01*
X171902245Y-61167862D01*
X171688302Y-61120204D01*
X171472761Y-61080392D01*
X171255910Y-61048478D01*
X171038037Y-61024505D01*
X170819435Y-61008506D01*
X170600394Y-61000500D01*
X170381208Y-61000500D01*
X170162167Y-61008506D01*
X169943565Y-61024505D01*
X169725692Y-61048478D01*
X169508841Y-61080392D01*
X169293300Y-61120204D01*
X169079357Y-61167862D01*
X168867297Y-61223302D01*
X168657404Y-61286449D01*
X168449957Y-61357221D01*
X168245232Y-61435521D01*
X168043504Y-61521246D01*
X167845042Y-61614281D01*
X167650110Y-61714503D01*
X167458968Y-61821777D01*
X167271871Y-61935960D01*
X167089070Y-62056901D01*
X166910807Y-62184436D01*
X166737322Y-62318398D01*
X166568844Y-62458606D01*
X166405600Y-62604873D01*
X166247806Y-62757005D01*
X166095674Y-62914799D01*
X165949407Y-63078043D01*
X165809199Y-63246521D01*
X165675237Y-63420006D01*
X165547702Y-63598269D01*
X165426761Y-63781070D01*
X165312578Y-63968167D01*
X165205304Y-64159309D01*
X165105082Y-64354241D01*
X165012047Y-64552703D01*
X164926322Y-64754431D01*
X164848022Y-64959156D01*
X164777250Y-65166603D01*
X164714103Y-65376496D01*
X164658663Y-65588556D01*
X164611005Y-65802499D01*
X164571193Y-66018040D01*
X164539279Y-66234891D01*
X164515306Y-66452764D01*
X164499307Y-66671366D01*
X164491301Y-66890407D01*
X164490801Y-67000000D01*
X160490801Y-67000000D01*
X160490801Y-37000000D01*
X200490801Y-37000000D01*
X200490801Y-67000000D01*
G37*
%TD.AperFunction*%
%TA.AperFunction,Conductor*%
G36*
X200490801Y-129000000D02*
G01*
X196490801Y-129000000D01*
X196490301Y-128890407D01*
X196482295Y-128671366D01*
X196466296Y-128452764D01*
X196442323Y-128234891D01*
X196410409Y-128018040D01*
X196370597Y-127802499D01*
X196322939Y-127588556D01*
X196267499Y-127376496D01*
X196204352Y-127166603D01*
X196133580Y-126959156D01*
X196055280Y-126754431D01*
X195969555Y-126552703D01*
X195876520Y-126354241D01*
X195776298Y-126159309D01*
X195669024Y-125968167D01*
X195554841Y-125781070D01*
X195433900Y-125598269D01*
X195306365Y-125420006D01*
X195172403Y-125246521D01*
X195032195Y-125078043D01*
X194885928Y-124914799D01*
X194733796Y-124757005D01*
X194576002Y-124604873D01*
X194412758Y-124458606D01*
X194244280Y-124318398D01*
X194070795Y-124184436D01*
X193892532Y-124056901D01*
X193709731Y-123935960D01*
X193522634Y-123821777D01*
X193331492Y-123714503D01*
X193136560Y-123614281D01*
X192938098Y-123521246D01*
X192736370Y-123435521D01*
X192531645Y-123357221D01*
X192324198Y-123286449D01*
X192114305Y-123223302D01*
X191902245Y-123167862D01*
X191688302Y-123120204D01*
X191472761Y-123080392D01*
X191255910Y-123048478D01*
X191038037Y-123024505D01*
X190819435Y-123008506D01*
X190600394Y-123000500D01*
X190381208Y-123000500D01*
X190162167Y-123008506D01*
X189943565Y-123024505D01*
X189725692Y-123048478D01*
X189508841Y-123080392D01*
X189293300Y-123120204D01*
X189079357Y-123167862D01*
X188867297Y-123223302D01*
X188657404Y-123286449D01*
X188449957Y-123357221D01*
X188245232Y-123435521D01*
X188043504Y-123521246D01*
X187845042Y-123614281D01*
X187650110Y-123714503D01*
X187458968Y-123821777D01*
X187271871Y-123935960D01*
X187089070Y-124056901D01*
X186910807Y-124184436D01*
X186737322Y-124318398D01*
X186568844Y-124458606D01*
X186405600Y-124604873D01*
X186247806Y-124757005D01*
X186095674Y-124914799D01*
X185949407Y-125078043D01*
X185809199Y-125246521D01*
X185675237Y-125420006D01*
X185547702Y-125598269D01*
X185426761Y-125781070D01*
X185312578Y-125968167D01*
X185205304Y-126159309D01*
X185105082Y-126354241D01*
X185012047Y-126552703D01*
X184926322Y-126754431D01*
X184848022Y-126959156D01*
X184777250Y-127166603D01*
X184714103Y-127376496D01*
X184658663Y-127588556D01*
X184611005Y-127802499D01*
X184571193Y-128018040D01*
X184539279Y-128234891D01*
X184515306Y-128452764D01*
X184499307Y-128671366D01*
X184491301Y-128890407D01*
X184490801Y-129000000D01*
X180290801Y-129000000D01*
X180290801Y-129400000D01*
X179690801Y-129400000D01*
X174690801Y-129400000D01*
X174690801Y-129150000D01*
X179690801Y-129150000D01*
X179690801Y-129000000D01*
X176490801Y-129000000D01*
X176490301Y-128890407D01*
X176482295Y-128671366D01*
X176466296Y-128452764D01*
X176442323Y-128234891D01*
X176410409Y-128018040D01*
X176370597Y-127802499D01*
X176322939Y-127588556D01*
X176267499Y-127376496D01*
X176204352Y-127166603D01*
X176133580Y-126959156D01*
X176055280Y-126754431D01*
X175969555Y-126552703D01*
X175876520Y-126354241D01*
X175776298Y-126159309D01*
X175669024Y-125968167D01*
X175554841Y-125781070D01*
X175433900Y-125598269D01*
X175306365Y-125420006D01*
X175172403Y-125246521D01*
X175032195Y-125078043D01*
X174885928Y-124914799D01*
X174733796Y-124757005D01*
X174576002Y-124604873D01*
X174412758Y-124458606D01*
X174244280Y-124318398D01*
X174070795Y-124184436D01*
X173892532Y-124056901D01*
X173709731Y-123935960D01*
X173522634Y-123821777D01*
X173331492Y-123714503D01*
X173136560Y-123614281D01*
X172938098Y-123521246D01*
X172736370Y-123435521D01*
X172531645Y-123357221D01*
X172324198Y-123286449D01*
X172114305Y-123223302D01*
X171902245Y-123167862D01*
X171688302Y-123120204D01*
X171472761Y-123080392D01*
X171255910Y-123048478D01*
X171038037Y-123024505D01*
X170819435Y-123008506D01*
X170600394Y-123000500D01*
X170381208Y-123000500D01*
X170162167Y-123008506D01*
X169943565Y-123024505D01*
X169725692Y-123048478D01*
X169508841Y-123080392D01*
X169293300Y-123120204D01*
X169079357Y-123167862D01*
X168867297Y-123223302D01*
X168657404Y-123286449D01*
X168449957Y-123357221D01*
X168245232Y-123435521D01*
X168043504Y-123521246D01*
X167845042Y-123614281D01*
X167650110Y-123714503D01*
X167458968Y-123821777D01*
X167271871Y-123935960D01*
X167089070Y-124056901D01*
X166910807Y-124184436D01*
X166737322Y-124318398D01*
X166568844Y-124458606D01*
X166405600Y-124604873D01*
X166247806Y-124757005D01*
X166095674Y-124914799D01*
X165949407Y-125078043D01*
X165809199Y-125246521D01*
X165675237Y-125420006D01*
X165547702Y-125598269D01*
X165426761Y-125781070D01*
X165312578Y-125968167D01*
X165205304Y-126159309D01*
X165105082Y-126354241D01*
X165012047Y-126552703D01*
X164926322Y-126754431D01*
X164848022Y-126959156D01*
X164777250Y-127166603D01*
X164714103Y-127376496D01*
X164658663Y-127588556D01*
X164611005Y-127802499D01*
X164571193Y-128018040D01*
X164539279Y-128234891D01*
X164515306Y-128452764D01*
X164499307Y-128671366D01*
X164491301Y-128890407D01*
X164490801Y-129000000D01*
X160490801Y-129000000D01*
X160490801Y-99000000D01*
X200490801Y-99000000D01*
X200490801Y-129000000D01*
G37*
%TD.AperFunction*%
%TA.AperFunction,Conductor*%
G36*
X200490801Y-191000000D02*
G01*
X196490801Y-191000000D01*
X196490301Y-190890407D01*
X196482295Y-190671366D01*
X196466296Y-190452764D01*
X196442323Y-190234891D01*
X196410409Y-190018040D01*
X196370597Y-189802499D01*
X196322939Y-189588556D01*
X196267499Y-189376496D01*
X196204352Y-189166603D01*
X196133580Y-188959156D01*
X196055280Y-188754431D01*
X195969555Y-188552703D01*
X195876520Y-188354241D01*
X195776298Y-188159309D01*
X195669024Y-187968167D01*
X195554841Y-187781070D01*
X195433900Y-187598269D01*
X195306365Y-187420006D01*
X195172403Y-187246521D01*
X195032195Y-187078043D01*
X194885928Y-186914799D01*
X194733796Y-186757005D01*
X194576002Y-186604873D01*
X194412758Y-186458606D01*
X194244280Y-186318398D01*
X194070795Y-186184436D01*
X193892532Y-186056901D01*
X193709731Y-185935960D01*
X193522634Y-185821777D01*
X193331492Y-185714503D01*
X193136560Y-185614281D01*
X192938098Y-185521246D01*
X192736370Y-185435521D01*
X192531645Y-185357221D01*
X192324198Y-185286449D01*
X192114305Y-185223302D01*
X191902245Y-185167862D01*
X191688302Y-185120204D01*
X191472761Y-185080392D01*
X191255910Y-185048478D01*
X191038037Y-185024505D01*
X190819435Y-185008506D01*
X190600394Y-185000500D01*
X190381208Y-185000500D01*
X190162167Y-185008506D01*
X189943565Y-185024505D01*
X189725692Y-185048478D01*
X189508841Y-185080392D01*
X189293300Y-185120204D01*
X189079357Y-185167862D01*
X188867297Y-185223302D01*
X188657404Y-185286449D01*
X188449957Y-185357221D01*
X188245232Y-185435521D01*
X188043504Y-185521246D01*
X187845042Y-185614281D01*
X187650110Y-185714503D01*
X187458968Y-185821777D01*
X187271871Y-185935960D01*
X187089070Y-186056901D01*
X186910807Y-186184436D01*
X186737322Y-186318398D01*
X186568844Y-186458606D01*
X186405600Y-186604873D01*
X186247806Y-186757005D01*
X186095674Y-186914799D01*
X185949407Y-187078043D01*
X185809199Y-187246521D01*
X185675237Y-187420006D01*
X185547702Y-187598269D01*
X185426761Y-187781070D01*
X185312578Y-187968167D01*
X185205304Y-188159309D01*
X185105082Y-188354241D01*
X185012047Y-188552703D01*
X184926322Y-188754431D01*
X184848022Y-188959156D01*
X184777250Y-189166603D01*
X184714103Y-189376496D01*
X184658663Y-189588556D01*
X184611005Y-189802499D01*
X184571193Y-190018040D01*
X184539279Y-190234891D01*
X184515306Y-190452764D01*
X184499307Y-190671366D01*
X184491301Y-190890407D01*
X184490801Y-191000000D01*
X180290801Y-191000000D01*
X180290801Y-191400000D01*
X179690801Y-191400000D01*
X174690801Y-191400000D01*
X174690801Y-191150000D01*
X179690801Y-191150000D01*
X179690801Y-191000000D01*
X176490801Y-191000000D01*
X176490301Y-190890407D01*
X176482295Y-190671366D01*
X176466296Y-190452764D01*
X176442323Y-190234891D01*
X176410409Y-190018040D01*
X176370597Y-189802499D01*
X176322939Y-189588556D01*
X176267499Y-189376496D01*
X176204352Y-189166603D01*
X176133580Y-188959156D01*
X176055280Y-188754431D01*
X175969555Y-188552703D01*
X175876520Y-188354241D01*
X175776298Y-188159309D01*
X175669024Y-187968167D01*
X175554841Y-187781070D01*
X175433900Y-187598269D01*
X175306365Y-187420006D01*
X175172403Y-187246521D01*
X175032195Y-187078043D01*
X174885928Y-186914799D01*
X174733796Y-186757005D01*
X174576002Y-186604873D01*
X174412758Y-186458606D01*
X174244280Y-186318398D01*
X174070795Y-186184436D01*
X173892532Y-186056901D01*
X173709731Y-185935960D01*
X173522634Y-185821777D01*
X173331492Y-185714503D01*
X173136560Y-185614281D01*
X172938098Y-185521246D01*
X172736370Y-185435521D01*
X172531645Y-185357221D01*
X172324198Y-185286449D01*
X172114305Y-185223302D01*
X171902245Y-185167862D01*
X171688302Y-185120204D01*
X171472761Y-185080392D01*
X171255910Y-185048478D01*
X171038037Y-185024505D01*
X170819435Y-185008506D01*
X170600394Y-185000500D01*
X170381208Y-185000500D01*
X170162167Y-185008506D01*
X169943565Y-185024505D01*
X169725692Y-185048478D01*
X169508841Y-185080392D01*
X169293300Y-185120204D01*
X169079357Y-185167862D01*
X168867297Y-185223302D01*
X168657404Y-185286449D01*
X168449957Y-185357221D01*
X168245232Y-185435521D01*
X168043504Y-185521246D01*
X167845042Y-185614281D01*
X167650110Y-185714503D01*
X167458968Y-185821777D01*
X167271871Y-185935960D01*
X167089070Y-186056901D01*
X166910807Y-186184436D01*
X166737322Y-186318398D01*
X166568844Y-186458606D01*
X166405600Y-186604873D01*
X166247806Y-186757005D01*
X166095674Y-186914799D01*
X165949407Y-187078043D01*
X165809199Y-187246521D01*
X165675237Y-187420006D01*
X165547702Y-187598269D01*
X165426761Y-187781070D01*
X165312578Y-187968167D01*
X165205304Y-188159309D01*
X165105082Y-188354241D01*
X165012047Y-188552703D01*
X164926322Y-188754431D01*
X164848022Y-188959156D01*
X164777250Y-189166603D01*
X164714103Y-189376496D01*
X164658663Y-189588556D01*
X164611005Y-189802499D01*
X164571193Y-190018040D01*
X164539279Y-190234891D01*
X164515306Y-190452764D01*
X164499307Y-190671366D01*
X164491301Y-190890407D01*
X164490801Y-191000000D01*
X160490801Y-191000000D01*
X160490801Y-161000000D01*
X200490801Y-161000000D01*
X200490801Y-191000000D01*
G37*
%TD.AperFunction*%
%TA.AperFunction,Conductor*%
G36*
X200490801Y-253000000D02*
G01*
X196490801Y-253000000D01*
X196490301Y-252890407D01*
X196482295Y-252671366D01*
X196466296Y-252452764D01*
X196442323Y-252234891D01*
X196410409Y-252018040D01*
X196370597Y-251802499D01*
X196322939Y-251588556D01*
X196267499Y-251376496D01*
X196204352Y-251166603D01*
X196133580Y-250959156D01*
X196055280Y-250754431D01*
X195969555Y-250552703D01*
X195876520Y-250354241D01*
X195776298Y-250159309D01*
X195669024Y-249968167D01*
X195554841Y-249781070D01*
X195433900Y-249598269D01*
X195306365Y-249420006D01*
X195172403Y-249246521D01*
X195032195Y-249078043D01*
X194885928Y-248914799D01*
X194733796Y-248757005D01*
X194576002Y-248604873D01*
X194412758Y-248458606D01*
X194244280Y-248318398D01*
X194070795Y-248184436D01*
X193892532Y-248056901D01*
X193709731Y-247935960D01*
X193522634Y-247821777D01*
X193331492Y-247714503D01*
X193136560Y-247614281D01*
X192938098Y-247521246D01*
X192736370Y-247435521D01*
X192531645Y-247357221D01*
X192324198Y-247286449D01*
X192114305Y-247223302D01*
X191902245Y-247167862D01*
X191688302Y-247120204D01*
X191472761Y-247080392D01*
X191255910Y-247048478D01*
X191038037Y-247024505D01*
X190819435Y-247008506D01*
X190600394Y-247000500D01*
X190381208Y-247000500D01*
X190162167Y-247008506D01*
X189943565Y-247024505D01*
X189725692Y-247048478D01*
X189508841Y-247080392D01*
X189293300Y-247120204D01*
X189079357Y-247167862D01*
X188867297Y-247223302D01*
X188657404Y-247286449D01*
X188449957Y-247357221D01*
X188245232Y-247435521D01*
X188043504Y-247521246D01*
X187845042Y-247614281D01*
X187650110Y-247714503D01*
X187458968Y-247821777D01*
X187271871Y-247935960D01*
X187089070Y-248056901D01*
X186910807Y-248184436D01*
X186737322Y-248318398D01*
X186568844Y-248458606D01*
X186405600Y-248604873D01*
X186247806Y-248757005D01*
X186095674Y-248914799D01*
X185949407Y-249078043D01*
X185809199Y-249246521D01*
X185675237Y-249420006D01*
X185547702Y-249598269D01*
X185426761Y-249781070D01*
X185312578Y-249968167D01*
X185205304Y-250159309D01*
X185105082Y-250354241D01*
X185012047Y-250552703D01*
X184926322Y-250754431D01*
X184848022Y-250959156D01*
X184777250Y-251166603D01*
X184714103Y-251376496D01*
X184658663Y-251588556D01*
X184611005Y-251802499D01*
X184571193Y-252018040D01*
X184539279Y-252234891D01*
X184515306Y-252452764D01*
X184499307Y-252671366D01*
X184491301Y-252890407D01*
X184490801Y-253000000D01*
X180290801Y-253000000D01*
X180290801Y-253400000D01*
X179690801Y-253400000D01*
X174690801Y-253400000D01*
X174690801Y-253150000D01*
X179690801Y-253150000D01*
X179690801Y-253000000D01*
X176490801Y-253000000D01*
X176490301Y-252890407D01*
X176482295Y-252671366D01*
X176466296Y-252452764D01*
X176442323Y-252234891D01*
X176410409Y-252018040D01*
X176370597Y-251802499D01*
X176322939Y-251588556D01*
X176267499Y-251376496D01*
X176204352Y-251166603D01*
X176133580Y-250959156D01*
X176055280Y-250754431D01*
X175969555Y-250552703D01*
X175876520Y-250354241D01*
X175776298Y-250159309D01*
X175669024Y-249968167D01*
X175554841Y-249781070D01*
X175433900Y-249598269D01*
X175306365Y-249420006D01*
X175172403Y-249246521D01*
X175032195Y-249078043D01*
X174885928Y-248914799D01*
X174733796Y-248757005D01*
X174576002Y-248604873D01*
X174412758Y-248458606D01*
X174244280Y-248318398D01*
X174070795Y-248184436D01*
X173892532Y-248056901D01*
X173709731Y-247935960D01*
X173522634Y-247821777D01*
X173331492Y-247714503D01*
X173136560Y-247614281D01*
X172938098Y-247521246D01*
X172736370Y-247435521D01*
X172531645Y-247357221D01*
X172324198Y-247286449D01*
X172114305Y-247223302D01*
X171902245Y-247167862D01*
X171688302Y-247120204D01*
X171472761Y-247080392D01*
X171255910Y-247048478D01*
X171038037Y-247024505D01*
X170819435Y-247008506D01*
X170600394Y-247000500D01*
X170381208Y-247000500D01*
X170162167Y-247008506D01*
X169943565Y-247024505D01*
X169725692Y-247048478D01*
X169508841Y-247080392D01*
X169293300Y-247120204D01*
X169079357Y-247167862D01*
X168867297Y-247223302D01*
X168657404Y-247286449D01*
X168449957Y-247357221D01*
X168245232Y-247435521D01*
X168043504Y-247521246D01*
X167845042Y-247614281D01*
X167650110Y-247714503D01*
X167458968Y-247821777D01*
X167271871Y-247935960D01*
X167089070Y-248056901D01*
X166910807Y-248184436D01*
X166737322Y-248318398D01*
X166568844Y-248458606D01*
X166405600Y-248604873D01*
X166247806Y-248757005D01*
X166095674Y-248914799D01*
X165949407Y-249078043D01*
X165809199Y-249246521D01*
X165675237Y-249420006D01*
X165547702Y-249598269D01*
X165426761Y-249781070D01*
X165312578Y-249968167D01*
X165205304Y-250159309D01*
X165105082Y-250354241D01*
X165012047Y-250552703D01*
X164926322Y-250754431D01*
X164848022Y-250959156D01*
X164777250Y-251166603D01*
X164714103Y-251376496D01*
X164658663Y-251588556D01*
X164611005Y-251802499D01*
X164571193Y-252018040D01*
X164539279Y-252234891D01*
X164515306Y-252452764D01*
X164499307Y-252671366D01*
X164491301Y-252890407D01*
X164490801Y-253000000D01*
X160490801Y-253000000D01*
X160490801Y-223000000D01*
X200490801Y-223000000D01*
X200490801Y-253000000D01*
G37*
%TD.AperFunction*%
%TA.AperFunction,Conductor*%
G36*
X262490801Y-67000000D02*
G01*
X258490801Y-67000000D01*
X258490301Y-66890407D01*
X258482295Y-66671366D01*
X258466296Y-66452764D01*
X258442323Y-66234891D01*
X258410409Y-66018040D01*
X258370597Y-65802499D01*
X258322939Y-65588556D01*
X258267499Y-65376496D01*
X258204352Y-65166603D01*
X258133580Y-64959156D01*
X258055280Y-64754431D01*
X257969555Y-64552703D01*
X257876520Y-64354241D01*
X257776298Y-64159309D01*
X257669024Y-63968167D01*
X257554841Y-63781070D01*
X257433900Y-63598269D01*
X257306365Y-63420006D01*
X257172403Y-63246521D01*
X257032195Y-63078043D01*
X256885928Y-62914799D01*
X256733796Y-62757005D01*
X256576002Y-62604873D01*
X256412758Y-62458606D01*
X256244280Y-62318398D01*
X256070795Y-62184436D01*
X255892532Y-62056901D01*
X255709731Y-61935960D01*
X255522634Y-61821777D01*
X255331492Y-61714503D01*
X255136560Y-61614281D01*
X254938098Y-61521246D01*
X254736370Y-61435521D01*
X254531645Y-61357221D01*
X254324198Y-61286449D01*
X254114305Y-61223302D01*
X253902245Y-61167862D01*
X253688302Y-61120204D01*
X253472761Y-61080392D01*
X253255910Y-61048478D01*
X253038037Y-61024505D01*
X252819435Y-61008506D01*
X252600394Y-61000500D01*
X252381208Y-61000500D01*
X252162167Y-61008506D01*
X251943565Y-61024505D01*
X251725692Y-61048478D01*
X251508841Y-61080392D01*
X251293300Y-61120204D01*
X251079357Y-61167862D01*
X250867297Y-61223302D01*
X250657404Y-61286449D01*
X250449957Y-61357221D01*
X250245232Y-61435521D01*
X250043504Y-61521246D01*
X249845042Y-61614281D01*
X249650110Y-61714503D01*
X249458968Y-61821777D01*
X249271871Y-61935960D01*
X249089070Y-62056901D01*
X248910807Y-62184436D01*
X248737322Y-62318398D01*
X248568844Y-62458606D01*
X248405600Y-62604873D01*
X248247806Y-62757005D01*
X248095674Y-62914799D01*
X247949407Y-63078043D01*
X247809199Y-63246521D01*
X247675237Y-63420006D01*
X247547702Y-63598269D01*
X247426761Y-63781070D01*
X247312578Y-63968167D01*
X247205304Y-64159309D01*
X247105082Y-64354241D01*
X247012047Y-64552703D01*
X246926322Y-64754431D01*
X246848022Y-64959156D01*
X246777250Y-65166603D01*
X246714103Y-65376496D01*
X246658663Y-65588556D01*
X246611005Y-65802499D01*
X246571193Y-66018040D01*
X246539279Y-66234891D01*
X246515306Y-66452764D01*
X246499307Y-66671366D01*
X246491301Y-66890407D01*
X246490801Y-67000000D01*
X242290801Y-67000000D01*
X242290801Y-67400000D01*
X241690801Y-67400000D01*
X236690801Y-67400000D01*
X236690801Y-67150000D01*
X241690801Y-67150000D01*
X241690801Y-67000000D01*
X238490801Y-67000000D01*
X238490301Y-66890407D01*
X238482295Y-66671366D01*
X238466296Y-66452764D01*
X238442323Y-66234891D01*
X238410409Y-66018040D01*
X238370597Y-65802499D01*
X238322939Y-65588556D01*
X238267499Y-65376496D01*
X238204352Y-65166603D01*
X238133580Y-64959156D01*
X238055280Y-64754431D01*
X237969555Y-64552703D01*
X237876520Y-64354241D01*
X237776298Y-64159309D01*
X237669024Y-63968167D01*
X237554841Y-63781070D01*
X237433900Y-63598269D01*
X237306365Y-63420006D01*
X237172403Y-63246521D01*
X237032195Y-63078043D01*
X236885928Y-62914799D01*
X236733796Y-62757005D01*
X236576002Y-62604873D01*
X236412758Y-62458606D01*
X236244280Y-62318398D01*
X236070795Y-62184436D01*
X235892532Y-62056901D01*
X235709731Y-61935960D01*
X235522634Y-61821777D01*
X235331492Y-61714503D01*
X235136560Y-61614281D01*
X234938098Y-61521246D01*
X234736370Y-61435521D01*
X234531645Y-61357221D01*
X234324198Y-61286449D01*
X234114305Y-61223302D01*
X233902245Y-61167862D01*
X233688302Y-61120204D01*
X233472761Y-61080392D01*
X233255910Y-61048478D01*
X233038037Y-61024505D01*
X232819435Y-61008506D01*
X232600394Y-61000500D01*
X232381208Y-61000500D01*
X232162167Y-61008506D01*
X231943565Y-61024505D01*
X231725692Y-61048478D01*
X231508841Y-61080392D01*
X231293300Y-61120204D01*
X231079357Y-61167862D01*
X230867297Y-61223302D01*
X230657404Y-61286449D01*
X230449957Y-61357221D01*
X230245232Y-61435521D01*
X230043504Y-61521246D01*
X229845042Y-61614281D01*
X229650110Y-61714503D01*
X229458968Y-61821777D01*
X229271871Y-61935960D01*
X229089070Y-62056901D01*
X228910807Y-62184436D01*
X228737322Y-62318398D01*
X228568844Y-62458606D01*
X228405600Y-62604873D01*
X228247806Y-62757005D01*
X228095674Y-62914799D01*
X227949407Y-63078043D01*
X227809199Y-63246521D01*
X227675237Y-63420006D01*
X227547702Y-63598269D01*
X227426761Y-63781070D01*
X227312578Y-63968167D01*
X227205304Y-64159309D01*
X227105082Y-64354241D01*
X227012047Y-64552703D01*
X226926322Y-64754431D01*
X226848022Y-64959156D01*
X226777250Y-65166603D01*
X226714103Y-65376496D01*
X226658663Y-65588556D01*
X226611005Y-65802499D01*
X226571193Y-66018040D01*
X226539279Y-66234891D01*
X226515306Y-66452764D01*
X226499307Y-66671366D01*
X226491301Y-66890407D01*
X226490801Y-67000000D01*
X222490801Y-67000000D01*
X222490801Y-37000000D01*
X262490801Y-37000000D01*
X262490801Y-67000000D01*
G37*
%TD.AperFunction*%
%TA.AperFunction,Conductor*%
G36*
X262490801Y-129000000D02*
G01*
X258490801Y-129000000D01*
X258490301Y-128890407D01*
X258482295Y-128671366D01*
X258466296Y-128452764D01*
X258442323Y-128234891D01*
X258410409Y-128018040D01*
X258370597Y-127802499D01*
X258322939Y-127588556D01*
X258267499Y-127376496D01*
X258204352Y-127166603D01*
X258133580Y-126959156D01*
X258055280Y-126754431D01*
X257969555Y-126552703D01*
X257876520Y-126354241D01*
X257776298Y-126159309D01*
X257669024Y-125968167D01*
X257554841Y-125781070D01*
X257433900Y-125598269D01*
X257306365Y-125420006D01*
X257172403Y-125246521D01*
X257032195Y-125078043D01*
X256885928Y-124914799D01*
X256733796Y-124757005D01*
X256576002Y-124604873D01*
X256412758Y-124458606D01*
X256244280Y-124318398D01*
X256070795Y-124184436D01*
X255892532Y-124056901D01*
X255709731Y-123935960D01*
X255522634Y-123821777D01*
X255331492Y-123714503D01*
X255136560Y-123614281D01*
X254938098Y-123521246D01*
X254736370Y-123435521D01*
X254531645Y-123357221D01*
X254324198Y-123286449D01*
X254114305Y-123223302D01*
X253902245Y-123167862D01*
X253688302Y-123120204D01*
X253472761Y-123080392D01*
X253255910Y-123048478D01*
X253038037Y-123024505D01*
X252819435Y-123008506D01*
X252600394Y-123000500D01*
X252381208Y-123000500D01*
X252162167Y-123008506D01*
X251943565Y-123024505D01*
X251725692Y-123048478D01*
X251508841Y-123080392D01*
X251293300Y-123120204D01*
X251079357Y-123167862D01*
X250867297Y-123223302D01*
X250657404Y-123286449D01*
X250449957Y-123357221D01*
X250245232Y-123435521D01*
X250043504Y-123521246D01*
X249845042Y-123614281D01*
X249650110Y-123714503D01*
X249458968Y-123821777D01*
X249271871Y-123935960D01*
X249089070Y-124056901D01*
X248910807Y-124184436D01*
X248737322Y-124318398D01*
X248568844Y-124458606D01*
X248405600Y-124604873D01*
X248247806Y-124757005D01*
X248095674Y-124914799D01*
X247949407Y-125078043D01*
X247809199Y-125246521D01*
X247675237Y-125420006D01*
X247547702Y-125598269D01*
X247426761Y-125781070D01*
X247312578Y-125968167D01*
X247205304Y-126159309D01*
X247105082Y-126354241D01*
X247012047Y-126552703D01*
X246926322Y-126754431D01*
X246848022Y-126959156D01*
X246777250Y-127166603D01*
X246714103Y-127376496D01*
X246658663Y-127588556D01*
X246611005Y-127802499D01*
X246571193Y-128018040D01*
X246539279Y-128234891D01*
X246515306Y-128452764D01*
X246499307Y-128671366D01*
X246491301Y-128890407D01*
X246490801Y-129000000D01*
X242290801Y-129000000D01*
X242290801Y-129400000D01*
X241690801Y-129400000D01*
X236690801Y-129400000D01*
X236690801Y-129150000D01*
X241690801Y-129150000D01*
X241690801Y-129000000D01*
X238490801Y-129000000D01*
X238490301Y-128890407D01*
X238482295Y-128671366D01*
X238466296Y-128452764D01*
X238442323Y-128234891D01*
X238410409Y-128018040D01*
X238370597Y-127802499D01*
X238322939Y-127588556D01*
X238267499Y-127376496D01*
X238204352Y-127166603D01*
X238133580Y-126959156D01*
X238055280Y-126754431D01*
X237969555Y-126552703D01*
X237876520Y-126354241D01*
X237776298Y-126159309D01*
X237669024Y-125968167D01*
X237554841Y-125781070D01*
X237433900Y-125598269D01*
X237306365Y-125420006D01*
X237172403Y-125246521D01*
X237032195Y-125078043D01*
X236885928Y-124914799D01*
X236733796Y-124757005D01*
X236576002Y-124604873D01*
X236412758Y-124458606D01*
X236244280Y-124318398D01*
X236070795Y-124184436D01*
X235892532Y-124056901D01*
X235709731Y-123935960D01*
X235522634Y-123821777D01*
X235331492Y-123714503D01*
X235136560Y-123614281D01*
X234938098Y-123521246D01*
X234736370Y-123435521D01*
X234531645Y-123357221D01*
X234324198Y-123286449D01*
X234114305Y-123223302D01*
X233902245Y-123167862D01*
X233688302Y-123120204D01*
X233472761Y-123080392D01*
X233255910Y-123048478D01*
X233038037Y-123024505D01*
X232819435Y-123008506D01*
X232600394Y-123000500D01*
X232381208Y-123000500D01*
X232162167Y-123008506D01*
X231943565Y-123024505D01*
X231725692Y-123048478D01*
X231508841Y-123080392D01*
X231293300Y-123120204D01*
X231079357Y-123167862D01*
X230867297Y-123223302D01*
X230657404Y-123286449D01*
X230449957Y-123357221D01*
X230245232Y-123435521D01*
X230043504Y-123521246D01*
X229845042Y-123614281D01*
X229650110Y-123714503D01*
X229458968Y-123821777D01*
X229271871Y-123935960D01*
X229089070Y-124056901D01*
X228910807Y-124184436D01*
X228737322Y-124318398D01*
X228568844Y-124458606D01*
X228405600Y-124604873D01*
X228247806Y-124757005D01*
X228095674Y-124914799D01*
X227949407Y-125078043D01*
X227809199Y-125246521D01*
X227675237Y-125420006D01*
X227547702Y-125598269D01*
X227426761Y-125781070D01*
X227312578Y-125968167D01*
X227205304Y-126159309D01*
X227105082Y-126354241D01*
X227012047Y-126552703D01*
X226926322Y-126754431D01*
X226848022Y-126959156D01*
X226777250Y-127166603D01*
X226714103Y-127376496D01*
X226658663Y-127588556D01*
X226611005Y-127802499D01*
X226571193Y-128018040D01*
X226539279Y-128234891D01*
X226515306Y-128452764D01*
X226499307Y-128671366D01*
X226491301Y-128890407D01*
X226490801Y-129000000D01*
X222490801Y-129000000D01*
X222490801Y-99000000D01*
X262490801Y-99000000D01*
X262490801Y-129000000D01*
G37*
%TD.AperFunction*%
%TA.AperFunction,Conductor*%
G36*
X262490801Y-191000000D02*
G01*
X258490801Y-191000000D01*
X258490301Y-190890407D01*
X258482295Y-190671366D01*
X258466296Y-190452764D01*
X258442323Y-190234891D01*
X258410409Y-190018040D01*
X258370597Y-189802499D01*
X258322939Y-189588556D01*
X258267499Y-189376496D01*
X258204352Y-189166603D01*
X258133580Y-188959156D01*
X258055280Y-188754431D01*
X257969555Y-188552703D01*
X257876520Y-188354241D01*
X257776298Y-188159309D01*
X257669024Y-187968167D01*
X257554841Y-187781070D01*
X257433900Y-187598269D01*
X257306365Y-187420006D01*
X257172403Y-187246521D01*
X257032195Y-187078043D01*
X256885928Y-186914799D01*
X256733796Y-186757005D01*
X256576002Y-186604873D01*
X256412758Y-186458606D01*
X256244280Y-186318398D01*
X256070795Y-186184436D01*
X255892532Y-186056901D01*
X255709731Y-185935960D01*
X255522634Y-185821777D01*
X255331492Y-185714503D01*
X255136560Y-185614281D01*
X254938098Y-185521246D01*
X254736370Y-185435521D01*
X254531645Y-185357221D01*
X254324198Y-185286449D01*
X254114305Y-185223302D01*
X253902245Y-185167862D01*
X253688302Y-185120204D01*
X253472761Y-185080392D01*
X253255910Y-185048478D01*
X253038037Y-185024505D01*
X252819435Y-185008506D01*
X252600394Y-185000500D01*
X252381208Y-185000500D01*
X252162167Y-185008506D01*
X251943565Y-185024505D01*
X251725692Y-185048478D01*
X251508841Y-185080392D01*
X251293300Y-185120204D01*
X251079357Y-185167862D01*
X250867297Y-185223302D01*
X250657404Y-185286449D01*
X250449957Y-185357221D01*
X250245232Y-185435521D01*
X250043504Y-185521246D01*
X249845042Y-185614281D01*
X249650110Y-185714503D01*
X249458968Y-185821777D01*
X249271871Y-185935960D01*
X249089070Y-186056901D01*
X248910807Y-186184436D01*
X248737322Y-186318398D01*
X248568844Y-186458606D01*
X248405600Y-186604873D01*
X248247806Y-186757005D01*
X248095674Y-186914799D01*
X247949407Y-187078043D01*
X247809199Y-187246521D01*
X247675237Y-187420006D01*
X247547702Y-187598269D01*
X247426761Y-187781070D01*
X247312578Y-187968167D01*
X247205304Y-188159309D01*
X247105082Y-188354241D01*
X247012047Y-188552703D01*
X246926322Y-188754431D01*
X246848022Y-188959156D01*
X246777250Y-189166603D01*
X246714103Y-189376496D01*
X246658663Y-189588556D01*
X246611005Y-189802499D01*
X246571193Y-190018040D01*
X246539279Y-190234891D01*
X246515306Y-190452764D01*
X246499307Y-190671366D01*
X246491301Y-190890407D01*
X246490801Y-191000000D01*
X242290801Y-191000000D01*
X242290801Y-191400000D01*
X241690801Y-191400000D01*
X236690801Y-191400000D01*
X236690801Y-191150000D01*
X241690801Y-191150000D01*
X241690801Y-191000000D01*
X238490801Y-191000000D01*
X238490301Y-190890407D01*
X238482295Y-190671366D01*
X238466296Y-190452764D01*
X238442323Y-190234891D01*
X238410409Y-190018040D01*
X238370597Y-189802499D01*
X238322939Y-189588556D01*
X238267499Y-189376496D01*
X238204352Y-189166603D01*
X238133580Y-188959156D01*
X238055280Y-188754431D01*
X237969555Y-188552703D01*
X237876520Y-188354241D01*
X237776298Y-188159309D01*
X237669024Y-187968167D01*
X237554841Y-187781070D01*
X237433900Y-187598269D01*
X237306365Y-187420006D01*
X237172403Y-187246521D01*
X237032195Y-187078043D01*
X236885928Y-186914799D01*
X236733796Y-186757005D01*
X236576002Y-186604873D01*
X236412758Y-186458606D01*
X236244280Y-186318398D01*
X236070795Y-186184436D01*
X235892532Y-186056901D01*
X235709731Y-185935960D01*
X235522634Y-185821777D01*
X235331492Y-185714503D01*
X235136560Y-185614281D01*
X234938098Y-185521246D01*
X234736370Y-185435521D01*
X234531645Y-185357221D01*
X234324198Y-185286449D01*
X234114305Y-185223302D01*
X233902245Y-185167862D01*
X233688302Y-185120204D01*
X233472761Y-185080392D01*
X233255910Y-185048478D01*
X233038037Y-185024505D01*
X232819435Y-185008506D01*
X232600394Y-185000500D01*
X232381208Y-185000500D01*
X232162167Y-185008506D01*
X231943565Y-185024505D01*
X231725692Y-185048478D01*
X231508841Y-185080392D01*
X231293300Y-185120204D01*
X231079357Y-185167862D01*
X230867297Y-185223302D01*
X230657404Y-185286449D01*
X230449957Y-185357221D01*
X230245232Y-185435521D01*
X230043504Y-185521246D01*
X229845042Y-185614281D01*
X229650110Y-185714503D01*
X229458968Y-185821777D01*
X229271871Y-185935960D01*
X229089070Y-186056901D01*
X228910807Y-186184436D01*
X228737322Y-186318398D01*
X228568844Y-186458606D01*
X228405600Y-186604873D01*
X228247806Y-186757005D01*
X228095674Y-186914799D01*
X227949407Y-187078043D01*
X227809199Y-187246521D01*
X227675237Y-187420006D01*
X227547702Y-187598269D01*
X227426761Y-187781070D01*
X227312578Y-187968167D01*
X227205304Y-188159309D01*
X227105082Y-188354241D01*
X227012047Y-188552703D01*
X226926322Y-188754431D01*
X226848022Y-188959156D01*
X226777250Y-189166603D01*
X226714103Y-189376496D01*
X226658663Y-189588556D01*
X226611005Y-189802499D01*
X226571193Y-190018040D01*
X226539279Y-190234891D01*
X226515306Y-190452764D01*
X226499307Y-190671366D01*
X226491301Y-190890407D01*
X226490801Y-191000000D01*
X222490801Y-191000000D01*
X222490801Y-161000000D01*
X262490801Y-161000000D01*
X262490801Y-191000000D01*
G37*
%TD.AperFunction*%
%TA.AperFunction,Conductor*%
G36*
X262490801Y-253000000D02*
G01*
X258490801Y-253000000D01*
X258490301Y-252890407D01*
X258482295Y-252671366D01*
X258466296Y-252452764D01*
X258442323Y-252234891D01*
X258410409Y-252018040D01*
X258370597Y-251802499D01*
X258322939Y-251588556D01*
X258267499Y-251376496D01*
X258204352Y-251166603D01*
X258133580Y-250959156D01*
X258055280Y-250754431D01*
X257969555Y-250552703D01*
X257876520Y-250354241D01*
X257776298Y-250159309D01*
X257669024Y-249968167D01*
X257554841Y-249781070D01*
X257433900Y-249598269D01*
X257306365Y-249420006D01*
X257172403Y-249246521D01*
X257032195Y-249078043D01*
X256885928Y-248914799D01*
X256733796Y-248757005D01*
X256576002Y-248604873D01*
X256412758Y-248458606D01*
X256244280Y-248318398D01*
X256070795Y-248184436D01*
X255892532Y-248056901D01*
X255709731Y-247935960D01*
X255522634Y-247821777D01*
X255331492Y-247714503D01*
X255136560Y-247614281D01*
X254938098Y-247521246D01*
X254736370Y-247435521D01*
X254531645Y-247357221D01*
X254324198Y-247286449D01*
X254114305Y-247223302D01*
X253902245Y-247167862D01*
X253688302Y-247120204D01*
X253472761Y-247080392D01*
X253255910Y-247048478D01*
X253038037Y-247024505D01*
X252819435Y-247008506D01*
X252600394Y-247000500D01*
X252381208Y-247000500D01*
X252162167Y-247008506D01*
X251943565Y-247024505D01*
X251725692Y-247048478D01*
X251508841Y-247080392D01*
X251293300Y-247120204D01*
X251079357Y-247167862D01*
X250867297Y-247223302D01*
X250657404Y-247286449D01*
X250449957Y-247357221D01*
X250245232Y-247435521D01*
X250043504Y-247521246D01*
X249845042Y-247614281D01*
X249650110Y-247714503D01*
X249458968Y-247821777D01*
X249271871Y-247935960D01*
X249089070Y-248056901D01*
X248910807Y-248184436D01*
X248737322Y-248318398D01*
X248568844Y-248458606D01*
X248405600Y-248604873D01*
X248247806Y-248757005D01*
X248095674Y-248914799D01*
X247949407Y-249078043D01*
X247809199Y-249246521D01*
X247675237Y-249420006D01*
X247547702Y-249598269D01*
X247426761Y-249781070D01*
X247312578Y-249968167D01*
X247205304Y-250159309D01*
X247105082Y-250354241D01*
X247012047Y-250552703D01*
X246926322Y-250754431D01*
X246848022Y-250959156D01*
X246777250Y-251166603D01*
X246714103Y-251376496D01*
X246658663Y-251588556D01*
X246611005Y-251802499D01*
X246571193Y-252018040D01*
X246539279Y-252234891D01*
X246515306Y-252452764D01*
X246499307Y-252671366D01*
X246491301Y-252890407D01*
X246490801Y-253000000D01*
X242290801Y-253000000D01*
X242290801Y-253400000D01*
X241690801Y-253400000D01*
X236690801Y-253400000D01*
X236690801Y-253150000D01*
X241690801Y-253150000D01*
X241690801Y-253000000D01*
X238490801Y-253000000D01*
X238490301Y-252890407D01*
X238482295Y-252671366D01*
X238466296Y-252452764D01*
X238442323Y-252234891D01*
X238410409Y-252018040D01*
X238370597Y-251802499D01*
X238322939Y-251588556D01*
X238267499Y-251376496D01*
X238204352Y-251166603D01*
X238133580Y-250959156D01*
X238055280Y-250754431D01*
X237969555Y-250552703D01*
X237876520Y-250354241D01*
X237776298Y-250159309D01*
X237669024Y-249968167D01*
X237554841Y-249781070D01*
X237433900Y-249598269D01*
X237306365Y-249420006D01*
X237172403Y-249246521D01*
X237032195Y-249078043D01*
X236885928Y-248914799D01*
X236733796Y-248757005D01*
X236576002Y-248604873D01*
X236412758Y-248458606D01*
X236244280Y-248318398D01*
X236070795Y-248184436D01*
X235892532Y-248056901D01*
X235709731Y-247935960D01*
X235522634Y-247821777D01*
X235331492Y-247714503D01*
X235136560Y-247614281D01*
X234938098Y-247521246D01*
X234736370Y-247435521D01*
X234531645Y-247357221D01*
X234324198Y-247286449D01*
X234114305Y-247223302D01*
X233902245Y-247167862D01*
X233688302Y-247120204D01*
X233472761Y-247080392D01*
X233255910Y-247048478D01*
X233038037Y-247024505D01*
X232819435Y-247008506D01*
X232600394Y-247000500D01*
X232381208Y-247000500D01*
X232162167Y-247008506D01*
X231943565Y-247024505D01*
X231725692Y-247048478D01*
X231508841Y-247080392D01*
X231293300Y-247120204D01*
X231079357Y-247167862D01*
X230867297Y-247223302D01*
X230657404Y-247286449D01*
X230449957Y-247357221D01*
X230245232Y-247435521D01*
X230043504Y-247521246D01*
X229845042Y-247614281D01*
X229650110Y-247714503D01*
X229458968Y-247821777D01*
X229271871Y-247935960D01*
X229089070Y-248056901D01*
X228910807Y-248184436D01*
X228737322Y-248318398D01*
X228568844Y-248458606D01*
X228405600Y-248604873D01*
X228247806Y-248757005D01*
X228095674Y-248914799D01*
X227949407Y-249078043D01*
X227809199Y-249246521D01*
X227675237Y-249420006D01*
X227547702Y-249598269D01*
X227426761Y-249781070D01*
X227312578Y-249968167D01*
X227205304Y-250159309D01*
X227105082Y-250354241D01*
X227012047Y-250552703D01*
X226926322Y-250754431D01*
X226848022Y-250959156D01*
X226777250Y-251166603D01*
X226714103Y-251376496D01*
X226658663Y-251588556D01*
X226611005Y-251802499D01*
X226571193Y-252018040D01*
X226539279Y-252234891D01*
X226515306Y-252452764D01*
X226499307Y-252671366D01*
X226491301Y-252890407D01*
X226490801Y-253000000D01*
X222490801Y-253000000D01*
X222490801Y-223000000D01*
X262490801Y-223000000D01*
X262490801Y-253000000D01*
G37*
%TD.AperFunction*%
%TD*%
D11*
%TO.P,C19,1*%
%TO.N,+3.3V*%
X88572500Y-199865000D03*
%TO.P,C19,2*%
%TO.N,GND*%
X88572500Y-201415000D03*
%TD*%
D12*
%TO.P,R27,1*%
%TO.N,Net-(Q1-G)*%
X26332500Y-195900000D03*
%TO.P,R27,2*%
%TO.N,+3.3V*%
X26332500Y-196920000D03*
%TD*%
D11*
%TO.P,C29,1*%
%TO.N,+3.3V*%
X150572500Y-261865000D03*
%TO.P,C29,2*%
%TO.N,GND*%
X150572500Y-263415000D03*
%TD*%
%TO.P,C8,1*%
%TO.N,+3.3V*%
X215712500Y-75935000D03*
%TO.P,C8,2*%
%TO.N,GND*%
X215712500Y-77485000D03*
%TD*%
%TO.P,C7,1*%
%TO.N,+3.3V*%
X212572500Y-75865000D03*
%TO.P,C7,2*%
%TO.N,GND*%
X212572500Y-77415000D03*
%TD*%
D13*
%TO.P,R32,1*%
%TO.N,Net-(Q1-G)*%
X153672500Y-191240000D03*
%TO.P,R32,2*%
%TO.N,/GPIO*%
X153672500Y-190220000D03*
%TD*%
D14*
%TO.P,Q13,1,G_1*%
%TO.N,Net-(Q1-G)*%
X30392500Y-257340000D03*
%TO.P,Q13,2,S_2*%
%TO.N,+3.3V*%
X30392500Y-259240000D03*
%TO.P,Q13,3,D_3*%
%TO.N,Net-(Q1-D)*%
X32267500Y-258290000D03*
%TD*%
D12*
%TO.P,R21,1*%
%TO.N,Net-(Q1-G)*%
X150332500Y-133900000D03*
%TO.P,R21,2*%
%TO.N,+3.3V*%
X150332500Y-134920000D03*
%TD*%
D13*
%TO.P,R25,1*%
%TO.N,Net-(Q1-D)*%
X36690000Y-196320000D03*
%TO.P,R25,2*%
%TO.N,Net-(L1-Pad1)*%
X36690000Y-195300000D03*
%TD*%
D15*
%TO.P,L4,1,1_1*%
%TO.N,unconnected-(L2-Pad1)*%
X125572500Y-66600000D03*
%TO.P,L4,2,2_2*%
%TO.N,GND*%
X127147500Y-66600000D03*
%TD*%
%TO.P,L13,1,1_1*%
%TO.N,Net-(L1-Pad1)*%
X171972500Y-128420000D03*
%TO.P,L13,2,2_2*%
%TO.N,unconnected-(L1-Pad2)*%
X173547500Y-128420000D03*
%TD*%
D14*
%TO.P,Q3,1,G_1*%
%TO.N,Net-(Q1-G)*%
X154392500Y-71340000D03*
%TO.P,Q3,2,S_2*%
%TO.N,+3.3V*%
X154392500Y-73240000D03*
%TO.P,Q3,3,D_3*%
%TO.N,Net-(Q1-D)*%
X156267500Y-72290000D03*
%TD*%
D13*
%TO.P,R40,1*%
%TO.N,Net-(Q1-D)*%
X98690000Y-258320000D03*
%TO.P,R40,2*%
%TO.N,Net-(L1-Pad1)*%
X98690000Y-257300000D03*
%TD*%
%TO.P,R20,1*%
%TO.N,Net-(Q1-G)*%
X153672500Y-129240000D03*
%TO.P,R20,2*%
%TO.N,/GPIO*%
X153672500Y-128220000D03*
%TD*%
D15*
%TO.P,L6,1,1_1*%
%TO.N,unconnected-(L2-Pad1)*%
X187572500Y-66600000D03*
%TO.P,L6,2,2_2*%
%TO.N,GND*%
X189147500Y-66600000D03*
%TD*%
D11*
%TO.P,C23,1*%
%TO.N,+3.3V*%
X212572500Y-199865000D03*
%TO.P,C23,2*%
%TO.N,GND*%
X212572500Y-201415000D03*
%TD*%
D12*
%TO.P,R39,1*%
%TO.N,Net-(Q1-G)*%
X26332500Y-257900000D03*
%TO.P,R39,2*%
%TO.N,+3.3V*%
X26332500Y-258920000D03*
%TD*%
D11*
%TO.P,C26,1*%
%TO.N,+3.3V*%
X29712500Y-261935000D03*
%TO.P,C26,2*%
%TO.N,GND*%
X29712500Y-263485000D03*
%TD*%
%TO.P,C12,1*%
%TO.N,+3.3V*%
X91712500Y-137935000D03*
%TO.P,C12,2*%
%TO.N,GND*%
X91712500Y-139485000D03*
%TD*%
%TO.P,C10,1*%
%TO.N,+3.3V*%
X29712500Y-137935000D03*
%TO.P,C10,2*%
%TO.N,GND*%
X29712500Y-139485000D03*
%TD*%
D15*
%TO.P,L10,1,1_1*%
%TO.N,unconnected-(L2-Pad1)*%
X63572500Y-128600000D03*
%TO.P,L10,2,2_2*%
%TO.N,GND*%
X65147500Y-128600000D03*
%TD*%
D14*
%TO.P,Q5,1,G_1*%
%TO.N,Net-(Q1-G)*%
X30392500Y-133340000D03*
%TO.P,Q5,2,S_2*%
%TO.N,+3.3V*%
X30392500Y-135240000D03*
%TO.P,Q5,3,D_3*%
%TO.N,Net-(Q1-D)*%
X32267500Y-134290000D03*
%TD*%
D13*
%TO.P,R22,1*%
%TO.N,Net-(Q1-D)*%
X222690000Y-134320000D03*
%TO.P,R22,2*%
%TO.N,Net-(L1-Pad1)*%
X222690000Y-133300000D03*
%TD*%
D12*
%TO.P,R30,1*%
%TO.N,Net-(Q1-G)*%
X88332500Y-195900000D03*
%TO.P,R30,2*%
%TO.N,+3.3V*%
X88332500Y-196920000D03*
%TD*%
D11*
%TO.P,C16,1*%
%TO.N,+3.3V*%
X215712500Y-137935000D03*
%TO.P,C16,2*%
%TO.N,GND*%
X215712500Y-139485000D03*
%TD*%
D13*
%TO.P,R13,1*%
%TO.N,Net-(Q1-D)*%
X36690000Y-134320000D03*
%TO.P,R13,2*%
%TO.N,Net-(L1-Pad1)*%
X36690000Y-133300000D03*
%TD*%
D11*
%TO.P,C32,1*%
%TO.N,+3.3V*%
X215712500Y-261935000D03*
%TO.P,C32,2*%
%TO.N,GND*%
X215712500Y-263485000D03*
%TD*%
D15*
%TO.P,L3,1,1_1*%
%TO.N,Net-(L1-Pad1)*%
X109972500Y-66420000D03*
%TO.P,L3,2,2_2*%
%TO.N,unconnected-(L1-Pad2)*%
X111547500Y-66420000D03*
%TD*%
%TO.P,L12,1,1_1*%
%TO.N,unconnected-(L2-Pad1)*%
X125572500Y-128600000D03*
%TO.P,L12,2,2_2*%
%TO.N,GND*%
X127147500Y-128600000D03*
%TD*%
D11*
%TO.P,C27,1*%
%TO.N,+3.3V*%
X88572500Y-261865000D03*
%TO.P,C27,2*%
%TO.N,GND*%
X88572500Y-263415000D03*
%TD*%
%TO.P,C15,1*%
%TO.N,+3.3V*%
X212572500Y-137865000D03*
%TO.P,C15,2*%
%TO.N,GND*%
X212572500Y-139415000D03*
%TD*%
D13*
%TO.P,R43,1*%
%TO.N,Net-(Q1-D)*%
X160690000Y-258320000D03*
%TO.P,R43,2*%
%TO.N,Net-(L1-Pad1)*%
X160690000Y-257300000D03*
%TD*%
%TO.P,R8,1*%
%TO.N,Net-(Q1-G)*%
X153672500Y-67240000D03*
%TO.P,R8,2*%
%TO.N,/GPIO*%
X153672500Y-66220000D03*
%TD*%
%TO.P,R46,1*%
%TO.N,Net-(Q1-D)*%
X222690000Y-258320000D03*
%TO.P,R46,2*%
%TO.N,Net-(L1-Pad1)*%
X222690000Y-257300000D03*
%TD*%
D15*
%TO.P,L11,1,1_1*%
%TO.N,Net-(L1-Pad1)*%
X109972500Y-128420000D03*
%TO.P,L11,2,2_2*%
%TO.N,unconnected-(L1-Pad2)*%
X111547500Y-128420000D03*
%TD*%
D13*
%TO.P,R47,1*%
%TO.N,Net-(Q1-G)*%
X215672500Y-253240000D03*
%TO.P,R47,2*%
%TO.N,/GPIO*%
X215672500Y-252220000D03*
%TD*%
D12*
%TO.P,R3,1*%
%TO.N,Net-(Q1-G)*%
X26332500Y-71900000D03*
%TO.P,R3,2*%
%TO.N,+3.3V*%
X26332500Y-72920000D03*
%TD*%
D15*
%TO.P,L9,1,1_1*%
%TO.N,Net-(L1-Pad1)*%
X47972500Y-128420000D03*
%TO.P,L9,2,2_2*%
%TO.N,unconnected-(L1-Pad2)*%
X49547500Y-128420000D03*
%TD*%
D14*
%TO.P,Q14,1,G_1*%
%TO.N,Net-(Q1-G)*%
X92392500Y-257340000D03*
%TO.P,Q14,2,S_2*%
%TO.N,+3.3V*%
X92392500Y-259240000D03*
%TO.P,Q14,3,D_3*%
%TO.N,Net-(Q1-D)*%
X94267500Y-258290000D03*
%TD*%
D11*
%TO.P,C4,1*%
%TO.N,+3.3V*%
X91712500Y-75935000D03*
%TO.P,C4,2*%
%TO.N,GND*%
X91712500Y-77485000D03*
%TD*%
D15*
%TO.P,L23,1,1_1*%
%TO.N,Net-(L1-Pad1)*%
X233972500Y-190420000D03*
%TO.P,L23,2,2_2*%
%TO.N,unconnected-(L1-Pad2)*%
X235547500Y-190420000D03*
%TD*%
D14*
%TO.P,Q2,1,G_1*%
%TO.N,Net-(Q1-G)*%
X92392500Y-71340000D03*
%TO.P,Q2,2,S_2*%
%TO.N,+3.3V*%
X92392500Y-73240000D03*
%TO.P,Q2,3,D_3*%
%TO.N,Net-(Q1-D)*%
X94267500Y-72290000D03*
%TD*%
D15*
%TO.P,L31,1,1_1*%
%TO.N,Net-(L1-Pad1)*%
X233972500Y-252420000D03*
%TO.P,L31,2,2_2*%
%TO.N,unconnected-(L1-Pad2)*%
X235547500Y-252420000D03*
%TD*%
D11*
%TO.P,C17,1*%
%TO.N,+3.3V*%
X26572500Y-199865000D03*
%TO.P,C17,2*%
%TO.N,GND*%
X26572500Y-201415000D03*
%TD*%
%TO.P,C18,1*%
%TO.N,+3.3V*%
X29712500Y-199935000D03*
%TO.P,C18,2*%
%TO.N,GND*%
X29712500Y-201485000D03*
%TD*%
D13*
%TO.P,R31,1*%
%TO.N,Net-(Q1-D)*%
X160690000Y-196320000D03*
%TO.P,R31,2*%
%TO.N,Net-(L1-Pad1)*%
X160690000Y-195300000D03*
%TD*%
D11*
%TO.P,C14,1*%
%TO.N,+3.3V*%
X153712500Y-137935000D03*
%TO.P,C14,2*%
%TO.N,GND*%
X153712500Y-139485000D03*
%TD*%
D15*
%TO.P,L26,1,1_1*%
%TO.N,unconnected-(L2-Pad1)*%
X63572500Y-252600000D03*
%TO.P,L26,2,2_2*%
%TO.N,GND*%
X65147500Y-252600000D03*
%TD*%
D13*
%TO.P,R44,1*%
%TO.N,Net-(Q1-G)*%
X153672500Y-253240000D03*
%TO.P,R44,2*%
%TO.N,/GPIO*%
X153672500Y-252220000D03*
%TD*%
D15*
%TO.P,L32,1,1_1*%
%TO.N,unconnected-(L2-Pad1)*%
X249572500Y-252600000D03*
%TO.P,L32,2,2_2*%
%TO.N,GND*%
X251147500Y-252600000D03*
%TD*%
D14*
%TO.P,Q4,1,G_1*%
%TO.N,Net-(Q1-G)*%
X216392500Y-71340000D03*
%TO.P,Q4,2,S_2*%
%TO.N,+3.3V*%
X216392500Y-73240000D03*
%TO.P,Q4,3,D_3*%
%TO.N,Net-(Q1-D)*%
X218267500Y-72290000D03*
%TD*%
D12*
%TO.P,R18,1*%
%TO.N,Net-(Q1-G)*%
X88332500Y-133900000D03*
%TO.P,R18,2*%
%TO.N,+3.3V*%
X88332500Y-134920000D03*
%TD*%
D15*
%TO.P,L25,1,1_1*%
%TO.N,Net-(L1-Pad1)*%
X47972500Y-252420000D03*
%TO.P,L25,2,2_2*%
%TO.N,unconnected-(L1-Pad2)*%
X49547500Y-252420000D03*
%TD*%
D13*
%TO.P,R37,1*%
%TO.N,Net-(Q1-D)*%
X36690000Y-258320000D03*
%TO.P,R37,2*%
%TO.N,Net-(L1-Pad1)*%
X36690000Y-257300000D03*
%TD*%
D15*
%TO.P,L8,1,1_1*%
%TO.N,unconnected-(L2-Pad1)*%
X249572500Y-66600000D03*
%TO.P,L8,2,2_2*%
%TO.N,GND*%
X251147500Y-66600000D03*
%TD*%
%TO.P,L27,1,1_1*%
%TO.N,Net-(L1-Pad1)*%
X109972500Y-252420000D03*
%TO.P,L27,2,2_2*%
%TO.N,unconnected-(L1-Pad2)*%
X111547500Y-252420000D03*
%TD*%
%TO.P,L20,1,1_1*%
%TO.N,unconnected-(L2-Pad1)*%
X125572500Y-190600000D03*
%TO.P,L20,2,2_2*%
%TO.N,GND*%
X127147500Y-190600000D03*
%TD*%
D11*
%TO.P,C22,1*%
%TO.N,+3.3V*%
X153712500Y-199935000D03*
%TO.P,C22,2*%
%TO.N,GND*%
X153712500Y-201485000D03*
%TD*%
D13*
%TO.P,R4,1*%
%TO.N,Net-(Q1-D)*%
X98690000Y-72320000D03*
%TO.P,R4,2*%
%TO.N,Net-(L1-Pad1)*%
X98690000Y-71300000D03*
%TD*%
D15*
%TO.P,L29,1,1_1*%
%TO.N,Net-(L1-Pad1)*%
X171972500Y-252420000D03*
%TO.P,L29,2,2_2*%
%TO.N,unconnected-(L1-Pad2)*%
X173547500Y-252420000D03*
%TD*%
D13*
%TO.P,R28,1*%
%TO.N,Net-(Q1-D)*%
X98690000Y-196320000D03*
%TO.P,R28,2*%
%TO.N,Net-(L1-Pad1)*%
X98690000Y-195300000D03*
%TD*%
D12*
%TO.P,R12,1*%
%TO.N,Net-(Q1-G)*%
X212332500Y-71900000D03*
%TO.P,R12,2*%
%TO.N,+3.3V*%
X212332500Y-72920000D03*
%TD*%
%TO.P,R48,1*%
%TO.N,Net-(Q1-G)*%
X212332500Y-257900000D03*
%TO.P,R48,2*%
%TO.N,+3.3V*%
X212332500Y-258920000D03*
%TD*%
%TO.P,R36,1*%
%TO.N,Net-(Q1-G)*%
X212332500Y-195900000D03*
%TO.P,R36,2*%
%TO.N,+3.3V*%
X212332500Y-196920000D03*
%TD*%
D14*
%TO.P,Q15,1,G_1*%
%TO.N,Net-(Q1-G)*%
X154392500Y-257340000D03*
%TO.P,Q15,2,S_2*%
%TO.N,+3.3V*%
X154392500Y-259240000D03*
%TO.P,Q15,3,D_3*%
%TO.N,Net-(Q1-D)*%
X156267500Y-258290000D03*
%TD*%
D12*
%TO.P,R45,1*%
%TO.N,Net-(Q1-G)*%
X150332500Y-257900000D03*
%TO.P,R45,2*%
%TO.N,+3.3V*%
X150332500Y-258920000D03*
%TD*%
D13*
%TO.P,R2,1*%
%TO.N,Net-(Q1-G)*%
X29672500Y-67240000D03*
%TO.P,R2,2*%
%TO.N,/GPIO*%
X29672500Y-66220000D03*
%TD*%
D15*
%TO.P,L15,1,1_1*%
%TO.N,Net-(L1-Pad1)*%
X233972500Y-128420000D03*
%TO.P,L15,2,2_2*%
%TO.N,unconnected-(L1-Pad2)*%
X235547500Y-128420000D03*
%TD*%
D14*
%TO.P,Q12,1,G_1*%
%TO.N,Net-(Q1-G)*%
X216392500Y-195340000D03*
%TO.P,Q12,2,S_2*%
%TO.N,+3.3V*%
X216392500Y-197240000D03*
%TO.P,Q12,3,D_3*%
%TO.N,Net-(Q1-D)*%
X218267500Y-196290000D03*
%TD*%
D15*
%TO.P,L28,1,1_1*%
%TO.N,unconnected-(L2-Pad1)*%
X125572500Y-252600000D03*
%TO.P,L28,2,2_2*%
%TO.N,GND*%
X127147500Y-252600000D03*
%TD*%
D11*
%TO.P,C9,1*%
%TO.N,+3.3V*%
X26572500Y-137865000D03*
%TO.P,C9,2*%
%TO.N,GND*%
X26572500Y-139415000D03*
%TD*%
D15*
%TO.P,L19,1,1_1*%
%TO.N,Net-(L1-Pad1)*%
X109972500Y-190420000D03*
%TO.P,L19,2,2_2*%
%TO.N,unconnected-(L1-Pad2)*%
X111547500Y-190420000D03*
%TD*%
D14*
%TO.P,Q6,1,G_1*%
%TO.N,Net-(Q1-G)*%
X92392500Y-133340000D03*
%TO.P,Q6,2,S_2*%
%TO.N,+3.3V*%
X92392500Y-135240000D03*
%TO.P,Q6,3,D_3*%
%TO.N,Net-(Q1-D)*%
X94267500Y-134290000D03*
%TD*%
D15*
%TO.P,L16,1,1_1*%
%TO.N,unconnected-(L2-Pad1)*%
X249572500Y-128600000D03*
%TO.P,L16,2,2_2*%
%TO.N,GND*%
X251147500Y-128600000D03*
%TD*%
D12*
%TO.P,R42,1*%
%TO.N,Net-(Q1-G)*%
X88332500Y-257900000D03*
%TO.P,R42,2*%
%TO.N,+3.3V*%
X88332500Y-258920000D03*
%TD*%
D15*
%TO.P,L24,1,1_1*%
%TO.N,unconnected-(L2-Pad1)*%
X249572500Y-190600000D03*
%TO.P,L24,2,2_2*%
%TO.N,GND*%
X251147500Y-190600000D03*
%TD*%
D11*
%TO.P,C3,1*%
%TO.N,+3.3V*%
X88572500Y-75865000D03*
%TO.P,C3,2*%
%TO.N,GND*%
X88572500Y-77415000D03*
%TD*%
D13*
%TO.P,R26,1*%
%TO.N,Net-(Q1-G)*%
X29672500Y-191240000D03*
%TO.P,R26,2*%
%TO.N,/GPIO*%
X29672500Y-190220000D03*
%TD*%
D11*
%TO.P,C1,1*%
%TO.N,+3.3V*%
X26572500Y-75865000D03*
%TO.P,C1,2*%
%TO.N,GND*%
X26572500Y-77415000D03*
%TD*%
%TO.P,C2,1*%
%TO.N,+3.3V*%
X29712500Y-75935000D03*
%TO.P,C2,2*%
%TO.N,GND*%
X29712500Y-77485000D03*
%TD*%
D12*
%TO.P,R33,1*%
%TO.N,Net-(Q1-G)*%
X150332500Y-195900000D03*
%TO.P,R33,2*%
%TO.N,+3.3V*%
X150332500Y-196920000D03*
%TD*%
D15*
%TO.P,L14,1,1_1*%
%TO.N,unconnected-(L2-Pad1)*%
X187572500Y-128600000D03*
%TO.P,L14,2,2_2*%
%TO.N,GND*%
X189147500Y-128600000D03*
%TD*%
D13*
%TO.P,R11,1*%
%TO.N,Net-(Q1-G)*%
X215672500Y-67240000D03*
%TO.P,R11,2*%
%TO.N,/GPIO*%
X215672500Y-66220000D03*
%TD*%
%TO.P,R41,1*%
%TO.N,Net-(Q1-G)*%
X91672500Y-253240000D03*
%TO.P,R41,2*%
%TO.N,/GPIO*%
X91672500Y-252220000D03*
%TD*%
%TO.P,R19,1*%
%TO.N,Net-(Q1-D)*%
X160690000Y-134320000D03*
%TO.P,R19,2*%
%TO.N,Net-(L1-Pad1)*%
X160690000Y-133300000D03*
%TD*%
%TO.P,R10,1*%
%TO.N,Net-(Q1-D)*%
X222690000Y-72320000D03*
%TO.P,R10,2*%
%TO.N,Net-(L1-Pad1)*%
X222690000Y-71300000D03*
%TD*%
D14*
%TO.P,Q1,1,G_1*%
%TO.N,Net-(Q1-G)*%
X30392500Y-71340000D03*
%TO.P,Q1,2,S_2*%
%TO.N,+3.3V*%
X30392500Y-73240000D03*
%TO.P,Q1,3,D_3*%
%TO.N,Net-(Q1-D)*%
X32267500Y-72290000D03*
%TD*%
D15*
%TO.P,L1,1,1_1*%
%TO.N,Net-(L1-Pad1)*%
X47972500Y-66420000D03*
%TO.P,L1,2,2_2*%
%TO.N,unconnected-(L1-Pad2)*%
X49547500Y-66420000D03*
%TD*%
D14*
%TO.P,Q7,1,G_1*%
%TO.N,Net-(Q1-G)*%
X154392500Y-133340000D03*
%TO.P,Q7,2,S_2*%
%TO.N,+3.3V*%
X154392500Y-135240000D03*
%TO.P,Q7,3,D_3*%
%TO.N,Net-(Q1-D)*%
X156267500Y-134290000D03*
%TD*%
D12*
%TO.P,R6,1*%
%TO.N,Net-(Q1-G)*%
X88332500Y-71900000D03*
%TO.P,R6,2*%
%TO.N,+3.3V*%
X88332500Y-72920000D03*
%TD*%
D11*
%TO.P,C30,1*%
%TO.N,+3.3V*%
X153712500Y-261935000D03*
%TO.P,C30,2*%
%TO.N,GND*%
X153712500Y-263485000D03*
%TD*%
%TO.P,C5,1*%
%TO.N,+3.3V*%
X150572500Y-75865000D03*
%TO.P,C5,2*%
%TO.N,GND*%
X150572500Y-77415000D03*
%TD*%
D14*
%TO.P,Q11,1,G_1*%
%TO.N,Net-(Q1-G)*%
X154392500Y-195340000D03*
%TO.P,Q11,2,S_2*%
%TO.N,+3.3V*%
X154392500Y-197240000D03*
%TO.P,Q11,3,D_3*%
%TO.N,Net-(Q1-D)*%
X156267500Y-196290000D03*
%TD*%
D11*
%TO.P,C31,1*%
%TO.N,+3.3V*%
X212572500Y-261865000D03*
%TO.P,C31,2*%
%TO.N,GND*%
X212572500Y-263415000D03*
%TD*%
D15*
%TO.P,L18,1,1_1*%
%TO.N,unconnected-(L2-Pad1)*%
X63572500Y-190600000D03*
%TO.P,L18,2,2_2*%
%TO.N,GND*%
X65147500Y-190600000D03*
%TD*%
D13*
%TO.P,R7,1*%
%TO.N,Net-(Q1-D)*%
X160690000Y-72320000D03*
%TO.P,R7,2*%
%TO.N,Net-(L1-Pad1)*%
X160690000Y-71300000D03*
%TD*%
D14*
%TO.P,Q16,1,G_1*%
%TO.N,Net-(Q1-G)*%
X216392500Y-257340000D03*
%TO.P,Q16,2,S_2*%
%TO.N,+3.3V*%
X216392500Y-259240000D03*
%TO.P,Q16,3,D_3*%
%TO.N,Net-(Q1-D)*%
X218267500Y-258290000D03*
%TD*%
D15*
%TO.P,L21,1,1_1*%
%TO.N,Net-(L1-Pad1)*%
X171972500Y-190420000D03*
%TO.P,L21,2,2_2*%
%TO.N,unconnected-(L1-Pad2)*%
X173547500Y-190420000D03*
%TD*%
%TO.P,L17,1,1_1*%
%TO.N,Net-(L1-Pad1)*%
X47972500Y-190420000D03*
%TO.P,L17,2,2_2*%
%TO.N,unconnected-(L1-Pad2)*%
X49547500Y-190420000D03*
%TD*%
D14*
%TO.P,Q8,1,G_1*%
%TO.N,Net-(Q1-G)*%
X216392500Y-133340000D03*
%TO.P,Q8,2,S_2*%
%TO.N,+3.3V*%
X216392500Y-135240000D03*
%TO.P,Q8,3,D_3*%
%TO.N,Net-(Q1-D)*%
X218267500Y-134290000D03*
%TD*%
D13*
%TO.P,R29,1*%
%TO.N,Net-(Q1-G)*%
X91672500Y-191240000D03*
%TO.P,R29,2*%
%TO.N,/GPIO*%
X91672500Y-190220000D03*
%TD*%
%TO.P,R38,1*%
%TO.N,Net-(Q1-G)*%
X29672500Y-253240000D03*
%TO.P,R38,2*%
%TO.N,/GPIO*%
X29672500Y-252220000D03*
%TD*%
D15*
%TO.P,L7,1,1_1*%
%TO.N,Net-(L1-Pad1)*%
X233972500Y-66420000D03*
%TO.P,L7,2,2_2*%
%TO.N,unconnected-(L1-Pad2)*%
X235547500Y-66420000D03*
%TD*%
%TO.P,L5,1,1_1*%
%TO.N,Net-(L1-Pad1)*%
X171972500Y-66420000D03*
%TO.P,L5,2,2_2*%
%TO.N,unconnected-(L1-Pad2)*%
X173547500Y-66420000D03*
%TD*%
D11*
%TO.P,C24,1*%
%TO.N,+3.3V*%
X215712500Y-199935000D03*
%TO.P,C24,2*%
%TO.N,GND*%
X215712500Y-201485000D03*
%TD*%
D13*
%TO.P,R17,1*%
%TO.N,Net-(Q1-G)*%
X91672500Y-129240000D03*
%TO.P,R17,2*%
%TO.N,/GPIO*%
X91672500Y-128220000D03*
%TD*%
D11*
%TO.P,C11,1*%
%TO.N,+3.3V*%
X88572500Y-137865000D03*
%TO.P,C11,2*%
%TO.N,GND*%
X88572500Y-139415000D03*
%TD*%
D14*
%TO.P,Q9,1,G_1*%
%TO.N,Net-(Q1-G)*%
X30392500Y-195340000D03*
%TO.P,Q9,2,S_2*%
%TO.N,+3.3V*%
X30392500Y-197240000D03*
%TO.P,Q9,3,D_3*%
%TO.N,Net-(Q1-D)*%
X32267500Y-196290000D03*
%TD*%
D11*
%TO.P,C13,1*%
%TO.N,+3.3V*%
X150572500Y-137865000D03*
%TO.P,C13,2*%
%TO.N,GND*%
X150572500Y-139415000D03*
%TD*%
%TO.P,C25,1*%
%TO.N,+3.3V*%
X26572500Y-261865000D03*
%TO.P,C25,2*%
%TO.N,GND*%
X26572500Y-263415000D03*
%TD*%
D12*
%TO.P,R24,1*%
%TO.N,Net-(Q1-G)*%
X212332500Y-133900000D03*
%TO.P,R24,2*%
%TO.N,+3.3V*%
X212332500Y-134920000D03*
%TD*%
D13*
%TO.P,R5,1*%
%TO.N,Net-(Q1-G)*%
X91672500Y-67240000D03*
%TO.P,R5,2*%
%TO.N,/GPIO*%
X91672500Y-66220000D03*
%TD*%
D11*
%TO.P,C28,1*%
%TO.N,+3.3V*%
X91712500Y-261935000D03*
%TO.P,C28,2*%
%TO.N,GND*%
X91712500Y-263485000D03*
%TD*%
%TO.P,C6,1*%
%TO.N,+3.3V*%
X153712500Y-75935000D03*
%TO.P,C6,2*%
%TO.N,GND*%
X153712500Y-77485000D03*
%TD*%
D13*
%TO.P,R35,1*%
%TO.N,Net-(Q1-G)*%
X215672500Y-191240000D03*
%TO.P,R35,2*%
%TO.N,/GPIO*%
X215672500Y-190220000D03*
%TD*%
D11*
%TO.P,C20,1*%
%TO.N,+3.3V*%
X91712500Y-199935000D03*
%TO.P,C20,2*%
%TO.N,GND*%
X91712500Y-201485000D03*
%TD*%
D15*
%TO.P,L2,1,1_1*%
%TO.N,unconnected-(L2-Pad1)*%
X63572500Y-66600000D03*
%TO.P,L2,2,2_2*%
%TO.N,GND*%
X65147500Y-66600000D03*
%TD*%
D13*
%TO.P,R14,1*%
%TO.N,Net-(Q1-G)*%
X29672500Y-129240000D03*
%TO.P,R14,2*%
%TO.N,/GPIO*%
X29672500Y-128220000D03*
%TD*%
D12*
%TO.P,R15,1*%
%TO.N,Net-(Q1-G)*%
X26332500Y-133900000D03*
%TO.P,R15,2*%
%TO.N,+3.3V*%
X26332500Y-134920000D03*
%TD*%
D15*
%TO.P,L22,1,1_1*%
%TO.N,unconnected-(L2-Pad1)*%
X187572500Y-190600000D03*
%TO.P,L22,2,2_2*%
%TO.N,GND*%
X189147500Y-190600000D03*
%TD*%
D13*
%TO.P,R23,1*%
%TO.N,Net-(Q1-G)*%
X215672500Y-129240000D03*
%TO.P,R23,2*%
%TO.N,/GPIO*%
X215672500Y-128220000D03*
%TD*%
D11*
%TO.P,C21,1*%
%TO.N,+3.3V*%
X150572500Y-199865000D03*
%TO.P,C21,2*%
%TO.N,GND*%
X150572500Y-201415000D03*
%TD*%
D12*
%TO.P,R9,1*%
%TO.N,Net-(Q1-G)*%
X150332500Y-71900000D03*
%TO.P,R9,2*%
%TO.N,+3.3V*%
X150332500Y-72920000D03*
%TD*%
D13*
%TO.P,R16,1*%
%TO.N,Net-(Q1-D)*%
X98690000Y-134320000D03*
%TO.P,R16,2*%
%TO.N,Net-(L1-Pad1)*%
X98690000Y-133300000D03*
%TD*%
D14*
%TO.P,Q10,1,G_1*%
%TO.N,Net-(Q1-G)*%
X92392500Y-195340000D03*
%TO.P,Q10,2,S_2*%
%TO.N,+3.3V*%
X92392500Y-197240000D03*
%TO.P,Q10,3,D_3*%
%TO.N,Net-(Q1-D)*%
X94267500Y-196290000D03*
%TD*%
D15*
%TO.P,L30,1,1_1*%
%TO.N,unconnected-(L2-Pad1)*%
X187572500Y-252600000D03*
%TO.P,L30,2,2_2*%
%TO.N,GND*%
X189147500Y-252600000D03*
%TD*%
D13*
%TO.P,R34,1*%
%TO.N,Net-(Q1-D)*%
X222690000Y-196320000D03*
%TO.P,R34,2*%
%TO.N,Net-(L1-Pad1)*%
X222690000Y-195300000D03*
%TD*%
%TO.P,R1,1*%
%TO.N,Net-(Q1-D)*%
X36690000Y-72320000D03*
%TO.P,R1,2*%
%TO.N,Net-(L1-Pad1)*%
X36690000Y-71300000D03*
%TD*%
D16*
%TO.N,GND*%
X214140000Y-203370000D03*
X261710000Y-136000000D03*
X214140000Y-265370000D03*
X28140000Y-141370000D03*
X152140000Y-265370000D03*
X75710000Y-198000000D03*
X90140000Y-203370000D03*
X90140000Y-141370000D03*
X152140000Y-79370000D03*
X199710000Y-260000000D03*
X152140000Y-203370000D03*
X261710000Y-260000000D03*
X90140000Y-265370000D03*
X75710000Y-260000000D03*
X261710000Y-198000000D03*
X75710000Y-136000000D03*
X199710000Y-136000000D03*
X137710000Y-198000000D03*
X261710000Y-74000000D03*
X75710000Y-74000000D03*
X28140000Y-265370000D03*
X137710000Y-136000000D03*
X199710000Y-74000000D03*
X199710000Y-198000000D03*
X90140000Y-79370000D03*
X28140000Y-203370000D03*
X214140000Y-79370000D03*
X152140000Y-141370000D03*
X137710000Y-74000000D03*
X28140000Y-79370000D03*
X137710000Y-260000000D03*
X214140000Y-141370000D03*
%TD*%
%TO.N,+3.3V*%
D17*
X208340000Y-82780000D02*
X208340000Y-73120000D01*
X144880000Y-72870000D02*
X144880000Y-82660000D01*
X91712500Y-135920000D02*
X92392500Y-135240000D01*
X29712500Y-260440000D02*
X29712500Y-259920000D01*
X153712500Y-198440000D02*
X153712500Y-197920000D01*
X5940000Y-258870000D02*
X5940000Y-271530000D01*
X26572500Y-199865000D02*
X26572500Y-198430000D01*
X83430000Y-82830000D02*
X5970000Y-82830000D01*
X144180000Y-210140000D02*
X206250000Y-210140000D01*
X88572500Y-73160000D02*
X88332500Y-72920000D01*
X144180000Y-197470000D02*
X144180000Y-210140000D01*
X144490000Y-258920000D02*
X144490000Y-271565000D01*
X88572500Y-198430000D02*
X91702500Y-198430000D01*
X29712500Y-198440000D02*
X29712500Y-197920000D01*
X153712500Y-74440000D02*
X153712500Y-73920000D01*
X88572500Y-261865000D02*
X88572500Y-260430000D01*
X153712500Y-199935000D02*
X153712500Y-198440000D01*
X29712500Y-261935000D02*
X29712500Y-260440000D01*
X10850000Y-210080000D02*
X10910000Y-210140000D01*
X215712500Y-73920000D02*
X216392500Y-73240000D01*
X26572500Y-198430000D02*
X26572500Y-197160000D01*
X88572500Y-74430000D02*
X88572500Y-73160000D01*
X212572500Y-136430000D02*
X212572500Y-135160000D01*
X153702500Y-74430000D02*
X153712500Y-74440000D01*
X208340000Y-73120000D02*
X208270000Y-73050000D01*
X212572500Y-261865000D02*
X212572500Y-260430000D01*
X26572500Y-136430000D02*
X26572500Y-135160000D01*
X153712500Y-261935000D02*
X153712500Y-260440000D01*
X150572500Y-198430000D02*
X153702500Y-198430000D01*
X26572500Y-197160000D02*
X26332500Y-196920000D01*
X212572500Y-75865000D02*
X212572500Y-74430000D01*
X82930000Y-271565000D02*
X5975000Y-271565000D01*
X5940000Y-134940000D02*
X5940000Y-146380000D01*
X150332500Y-258920000D02*
X144490000Y-258920000D01*
X91692500Y-75915000D02*
X91712500Y-75935000D01*
X144750000Y-196920000D02*
X144740000Y-196910000D01*
X83440000Y-82820000D02*
X83430000Y-82830000D01*
X150572500Y-137865000D02*
X150572500Y-136430000D01*
X150572500Y-259160000D02*
X150332500Y-258920000D01*
X91712500Y-198440000D02*
X91712500Y-197920000D01*
X26572500Y-137865000D02*
X26572500Y-136430000D01*
X5950000Y-196920000D02*
X5940000Y-196930000D01*
X26572500Y-135160000D02*
X26332500Y-134920000D01*
X206260000Y-135190000D02*
X206530000Y-134920000D01*
X5940000Y-196930000D02*
X5940000Y-210080000D01*
X206250000Y-210140000D02*
X206260000Y-210130000D01*
X29702500Y-198430000D02*
X29712500Y-198440000D01*
X150572500Y-199865000D02*
X150572500Y-198430000D01*
X150572500Y-73160000D02*
X150332500Y-72920000D01*
X88332500Y-258920000D02*
X82890000Y-258920000D01*
X82890000Y-258920000D02*
X82870000Y-258900000D01*
X150572500Y-261865000D02*
X150572500Y-260430000D01*
X29692500Y-75915000D02*
X29712500Y-75935000D01*
X215712500Y-197920000D02*
X216392500Y-197240000D01*
X82870000Y-271505000D02*
X82930000Y-271565000D01*
X150572500Y-136430000D02*
X150572500Y-135160000D01*
X212572500Y-136430000D02*
X215702500Y-136430000D01*
X91692500Y-261915000D02*
X91712500Y-261935000D01*
X215712500Y-74440000D02*
X215712500Y-73920000D01*
X83440000Y-72880000D02*
X83440000Y-82730000D01*
X5975000Y-271565000D02*
X6590000Y-272180000D01*
X26572500Y-73160000D02*
X26332500Y-72920000D01*
X83480000Y-72920000D02*
X83440000Y-72880000D01*
X206260000Y-271250000D02*
X205945000Y-271565000D01*
X153712500Y-259920000D02*
X154392500Y-259240000D01*
X91712500Y-260440000D02*
X91712500Y-259920000D01*
X206530000Y-134920000D02*
X212332500Y-134920000D01*
X83140000Y-134890000D02*
X83140000Y-146390000D01*
X150572500Y-260430000D02*
X153702500Y-260430000D01*
X215712500Y-135920000D02*
X216392500Y-135240000D01*
X91712500Y-75935000D02*
X91712500Y-74440000D01*
X215692500Y-75915000D02*
X215712500Y-75935000D01*
X153712500Y-136440000D02*
X153712500Y-135920000D01*
X150572500Y-75865000D02*
X150572500Y-74430000D01*
X150572500Y-198430000D02*
X150572500Y-197160000D01*
X29712500Y-135920000D02*
X30392500Y-135240000D01*
X91712500Y-199935000D02*
X91712500Y-198440000D01*
X212572500Y-197160000D02*
X212332500Y-196920000D01*
X5940000Y-82800000D02*
X5940000Y-72980000D01*
X91702500Y-260430000D02*
X91712500Y-260440000D01*
X26332500Y-258920000D02*
X5990000Y-258920000D01*
X26572500Y-261865000D02*
X26572500Y-260430000D01*
X208270000Y-73050000D02*
X208400000Y-72920000D01*
X153712500Y-135920000D02*
X154392500Y-135240000D01*
X212572500Y-74430000D02*
X215702500Y-74430000D01*
X88332500Y-134920000D02*
X83170000Y-134920000D01*
X5960000Y-134920000D02*
X5940000Y-134940000D01*
X153702500Y-260430000D02*
X153712500Y-260440000D01*
X29712500Y-259920000D02*
X30392500Y-259240000D01*
X208290000Y-82730000D02*
X208340000Y-82780000D01*
X144740000Y-196910000D02*
X144180000Y-197470000D01*
X215712500Y-260440000D02*
X215712500Y-259920000D01*
X83140000Y-146390000D02*
X5950000Y-146390000D01*
X215702500Y-260430000D02*
X215712500Y-260440000D01*
X88572500Y-136430000D02*
X91702500Y-136430000D01*
X5940000Y-146380000D02*
X5940000Y-196930000D01*
X88332500Y-72920000D02*
X83480000Y-72920000D01*
X212572500Y-199865000D02*
X212572500Y-198430000D01*
X88332500Y-196920000D02*
X82160000Y-196920000D01*
X91712500Y-137935000D02*
X91712500Y-136440000D01*
X212332500Y-258920000D02*
X206260000Y-258920000D01*
X91712500Y-74440000D02*
X91712500Y-73920000D01*
X82160000Y-196920000D02*
X82070000Y-197010000D01*
X212572500Y-73160000D02*
X212332500Y-72920000D01*
X88572500Y-260430000D02*
X91702500Y-260430000D01*
X215702500Y-198430000D02*
X215712500Y-198440000D01*
X150572500Y-197160000D02*
X150332500Y-196920000D01*
X26572500Y-260430000D02*
X26572500Y-259160000D01*
X29712500Y-199935000D02*
X29712500Y-198440000D01*
X5940000Y-72980000D02*
X6000000Y-72920000D01*
X88572500Y-198430000D02*
X88572500Y-197160000D01*
X144490000Y-271565000D02*
X82930000Y-271565000D01*
X215702500Y-136430000D02*
X215712500Y-136440000D01*
X150332500Y-72920000D02*
X144930000Y-72920000D01*
X88572500Y-74430000D02*
X91702500Y-74430000D01*
X5970000Y-82830000D02*
X5940000Y-82800000D01*
X26332500Y-196920000D02*
X5950000Y-196920000D01*
X26572500Y-75865000D02*
X26572500Y-74430000D01*
X88572500Y-199865000D02*
X88572500Y-198430000D01*
X83140000Y-146390000D02*
X206260000Y-146390000D01*
X82870000Y-258900000D02*
X82870000Y-271505000D01*
X215712500Y-136440000D02*
X215712500Y-135920000D01*
X26572500Y-259160000D02*
X26332500Y-258920000D01*
X208400000Y-72920000D02*
X212332500Y-72920000D01*
X91692500Y-199915000D02*
X91712500Y-199935000D01*
X91692500Y-137915000D02*
X91712500Y-137935000D01*
X150572500Y-135160000D02*
X150332500Y-134920000D01*
X29712500Y-75935000D02*
X29712500Y-74440000D01*
X29712500Y-73920000D02*
X30392500Y-73240000D01*
X153712500Y-73920000D02*
X154392500Y-73240000D01*
X29692500Y-261915000D02*
X29712500Y-261935000D01*
X215692500Y-137915000D02*
X215712500Y-137935000D01*
X212572500Y-198430000D02*
X215702500Y-198430000D01*
X215712500Y-198440000D02*
X215712500Y-197920000D01*
X212572500Y-137865000D02*
X212572500Y-136430000D01*
X26572500Y-136430000D02*
X29702500Y-136430000D01*
X5940000Y-134940000D02*
X5940000Y-82800000D01*
X5990000Y-258920000D02*
X5940000Y-258870000D01*
X153702500Y-198430000D02*
X153712500Y-198440000D01*
X29712500Y-197920000D02*
X30392500Y-197240000D01*
X150332500Y-196920000D02*
X144750000Y-196920000D01*
X29692500Y-199915000D02*
X29712500Y-199935000D01*
X91712500Y-261935000D02*
X91712500Y-260440000D01*
X206260000Y-196920000D02*
X206260000Y-210130000D01*
X29712500Y-74440000D02*
X29712500Y-73920000D01*
X215692500Y-199915000D02*
X215712500Y-199935000D01*
X29692500Y-137915000D02*
X29712500Y-137935000D01*
X10910000Y-210140000D02*
X82070000Y-210140000D01*
X91712500Y-197920000D02*
X92392500Y-197240000D01*
X215712500Y-199935000D02*
X215712500Y-198440000D01*
X153692500Y-137915000D02*
X153712500Y-137935000D01*
X29712500Y-137935000D02*
X29712500Y-136440000D01*
X83440000Y-82730000D02*
X83440000Y-82820000D01*
X212572500Y-260430000D02*
X212572500Y-259160000D01*
X150572500Y-260430000D02*
X150572500Y-259160000D01*
X153712500Y-75935000D02*
X153712500Y-74440000D01*
X5940000Y-210080000D02*
X5940000Y-258870000D01*
X91712500Y-136440000D02*
X91712500Y-135920000D01*
X215712500Y-259920000D02*
X216392500Y-259240000D01*
X91712500Y-259920000D02*
X92392500Y-259240000D01*
X215712500Y-75935000D02*
X215712500Y-74440000D01*
X212572500Y-259160000D02*
X212332500Y-258920000D01*
X212332500Y-196920000D02*
X206260000Y-196920000D01*
X88572500Y-260430000D02*
X88572500Y-259160000D01*
X153692500Y-261915000D02*
X153712500Y-261935000D01*
X215692500Y-261915000D02*
X215712500Y-261935000D01*
X88572500Y-136430000D02*
X88572500Y-135160000D01*
X5940000Y-210080000D02*
X10850000Y-210080000D01*
X212572500Y-74430000D02*
X212572500Y-73160000D01*
X153692500Y-199915000D02*
X153712500Y-199935000D01*
X150572500Y-74430000D02*
X150572500Y-73160000D01*
X91702500Y-198430000D02*
X91712500Y-198440000D01*
X215702500Y-74430000D02*
X215712500Y-74440000D01*
X212572500Y-260430000D02*
X215702500Y-260430000D01*
X144930000Y-72920000D02*
X144880000Y-72870000D01*
X88572500Y-135160000D02*
X88332500Y-134920000D01*
X153712500Y-197920000D02*
X154392500Y-197240000D01*
X82070000Y-210140000D02*
X144180000Y-210140000D01*
X144880000Y-82660000D02*
X144950000Y-82730000D01*
X29702500Y-260430000D02*
X29712500Y-260440000D01*
X153702500Y-136430000D02*
X153712500Y-136440000D01*
X5950000Y-146390000D02*
X5940000Y-146380000D01*
X150572500Y-74430000D02*
X153702500Y-74430000D01*
X26572500Y-198430000D02*
X29702500Y-198430000D01*
X83170000Y-134920000D02*
X83140000Y-134890000D01*
X215712500Y-261935000D02*
X215712500Y-260440000D01*
X83440000Y-82730000D02*
X144950000Y-82730000D01*
X88572500Y-259160000D02*
X88332500Y-258920000D01*
X153692500Y-75915000D02*
X153712500Y-75935000D01*
X91702500Y-136430000D02*
X91712500Y-136440000D01*
X82070000Y-197010000D02*
X82070000Y-210140000D01*
X144950000Y-82730000D02*
X208290000Y-82730000D01*
X88572500Y-75865000D02*
X88572500Y-74430000D01*
X91702500Y-74430000D02*
X91712500Y-74440000D01*
X26572500Y-74430000D02*
X26572500Y-73160000D01*
X26572500Y-74430000D02*
X29702500Y-74430000D01*
X26332500Y-134920000D02*
X5960000Y-134920000D01*
X206260000Y-146390000D02*
X206260000Y-135190000D01*
X26572500Y-260430000D02*
X29702500Y-260430000D01*
X29702500Y-136430000D02*
X29712500Y-136440000D01*
X206260000Y-258920000D02*
X206260000Y-271250000D01*
X91712500Y-73920000D02*
X92392500Y-73240000D01*
X29702500Y-74430000D02*
X29712500Y-74440000D01*
X88572500Y-137865000D02*
X88572500Y-136430000D01*
X215712500Y-137935000D02*
X215712500Y-136440000D01*
X29712500Y-136440000D02*
X29712500Y-135920000D01*
X5940000Y-271530000D02*
X5975000Y-271565000D01*
X88572500Y-197160000D02*
X88332500Y-196920000D01*
X153712500Y-137935000D02*
X153712500Y-136440000D01*
X150572500Y-136430000D02*
X153702500Y-136430000D01*
X212572500Y-198430000D02*
X212572500Y-197160000D01*
X212572500Y-135160000D02*
X212332500Y-134920000D01*
X153712500Y-260440000D02*
X153712500Y-259920000D01*
X6000000Y-72920000D02*
X26332500Y-72920000D01*
X205945000Y-271565000D02*
X144490000Y-271565000D01*
%TO.N,GND*%
X90160000Y-141390000D02*
X90140000Y-141370000D01*
X127147500Y-252600000D02*
X132900000Y-252600000D01*
X65147500Y-252600000D02*
X70900000Y-252600000D01*
X150572500Y-263415000D02*
X150572500Y-265432500D01*
X132900000Y-128600000D02*
X137710000Y-133410000D01*
X199710000Y-195410000D02*
X199710000Y-198000000D01*
X150572500Y-201415000D02*
X150572500Y-203432500D01*
X91712500Y-77485000D02*
X91712500Y-79277500D01*
X212572500Y-201415000D02*
X212572500Y-203432500D01*
X29600000Y-203390000D02*
X28160000Y-203390000D01*
X153692500Y-263465000D02*
X153712500Y-263485000D01*
X215600000Y-141390000D02*
X214160000Y-141390000D01*
X212572500Y-203432500D02*
X214077500Y-203432500D01*
X194900000Y-190600000D02*
X199710000Y-195410000D01*
X90160000Y-203390000D02*
X90140000Y-203370000D01*
X132900000Y-66600000D02*
X137710000Y-71410000D01*
X214077500Y-79432500D02*
X214140000Y-79370000D01*
X29712500Y-139485000D02*
X29712500Y-141277500D01*
X153712500Y-263485000D02*
X153712500Y-265277500D01*
X153600000Y-79390000D02*
X152160000Y-79390000D01*
X251147500Y-128600000D02*
X256900000Y-128600000D01*
X28077500Y-79432500D02*
X28140000Y-79370000D01*
X214077500Y-141432500D02*
X214140000Y-141370000D01*
X29600000Y-141390000D02*
X28160000Y-141390000D01*
X153712500Y-139485000D02*
X153712500Y-141277500D01*
X215712500Y-201485000D02*
X215712500Y-203277500D01*
X261710000Y-133410000D02*
X261710000Y-136000000D01*
X91600000Y-265390000D02*
X90160000Y-265390000D01*
X70900000Y-252600000D02*
X75710000Y-257410000D01*
X29712500Y-263485000D02*
X29712500Y-265277500D01*
X90160000Y-79390000D02*
X90140000Y-79370000D01*
X28160000Y-203390000D02*
X28140000Y-203370000D01*
X28160000Y-79390000D02*
X28140000Y-79370000D01*
X91692500Y-77465000D02*
X91712500Y-77485000D01*
X215600000Y-79390000D02*
X214160000Y-79390000D01*
X90077500Y-141432500D02*
X90140000Y-141370000D01*
X29712500Y-141277500D02*
X29600000Y-141390000D01*
X150572500Y-139415000D02*
X150572500Y-141432500D01*
X212572500Y-79432500D02*
X214077500Y-79432500D01*
X212572500Y-265432500D02*
X214077500Y-265432500D01*
X194900000Y-128600000D02*
X199710000Y-133410000D01*
X261710000Y-71410000D02*
X261710000Y-74000000D01*
X215712500Y-79277500D02*
X215600000Y-79390000D01*
X215692500Y-201465000D02*
X215712500Y-201485000D01*
X90077500Y-265432500D02*
X90140000Y-265370000D01*
X152077500Y-203432500D02*
X152140000Y-203370000D01*
X153600000Y-203390000D02*
X152160000Y-203390000D01*
X150572500Y-141432500D02*
X152077500Y-141432500D01*
X88572500Y-139415000D02*
X88572500Y-141432500D01*
X152160000Y-79390000D02*
X152140000Y-79370000D01*
X75710000Y-133410000D02*
X75710000Y-136000000D01*
X194900000Y-252600000D02*
X199710000Y-257410000D01*
X261710000Y-195410000D02*
X261710000Y-198000000D01*
X26572500Y-265432500D02*
X28077500Y-265432500D01*
X214160000Y-79390000D02*
X214140000Y-79370000D01*
X26572500Y-139415000D02*
X26572500Y-141432500D01*
X29600000Y-79390000D02*
X28160000Y-79390000D01*
X137710000Y-195410000D02*
X137710000Y-198000000D01*
X28160000Y-141390000D02*
X28140000Y-141370000D01*
X29712500Y-265277500D02*
X29600000Y-265390000D01*
X152160000Y-141390000D02*
X152140000Y-141370000D01*
X150572500Y-203432500D02*
X152077500Y-203432500D01*
X215712500Y-265277500D02*
X215600000Y-265390000D01*
X212572500Y-263415000D02*
X212572500Y-265432500D01*
X153600000Y-141390000D02*
X152160000Y-141390000D01*
X251147500Y-66600000D02*
X256900000Y-66600000D01*
X261710000Y-257410000D02*
X261710000Y-260000000D01*
X153692500Y-201465000D02*
X153712500Y-201485000D01*
X153600000Y-265390000D02*
X152160000Y-265390000D01*
X150572500Y-77415000D02*
X150572500Y-79432500D01*
X199710000Y-257410000D02*
X199710000Y-260000000D01*
X88572500Y-263415000D02*
X88572500Y-265432500D01*
X65147500Y-128600000D02*
X70900000Y-128600000D01*
X75710000Y-195410000D02*
X75710000Y-198000000D01*
X90077500Y-79432500D02*
X90140000Y-79370000D01*
X214160000Y-265390000D02*
X214140000Y-265370000D01*
X88572500Y-141432500D02*
X90077500Y-141432500D01*
X65147500Y-66600000D02*
X70900000Y-66600000D01*
X29712500Y-77485000D02*
X29712500Y-79277500D01*
X152077500Y-265432500D02*
X152140000Y-265370000D01*
X88572500Y-77415000D02*
X88572500Y-79432500D01*
X91712500Y-141277500D02*
X91600000Y-141390000D01*
X26572500Y-263415000D02*
X26572500Y-265432500D01*
X256900000Y-128600000D02*
X261710000Y-133410000D01*
X199710000Y-133410000D02*
X199710000Y-136000000D01*
X132900000Y-190600000D02*
X137710000Y-195410000D01*
X88572500Y-265432500D02*
X90077500Y-265432500D01*
X215692500Y-139465000D02*
X215712500Y-139485000D01*
X88572500Y-203432500D02*
X90077500Y-203432500D01*
X137710000Y-133410000D02*
X137710000Y-136000000D01*
X215600000Y-265390000D02*
X214160000Y-265390000D01*
X212572500Y-141432500D02*
X214077500Y-141432500D01*
X91692500Y-201465000D02*
X91712500Y-201485000D01*
X152160000Y-203390000D02*
X152140000Y-203370000D01*
X215692500Y-263465000D02*
X215712500Y-263485000D01*
X189147500Y-252600000D02*
X194900000Y-252600000D01*
X91692500Y-139465000D02*
X91712500Y-139485000D01*
X91712500Y-265277500D02*
X91600000Y-265390000D01*
X88572500Y-79432500D02*
X90077500Y-79432500D01*
X215692500Y-77465000D02*
X215712500Y-77485000D01*
X214160000Y-141390000D02*
X214140000Y-141370000D01*
X28077500Y-203432500D02*
X28140000Y-203370000D01*
X26572500Y-79432500D02*
X28077500Y-79432500D01*
X153712500Y-201485000D02*
X153712500Y-203277500D01*
X91712500Y-139485000D02*
X91712500Y-141277500D01*
X91600000Y-203390000D02*
X90160000Y-203390000D01*
X29712500Y-79277500D02*
X29600000Y-79390000D01*
X29692500Y-263465000D02*
X29712500Y-263485000D01*
X75710000Y-71410000D02*
X75710000Y-74000000D01*
X29712500Y-203277500D02*
X29600000Y-203390000D01*
X153692500Y-139465000D02*
X153712500Y-139485000D01*
X70900000Y-128600000D02*
X75710000Y-133410000D01*
X153712500Y-77485000D02*
X153712500Y-79277500D01*
X212572500Y-139415000D02*
X212572500Y-141432500D01*
X29712500Y-201485000D02*
X29712500Y-203277500D01*
X150572500Y-79432500D02*
X152077500Y-79432500D01*
X153712500Y-141277500D02*
X153600000Y-141390000D01*
X215712500Y-203277500D02*
X215600000Y-203390000D01*
X215712500Y-141277500D02*
X215600000Y-141390000D01*
X152160000Y-265390000D02*
X152140000Y-265370000D01*
X70900000Y-66600000D02*
X75710000Y-71410000D01*
X256900000Y-190600000D02*
X261710000Y-195410000D01*
X152077500Y-141432500D02*
X152140000Y-141370000D01*
X153692500Y-77465000D02*
X153712500Y-77485000D01*
X91712500Y-201485000D02*
X91712500Y-203277500D01*
X251147500Y-190600000D02*
X256900000Y-190600000D01*
X29692500Y-201465000D02*
X29712500Y-201485000D01*
X137710000Y-71410000D02*
X137710000Y-74000000D01*
X215600000Y-203390000D02*
X214160000Y-203390000D01*
X90077500Y-203432500D02*
X90140000Y-203370000D01*
X153712500Y-265277500D02*
X153600000Y-265390000D01*
X91600000Y-141390000D02*
X90160000Y-141390000D01*
X29600000Y-265390000D02*
X28160000Y-265390000D01*
X153712500Y-203277500D02*
X153600000Y-203390000D01*
X88572500Y-201415000D02*
X88572500Y-203432500D01*
X29692500Y-77465000D02*
X29712500Y-77485000D01*
X91692500Y-263465000D02*
X91712500Y-263485000D01*
X256900000Y-66600000D02*
X261710000Y-71410000D01*
X28160000Y-265390000D02*
X28140000Y-265370000D01*
X214160000Y-203390000D02*
X214140000Y-203370000D01*
X215712500Y-77485000D02*
X215712500Y-79277500D01*
X90160000Y-265390000D02*
X90140000Y-265370000D01*
X127147500Y-128600000D02*
X132900000Y-128600000D01*
X194900000Y-66600000D02*
X199710000Y-71410000D01*
X256900000Y-252600000D02*
X261710000Y-257410000D01*
X91600000Y-79390000D02*
X90160000Y-79390000D01*
X212572500Y-77415000D02*
X212572500Y-79432500D01*
X215712500Y-263485000D02*
X215712500Y-265277500D01*
X29692500Y-139465000D02*
X29712500Y-139485000D01*
X150572500Y-265432500D02*
X152077500Y-265432500D01*
X91712500Y-203277500D02*
X91600000Y-203390000D01*
X152077500Y-79432500D02*
X152140000Y-79370000D01*
X251147500Y-252600000D02*
X256900000Y-252600000D01*
X28077500Y-141432500D02*
X28140000Y-141370000D01*
X70900000Y-190600000D02*
X75710000Y-195410000D01*
X91712500Y-263485000D02*
X91712500Y-265277500D01*
X199710000Y-71410000D02*
X199710000Y-74000000D01*
X137710000Y-257410000D02*
X137710000Y-260000000D01*
X189147500Y-66600000D02*
X194900000Y-66600000D01*
X26572500Y-203432500D02*
X28077500Y-203432500D01*
X75710000Y-257410000D02*
X75710000Y-260000000D01*
X214077500Y-203432500D02*
X214140000Y-203370000D01*
X26572500Y-77415000D02*
X26572500Y-79432500D01*
X91712500Y-79277500D02*
X91600000Y-79390000D01*
X28077500Y-265432500D02*
X28140000Y-265370000D01*
X153712500Y-79277500D02*
X153600000Y-79390000D01*
X26572500Y-141432500D02*
X28077500Y-141432500D01*
X132900000Y-252600000D02*
X137710000Y-257410000D01*
X127147500Y-66600000D02*
X132900000Y-66600000D01*
X127147500Y-190600000D02*
X132900000Y-190600000D01*
X214077500Y-265432500D02*
X214140000Y-265370000D01*
X26572500Y-201415000D02*
X26572500Y-203432500D01*
X215712500Y-139485000D02*
X215712500Y-141277500D01*
X189147500Y-128600000D02*
X194900000Y-128600000D01*
X65147500Y-190600000D02*
X70900000Y-190600000D01*
X189147500Y-190600000D02*
X194900000Y-190600000D01*
%TO.N,Net-(Q1-G)*%
X153672500Y-132620000D02*
X154392500Y-133340000D01*
X215672500Y-255780000D02*
X215672500Y-253240000D01*
X5940000Y-284680000D02*
X5990000Y-284730000D01*
X91672500Y-70620000D02*
X92392500Y-71340000D01*
X153692500Y-255800000D02*
X153672500Y-255780000D01*
X215672500Y-255820000D02*
X215692500Y-255800000D01*
X91672500Y-193780000D02*
X91672500Y-194620000D01*
X153692500Y-193800000D02*
X153672500Y-193780000D01*
X153672500Y-131820000D02*
X153692500Y-131800000D01*
X88332500Y-257900000D02*
X88332500Y-255820000D01*
X91672500Y-132620000D02*
X92392500Y-133340000D01*
X215672500Y-194620000D02*
X216392500Y-195340000D01*
X29672500Y-193780000D02*
X29672500Y-194620000D01*
X150332500Y-193820000D02*
X153672500Y-193820000D01*
X91692500Y-131800000D02*
X91672500Y-131780000D01*
X153672500Y-69780000D02*
X153672500Y-70620000D01*
X212332500Y-131820000D02*
X215672500Y-131820000D01*
X91672500Y-255780000D02*
X91672500Y-253240000D01*
X153672500Y-69780000D02*
X153672500Y-67240000D01*
X153672500Y-194620000D02*
X154392500Y-195340000D01*
X29672500Y-255780000D02*
X29672500Y-253240000D01*
X150332500Y-255820000D02*
X153672500Y-255820000D01*
X29672500Y-131780000D02*
X29672500Y-129240000D01*
X91672500Y-69820000D02*
X91692500Y-69800000D01*
X153672500Y-131780000D02*
X153672500Y-132620000D01*
X153672500Y-131780000D02*
X153672500Y-129240000D01*
X215672500Y-69780000D02*
X215672500Y-67240000D01*
X26332500Y-71900000D02*
X26332500Y-69820000D01*
X29692500Y-255800000D02*
X29672500Y-255780000D01*
X88332500Y-71900000D02*
X88332500Y-69820000D01*
X26332500Y-255820000D02*
X29672500Y-255820000D01*
X91672500Y-69780000D02*
X91672500Y-67240000D01*
X91672500Y-193820000D02*
X91692500Y-193800000D01*
X153672500Y-255780000D02*
X153672500Y-256620000D01*
X153672500Y-193780000D02*
X153672500Y-191240000D01*
X150332500Y-257900000D02*
X150332500Y-255820000D01*
X88332500Y-255820000D02*
X91672500Y-255820000D01*
X88332500Y-69820000D02*
X91672500Y-69820000D01*
X212332500Y-69820000D02*
X215672500Y-69820000D01*
X150332500Y-69820000D02*
X153672500Y-69820000D01*
X215672500Y-193780000D02*
X215672500Y-194620000D01*
X150332500Y-195900000D02*
X150332500Y-193820000D01*
X91672500Y-131780000D02*
X91672500Y-132620000D01*
X29672500Y-132620000D02*
X30392500Y-133340000D01*
X215672500Y-132620000D02*
X216392500Y-133340000D01*
X212332500Y-255820000D02*
X215672500Y-255820000D01*
X215672500Y-193820000D02*
X215692500Y-193800000D01*
X215692500Y-69800000D02*
X215672500Y-69780000D01*
X26332500Y-195900000D02*
X26332500Y-193820000D01*
X215672500Y-131820000D02*
X215692500Y-131800000D01*
X91672500Y-255820000D02*
X91692500Y-255800000D01*
X26332500Y-131820000D02*
X29672500Y-131820000D01*
X215672500Y-256620000D02*
X216392500Y-257340000D01*
X29692500Y-193800000D02*
X29672500Y-193780000D01*
X212332500Y-257900000D02*
X212332500Y-255820000D01*
X88332500Y-131820000D02*
X91672500Y-131820000D01*
X26332500Y-69820000D02*
X29672500Y-69820000D01*
X91672500Y-255780000D02*
X91672500Y-256620000D01*
X91692500Y-69800000D02*
X91672500Y-69780000D01*
X215672500Y-69780000D02*
X215672500Y-70620000D01*
X150332500Y-71900000D02*
X150332500Y-69820000D01*
X29672500Y-194620000D02*
X30392500Y-195340000D01*
X29672500Y-256620000D02*
X30392500Y-257340000D01*
X88332500Y-133900000D02*
X88332500Y-131820000D01*
X91672500Y-256620000D02*
X92392500Y-257340000D01*
X29672500Y-69820000D02*
X29692500Y-69800000D01*
X153692500Y-69800000D02*
X153672500Y-69780000D01*
X153692500Y-131800000D02*
X153672500Y-131780000D01*
X29672500Y-69780000D02*
X29672500Y-67240000D01*
X29672500Y-193780000D02*
X29672500Y-191240000D01*
X153672500Y-256620000D02*
X154392500Y-257340000D01*
X91672500Y-69780000D02*
X91672500Y-70620000D01*
X212332500Y-193820000D02*
X215672500Y-193820000D01*
X215672500Y-255780000D02*
X215672500Y-256620000D01*
X153672500Y-255780000D02*
X153672500Y-253240000D01*
X29672500Y-255780000D02*
X29672500Y-256620000D01*
X215672500Y-193780000D02*
X215672500Y-191240000D01*
X212332500Y-195900000D02*
X212332500Y-193820000D01*
X91672500Y-194620000D02*
X92392500Y-195340000D01*
X212332500Y-133900000D02*
X212332500Y-131820000D01*
X215672500Y-131780000D02*
X215672500Y-132620000D01*
X29672500Y-255820000D02*
X29692500Y-255800000D01*
X153672500Y-193820000D02*
X153692500Y-193800000D01*
X29672500Y-193820000D02*
X29692500Y-193800000D01*
X153672500Y-70620000D02*
X154392500Y-71340000D01*
X29672500Y-131780000D02*
X29672500Y-132620000D01*
X91692500Y-193800000D02*
X91672500Y-193780000D01*
X150332500Y-133900000D02*
X150332500Y-131820000D01*
X91672500Y-131820000D02*
X91692500Y-131800000D01*
X26332500Y-257900000D02*
X26332500Y-255820000D01*
X29692500Y-69800000D02*
X29672500Y-69780000D01*
X215692500Y-131800000D02*
X215672500Y-131780000D01*
X212332500Y-71900000D02*
X212332500Y-69820000D01*
X29692500Y-131800000D02*
X29672500Y-131780000D01*
X91672500Y-131780000D02*
X91672500Y-129240000D01*
X29672500Y-131820000D02*
X29692500Y-131800000D01*
X153672500Y-193780000D02*
X153672500Y-194620000D01*
X26332500Y-193820000D02*
X29672500Y-193820000D01*
X29672500Y-70620000D02*
X30392500Y-71340000D01*
X153672500Y-255820000D02*
X153692500Y-255800000D01*
X91692500Y-255800000D02*
X91672500Y-255780000D01*
X91672500Y-193780000D02*
X91672500Y-191240000D01*
X26332500Y-133900000D02*
X26332500Y-131820000D01*
X150332500Y-131820000D02*
X153672500Y-131820000D01*
X215672500Y-131780000D02*
X215672500Y-129240000D01*
X215692500Y-193800000D02*
X215672500Y-193780000D01*
X215672500Y-70620000D02*
X216392500Y-71340000D01*
X29672500Y-69780000D02*
X29672500Y-70620000D01*
X153672500Y-69820000D02*
X153692500Y-69800000D01*
X215672500Y-69820000D02*
X215692500Y-69800000D01*
X88332500Y-195900000D02*
X88332500Y-193820000D01*
X88332500Y-193820000D02*
X91672500Y-193820000D01*
X215692500Y-255800000D02*
X215672500Y-255780000D01*
%TO.N,/GPIO*%
X282630000Y-77840000D02*
X270322500Y-90147500D01*
X282730000Y-27530000D02*
X29682500Y-27530000D01*
X276180000Y-30170000D02*
X282640000Y-36630000D01*
X289650000Y-58500000D02*
X282630000Y-58500000D01*
X286490000Y-63600000D02*
X289620000Y-63600000D01*
X284660000Y-61180000D02*
X284760000Y-61080000D01*
X289630000Y-65870000D02*
X288470000Y-65870000D01*
X91672500Y-90652500D02*
X91670000Y-90650000D01*
X286450000Y-50820000D02*
X286500000Y-50870000D01*
X284670000Y-35690000D02*
X284670000Y-53290000D01*
X91670000Y-28190000D02*
X280560000Y-28190000D01*
X29672500Y-215992500D02*
X29670000Y-215990000D01*
X29680000Y-153520000D02*
X38770000Y-153520000D01*
X278140000Y-29150000D02*
X278140000Y-29160000D01*
X288470000Y-65870000D02*
X288470000Y-81490000D01*
X153680000Y-29150000D02*
X278140000Y-29150000D01*
X29672500Y-190220000D02*
X29672500Y-153527500D01*
X91672500Y-252220000D02*
X91672500Y-216767500D01*
X215672500Y-190220000D02*
X215672500Y-155120000D01*
X215680000Y-91570000D02*
X278460000Y-91570000D01*
X215672500Y-91577500D02*
X215680000Y-91570000D01*
X280560000Y-28190000D02*
X280560000Y-28210000D01*
X284000000Y-183890000D02*
X284000000Y-203230000D01*
X288470000Y-81490000D02*
X278460000Y-91500000D01*
X29672500Y-153527500D02*
X29680000Y-153520000D01*
X286440000Y-80370000D02*
X286440000Y-63650000D01*
X280550000Y-86280000D02*
X280550000Y-86260000D01*
X279510000Y-154550000D02*
X286040000Y-161080000D01*
X286030000Y-186570000D02*
X286130000Y-186470000D01*
X288480000Y-48600000D02*
X289640000Y-48600000D01*
X274180000Y-216030000D02*
X274180000Y-216040000D01*
X91672500Y-28192500D02*
X91670000Y-28190000D01*
X25990000Y-280030000D02*
X26070000Y-280110000D01*
X287810000Y-205760000D02*
X281920000Y-211650000D01*
X100752500Y-216767500D02*
X100760000Y-216760000D01*
X215672500Y-30177500D02*
X215680000Y-30170000D01*
X153672500Y-66220000D02*
X153672500Y-29157500D01*
X282730000Y-27530000D02*
X283030000Y-27530000D01*
X287810000Y-189040000D02*
X287810000Y-205760000D01*
X289850000Y-173990000D02*
X291010000Y-173990000D01*
X215672500Y-128220000D02*
X215672500Y-91577500D01*
X284760000Y-61080000D02*
X289620000Y-61080000D01*
X215672500Y-218210000D02*
X278510000Y-218210000D01*
X280560000Y-28210000D02*
X286450000Y-34100000D01*
X284000000Y-203230000D02*
X271240000Y-215990000D01*
X278130000Y-85310000D02*
X284660000Y-78780000D01*
X215680000Y-30170000D02*
X276180000Y-30170000D01*
X272510000Y-155120000D02*
X272530000Y-155140000D01*
X91672500Y-66220000D02*
X91672500Y-28192500D01*
X288480000Y-32980000D02*
X288480000Y-48600000D01*
X91670000Y-90650000D02*
X272810000Y-90650000D01*
X286040000Y-178680000D02*
X286140000Y-178780000D01*
X91672500Y-190220000D02*
X91672500Y-153997500D01*
X286130000Y-186470000D02*
X290990000Y-186470000D01*
X284010000Y-162020000D02*
X277130000Y-155140000D01*
X100760000Y-216760000D02*
X273460000Y-216760000D01*
X91672500Y-153997500D02*
X282327500Y-153997500D01*
X282327500Y-153997500D02*
X287820000Y-159490000D01*
X286450000Y-34100000D02*
X286450000Y-50820000D01*
X286140000Y-178780000D02*
X291000000Y-178780000D01*
X281920000Y-211650000D02*
X281920000Y-211670000D01*
X29670000Y-215990000D02*
X271240000Y-215990000D01*
X272810000Y-90640000D02*
X272810000Y-90650000D01*
X291030000Y-181360000D02*
X284010000Y-181360000D01*
X287860000Y-188990000D02*
X287810000Y-189040000D01*
X91672500Y-216767500D02*
X100752500Y-216767500D01*
X215672500Y-252220000D02*
X215672500Y-218210000D01*
X289850000Y-158370000D02*
X289850000Y-173990000D01*
X278130000Y-85320000D02*
X272810000Y-90640000D01*
X283030000Y-27530000D02*
X288480000Y-32980000D01*
X153672500Y-252220000D02*
X153672500Y-217510000D01*
X29672500Y-252220000D02*
X29672500Y-215992500D01*
X291020000Y-183890000D02*
X284000000Y-183890000D01*
X282640000Y-55970000D02*
X289660000Y-55970000D01*
X215672500Y-66220000D02*
X215672500Y-30177500D01*
X153672500Y-128220000D02*
X153672500Y-91102500D01*
X282630000Y-58500000D02*
X282630000Y-77840000D01*
X38780000Y-153510000D02*
X284970000Y-153510000D01*
X278140000Y-29160000D02*
X284670000Y-35690000D01*
X284660000Y-78780000D02*
X284660000Y-61180000D01*
X153672500Y-29157500D02*
X153680000Y-29150000D01*
X29682500Y-27530000D02*
X29672500Y-27520000D01*
X286440000Y-63650000D02*
X286490000Y-63600000D01*
X29672500Y-90147500D02*
X270322500Y-90147500D01*
X215672500Y-155120000D02*
X272510000Y-155120000D01*
X284010000Y-181360000D02*
X284010000Y-162020000D01*
X286040000Y-161080000D02*
X286040000Y-178680000D01*
X282640000Y-36630000D02*
X282640000Y-55970000D01*
X153672500Y-91102500D02*
X153670000Y-91100000D01*
X279500000Y-210710000D02*
X279500000Y-210700000D01*
X38770000Y-153520000D02*
X38780000Y-153510000D01*
X289840000Y-191260000D02*
X289840000Y-206880000D01*
X289840000Y-206880000D02*
X279930000Y-216790000D01*
X91672500Y-128220000D02*
X91672500Y-90652500D01*
X287870000Y-176260000D02*
X291000000Y-176260000D01*
X286500000Y-50870000D02*
X289630000Y-50870000D01*
X284970000Y-153510000D02*
X284980000Y-153500000D01*
X287820000Y-159490000D02*
X287820000Y-176210000D01*
X274180000Y-216040000D02*
X273460000Y-216760000D01*
X287820000Y-176210000D02*
X287870000Y-176260000D01*
X284770000Y-53390000D02*
X289630000Y-53390000D01*
X291000000Y-191260000D02*
X289840000Y-191260000D01*
X286030000Y-204170000D02*
X286030000Y-186570000D01*
X29672500Y-27520000D02*
X29672500Y-66220000D01*
X279510000Y-154540000D02*
X279510000Y-154550000D01*
X279500000Y-210710000D02*
X274180000Y-216030000D01*
X279930000Y-216790000D02*
X278510000Y-218210000D01*
X280550000Y-86280000D02*
X275730000Y-91100000D01*
X29672500Y-128220000D02*
X29672500Y-90147500D01*
X289630000Y-53390000D02*
X289640000Y-53380000D01*
X153672500Y-154540000D02*
X279510000Y-154540000D01*
X278130000Y-85320000D02*
X278130000Y-85310000D01*
X284670000Y-53290000D02*
X284770000Y-53390000D01*
X278460000Y-91500000D02*
X278460000Y-91570000D01*
X272530000Y-155140000D02*
X277130000Y-155140000D01*
X279500000Y-210700000D02*
X286030000Y-204170000D01*
X153670000Y-91100000D02*
X275730000Y-91100000D01*
X289620000Y-61080000D02*
X289630000Y-61090000D01*
X284980000Y-153500000D02*
X289850000Y-158370000D01*
X281920000Y-211670000D02*
X276080000Y-217510000D01*
X153672500Y-190220000D02*
X153672500Y-154540000D01*
X280550000Y-86260000D02*
X286440000Y-80370000D01*
X290990000Y-188990000D02*
X287860000Y-188990000D01*
X153672500Y-217510000D02*
X276080000Y-217510000D01*
%TO.N,Net-(Q1-D)*%
X156267500Y-72290000D02*
X160660000Y-72290000D01*
X222660000Y-72290000D02*
X222690000Y-72320000D01*
X36660000Y-258290000D02*
X36690000Y-258320000D01*
X94267500Y-134290000D02*
X98660000Y-134290000D01*
X36660000Y-196290000D02*
X36690000Y-196320000D01*
X32267500Y-258290000D02*
X36660000Y-258290000D01*
X218267500Y-258290000D02*
X222660000Y-258290000D01*
X94267500Y-72290000D02*
X98660000Y-72290000D01*
X222660000Y-196290000D02*
X222690000Y-196320000D01*
X160660000Y-196290000D02*
X160690000Y-196320000D01*
X218267500Y-196290000D02*
X222660000Y-196290000D01*
X36660000Y-72290000D02*
X36690000Y-72320000D01*
X156267500Y-196290000D02*
X160660000Y-196290000D01*
X98660000Y-72290000D02*
X98690000Y-72320000D01*
X222660000Y-134290000D02*
X222690000Y-134320000D01*
X94267500Y-258290000D02*
X98660000Y-258290000D01*
X160660000Y-72290000D02*
X160690000Y-72320000D01*
X160660000Y-258290000D02*
X160690000Y-258320000D01*
X156267500Y-134290000D02*
X160660000Y-134290000D01*
X32267500Y-72290000D02*
X36660000Y-72290000D01*
X94267500Y-196290000D02*
X98660000Y-196290000D01*
X218267500Y-72290000D02*
X222660000Y-72290000D01*
X160660000Y-134290000D02*
X160690000Y-134320000D01*
X98660000Y-258290000D02*
X98690000Y-258320000D01*
X36660000Y-134290000D02*
X36690000Y-134320000D01*
X218267500Y-134290000D02*
X222660000Y-134290000D01*
X222660000Y-258290000D02*
X222690000Y-258320000D01*
X98660000Y-134290000D02*
X98690000Y-134320000D01*
X32267500Y-196290000D02*
X36660000Y-196290000D01*
X98660000Y-196290000D02*
X98690000Y-196320000D01*
X32267500Y-134290000D02*
X36660000Y-134290000D01*
X156267500Y-258290000D02*
X160660000Y-258290000D01*
%TO.N,Net-(L1-Pad1)*%
X104470000Y-190420000D02*
X109972500Y-190420000D01*
X36690000Y-133300000D02*
X37590000Y-133300000D01*
X166450000Y-66420000D02*
X166470000Y-66420000D01*
X42470000Y-252420000D02*
X47972500Y-252420000D01*
X166450000Y-252420000D02*
X166470000Y-252420000D01*
X37590000Y-195300000D02*
X42470000Y-190420000D01*
X228470000Y-252420000D02*
X233972500Y-252420000D01*
X98690000Y-71300000D02*
X99590000Y-71300000D01*
X228470000Y-66420000D02*
X233972500Y-66420000D01*
X166450000Y-128420000D02*
X166470000Y-128420000D01*
X160690000Y-71300000D02*
X161590000Y-71300000D01*
X160690000Y-133300000D02*
X161590000Y-133300000D01*
X223590000Y-71300000D02*
X228470000Y-66420000D01*
X104470000Y-128420000D02*
X109972500Y-128420000D01*
X166470000Y-66420000D02*
X171972500Y-66420000D01*
X37590000Y-257300000D02*
X42470000Y-252420000D01*
X161590000Y-257300000D02*
X166470000Y-252420000D01*
X223590000Y-257300000D02*
X228470000Y-252420000D01*
X228450000Y-252420000D02*
X228470000Y-252420000D01*
X223590000Y-195300000D02*
X228470000Y-190420000D01*
X42450000Y-128420000D02*
X42470000Y-128420000D01*
X98690000Y-133300000D02*
X99590000Y-133300000D01*
X228450000Y-66420000D02*
X228470000Y-66420000D01*
X42470000Y-66420000D02*
X47972500Y-66420000D01*
X160690000Y-195300000D02*
X161590000Y-195300000D01*
X228450000Y-190420000D02*
X228470000Y-190420000D01*
X42470000Y-128420000D02*
X47972500Y-128420000D01*
X37590000Y-133300000D02*
X42470000Y-128420000D01*
X166470000Y-190420000D02*
X171972500Y-190420000D01*
X166470000Y-128420000D02*
X171972500Y-128420000D01*
X161590000Y-71300000D02*
X166470000Y-66420000D01*
X98690000Y-257300000D02*
X99590000Y-257300000D01*
X104470000Y-252420000D02*
X109972500Y-252420000D01*
X42450000Y-252420000D02*
X42470000Y-252420000D01*
X36690000Y-195300000D02*
X37590000Y-195300000D01*
X42450000Y-66420000D02*
X42470000Y-66420000D01*
X104450000Y-190420000D02*
X104470000Y-190420000D01*
X223590000Y-133300000D02*
X228470000Y-128420000D01*
X37590000Y-71300000D02*
X42470000Y-66420000D01*
X228450000Y-128420000D02*
X228470000Y-128420000D01*
X99590000Y-195300000D02*
X104470000Y-190420000D01*
X166450000Y-190420000D02*
X166470000Y-190420000D01*
X104470000Y-66420000D02*
X109972500Y-66420000D01*
X166470000Y-252420000D02*
X171972500Y-252420000D01*
X160690000Y-257300000D02*
X161590000Y-257300000D01*
X42450000Y-190420000D02*
X42470000Y-190420000D01*
X161590000Y-133300000D02*
X166470000Y-128420000D01*
X161590000Y-195300000D02*
X166470000Y-190420000D01*
X104450000Y-66420000D02*
X104470000Y-66420000D01*
X222690000Y-133300000D02*
X223590000Y-133300000D01*
X99590000Y-133300000D02*
X104470000Y-128420000D01*
X104450000Y-128420000D02*
X104470000Y-128420000D01*
X36690000Y-71300000D02*
X37590000Y-71300000D01*
X228470000Y-128420000D02*
X233972500Y-128420000D01*
X104450000Y-252420000D02*
X104470000Y-252420000D01*
X98690000Y-195300000D02*
X99590000Y-195300000D01*
X228470000Y-190420000D02*
X233972500Y-190420000D01*
X99590000Y-71300000D02*
X104470000Y-66420000D01*
X222690000Y-71300000D02*
X223590000Y-71300000D01*
X36690000Y-257300000D02*
X37590000Y-257300000D01*
X99590000Y-257300000D02*
X104470000Y-252420000D01*
X222690000Y-257300000D02*
X223590000Y-257300000D01*
X222690000Y-195300000D02*
X223590000Y-195300000D01*
X42470000Y-190420000D02*
X47972500Y-190420000D01*
%TO.N,unconnected-(L1-Pad2)*%
X180500000Y-238200000D02*
X180720000Y-237980000D01*
X56500000Y-114200000D02*
X56720000Y-113980000D01*
X56500000Y-52200000D02*
X56720000Y-51980000D01*
X180720000Y-51980000D02*
X180720000Y-51690000D01*
X56720000Y-237980000D02*
X56720000Y-237690000D01*
X118720000Y-113980000D02*
X118720000Y-113690000D01*
X180500000Y-114200000D02*
X180720000Y-113980000D01*
X242500000Y-114200000D02*
X242720000Y-113980000D01*
X118500000Y-52200000D02*
X118720000Y-51980000D01*
X242720000Y-237980000D02*
X242720000Y-237690000D01*
X118720000Y-237980000D02*
X118720000Y-237690000D01*
X180720000Y-175980000D02*
X180720000Y-175690000D01*
X56720000Y-175980000D02*
X56720000Y-175690000D01*
X242500000Y-52200000D02*
X242720000Y-51980000D01*
X242720000Y-113980000D02*
X242720000Y-113690000D01*
X118720000Y-175980000D02*
X118720000Y-175690000D01*
X56500000Y-176200000D02*
X56720000Y-175980000D01*
X118500000Y-114200000D02*
X118720000Y-113980000D01*
X118500000Y-238200000D02*
X118720000Y-237980000D01*
X242500000Y-238200000D02*
X242720000Y-237980000D01*
X56720000Y-51980000D02*
X56720000Y-51690000D01*
X180500000Y-176200000D02*
X180720000Y-175980000D01*
X242720000Y-51980000D02*
X242720000Y-51690000D01*
X180720000Y-113980000D02*
X180720000Y-113690000D01*
X56720000Y-113980000D02*
X56720000Y-113690000D01*
X180500000Y-52200000D02*
X180720000Y-51980000D01*
X118500000Y-176200000D02*
X118720000Y-175980000D01*
X180720000Y-237980000D02*
X180720000Y-237690000D01*
X242720000Y-175980000D02*
X242720000Y-175690000D01*
X56500000Y-238200000D02*
X56720000Y-237980000D01*
X242500000Y-176200000D02*
X242720000Y-175980000D01*
X118720000Y-51980000D02*
X118720000Y-51690000D01*
%TD*%
D18*
X0Y0D02*
X300000000Y0D01*
X300000000Y-300000000D01*
X0Y-300000000D01*
X0Y0D01*
M02*
